<?xml version="1.0" encoding="UTF-8" standalone="no"?><svg xmlns="http://www.w3.org/2000/svg" xmlns:xlink="http://www.w3.org/1999/xlink" contentStyleType="text/css" height="509px" preserveAspectRatio="none" style="width:794px;height:509px;background:#FFFFFF;" version="1.1" viewBox="0 0 794 509" width="794px" zoomAndPan="magnify"><defs/><g><!--MD5=[c8948ff3b85f2fe890b517bc42f92cc2]
class connect4--><g id="elem_connect4"><rect codeLine="2" fill="#F1F1F1" height="100.8281" id="connect4" rx="2.5" ry="2.5" style="stroke:#181818;stroke-width:0.5;" width="105" x="379" y="7"/><ellipse cx="400.75" cy="23" fill="#ADD1B2" rx="11" ry="11" style="stroke:#181818;stroke-width:1.0;"/><path d="M403.5156,18.875 Q403.6719,18.6563 403.8594,18.5469 Q404.0469,18.4375 404.2656,18.4375 Q404.6406,18.4375 404.875,18.7031 Q405.1094,18.9531 405.1094,19.5625 L405.1094,21.0156 Q405.1094,21.625 404.875,21.8906 Q404.6406,22.1563 404.2656,22.1563 Q403.9219,22.1563 403.7188,21.9531 Q403.5156,21.7656 403.4063,21.25 Q403.3594,20.8906 403.1719,20.7031 Q402.8438,20.3281 402.2344,20.1094 Q401.625,19.8906 401,19.8906 Q400.2344,19.8906 399.5938,20.2188 Q398.9688,20.5469 398.4688,21.2969 Q397.9844,22.0469 397.9844,23.0781 L397.9844,24.1719 Q397.9844,25.4063 398.875,26.2344 Q399.7656,27.0469 401.3594,27.0469 Q402.2969,27.0469 402.9531,26.7969 Q403.3438,26.6406 403.7656,26.2031 Q404.0313,25.9375 404.1719,25.8594 Q404.3281,25.7813 404.5313,25.7813 Q404.8594,25.7813 405.1094,26.0469 Q405.375,26.2969 405.375,26.6406 Q405.375,26.9844 405.0313,27.3906 Q404.5313,27.9688 403.7344,28.2969 Q402.6563,28.75 401.3594,28.75 Q399.8438,28.75 398.6406,28.125 Q397.6563,27.625 396.9688,26.5625 Q396.2813,25.4844 396.2813,24.2031 L396.2813,23.0469 Q396.2813,21.7188 396.8906,20.5781 Q397.5156,19.4219 398.6094,18.8125 Q399.7031,18.1875 400.9375,18.1875 Q401.6719,18.1875 402.3125,18.3594 Q402.9688,18.5156 403.5156,18.875 Z " fill="#000000"/><text fill="#000000" font-family="sans-serif" font-size="14" lengthAdjust="spacing" textLength="58" x="416.25" y="28.7285">connect4</text><line style="stroke:#181818;stroke-width:0.5;" x1="380" x2="483" y1="39" y2="39"/><rect fill="none" height="6" style="stroke:#C82930;stroke-width:1.0;" width="6" x="387" y="50.3047"/><text fill="#000000" font-family="sans-serif" font-size="14" lengthAdjust="spacing" textLength="66" x="399" y="57.5332">boardView</text><rect fill="none" height="6" style="stroke:#C82930;stroke-width:1.0;" width="6" x="387" y="67.9141"/><text fill="#000000" font-family="sans-serif" font-size="14" lengthAdjust="spacing" textLength="79" x="399" y="75.1426">yesNoDialog</text><line style="stroke:#181818;stroke-width:0.5;" x1="380" x2="483" y1="82.2188" y2="82.2188"/><ellipse cx="390" cy="96.5234" fill="#84BE84" rx="3" ry="3" style="stroke:#038048;stroke-width:1.0;"/><text fill="#000000" font-family="sans-serif" font-size="14" lengthAdjust="spacing" textLength="74" x="399" y="100.752">playGame()</text></g><!--MD5=[cadc920c85e4c9f5726794155a350ca6]
class yesNoDialogView--><g id="elem_yesNoDialogView"><rect codeLine="7" fill="#F1F1F1" height="83.2188" id="yesNoDialogView" rx="2.5" ry="2.5" style="stroke:#181818;stroke-width:0.5;" width="140" x="238.5" y="168"/><ellipse cx="253.5" cy="184" fill="#ADD1B2" rx="11" ry="11" style="stroke:#181818;stroke-width:1.0;"/><path d="M256.2656,179.875 Q256.4219,179.6563 256.6094,179.5469 Q256.7969,179.4375 257.0156,179.4375 Q257.3906,179.4375 257.625,179.7031 Q257.8594,179.9531 257.8594,180.5625 L257.8594,182.0156 Q257.8594,182.625 257.625,182.8906 Q257.3906,183.1563 257.0156,183.1563 Q256.6719,183.1563 256.4688,182.9531 Q256.2656,182.7656 256.1563,182.25 Q256.1094,181.8906 255.9219,181.7031 Q255.5938,181.3281 254.9844,181.1094 Q254.375,180.8906 253.75,180.8906 Q252.9844,180.8906 252.3438,181.2188 Q251.7188,181.5469 251.2188,182.2969 Q250.7344,183.0469 250.7344,184.0781 L250.7344,185.1719 Q250.7344,186.4063 251.625,187.2344 Q252.5156,188.0469 254.1094,188.0469 Q255.0469,188.0469 255.7031,187.7969 Q256.0938,187.6406 256.5156,187.2031 Q256.7813,186.9375 256.9219,186.8594 Q257.0781,186.7813 257.2813,186.7813 Q257.6094,186.7813 257.8594,187.0469 Q258.125,187.2969 258.125,187.6406 Q258.125,187.9844 257.7813,188.3906 Q257.2813,188.9688 256.4844,189.2969 Q255.4063,189.75 254.1094,189.75 Q252.5938,189.75 251.3906,189.125 Q250.4063,188.625 249.7188,187.5625 Q249.0313,186.4844 249.0313,185.2031 L249.0313,184.0469 Q249.0313,182.7188 249.6406,181.5781 Q250.2656,180.4219 251.3594,179.8125 Q252.4531,179.1875 253.6875,179.1875 Q254.4219,179.1875 255.0625,179.3594 Q255.7188,179.5156 256.2656,179.875 Z " fill="#000000"/><text fill="#000000" font-family="sans-serif" font-size="14" lengthAdjust="spacing" textLength="108" x="267.5" y="189.7285">yesNoDialogView</text><line style="stroke:#181818;stroke-width:0.5;" x1="239.5" x2="377.5" y1="200" y2="200"/><line style="stroke:#181818;stroke-width:0.5;" x1="239.5" x2="377.5" y1="208" y2="208"/><ellipse cx="249.5" cy="222.3047" fill="#84BE84" rx="3" ry="3" style="stroke:#038048;stroke-width:1.0;"/><text fill="#000000" font-family="sans-serif" font-size="14" lengthAdjust="spacing" textLength="96" x="258.5" y="226.5332">read(message)</text><ellipse cx="249.5" cy="239.9141" fill="#84BE84" rx="3" ry="3" style="stroke:#038048;stroke-width:1.0;"/><text fill="#000000" font-family="sans-serif" font-size="14" lengthAdjust="spacing" textLength="86" x="258.5" y="244.1426">isAffirmative()</text></g><!--MD5=[52db4f3417fe21932e78112982f89a2b]
class createGame--><g id="elem_createGame"><rect codeLine="12" fill="#F1F1F1" height="48" id="createGame" rx="2.5" ry="2.5" style="stroke:#181818;stroke-width:0.5;" width="110" x="508.5" y="185.5"/><ellipse cx="523.5" cy="201.5" fill="#ADD1B2" rx="11" ry="11" style="stroke:#181818;stroke-width:1.0;"/><path d="M526.2656,197.375 Q526.4219,197.1563 526.6094,197.0469 Q526.7969,196.9375 527.0156,196.9375 Q527.3906,196.9375 527.625,197.2031 Q527.8594,197.4531 527.8594,198.0625 L527.8594,199.5156 Q527.8594,200.125 527.625,200.3906 Q527.3906,200.6563 527.0156,200.6563 Q526.6719,200.6563 526.4688,200.4531 Q526.2656,200.2656 526.1563,199.75 Q526.1094,199.3906 525.9219,199.2031 Q525.5938,198.8281 524.9844,198.6094 Q524.375,198.3906 523.75,198.3906 Q522.9844,198.3906 522.3438,198.7188 Q521.7188,199.0469 521.2188,199.7969 Q520.7344,200.5469 520.7344,201.5781 L520.7344,202.6719 Q520.7344,203.9063 521.625,204.7344 Q522.5156,205.5469 524.1094,205.5469 Q525.0469,205.5469 525.7031,205.2969 Q526.0938,205.1406 526.5156,204.7031 Q526.7813,204.4375 526.9219,204.3594 Q527.0781,204.2813 527.2813,204.2813 Q527.6094,204.2813 527.8594,204.5469 Q528.125,204.7969 528.125,205.1406 Q528.125,205.4844 527.7813,205.8906 Q527.2813,206.4688 526.4844,206.7969 Q525.4063,207.25 524.1094,207.25 Q522.5938,207.25 521.3906,206.625 Q520.4063,206.125 519.7188,205.0625 Q519.0313,203.9844 519.0313,202.7031 L519.0313,201.5469 Q519.0313,200.2188 519.6406,199.0781 Q520.2656,197.9219 521.3594,197.3125 Q522.4531,196.6875 523.6875,196.6875 Q524.4219,196.6875 525.0625,196.8594 Q525.7188,197.0156 526.2656,197.375 Z " fill="#000000"/><text fill="#000000" font-family="sans-serif" font-size="14" lengthAdjust="spacing" textLength="78" x="537.5" y="207.2285">createGame</text><line style="stroke:#181818;stroke-width:0.5;" x1="509.5" x2="617.5" y1="217.5" y2="217.5"/><line style="stroke:#181818;stroke-width:0.5;" x1="509.5" x2="617.5" y1="225.5" y2="225.5"/></g><!--MD5=[49b5c7ddc8cb049489daf5624ac3de95]
class createGameView--><g id="elem_createGameView"><rect codeLine="16" fill="#F1F1F1" height="48" id="createGameView" rx="2.5" ry="2.5" style="stroke:#181818;stroke-width:0.5;" width="139" x="350" y="311"/><ellipse cx="365" cy="327" fill="#ADD1B2" rx="11" ry="11" style="stroke:#181818;stroke-width:1.0;"/><path d="M367.7656,322.875 Q367.9219,322.6563 368.1094,322.5469 Q368.2969,322.4375 368.5156,322.4375 Q368.8906,322.4375 369.125,322.7031 Q369.3594,322.9531 369.3594,323.5625 L369.3594,325.0156 Q369.3594,325.625 369.125,325.8906 Q368.8906,326.1563 368.5156,326.1563 Q368.1719,326.1563 367.9688,325.9531 Q367.7656,325.7656 367.6563,325.25 Q367.6094,324.8906 367.4219,324.7031 Q367.0938,324.3281 366.4844,324.1094 Q365.875,323.8906 365.25,323.8906 Q364.4844,323.8906 363.8438,324.2188 Q363.2188,324.5469 362.7188,325.2969 Q362.2344,326.0469 362.2344,327.0781 L362.2344,328.1719 Q362.2344,329.4063 363.125,330.2344 Q364.0156,331.0469 365.6094,331.0469 Q366.5469,331.0469 367.2031,330.7969 Q367.5938,330.6406 368.0156,330.2031 Q368.2813,329.9375 368.4219,329.8594 Q368.5781,329.7813 368.7813,329.7813 Q369.1094,329.7813 369.3594,330.0469 Q369.625,330.2969 369.625,330.6406 Q369.625,330.9844 369.2813,331.3906 Q368.7813,331.9688 367.9844,332.2969 Q366.9063,332.75 365.6094,332.75 Q364.0938,332.75 362.8906,332.125 Q361.9063,331.625 361.2188,330.5625 Q360.5313,329.4844 360.5313,328.2031 L360.5313,327.0469 Q360.5313,325.7188 361.1406,324.5781 Q361.7656,323.4219 362.8594,322.8125 Q363.9531,322.1875 365.1875,322.1875 Q365.9219,322.1875 366.5625,322.3594 Q367.2188,322.5156 367.7656,322.875 Z " fill="#000000"/><text fill="#000000" font-family="sans-serif" font-size="14" lengthAdjust="spacing" textLength="107" x="379" y="332.7285">createGameView</text><line style="stroke:#181818;stroke-width:0.5;" x1="351" x2="488" y1="343" y2="343"/><line style="stroke:#181818;stroke-width:0.5;" x1="351" x2="488" y1="351" y2="351"/></g><!--MD5=[ae064150324150d7e74787065186fa4d]
class createBoardView--><g id="elem_createBoardView"><rect codeLine="21" fill="#F1F1F1" height="48" id="createBoardView" rx="2.5" ry="2.5" style="stroke:#181818;stroke-width:0.5;" width="139" x="7" y="436.5"/><ellipse cx="22" cy="452.5" fill="#ADD1B2" rx="11" ry="11" style="stroke:#181818;stroke-width:1.0;"/><path d="M24.7656,448.375 Q24.9219,448.1563 25.1094,448.0469 Q25.2969,447.9375 25.5156,447.9375 Q25.8906,447.9375 26.125,448.2031 Q26.3594,448.4531 26.3594,449.0625 L26.3594,450.5156 Q26.3594,451.125 26.125,451.3906 Q25.8906,451.6563 25.5156,451.6563 Q25.1719,451.6563 24.9688,451.4531 Q24.7656,451.2656 24.6563,450.75 Q24.6094,450.3906 24.4219,450.2031 Q24.0938,449.8281 23.4844,449.6094 Q22.875,449.3906 22.25,449.3906 Q21.4844,449.3906 20.8438,449.7188 Q20.2188,450.0469 19.7188,450.7969 Q19.2344,451.5469 19.2344,452.5781 L19.2344,453.6719 Q19.2344,454.9063 20.125,455.7344 Q21.0156,456.5469 22.6094,456.5469 Q23.5469,456.5469 24.2031,456.2969 Q24.5938,456.1406 25.0156,455.7031 Q25.2813,455.4375 25.4219,455.3594 Q25.5781,455.2813 25.7813,455.2813 Q26.1094,455.2813 26.3594,455.5469 Q26.625,455.7969 26.625,456.1406 Q26.625,456.4844 26.2813,456.8906 Q25.7813,457.4688 24.9844,457.7969 Q23.9063,458.25 22.6094,458.25 Q21.0938,458.25 19.8906,457.625 Q18.9063,457.125 18.2188,456.0625 Q17.5313,454.9844 17.5313,453.7031 L17.5313,452.5469 Q17.5313,451.2188 18.1406,450.0781 Q18.7656,448.9219 19.8594,448.3125 Q20.9531,447.6875 22.1875,447.6875 Q22.9219,447.6875 23.5625,447.8594 Q24.2188,448.0156 24.7656,448.375 Z " fill="#000000"/><text fill="#000000" font-family="sans-serif" font-size="14" lengthAdjust="spacing" textLength="107" x="36" y="458.2285">createBoardView</text><line style="stroke:#181818;stroke-width:0.5;" x1="8" x2="145" y1="468.5" y2="468.5"/><line style="stroke:#181818;stroke-width:0.5;" x1="8" x2="145" y1="476.5" y2="476.5"/></g><!--MD5=[7809b369c3a27ebb407e23583621e9fd]
class createTurn--><g id="elem_createTurn"><rect codeLine="25" fill="#F1F1F1" height="48" id="createTurn" rx="2.5" ry="2.5" style="stroke:#181818;stroke-width:0.5;" width="102" x="524.5" y="311"/><ellipse cx="539.5" cy="327" fill="#ADD1B2" rx="11" ry="11" style="stroke:#181818;stroke-width:1.0;"/><path d="M542.2656,322.875 Q542.4219,322.6563 542.6094,322.5469 Q542.7969,322.4375 543.0156,322.4375 Q543.3906,322.4375 543.625,322.7031 Q543.8594,322.9531 543.8594,323.5625 L543.8594,325.0156 Q543.8594,325.625 543.625,325.8906 Q543.3906,326.1563 543.0156,326.1563 Q542.6719,326.1563 542.4688,325.9531 Q542.2656,325.7656 542.1563,325.25 Q542.1094,324.8906 541.9219,324.7031 Q541.5938,324.3281 540.9844,324.1094 Q540.375,323.8906 539.75,323.8906 Q538.9844,323.8906 538.3438,324.2188 Q537.7188,324.5469 537.2188,325.2969 Q536.7344,326.0469 536.7344,327.0781 L536.7344,328.1719 Q536.7344,329.4063 537.625,330.2344 Q538.5156,331.0469 540.1094,331.0469 Q541.0469,331.0469 541.7031,330.7969 Q542.0938,330.6406 542.5156,330.2031 Q542.7813,329.9375 542.9219,329.8594 Q543.0781,329.7813 543.2813,329.7813 Q543.6094,329.7813 543.8594,330.0469 Q544.125,330.2969 544.125,330.6406 Q544.125,330.9844 543.7813,331.3906 Q543.2813,331.9688 542.4844,332.2969 Q541.4063,332.75 540.1094,332.75 Q538.5938,332.75 537.3906,332.125 Q536.4063,331.625 535.7188,330.5625 Q535.0313,329.4844 535.0313,328.2031 L535.0313,327.0469 Q535.0313,325.7188 535.6406,324.5781 Q536.2656,323.4219 537.3594,322.8125 Q538.4531,322.1875 539.6875,322.1875 Q540.4219,322.1875 541.0625,322.3594 Q541.7188,322.5156 542.2656,322.875 Z " fill="#000000"/><text fill="#000000" font-family="sans-serif" font-size="14" lengthAdjust="spacing" textLength="70" x="553.5" y="332.7285">createTurn</text><line style="stroke:#181818;stroke-width:0.5;" x1="525.5" x2="625.5" y1="343" y2="343"/><line style="stroke:#181818;stroke-width:0.5;" x1="525.5" x2="625.5" y1="351" y2="351"/></g><!--MD5=[31dc5459f0bdc0261dec5ebf712cc6c3]
class createTurnView--><g id="elem_createTurnView"><rect codeLine="29" fill="#F1F1F1" height="48" id="createTurnView" rx="2.5" ry="2.5" style="stroke:#181818;stroke-width:0.5;" width="131" x="181" y="436.5"/><ellipse cx="196" cy="452.5" fill="#ADD1B2" rx="11" ry="11" style="stroke:#181818;stroke-width:1.0;"/><path d="M198.7656,448.375 Q198.9219,448.1563 199.1094,448.0469 Q199.2969,447.9375 199.5156,447.9375 Q199.8906,447.9375 200.125,448.2031 Q200.3594,448.4531 200.3594,449.0625 L200.3594,450.5156 Q200.3594,451.125 200.125,451.3906 Q199.8906,451.6563 199.5156,451.6563 Q199.1719,451.6563 198.9688,451.4531 Q198.7656,451.2656 198.6563,450.75 Q198.6094,450.3906 198.4219,450.2031 Q198.0938,449.8281 197.4844,449.6094 Q196.875,449.3906 196.25,449.3906 Q195.4844,449.3906 194.8438,449.7188 Q194.2188,450.0469 193.7188,450.7969 Q193.2344,451.5469 193.2344,452.5781 L193.2344,453.6719 Q193.2344,454.9063 194.125,455.7344 Q195.0156,456.5469 196.6094,456.5469 Q197.5469,456.5469 198.2031,456.2969 Q198.5938,456.1406 199.0156,455.7031 Q199.2813,455.4375 199.4219,455.3594 Q199.5781,455.2813 199.7813,455.2813 Q200.1094,455.2813 200.3594,455.5469 Q200.625,455.7969 200.625,456.1406 Q200.625,456.4844 200.2813,456.8906 Q199.7813,457.4688 198.9844,457.7969 Q197.9063,458.25 196.6094,458.25 Q195.0938,458.25 193.8906,457.625 Q192.9063,457.125 192.2188,456.0625 Q191.5313,454.9844 191.5313,453.7031 L191.5313,452.5469 Q191.5313,451.2188 192.1406,450.0781 Q192.7656,448.9219 193.8594,448.3125 Q194.9531,447.6875 196.1875,447.6875 Q196.9219,447.6875 197.5625,447.8594 Q198.2188,448.0156 198.7656,448.375 Z " fill="#000000"/><text fill="#000000" font-family="sans-serif" font-size="14" lengthAdjust="spacing" textLength="99" x="210" y="458.2285">createTurnView</text><line style="stroke:#181818;stroke-width:0.5;" x1="182" x2="311" y1="468.5" y2="468.5"/><line style="stroke:#181818;stroke-width:0.5;" x1="182" x2="311" y1="476.5" y2="476.5"/></g><!--MD5=[97fa9d529dfc3685b4d5dc6fdf30b1fb]
class createMessageView--><g id="elem_createMessageView"><rect codeLine="34" fill="#F1F1F1" height="48" id="createMessageView" rx="2.5" ry="2.5" style="stroke:#181818;stroke-width:0.5;" width="158" x="347.5" y="436.5"/><ellipse cx="362.5" cy="452.5" fill="#ADD1B2" rx="11" ry="11" style="stroke:#181818;stroke-width:1.0;"/><path d="M365.2656,448.375 Q365.4219,448.1563 365.6094,448.0469 Q365.7969,447.9375 366.0156,447.9375 Q366.3906,447.9375 366.625,448.2031 Q366.8594,448.4531 366.8594,449.0625 L366.8594,450.5156 Q366.8594,451.125 366.625,451.3906 Q366.3906,451.6563 366.0156,451.6563 Q365.6719,451.6563 365.4688,451.4531 Q365.2656,451.2656 365.1563,450.75 Q365.1094,450.3906 364.9219,450.2031 Q364.5938,449.8281 363.9844,449.6094 Q363.375,449.3906 362.75,449.3906 Q361.9844,449.3906 361.3438,449.7188 Q360.7188,450.0469 360.2188,450.7969 Q359.7344,451.5469 359.7344,452.5781 L359.7344,453.6719 Q359.7344,454.9063 360.625,455.7344 Q361.5156,456.5469 363.1094,456.5469 Q364.0469,456.5469 364.7031,456.2969 Q365.0938,456.1406 365.5156,455.7031 Q365.7813,455.4375 365.9219,455.3594 Q366.0781,455.2813 366.2813,455.2813 Q366.6094,455.2813 366.8594,455.5469 Q367.125,455.7969 367.125,456.1406 Q367.125,456.4844 366.7813,456.8906 Q366.2813,457.4688 365.4844,457.7969 Q364.4063,458.25 363.1094,458.25 Q361.5938,458.25 360.3906,457.625 Q359.4063,457.125 358.7188,456.0625 Q358.0313,454.9844 358.0313,453.7031 L358.0313,452.5469 Q358.0313,451.2188 358.6406,450.0781 Q359.2656,448.9219 360.3594,448.3125 Q361.4531,447.6875 362.6875,447.6875 Q363.4219,447.6875 364.0625,447.8594 Q364.7188,448.0156 365.2656,448.375 Z " fill="#000000"/><text fill="#000000" font-family="sans-serif" font-size="14" lengthAdjust="spacing" textLength="126" x="376.5" y="458.2285">createMessageView</text><line style="stroke:#181818;stroke-width:0.5;" x1="348.5" x2="504.5" y1="468.5" y2="468.5"/><line style="stroke:#181818;stroke-width:0.5;" x1="348.5" x2="504.5" y1="476.5" y2="476.5"/></g><!--MD5=[cacfe755dff56aeea6d2ef322af7bef7]
class createCoordinate--><g id="elem_createCoordinate"><rect codeLine="38" fill="#F1F1F1" height="48" id="createCoordinate" rx="2.5" ry="2.5" style="stroke:#181818;stroke-width:0.5;" width="142" x="645.5" y="436.5"/><ellipse cx="660.5" cy="452.5" fill="#ADD1B2" rx="11" ry="11" style="stroke:#181818;stroke-width:1.0;"/><path d="M663.2656,448.375 Q663.4219,448.1563 663.6094,448.0469 Q663.7969,447.9375 664.0156,447.9375 Q664.3906,447.9375 664.625,448.2031 Q664.8594,448.4531 664.8594,449.0625 L664.8594,450.5156 Q664.8594,451.125 664.625,451.3906 Q664.3906,451.6563 664.0156,451.6563 Q663.6719,451.6563 663.4688,451.4531 Q663.2656,451.2656 663.1563,450.75 Q663.1094,450.3906 662.9219,450.2031 Q662.5938,449.8281 661.9844,449.6094 Q661.375,449.3906 660.75,449.3906 Q659.9844,449.3906 659.3438,449.7188 Q658.7188,450.0469 658.2188,450.7969 Q657.7344,451.5469 657.7344,452.5781 L657.7344,453.6719 Q657.7344,454.9063 658.625,455.7344 Q659.5156,456.5469 661.1094,456.5469 Q662.0469,456.5469 662.7031,456.2969 Q663.0938,456.1406 663.5156,455.7031 Q663.7813,455.4375 663.9219,455.3594 Q664.0781,455.2813 664.2813,455.2813 Q664.6094,455.2813 664.8594,455.5469 Q665.125,455.7969 665.125,456.1406 Q665.125,456.4844 664.7813,456.8906 Q664.2813,457.4688 663.4844,457.7969 Q662.4063,458.25 661.1094,458.25 Q659.5938,458.25 658.3906,457.625 Q657.4063,457.125 656.7188,456.0625 Q656.0313,454.9844 656.0313,453.7031 L656.0313,452.5469 Q656.0313,451.2188 656.6406,450.0781 Q657.2656,448.9219 658.3594,448.3125 Q659.4531,447.6875 660.6875,447.6875 Q661.4219,447.6875 662.0625,447.8594 Q662.7188,448.0156 663.2656,448.375 Z " fill="#000000"/><text fill="#000000" font-family="sans-serif" font-size="14" lengthAdjust="spacing" textLength="110" x="674.5" y="458.2285">createCoordinate</text><line style="stroke:#181818;stroke-width:0.5;" x1="646.5" x2="786.5" y1="468.5" y2="468.5"/><line style="stroke:#181818;stroke-width:0.5;" x1="646.5" x2="786.5" y1="476.5" y2="476.5"/></g><!--MD5=[b79a6dbdb435efa72378790761c8d246]
class colors--><g id="elem_colors"><rect codeLine="42" fill="#F1F1F1" height="83.2188" id="colors" rx="2.5" ry="2.5" style="stroke:#181818;stroke-width:0.5;" width="70" x="540.5" y="419"/><ellipse cx="555.5" cy="435" fill="#EB937F" rx="11" ry="11" style="stroke:#181818;stroke-width:1.0;"/><path d="M554.3594,435.7969 L554.3594,438.2969 L558.6875,438.2969 L558.6875,437.375 Q558.6875,436.7656 558.9219,436.5 Q559.1719,436.2344 559.5469,436.2344 Q559.9219,436.2344 560.1563,436.5 Q560.3906,436.7656 560.3906,437.375 L560.3906,440 L552.3906,440 Q551.7656,440 551.5,439.7656 Q551.25,439.5313 551.25,439.1406 Q551.25,438.7656 551.5156,438.5313 Q551.7813,438.2969 552.3906,438.2969 L552.6563,438.2969 L552.6563,431.6406 L552.3906,431.6406 Q551.7656,431.6406 551.5,431.4063 Q551.25,431.1719 551.25,430.7813 Q551.25,430.4063 551.5,430.1719 Q551.7656,429.9375 552.3906,429.9375 L560.0156,429.9375 L560.0156,432.5313 Q560.0156,433.1406 559.7813,433.4063 Q559.5625,433.6563 559.1719,433.6563 Q558.7969,433.6563 558.5625,433.4063 Q558.3281,433.1406 558.3281,432.5313 L558.3281,431.6406 L554.3594,431.6406 L554.3594,434.0938 L555.8438,434.0938 Q555.8438,433.4375 555.9688,433.25 Q556.2344,432.8438 556.7031,432.8438 Q557.0781,432.8438 557.3125,433.1094 Q557.5469,433.3594 557.5469,433.9688 L557.5469,435.9375 Q557.5469,436.4844 557.4219,436.6719 Q557.1563,437.0625 556.7031,437.0625 Q556.2344,437.0625 555.9688,436.6563 Q555.8438,436.4688 555.8438,435.7969 L554.3594,435.7969 Z " fill="#000000"/><text fill="#000000" font-family="sans-serif" font-size="14" lengthAdjust="spacing" textLength="38" x="569.5" y="440.7285">colors</text><line style="stroke:#181818;stroke-width:0.5;" x1="541.5" x2="609.5" y1="451" y2="451"/><text fill="#000000" font-family="sans-serif" font-size="14" lengthAdjust="spacing" textLength="26" x="546.5" y="469.5332">Red</text><text fill="#000000" font-family="sans-serif" font-size="14" lengthAdjust="spacing" textLength="40" x="546.5" y="487.1426">Yellow</text><line style="stroke:#181818;stroke-width:0.5;" x1="541.5" x2="609.5" y1="494.2188" y2="494.2188"/></g><!--MD5=[b7e8e7f8cd2556cb86ef97067eda93f4]
class createBoard--><g id="elem_createBoard"><rect fill="#F1F1F1" height="48" id="createBoard" rx="2.5" ry="2.5" style="stroke:#181818;stroke-width:0.5;" width="110" x="661.5" y="311"/><ellipse cx="676.5" cy="327" fill="#ADD1B2" rx="11" ry="11" style="stroke:#181818;stroke-width:1.0;"/><path d="M679.2656,322.875 Q679.4219,322.6563 679.6094,322.5469 Q679.7969,322.4375 680.0156,322.4375 Q680.3906,322.4375 680.625,322.7031 Q680.8594,322.9531 680.8594,323.5625 L680.8594,325.0156 Q680.8594,325.625 680.625,325.8906 Q680.3906,326.1563 680.0156,326.1563 Q679.6719,326.1563 679.4688,325.9531 Q679.2656,325.7656 679.1563,325.25 Q679.1094,324.8906 678.9219,324.7031 Q678.5938,324.3281 677.9844,324.1094 Q677.375,323.8906 676.75,323.8906 Q675.9844,323.8906 675.3438,324.2188 Q674.7188,324.5469 674.2188,325.2969 Q673.7344,326.0469 673.7344,327.0781 L673.7344,328.1719 Q673.7344,329.4063 674.625,330.2344 Q675.5156,331.0469 677.1094,331.0469 Q678.0469,331.0469 678.7031,330.7969 Q679.0938,330.6406 679.5156,330.2031 Q679.7813,329.9375 679.9219,329.8594 Q680.0781,329.7813 680.2813,329.7813 Q680.6094,329.7813 680.8594,330.0469 Q681.125,330.2969 681.125,330.6406 Q681.125,330.9844 680.7813,331.3906 Q680.2813,331.9688 679.4844,332.2969 Q678.4063,332.75 677.1094,332.75 Q675.5938,332.75 674.3906,332.125 Q673.4063,331.625 672.7188,330.5625 Q672.0313,329.4844 672.0313,328.2031 L672.0313,327.0469 Q672.0313,325.7188 672.6406,324.5781 Q673.2656,323.4219 674.3594,322.8125 Q675.4531,322.1875 676.6875,322.1875 Q677.4219,322.1875 678.0625,322.3594 Q678.7188,322.5156 679.2656,322.875 Z " fill="#000000"/><text fill="#000000" font-family="sans-serif" font-size="14" lengthAdjust="spacing" textLength="78" x="690.5" y="332.7285">createBoard</text><line style="stroke:#181818;stroke-width:0.5;" x1="662.5" x2="770.5" y1="343" y2="343"/><line style="stroke:#181818;stroke-width:0.5;" x1="662.5" x2="770.5" y1="351" y2="351"/></g><!--MD5=[f466d7893f3afed6a957d6be4a37dba3]
link connect4 to yesNoDialogView--><g id="link_connect4_yesNoDialogView"><path codeLine="48" d="M390.88,108.03 C376.18,125.96 359.67,146.09 345.32,163.6 " fill="none" id="connect4-to-yesNoDialogView" style="stroke:#181818;stroke-width:1.0;stroke-dasharray:7.0,7.0;"/><polygon fill="#181818" points="342.1,167.53,350.8976,163.1026,345.2685,163.6621,344.709,158.033,342.1,167.53" style="stroke:#181818;stroke-width:1.0;"/></g><!--MD5=[ea84190eeea8c138bdee6014a86d54e0]
link connect4 to createGame--><g id="link_connect4_createGame"><path codeLine="49" d="M483.0247,117.0323 C483.0247,117.0323 519.66,158.69 534.52,175.56 " fill="none" id="connect4-createGame" style="stroke:#181818;stroke-width:1.0;"/><polygon fill="#181818" points="543.24,185.48,540.2975,176.081,539.937,181.7263,534.2916,181.3658,543.24,185.48" style="stroke:#181818;stroke-width:1.0;"/><line style="stroke:#181818;stroke-width:1.0;" x1="539.937" x2="534.655" y1="181.7263" y2="175.715"/><polygon fill="#181818" points="475.09,108.03,476.0566,115.176,483.0247,117.0323,482.0581,109.8863,475.09,108.03" style="stroke:#181818;stroke-width:1.0;"/></g><!--MD5=[ec1ece994f3ada0107ff17c3b0f121fd]
link connect4 to createGameView--><g id="link_connect4_createGameView"><path codeLine="50" d="M428.8125,120.0584 C428.8125,120.0584 423.03,252.97 421.08,297.81 " fill="none" id="connect4-createGameView" style="stroke:#181818;stroke-width:1.0;"/><polygon fill="#181818" points="420.51,310.9,424.9018,302.0845,420.7298,305.9048,416.9095,301.7329,420.51,310.9" style="stroke:#181818;stroke-width:1.0;"/><line style="stroke:#181818;stroke-width:1.0;" x1="420.7298" x2="421.075" y1="305.9048" y2="297.91"/><polygon fill="#181818" points="429.34,108.07,425.0801,113.8884,428.8125,120.0584,433.0724,114.24,429.34,108.07" style="stroke:#181818;stroke-width:1.0;"/></g><!--MD5=[64c09d77df9a907eeb4f92f38f173d12]
link createGame to createBoard--><g id="link_createGame_createBoard"><path codeLine="51" d="M592.28,233.73 C618.35,254.77 656.73,285.76 683.92,307.7 " fill="none" id="createGame-to-createBoard" style="stroke:#181818;stroke-width:1.0;"/><polygon fill="#181818" points="687.85,310.87,683.3522,302.1082,683.9568,307.7326,678.3324,308.3373,687.85,310.87" style="stroke:#181818;stroke-width:1.0;"/></g><!--MD5=[3a929eb252fb8d357e612e1b792cac90]
link createGame to createTurn--><g id="link_createGame_createTurn"><path codeLine="52" d="M565.76,233.73 C567.74,254.17 570.64,283.99 572.76,305.79 " fill="none" id="createGame-to-createTurn" style="stroke:#181818;stroke-width:1.0;"/><polygon fill="#181818" points="573.25,310.87,576.3559,301.5237,572.7638,305.8937,568.3938,302.3016,573.25,310.87" style="stroke:#181818;stroke-width:1.0;"/></g><!--MD5=[a2c90735ae535bc04173699571616d39]
link createGame to createGameView--><g id="link_createGame_createGameView"><path codeLine="55" d="M536.41,233.73 C511.98,254.69 476.05,285.5 450.48,307.43 " fill="none" id="createGame-to-createGameView" style="stroke:#181818;stroke-width:1.0;"/><polygon fill="#181818" points="446.46,310.87,455.8965,308.0499,450.2563,307.616,450.6901,301.9759,446.46,310.87" style="stroke:#181818;stroke-width:1.0;"/></g><!--MD5=[b924e8614d8805ae5029d930c205331b]
link createGameView to createBoardView--><g id="link_createGameView_createBoardView"><path codeLine="56" d="M338.4823,359.4987 C338.4823,359.4987 220.72,396.5 163.5,419 C154.34,422.6 144.77,426.7 135.47,430.87 " fill="none" id="createGameView-createBoardView" style="stroke:#181818;stroke-width:1.0;"/><polygon fill="#181818" points="123.45,436.37,133.2983,436.2613,127.9964,434.289,129.9687,428.9871,123.45,436.37" style="stroke:#181818;stroke-width:1.0;"/><line style="stroke:#181818;stroke-width:1.0;" x1="127.9964" x2="135.275" y1="434.289" y2="430.96"/><polygon fill="none" points="349.97,356.03,343.0699,353.9351,338.4823,359.4987,345.3824,361.5936,349.97,356.03" style="stroke:#181818;stroke-width:1.0;"/></g><!--MD5=[4b32d2bb8083a1264e92add2b308ddf8]
link createGameView to createTurnView--><g id="link_createGameView_createTurnView"><path codeLine="57" d="M377.1872,366.1936 C377.1872,366.1936 316.17,409.76 289.74,428.63 " fill="none" id="createGameView-createTurnView" style="stroke:#181818;stroke-width:1.0;"/><polygon fill="#181818" points="278.89,436.37,288.5378,434.3901,282.9576,433.4622,283.8854,427.882,278.89,436.37" style="stroke:#181818;stroke-width:1.0;"/><line style="stroke:#181818;stroke-width:1.0;" x1="282.9576" x2="289.475" y1="433.4622" y2="428.82"/><polygon fill="none" points="386.96,359.23,379.7524,359.4542,377.1872,366.1936,384.3948,365.9694,386.96,359.23" style="stroke:#181818;stroke-width:1.0;"/></g><!--MD5=[c241becbc150a185ec2701c2468993b8]
link createGameView to createMessageView--><g id="link_createGameView_createMessageView"><path codeLine="58" d="M421.5053,371.2104 C421.5053,371.2104 423.53,407.14 424.44,423.15 " fill="none" id="createGameView-createMessageView" style="stroke:#181818;stroke-width:1.0;"/><polygon fill="#181818" points="425.19,436.37,428.6796,427.1601,424.9099,431.3779,420.6921,427.6082,425.19,436.37" style="stroke:#181818;stroke-width:1.0;"/><line style="stroke:#181818;stroke-width:1.0;" x1="424.9099" x2="424.455" y1="431.3779" y2="423.395"/><polygon fill="none" points="420.82,359.23,417.1692,365.4487,421.5053,371.2104,425.1561,364.9918,420.82,359.23" style="stroke:#181818;stroke-width:1.0;"/></g><!--MD5=[42a4b95ed3e8923cdf8c0ddb3f60d460]
link createBoard to createCoordinate--><g id="link_createBoard_createCoordinate"><path codeLine="60" d="M716.5,371.23 C716.5,371.23 716.5,407.14 716.5,423.15 " fill="none" id="createBoard-createCoordinate" style="stroke:#181818;stroke-width:1.0;"/><polygon fill="#181818" points="716.5,436.37,720.5,427.37,716.5,431.37,712.5,427.37,716.5,436.37" style="stroke:#181818;stroke-width:1.0;"/><line style="stroke:#181818;stroke-width:1.0;" x1="716.5" x2="716.5" y1="431.37" y2="423.37"/><polygon fill="#181818" points="716.5,359.23,712.5,365.23,716.5,371.23,720.5,365.23,716.5,359.23" style="stroke:#181818;stroke-width:1.0;"/></g><!--MD5=[d01fcd504ede8b974525d2fa59a24486]
link createTurn to colors--><g id="link_createTurn_colors"><path codeLine="62" d="M575.5,359.23 C575.5,374.56 575.5,395.16 575.5,413.7 " fill="none" id="createTurn-to-colors" style="stroke:#181818;stroke-width:1.0;"/><polygon fill="#181818" points="575.5,418.87,579.5,409.87,575.5,413.87,571.5,409.87,575.5,418.87" style="stroke:#181818;stroke-width:1.0;"/></g><!--MD5=[a46b97027add99b8a5919a18b52a0575]
@startuml

class connect4{
    - boardView
    - yesNoDialog
    + playGame()
}
class yesNoDialogView{
    + read(message)
    + isAffirmative()
}

class createGame{

}

class createGameView{

}


class createBoardView{

}

class createTurn{

}

class createTurnView{


}

class createMessageView{

}

class createCoordinate{

}

enum colors{
Red
Yellow
}


connect4 ..> yesNoDialogView
connect4 *- -> createGame
connect4 *- -> createGameView
createGame - -> createBoard
createGame - -> createTurn


createGame - -> createGameView
createGameView o- -> createBoardView
createGameView o- -> createTurnView
createGameView o- -> createMessageView

createBoard *- -> createCoordinate

createTurn - -> colors

@enduml

PlantUML version 1.2022.7(Mon Aug 22 19:01:30 CEST 2022)
(GPL source distribution)
Java Runtime: OpenJDK Runtime Environment
JVM: OpenJDK 64-Bit Server VM
Default Encoding: UTF-8
Language: es
Country: ES
--></g></svg>