<?xml version="1.0" encoding="UTF-8" standalone="no"?><svg xmlns="http://www.w3.org/2000/svg" xmlns:xlink="http://www.w3.org/1999/xlink" contentStyleType="text/css" height="1075px" preserveAspectRatio="none" style="width:735px;height:1075px;background:#FFFFFF;" version="1.1" viewBox="0 0 735 1075" width="735px" zoomAndPan="magnify"><defs/><g><!--MD5=[c8948ff3b85f2fe890b517bc42f92cc2]
class connect4--><g id="elem_connect4"><rect codeLine="2" fill="#F1F1F1" height="100.8281" id="connect4" rx="2.5" ry="2.5" style="stroke:#181818;stroke-width:0.5;" width="105" x="361.5" y="7"/><ellipse cx="383.25" cy="23" fill="#ADD1B2" rx="11" ry="11" style="stroke:#181818;stroke-width:1.0;"/><path d="M386.0156,18.875 Q386.1719,18.6563 386.3594,18.5469 Q386.5469,18.4375 386.7656,18.4375 Q387.1406,18.4375 387.375,18.7031 Q387.6094,18.9531 387.6094,19.5625 L387.6094,21.0156 Q387.6094,21.625 387.375,21.8906 Q387.1406,22.1563 386.7656,22.1563 Q386.4219,22.1563 386.2188,21.9531 Q386.0156,21.7656 385.9063,21.25 Q385.8594,20.8906 385.6719,20.7031 Q385.3438,20.3281 384.7344,20.1094 Q384.125,19.8906 383.5,19.8906 Q382.7344,19.8906 382.0938,20.2188 Q381.4688,20.5469 380.9688,21.2969 Q380.4844,22.0469 380.4844,23.0781 L380.4844,24.1719 Q380.4844,25.4063 381.375,26.2344 Q382.2656,27.0469 383.8594,27.0469 Q384.7969,27.0469 385.4531,26.7969 Q385.8438,26.6406 386.2656,26.2031 Q386.5313,25.9375 386.6719,25.8594 Q386.8281,25.7813 387.0313,25.7813 Q387.3594,25.7813 387.6094,26.0469 Q387.875,26.2969 387.875,26.6406 Q387.875,26.9844 387.5313,27.3906 Q387.0313,27.9688 386.2344,28.2969 Q385.1563,28.75 383.8594,28.75 Q382.3438,28.75 381.1406,28.125 Q380.1563,27.625 379.4688,26.5625 Q378.7813,25.4844 378.7813,24.2031 L378.7813,23.0469 Q378.7813,21.7188 379.3906,20.5781 Q380.0156,19.4219 381.1094,18.8125 Q382.2031,18.1875 383.4375,18.1875 Q384.1719,18.1875 384.8125,18.3594 Q385.4688,18.5156 386.0156,18.875 Z " fill="#000000"/><text fill="#000000" font-family="sans-serif" font-size="14" lengthAdjust="spacing" textLength="58" x="398.75" y="28.7285">connect4</text><line style="stroke:#181818;stroke-width:0.5;" x1="362.5" x2="465.5" y1="39" y2="39"/><rect fill="none" height="6" style="stroke:#C82930;stroke-width:1.0;" width="6" x="369.5" y="47"/><text fill="#000000" font-family="sans-serif" font-size="14" lengthAdjust="spacing" textLength="66" x="381.5" y="57.5332">boardView</text><rect fill="none" height="6" style="stroke:#C82930;stroke-width:1.0;" width="6" x="369.5" y="64.6094"/><text fill="#000000" font-family="sans-serif" font-size="14" lengthAdjust="spacing" textLength="79" x="381.5" y="75.1426">yesNoDialog</text><line style="stroke:#181818;stroke-width:0.5;" x1="362.5" x2="465.5" y1="82.2188" y2="82.2188"/><ellipse cx="372.5" cy="93.2188" fill="#84BE84" rx="3" ry="3" style="stroke:#038048;stroke-width:1.0;"/><text fill="#000000" font-family="sans-serif" font-size="14" lengthAdjust="spacing" textLength="74" x="381.5" y="100.752">playGame()</text></g><!--MD5=[9a248d0bf8eff2287ebd16a0f5c4d5d9]
class yesNoDialog--><g id="elem_yesNoDialog"><rect codeLine="7" fill="#F1F1F1" height="83.2188" id="yesNoDialog" rx="2.5" ry="2.5" style="stroke:#181818;stroke-width:0.5;" width="122" x="272" y="212"/><ellipse cx="291.95" cy="228" fill="#ADD1B2" rx="11" ry="11" style="stroke:#181818;stroke-width:1.0;"/><path d="M294.7156,223.875 Q294.8719,223.6563 295.0594,223.5469 Q295.2469,223.4375 295.4656,223.4375 Q295.8406,223.4375 296.075,223.7031 Q296.3094,223.9531 296.3094,224.5625 L296.3094,226.0156 Q296.3094,226.625 296.075,226.8906 Q295.8406,227.1563 295.4656,227.1563 Q295.1219,227.1563 294.9188,226.9531 Q294.7156,226.7656 294.6063,226.25 Q294.5594,225.8906 294.3719,225.7031 Q294.0438,225.3281 293.4344,225.1094 Q292.825,224.8906 292.2,224.8906 Q291.4344,224.8906 290.7938,225.2188 Q290.1688,225.5469 289.6688,226.2969 Q289.1844,227.0469 289.1844,228.0781 L289.1844,229.1719 Q289.1844,230.4063 290.075,231.2344 Q290.9656,232.0469 292.5594,232.0469 Q293.4969,232.0469 294.1531,231.7969 Q294.5438,231.6406 294.9656,231.2031 Q295.2313,230.9375 295.3719,230.8594 Q295.5281,230.7813 295.7313,230.7813 Q296.0594,230.7813 296.3094,231.0469 Q296.575,231.2969 296.575,231.6406 Q296.575,231.9844 296.2313,232.3906 Q295.7313,232.9688 294.9344,233.2969 Q293.8563,233.75 292.5594,233.75 Q291.0438,233.75 289.8406,233.125 Q288.8563,232.625 288.1688,231.5625 Q287.4813,230.4844 287.4813,229.2031 L287.4813,228.0469 Q287.4813,226.7188 288.0906,225.5781 Q288.7156,224.4219 289.8094,223.8125 Q290.9031,223.1875 292.1375,223.1875 Q292.8719,223.1875 293.5125,223.3594 Q294.1688,223.5156 294.7156,223.875 Z " fill="#000000"/><text fill="#000000" font-family="sans-serif" font-size="14" lengthAdjust="spacing" textLength="79" x="307.05" y="233.7285">yesNoDialog</text><line style="stroke:#181818;stroke-width:0.5;" x1="273" x2="393" y1="244" y2="244"/><line style="stroke:#181818;stroke-width:0.5;" x1="273" x2="393" y1="252" y2="252"/><ellipse cx="283" cy="263" fill="#84BE84" rx="3" ry="3" style="stroke:#038048;stroke-width:1.0;"/><text fill="#000000" font-family="sans-serif" font-size="14" lengthAdjust="spacing" textLength="96" x="292" y="270.5332">read(message)</text><ellipse cx="283" cy="280.6094" fill="#84BE84" rx="3" ry="3" style="stroke:#038048;stroke-width:1.0;"/><text fill="#000000" font-family="sans-serif" font-size="14" lengthAdjust="spacing" textLength="86" x="292" y="288.1426">isAffirmative()</text></g><!--MD5=[400f0600dc490cab46af2e6886caefc3]
class board--><g id="elem_board"><rect codeLine="11" fill="#F1F1F1" height="241.7031" id="board" rx="2.5" ry="2.5" style="stroke:#181818;stroke-width:0.5;" width="276" x="25" y="399"/><ellipse cx="140.25" cy="415" fill="#ADD1B2" rx="11" ry="11" style="stroke:#181818;stroke-width:1.0;"/><path d="M143.0156,410.875 Q143.1719,410.6563 143.3594,410.5469 Q143.5469,410.4375 143.7656,410.4375 Q144.1406,410.4375 144.375,410.7031 Q144.6094,410.9531 144.6094,411.5625 L144.6094,413.0156 Q144.6094,413.625 144.375,413.8906 Q144.1406,414.1563 143.7656,414.1563 Q143.4219,414.1563 143.2188,413.9531 Q143.0156,413.7656 142.9063,413.25 Q142.8594,412.8906 142.6719,412.7031 Q142.3438,412.3281 141.7344,412.1094 Q141.125,411.8906 140.5,411.8906 Q139.7344,411.8906 139.0938,412.2188 Q138.4688,412.5469 137.9688,413.2969 Q137.4844,414.0469 137.4844,415.0781 L137.4844,416.1719 Q137.4844,417.4063 138.375,418.2344 Q139.2656,419.0469 140.8594,419.0469 Q141.7969,419.0469 142.4531,418.7969 Q142.8438,418.6406 143.2656,418.2031 Q143.5313,417.9375 143.6719,417.8594 Q143.8281,417.7813 144.0313,417.7813 Q144.3594,417.7813 144.6094,418.0469 Q144.875,418.2969 144.875,418.6406 Q144.875,418.9844 144.5313,419.3906 Q144.0313,419.9688 143.2344,420.2969 Q142.1563,420.75 140.8594,420.75 Q139.3438,420.75 138.1406,420.125 Q137.1563,419.625 136.4688,418.5625 Q135.7813,417.4844 135.7813,416.2031 L135.7813,415.0469 Q135.7813,413.7188 136.3906,412.5781 Q137.0156,411.4219 138.1094,410.8125 Q139.2031,410.1875 140.4375,410.1875 Q141.1719,410.1875 141.8125,410.3594 Q142.4688,410.5156 143.0156,410.875 Z " fill="#000000"/><text fill="#000000" font-family="sans-serif" font-size="14" lengthAdjust="spacing" textLength="37" x="160.75" y="420.7285">board</text><line style="stroke:#181818;stroke-width:0.5;" x1="26" x2="300" y1="431" y2="431"/><rect fill="none" height="6" style="stroke:#C82930;stroke-width:1.0;" width="6" x="33" y="439"/><text fill="#000000" font-family="sans-serif" font-size="14" lengthAdjust="spacing" textLength="50" x="45" y="449.5332">tokens[]</text><rect fill="none" height="6" style="stroke:#C82930;stroke-width:1.0;" width="6" x="33" y="456.6094"/><text fill="#000000" font-family="sans-serif" font-size="14" lengthAdjust="spacing" textLength="91" x="45" y="467.1426">inLineChecker</text><rect fill="none" height="6" style="stroke:#C82930;stroke-width:1.0;" width="6" x="33" y="474.2188"/><text fill="#000000" font-family="sans-serif" font-size="14" lengthAdjust="spacing" textLength="62" x="45" y="484.752">lastToken</text><line style="stroke:#181818;stroke-width:0.5;" x1="26" x2="300" y1="491.8281" y2="491.8281"/><ellipse cx="36" cy="502.8281" fill="#84BE84" rx="3" ry="3" style="stroke:#038048;stroke-width:1.0;"/><text fill="#000000" font-family="sans-serif" font-size="14" lengthAdjust="spacing" textLength="189" x="45" y="510.3613">reset(maxRows, maxColumns)</text><ellipse cx="36" cy="520.4375" fill="#84BE84" rx="3" ry="3" style="stroke:#038048;stroke-width:1.0;"/><text fill="#000000" font-family="sans-serif" font-size="14" lengthAdjust="spacing" textLength="147" x="45" y="527.9707">isFilledColumn(column)</text><ellipse cx="36" cy="538.0469" fill="#84BE84" rx="3" ry="3" style="stroke:#038048;stroke-width:1.0;"/><text fill="#000000" font-family="sans-serif" font-size="14" lengthAdjust="spacing" textLength="154" x="45" y="545.5801">putToken(column, color)</text><ellipse cx="36" cy="555.6563" fill="#84BE84" rx="3" ry="3" style="stroke:#038048;stroke-width:1.0;"/><text fill="#000000" font-family="sans-serif" font-size="14" lengthAdjust="spacing" textLength="250" x="45" y="563.1895">getFirstEmptyRowFromColumn(column)</text><ellipse cx="36" cy="573.2656" fill="#84BE84" rx="3" ry="3" style="stroke:#038048;stroke-width:1.0;"/><text fill="#000000" font-family="sans-serif" font-size="14" lengthAdjust="spacing" textLength="83" x="45" y="580.7988">isEndGame()</text><ellipse cx="36" cy="590.875" fill="#84BE84" rx="3" ry="3" style="stroke:#038048;stroke-width:1.0;"/><text fill="#000000" font-family="sans-serif" font-size="14" lengthAdjust="spacing" textLength="54" x="45" y="598.4082">isFilled()</text><ellipse cx="36" cy="608.4844" fill="#84BE84" rx="3" ry="3" style="stroke:#038048;stroke-width:1.0;"/><text fill="#000000" font-family="sans-serif" font-size="14" lengthAdjust="spacing" textLength="148" x="45" y="616.0176">isInLineToken(tokens[])</text><ellipse cx="36" cy="626.0938" fill="#84BE84" rx="3" ry="3" style="stroke:#038048;stroke-width:1.0;"/><text fill="#000000" font-family="sans-serif" font-size="14" lengthAdjust="spacing" textLength="77" x="45" y="633.627">getTokens()</text></g><!--MD5=[7e91cb2b0bf0004441ee056e3fe2cc82]
class boardView--><g id="elem_boardView"><rect codeLine="24" fill="#F1F1F1" height="171.2656" id="boardView" rx="2.5" ry="2.5" style="stroke:#181818;stroke-width:0.5;" width="131" x="429.5" y="168"/><ellipse cx="459.35" cy="184" fill="#ADD1B2" rx="11" ry="11" style="stroke:#181818;stroke-width:1.0;"/><path d="M462.1156,179.875 Q462.2719,179.6563 462.4594,179.5469 Q462.6469,179.4375 462.8656,179.4375 Q463.2406,179.4375 463.475,179.7031 Q463.7094,179.9531 463.7094,180.5625 L463.7094,182.0156 Q463.7094,182.625 463.475,182.8906 Q463.2406,183.1563 462.8656,183.1563 Q462.5219,183.1563 462.3188,182.9531 Q462.1156,182.7656 462.0063,182.25 Q461.9594,181.8906 461.7719,181.7031 Q461.4438,181.3281 460.8344,181.1094 Q460.225,180.8906 459.6,180.8906 Q458.8344,180.8906 458.1938,181.2188 Q457.5688,181.5469 457.0688,182.2969 Q456.5844,183.0469 456.5844,184.0781 L456.5844,185.1719 Q456.5844,186.4063 457.475,187.2344 Q458.3656,188.0469 459.9594,188.0469 Q460.8969,188.0469 461.5531,187.7969 Q461.9438,187.6406 462.3656,187.2031 Q462.6313,186.9375 462.7719,186.8594 Q462.9281,186.7813 463.1313,186.7813 Q463.4594,186.7813 463.7094,187.0469 Q463.975,187.2969 463.975,187.6406 Q463.975,187.9844 463.6313,188.3906 Q463.1313,188.9688 462.3344,189.2969 Q461.2563,189.75 459.9594,189.75 Q458.4438,189.75 457.2406,189.125 Q456.2563,188.625 455.5688,187.5625 Q454.8813,186.4844 454.8813,185.2031 L454.8813,184.0469 Q454.8813,182.7188 455.4906,181.5781 Q456.1156,180.4219 457.2094,179.8125 Q458.3031,179.1875 459.5375,179.1875 Q460.2719,179.1875 460.9125,179.3594 Q461.5688,179.5156 462.1156,179.875 Z " fill="#000000"/><text fill="#000000" font-family="sans-serif" font-size="14" lengthAdjust="spacing" textLength="66" x="476.65" y="189.7285">boardView</text><line style="stroke:#181818;stroke-width:0.5;" x1="430.5" x2="559.5" y1="200" y2="200"/><rect fill="none" height="6" style="stroke:#C82930;stroke-width:1.0;" width="6" x="437.5" y="208"/><text fill="#000000" font-family="sans-serif" font-size="14" lengthAdjust="spacing" textLength="79" x="449.5" y="218.5332">MAX_ROWS</text><rect fill="none" height="6" style="stroke:#C82930;stroke-width:1.0;" width="6" x="437.5" y="225.6094"/><text fill="#000000" font-family="sans-serif" font-size="14" lengthAdjust="spacing" textLength="103" x="449.5" y="236.1426">MAX_COLUMNS</text><rect fill="none" height="6" style="stroke:#C82930;stroke-width:1.0;" width="6" x="437.5" y="243.2188"/><text fill="#000000" font-family="sans-serif" font-size="14" lengthAdjust="spacing" textLength="38" x="449.5" y="253.752">Board</text><rect fill="none" height="6" style="stroke:#C82930;stroke-width:1.0;" width="6" x="437.5" y="260.8281"/><text fill="#000000" font-family="sans-serif" font-size="14" lengthAdjust="spacing" textLength="59" x="449.5" y="271.3613">TurnView</text><line style="stroke:#181818;stroke-width:0.5;" x1="430.5" x2="559.5" y1="278.4375" y2="278.4375"/><ellipse cx="440.5" cy="289.4375" fill="#84BE84" rx="3" ry="3" style="stroke:#038048;stroke-width:1.0;"/><text fill="#000000" font-family="sans-serif" font-size="14" lengthAdjust="spacing" textLength="28" x="449.5" y="296.9707">init()</text><ellipse cx="440.5" cy="307.0469" fill="#84BE84" rx="3" ry="3" style="stroke:#038048;stroke-width:1.0;"/><text fill="#000000" font-family="sans-serif" font-size="14" lengthAdjust="spacing" textLength="42" x="449.5" y="314.5801">show()</text><ellipse cx="440.5" cy="324.6563" fill="#84BE84" rx="3" ry="3" style="stroke:#038048;stroke-width:1.0;"/><text fill="#000000" font-family="sans-serif" font-size="14" lengthAdjust="spacing" textLength="105" x="449.5" y="332.1895">showEndGame()</text></g><!--MD5=[4da9fe57077f86121028723fbd49dcb9]
class inLineChecker--><g id="elem_inLineChecker"><rect codeLine="33" fill="#F1F1F1" height="188.875" id="inLineChecker" rx="2.5" ry="2.5" style="stroke:#181818;stroke-width:0.5;" width="232" x="198" y="701"/><ellipse cx="264.25" cy="717" fill="#ADD1B2" rx="11" ry="11" style="stroke:#181818;stroke-width:1.0;"/><path d="M267.0156,712.875 Q267.1719,712.6563 267.3594,712.5469 Q267.5469,712.4375 267.7656,712.4375 Q268.1406,712.4375 268.375,712.7031 Q268.6094,712.9531 268.6094,713.5625 L268.6094,715.0156 Q268.6094,715.625 268.375,715.8906 Q268.1406,716.1563 267.7656,716.1563 Q267.4219,716.1563 267.2188,715.9531 Q267.0156,715.7656 266.9063,715.25 Q266.8594,714.8906 266.6719,714.7031 Q266.3438,714.3281 265.7344,714.1094 Q265.125,713.8906 264.5,713.8906 Q263.7344,713.8906 263.0938,714.2188 Q262.4688,714.5469 261.9688,715.2969 Q261.4844,716.0469 261.4844,717.0781 L261.4844,718.1719 Q261.4844,719.4063 262.375,720.2344 Q263.2656,721.0469 264.8594,721.0469 Q265.7969,721.0469 266.4531,720.7969 Q266.8438,720.6406 267.2656,720.2031 Q267.5313,719.9375 267.6719,719.8594 Q267.8281,719.7813 268.0313,719.7813 Q268.3594,719.7813 268.6094,720.0469 Q268.875,720.2969 268.875,720.6406 Q268.875,720.9844 268.5313,721.3906 Q268.0313,721.9688 267.2344,722.2969 Q266.1563,722.75 264.8594,722.75 Q263.3438,722.75 262.1406,722.125 Q261.1563,721.625 260.4688,720.5625 Q259.7813,719.4844 259.7813,718.2031 L259.7813,717.0469 Q259.7813,715.7188 260.3906,714.5781 Q261.0156,713.4219 262.1094,712.8125 Q263.2031,712.1875 264.4375,712.1875 Q265.1719,712.1875 265.8125,712.3594 Q266.4688,712.5156 267.0156,712.875 Z " fill="#000000"/><text fill="#000000" font-family="sans-serif" font-size="14" lengthAdjust="spacing" textLength="91" x="284.75" y="722.7285">inLineChecker</text><line style="stroke:#181818;stroke-width:0.5;" x1="199" x2="429" y1="733" y2="733"/><rect fill="none" height="6" style="stroke:#C82930;stroke-width:1.0;" width="6" x="206" y="741"/><text fill="#000000" font-family="sans-serif" font-size="14" lengthAdjust="spacing" textLength="42" x="218" y="751.5332">tokens</text><rect fill="none" height="6" style="stroke:#C82930;stroke-width:1.0;" width="6" x="206" y="758.6094"/><text fill="#000000" font-family="sans-serif" font-size="14" lengthAdjust="spacing" textLength="206" x="218" y="769.1426">IN_LINE_NUMBER_OF_TOKENS</text><line style="stroke:#181818;stroke-width:0.5;" x1="199" x2="429" y1="776.2188" y2="776.2188"/><ellipse cx="209" cy="787.2188" fill="#84BE84" rx="3" ry="3" style="stroke:#038048;stroke-width:1.0;"/><text fill="#000000" font-family="sans-serif" font-size="14" lengthAdjust="spacing" textLength="191" x="218" y="794.752">isInLineToken(tokens[], token)</text><rect fill="#F24D5C" height="6" style="stroke:#C82930;stroke-width:1.0;" width="6" x="206" y="801.8281"/><text fill="#000000" font-family="sans-serif" font-size="14" lengthAdjust="spacing" textLength="155" x="218" y="812.3613">isInLineHorizontal(token)</text><rect fill="#F24D5C" height="6" style="stroke:#C82930;stroke-width:1.0;" width="6" x="206" y="819.4375"/><text fill="#000000" font-family="sans-serif" font-size="14" lengthAdjust="spacing" textLength="140" x="218" y="829.9707">isInLineVertical(token)</text><rect fill="#F24D5C" height="6" style="stroke:#C82930;stroke-width:1.0;" width="6" x="206" y="837.0469"/><text fill="#000000" font-family="sans-serif" font-size="14" lengthAdjust="spacing" textLength="149" x="218" y="847.5801">isInLineDiagonal(token)</text><rect fill="#F24D5C" height="6" style="stroke:#C82930;stroke-width:1.0;" width="6" x="206" y="854.6563"/><text fill="#000000" font-family="sans-serif" font-size="14" lengthAdjust="spacing" textLength="202" x="218" y="865.1895">isInLineReverseDiagonal(token)</text><rect fill="#F24D5C" height="6" style="stroke:#C82930;stroke-width:1.0;" width="6" x="206" y="872.2656"/><text fill="#000000" font-family="sans-serif" font-size="14" lengthAdjust="spacing" textLength="158" x="218" y="882.7988">isColorOnPosition(token)</text></g><!--MD5=[606c0e9a527600b962089599cf14ab26]
class token--><g id="elem_token"><rect codeLine="44" fill="#F1F1F1" height="136.0469" id="token" rx="2.5" ry="2.5" style="stroke:#181818;stroke-width:0.5;" width="104" x="59" y="727.5"/><ellipse cx="90.65" cy="743.5" fill="#ADD1B2" rx="11" ry="11" style="stroke:#181818;stroke-width:1.0;"/><path d="M93.4156,739.375 Q93.5719,739.1563 93.7594,739.0469 Q93.9469,738.9375 94.1656,738.9375 Q94.5406,738.9375 94.775,739.2031 Q95.0094,739.4531 95.0094,740.0625 L95.0094,741.5156 Q95.0094,742.125 94.775,742.3906 Q94.5406,742.6563 94.1656,742.6563 Q93.8219,742.6563 93.6188,742.4531 Q93.4156,742.2656 93.3063,741.75 Q93.2594,741.3906 93.0719,741.2031 Q92.7438,740.8281 92.1344,740.6094 Q91.525,740.3906 90.9,740.3906 Q90.1344,740.3906 89.4938,740.7188 Q88.8688,741.0469 88.3688,741.7969 Q87.8844,742.5469 87.8844,743.5781 L87.8844,744.6719 Q87.8844,745.9063 88.775,746.7344 Q89.6656,747.5469 91.2594,747.5469 Q92.1969,747.5469 92.8531,747.2969 Q93.2438,747.1406 93.6656,746.7031 Q93.9313,746.4375 94.0719,746.3594 Q94.2281,746.2813 94.4313,746.2813 Q94.7594,746.2813 95.0094,746.5469 Q95.275,746.7969 95.275,747.1406 Q95.275,747.4844 94.9313,747.8906 Q94.4313,748.4688 93.6344,748.7969 Q92.5563,749.25 91.2594,749.25 Q89.7438,749.25 88.5406,748.625 Q87.5563,748.125 86.8688,747.0625 Q86.1813,745.9844 86.1813,744.7031 L86.1813,743.5469 Q86.1813,742.2188 86.7906,741.0781 Q87.4156,739.9219 88.5094,739.3125 Q89.6031,738.6875 90.8375,738.6875 Q91.5719,738.6875 92.2125,738.8594 Q92.8688,739.0156 93.4156,739.375 Z " fill="#000000"/><text fill="#000000" font-family="sans-serif" font-size="14" lengthAdjust="spacing" textLength="35" x="108.35" y="749.2285">token</text><line style="stroke:#181818;stroke-width:0.5;" x1="60" x2="162" y1="759.5" y2="759.5"/><rect fill="none" height="6" style="stroke:#C82930;stroke-width:1.0;" width="6" x="67" y="767.5"/><text fill="#000000" font-family="sans-serif" font-size="14" lengthAdjust="spacing" textLength="34" x="79" y="778.0332">Color</text><rect fill="none" height="6" style="stroke:#C82930;stroke-width:1.0;" width="6" x="67" y="785.1094"/><text fill="#000000" font-family="sans-serif" font-size="14" lengthAdjust="spacing" textLength="67" x="79" y="795.6426">coordinate</text><line style="stroke:#181818;stroke-width:0.5;" x1="60" x2="162" y1="802.7188" y2="802.7188"/><ellipse cx="70" cy="813.7188" fill="#84BE84" rx="3" ry="3" style="stroke:#038048;stroke-width:1.0;"/><text fill="#000000" font-family="sans-serif" font-size="14" lengthAdjust="spacing" textLength="64" x="79" y="821.252">getColor()</text><ellipse cx="70" cy="831.3281" fill="#84BE84" rx="3" ry="3" style="stroke:#038048;stroke-width:1.0;"/><text fill="#000000" font-family="sans-serif" font-size="14" lengthAdjust="spacing" textLength="57" x="79" y="838.8613">getRow()</text><ellipse cx="70" cy="848.9375" fill="#84BE84" rx="3" ry="3" style="stroke:#038048;stroke-width:1.0;"/><text fill="#000000" font-family="sans-serif" font-size="14" lengthAdjust="spacing" textLength="78" x="79" y="856.4707">getColumn()</text></g><!--MD5=[591ad017c1bea39456346e62f574f03d]
class coordinate--><g id="elem_coordinate"><rect codeLine="52" fill="#F1F1F1" height="118.4375" id="coordinate" rx="2.5" ry="2.5" style="stroke:#181818;stroke-width:0.5;" width="104" x="7" y="950"/><ellipse cx="24.25" cy="966" fill="#ADD1B2" rx="11" ry="11" style="stroke:#181818;stroke-width:1.0;"/><path d="M27.0156,961.875 Q27.1719,961.6563 27.3594,961.5469 Q27.5469,961.4375 27.7656,961.4375 Q28.1406,961.4375 28.375,961.7031 Q28.6094,961.9531 28.6094,962.5625 L28.6094,964.0156 Q28.6094,964.625 28.375,964.8906 Q28.1406,965.1563 27.7656,965.1563 Q27.4219,965.1563 27.2188,964.9531 Q27.0156,964.7656 26.9063,964.25 Q26.8594,963.8906 26.6719,963.7031 Q26.3438,963.3281 25.7344,963.1094 Q25.125,962.8906 24.5,962.8906 Q23.7344,962.8906 23.0938,963.2188 Q22.4688,963.5469 21.9688,964.2969 Q21.4844,965.0469 21.4844,966.0781 L21.4844,967.1719 Q21.4844,968.4063 22.375,969.2344 Q23.2656,970.0469 24.8594,970.0469 Q25.7969,970.0469 26.4531,969.7969 Q26.8438,969.6406 27.2656,969.2031 Q27.5313,968.9375 27.6719,968.8594 Q27.8281,968.7813 28.0313,968.7813 Q28.3594,968.7813 28.6094,969.0469 Q28.875,969.2969 28.875,969.6406 Q28.875,969.9844 28.5313,970.3906 Q28.0313,970.9688 27.2344,971.2969 Q26.1563,971.75 24.8594,971.75 Q23.3438,971.75 22.1406,971.125 Q21.1563,970.625 20.4688,969.5625 Q19.7813,968.4844 19.7813,967.2031 L19.7813,966.0469 Q19.7813,964.7188 20.3906,963.5781 Q21.0156,962.4219 22.1094,961.8125 Q23.2031,961.1875 24.4375,961.1875 Q25.1719,961.1875 25.8125,961.3594 Q26.4688,961.5156 27.0156,961.875 Z " fill="#000000"/><text fill="#000000" font-family="sans-serif" font-size="14" lengthAdjust="spacing" textLength="67" x="38.75" y="971.7285">coordinate</text><line style="stroke:#181818;stroke-width:0.5;" x1="8" x2="110" y1="982" y2="982"/><rect fill="none" height="6" style="stroke:#C82930;stroke-width:1.0;" width="6" x="15" y="990"/><text fill="#000000" font-family="sans-serif" font-size="14" lengthAdjust="spacing" textLength="22" x="27" y="1000.5332">row</text><rect fill="none" height="6" style="stroke:#C82930;stroke-width:1.0;" width="6" x="15" y="1007.6094"/><text fill="#000000" font-family="sans-serif" font-size="14" lengthAdjust="spacing" textLength="45" x="27" y="1018.1426">column</text><line style="stroke:#181818;stroke-width:0.5;" x1="8" x2="110" y1="1025.2188" y2="1025.2188"/><ellipse cx="18" cy="1036.2188" fill="#84BE84" rx="3" ry="3" style="stroke:#038048;stroke-width:1.0;"/><text fill="#000000" font-family="sans-serif" font-size="14" lengthAdjust="spacing" textLength="57" x="27" y="1043.752">getRow()</text><ellipse cx="18" cy="1053.8281" fill="#84BE84" rx="3" ry="3" style="stroke:#038048;stroke-width:1.0;"/><text fill="#000000" font-family="sans-serif" font-size="14" lengthAdjust="spacing" textLength="78" x="27" y="1061.3613">getColumn()</text></g><!--MD5=[46e2fff4e112e858a5bcac690d902864]
class turnView--><g id="elem_turnView"><rect codeLine="59" fill="#F1F1F1" height="136.0469" id="turnView" rx="2.5" ry="2.5" style="stroke:#181818;stroke-width:0.5;" width="215" x="387.5" y="452"/><ellipse cx="463.75" cy="468" fill="#ADD1B2" rx="11" ry="11" style="stroke:#181818;stroke-width:1.0;"/><path d="M466.5156,463.875 Q466.6719,463.6563 466.8594,463.5469 Q467.0469,463.4375 467.2656,463.4375 Q467.6406,463.4375 467.875,463.7031 Q468.1094,463.9531 468.1094,464.5625 L468.1094,466.0156 Q468.1094,466.625 467.875,466.8906 Q467.6406,467.1563 467.2656,467.1563 Q466.9219,467.1563 466.7188,466.9531 Q466.5156,466.7656 466.4063,466.25 Q466.3594,465.8906 466.1719,465.7031 Q465.8438,465.3281 465.2344,465.1094 Q464.625,464.8906 464,464.8906 Q463.2344,464.8906 462.5938,465.2188 Q461.9688,465.5469 461.4688,466.2969 Q460.9844,467.0469 460.9844,468.0781 L460.9844,469.1719 Q460.9844,470.4063 461.875,471.2344 Q462.7656,472.0469 464.3594,472.0469 Q465.2969,472.0469 465.9531,471.7969 Q466.3438,471.6406 466.7656,471.2031 Q467.0313,470.9375 467.1719,470.8594 Q467.3281,470.7813 467.5313,470.7813 Q467.8594,470.7813 468.1094,471.0469 Q468.375,471.2969 468.375,471.6406 Q468.375,471.9844 468.0313,472.3906 Q467.5313,472.9688 466.7344,473.2969 Q465.6563,473.75 464.3594,473.75 Q462.8438,473.75 461.6406,473.125 Q460.6563,472.625 459.9688,471.5625 Q459.2813,470.4844 459.2813,469.2031 L459.2813,468.0469 Q459.2813,466.7188 459.8906,465.5781 Q460.5156,464.4219 461.6094,463.8125 Q462.7031,463.1875 463.9375,463.1875 Q464.6719,463.1875 465.3125,463.3594 Q465.9688,463.5156 466.5156,463.875 Z " fill="#000000"/><text fill="#000000" font-family="sans-serif" font-size="14" lengthAdjust="spacing" textLength="54" x="484.25" y="473.7285">turnView</text><line style="stroke:#181818;stroke-width:0.5;" x1="388.5" x2="601.5" y1="484" y2="484"/><rect fill="none" height="6" style="stroke:#C82930;stroke-width:1.0;" width="6" x="395.5" y="492"/><text fill="#000000" font-family="sans-serif" font-size="14" lengthAdjust="spacing" textLength="25" x="407.5" y="502.5332">turn</text><line style="stroke:#181818;stroke-width:0.5;" x1="388.5" x2="601.5" y1="509.6094" y2="509.6094"/><ellipse cx="398.5" cy="520.6094" fill="#84BE84" rx="3" ry="3" style="stroke:#038048;stroke-width:1.0;"/><text fill="#000000" font-family="sans-serif" font-size="14" lengthAdjust="spacing" textLength="189" x="407.5" y="528.1426">getInputColumn(maxColumns)</text><ellipse cx="398.5" cy="538.2188" fill="#84BE84" rx="3" ry="3" style="stroke:#038048;stroke-width:1.0;"/><text fill="#000000" font-family="sans-serif" font-size="14" lengthAdjust="spacing" textLength="66" x="407.5" y="545.752">nextTurn()</text><ellipse cx="398.5" cy="555.8281" fill="#84BE84" rx="3" ry="3" style="stroke:#038048;stroke-width:1.0;"/><text fill="#000000" font-family="sans-serif" font-size="14" lengthAdjust="spacing" textLength="64" x="407.5" y="563.3613">getColor()</text><ellipse cx="398.5" cy="573.4375" fill="#84BE84" rx="3" ry="3" style="stroke:#038048;stroke-width:1.0;"/><text fill="#000000" font-family="sans-serif" font-size="14" lengthAdjust="spacing" textLength="112" x="407.5" y="580.9707">setInitColor(color)</text></g><!--MD5=[023a942bc7f50f75f4bafc8ed131aced]
class turn--><g id="elem_turn"><rect codeLine="67" fill="#F1F1F1" height="118.4375" id="turn" rx="2.5" ry="2.5" style="stroke:#181818;stroke-width:0.5;" width="138" x="465" y="736.5"/><ellipse cx="517.25" cy="752.5" fill="#ADD1B2" rx="11" ry="11" style="stroke:#181818;stroke-width:1.0;"/><path d="M520.0156,748.375 Q520.1719,748.1563 520.3594,748.0469 Q520.5469,747.9375 520.7656,747.9375 Q521.1406,747.9375 521.375,748.2031 Q521.6094,748.4531 521.6094,749.0625 L521.6094,750.5156 Q521.6094,751.125 521.375,751.3906 Q521.1406,751.6563 520.7656,751.6563 Q520.4219,751.6563 520.2188,751.4531 Q520.0156,751.2656 519.9063,750.75 Q519.8594,750.3906 519.6719,750.2031 Q519.3438,749.8281 518.7344,749.6094 Q518.125,749.3906 517.5,749.3906 Q516.7344,749.3906 516.0938,749.7188 Q515.4688,750.0469 514.9688,750.7969 Q514.4844,751.5469 514.4844,752.5781 L514.4844,753.6719 Q514.4844,754.9063 515.375,755.7344 Q516.2656,756.5469 517.8594,756.5469 Q518.7969,756.5469 519.4531,756.2969 Q519.8438,756.1406 520.2656,755.7031 Q520.5313,755.4375 520.6719,755.3594 Q520.8281,755.2813 521.0313,755.2813 Q521.3594,755.2813 521.6094,755.5469 Q521.875,755.7969 521.875,756.1406 Q521.875,756.4844 521.5313,756.8906 Q521.0313,757.4688 520.2344,757.7969 Q519.1563,758.25 517.8594,758.25 Q516.3438,758.25 515.1406,757.625 Q514.1563,757.125 513.4688,756.0625 Q512.7813,754.9844 512.7813,753.7031 L512.7813,752.5469 Q512.7813,751.2188 513.3906,750.0781 Q514.0156,748.9219 515.1094,748.3125 Q516.2031,747.6875 517.4375,747.6875 Q518.1719,747.6875 518.8125,747.8594 Q519.4688,748.0156 520.0156,748.375 Z " fill="#000000"/><text fill="#000000" font-family="sans-serif" font-size="14" lengthAdjust="spacing" textLength="25" x="537.75" y="758.2285">turn</text><line style="stroke:#181818;stroke-width:0.5;" x1="466" x2="602" y1="768.5" y2="768.5"/><rect fill="none" height="6" style="stroke:#C82930;stroke-width:1.0;" width="6" x="473" y="776.5"/><text fill="#000000" font-family="sans-serif" font-size="14" lengthAdjust="spacing" textLength="31" x="485" y="787.0332">color</text><line style="stroke:#181818;stroke-width:0.5;" x1="466" x2="602" y1="794.1094" y2="794.1094"/><ellipse cx="476" cy="805.1094" fill="#84BE84" rx="3" ry="3" style="stroke:#038048;stroke-width:1.0;"/><text fill="#000000" font-family="sans-serif" font-size="14" lengthAdjust="spacing" textLength="64" x="485" y="812.6426">getColor()</text><ellipse cx="476" cy="822.7188" fill="#84BE84" rx="3" ry="3" style="stroke:#038048;stroke-width:1.0;"/><text fill="#000000" font-family="sans-serif" font-size="14" lengthAdjust="spacing" textLength="66" x="485" y="830.252">nextTurn()</text><ellipse cx="476" cy="840.3281" fill="#84BE84" rx="3" ry="3" style="stroke:#038048;stroke-width:1.0;"/><text fill="#000000" font-family="sans-serif" font-size="14" lengthAdjust="spacing" textLength="112" x="485" y="847.8613">setInitColor(color)</text></g><!--MD5=[b79a6dbdb435efa72378790761c8d246]
class colors--><g id="elem_colors"><rect codeLine="74" fill="#F1F1F1" height="83.2188" id="colors" rx="2.5" ry="2.5" style="stroke:#181818;stroke-width:0.5;" width="70" x="389" y="967.5"/><ellipse cx="404" cy="983.5" fill="#EB937F" rx="11" ry="11" style="stroke:#181818;stroke-width:1.0;"/><path d="M402.8594,984.2969 L402.8594,986.7969 L407.1875,986.7969 L407.1875,985.875 Q407.1875,985.2656 407.4219,985 Q407.6719,984.7344 408.0469,984.7344 Q408.4219,984.7344 408.6563,985 Q408.8906,985.2656 408.8906,985.875 L408.8906,988.5 L400.8906,988.5 Q400.2656,988.5 400,988.2656 Q399.75,988.0313 399.75,987.6406 Q399.75,987.2656 400.0156,987.0313 Q400.2813,986.7969 400.8906,986.7969 L401.1563,986.7969 L401.1563,980.1406 L400.8906,980.1406 Q400.2656,980.1406 400,979.9063 Q399.75,979.6719 399.75,979.2813 Q399.75,978.9063 400,978.6719 Q400.2656,978.4375 400.8906,978.4375 L408.5156,978.4375 L408.5156,981.0313 Q408.5156,981.6406 408.2813,981.9063 Q408.0625,982.1563 407.6719,982.1563 Q407.2969,982.1563 407.0625,981.9063 Q406.8281,981.6406 406.8281,981.0313 L406.8281,980.1406 L402.8594,980.1406 L402.8594,982.5938 L404.3438,982.5938 Q404.3438,981.9375 404.4688,981.75 Q404.7344,981.3438 405.2031,981.3438 Q405.5781,981.3438 405.8125,981.6094 Q406.0469,981.8594 406.0469,982.4688 L406.0469,984.4375 Q406.0469,984.9844 405.9219,985.1719 Q405.6563,985.5625 405.2031,985.5625 Q404.7344,985.5625 404.4688,985.1563 Q404.3438,984.9688 404.3438,984.2969 L402.8594,984.2969 Z " fill="#000000"/><text fill="#000000" font-family="sans-serif" font-size="14" lengthAdjust="spacing" textLength="38" x="418" y="989.2285">colors</text><line style="stroke:#181818;stroke-width:0.5;" x1="390" x2="458" y1="999.5" y2="999.5"/><text fill="#000000" font-family="sans-serif" font-size="14" lengthAdjust="spacing" textLength="26" x="395" y="1018.0332">Red</text><text fill="#000000" font-family="sans-serif" font-size="14" lengthAdjust="spacing" textLength="40" x="395" y="1035.6426">Yellow</text><line style="stroke:#181818;stroke-width:0.5;" x1="390" x2="458" y1="1042.7188" y2="1042.7188"/></g><!--MD5=[3aaa55d472d60a859166b4b0a5dca067]
link connect4 to boardView--><g id="link_connect4_boardView"><path codeLine="79" d="M434.75,108.21 C441.75,124.97 449.8,144.24 457.68,163.11 " fill="none" id="connect4-to-boardView" style="stroke:#181818;stroke-width:1.0;stroke-dasharray:7.0,7.0;"/><polygon fill="#181818" points="459.68,167.9,459.9,158.0536,457.7519,163.2867,452.5187,161.1386,459.68,167.9" style="stroke:#181818;stroke-width:1.0;"/></g><!--MD5=[da575c4dc3d31e7eed0ea63448fe7447]
link connect4 to yesNoDialog--><g id="link_connect4_yesNoDialog"><path codeLine="80" d="M393.25,108.21 C380.52,138.69 364.35,177.41 351.97,207.07 " fill="none" id="connect4-to-yesNoDialog" style="stroke:#181818;stroke-width:1.0;stroke-dasharray:7.0,7.0;"/><polygon fill="#181818" points="350.02,211.75,357.1813,204.9886,351.9481,207.1367,349.8,201.9036,350.02,211.75" style="stroke:#181818;stroke-width:1.0;"/></g><!--MD5=[fb32ec1c38a4eb0577ee459902ecc0e3]
link boardView to board--><g id="link_boardView_board"><path codeLine="81" d="M420.5362,331.4418 C420.5362,331.4418 414.52,336.83 412,339 C380.79,365.83 345.78,392.84 312.09,417.48 " fill="none" id="boardView-board" style="stroke:#181818;stroke-width:1.0;"/><polygon fill="#181818" points="301.21,425.39,310.8431,423.34,305.2563,422.4527,306.1435,416.8659,301.21,425.39" style="stroke:#181818;stroke-width:1.0;"/><line style="stroke:#181818;stroke-width:1.0;" x1="305.2563" x2="311.725" y1="422.4527" y2="417.745"/><polygon fill="#181818" points="429.37,323.32,422.2458,324.4363,420.5362,331.4418,427.6604,330.3255,429.37,323.32" style="stroke:#181818;stroke-width:1.0;"/></g><!--MD5=[281ebd2e004ad5cd374ca87d563edc75]
link boardView to turnView--><g id="link_boardView_turnView"><path codeLine="82" d="M495,339.28 C495,373.85 495,413.4 495,446.59 " fill="none" id="boardView-to-turnView" style="stroke:#181818;stroke-width:1.0;stroke-dasharray:7.0,7.0;"/><polygon fill="#181818" points="495,451.86,499,442.86,495,446.86,491,442.86,495,451.86" style="stroke:#181818;stroke-width:1.0;"/></g><!--MD5=[8b1b8966e584bf61c3ffd6dd5dd983c0]
link boardView to colors--><g id="link_boardView_colors"><path codeLine="83" d="M560.76,311.28 C584.12,335.64 607.67,366.07 620,399 C696.51,603.37 728.59,700.14 621,890 C587.53,949.07 511.41,981.77 464.2,997.04 " fill="none" id="boardView-to-colors" style="stroke:#181818;stroke-width:1.0;stroke-dasharray:7.0,7.0;"/><polygon fill="#181818" points="459.16,998.64,468.9483,999.7301,463.9258,997.1275,466.5284,992.1049,459.16,998.64" style="stroke:#181818;stroke-width:1.0;"/></g><!--MD5=[f62d90ac26fd182904d7612b38d0d9ea]
link turnView to turn--><g id="link_turnView_turn"><path codeLine="84" d="M506.2907,600.1389 C506.2907,600.1389 518.48,685.67 523.8,722.98 " fill="none" id="turnView-turn" style="stroke:#181818;stroke-width:1.0;"/><polygon fill="#181818" points="525.7,736.32,528.3841,726.8439,524.9914,731.3705,520.4648,727.9778,525.7,736.32" style="stroke:#181818;stroke-width:1.0;"/><line style="stroke:#181818;stroke-width:1.0;" x1="524.9914" x2="523.865" y1="731.3705" y2="723.445"/><polygon fill="none" points="504.59,588.26,501.4808,594.7663,506.2907,600.1389,509.4,593.6325,504.59,588.26" style="stroke:#181818;stroke-width:1.0;"/></g><!--MD5=[f41e6990d0a16124120bc990cc7767d3]
link board to token--><g id="link_board_token"><path codeLine="85" d="M137.8783,653.1488 C137.8783,653.1488 129.8,695.61 126.19,714.59 " fill="none" id="board-token" style="stroke:#181818;stroke-width:1.0;"/><polygon fill="#181818" points="123.75,727.42,129.3609,719.3257,124.684,722.508,121.5017,717.8312,123.75,727.42" style="stroke:#181818;stroke-width:1.0;"/><line style="stroke:#181818;stroke-width:1.0;" x1="124.684" x2="126.18" y1="722.508" y2="714.65"/><polygon fill="none" points="140.12,641.36,135.0696,646.5071,137.8783,653.1488,142.9287,648.0016,140.12,641.36" style="stroke:#181818;stroke-width:1.0;"/></g><!--MD5=[9423bc6e300565d34d7bd0c7b2c4c59e]
link board to inLineChecker--><g id="link_board_inLineChecker"><path codeLine="86" d="M235.2497,651.8654 C235.2497,651.8654 249.3,677.31 255.82,689.12 " fill="none" id="board-inLineChecker" style="stroke:#181818;stroke-width:1.0;"/><polygon fill="#181818" points="262.27,700.81,261.4168,690.9982,259.8511,696.434,254.4153,694.8684,262.27,700.81" style="stroke:#181818;stroke-width:1.0;"/><line style="stroke:#181818;stroke-width:1.0;" x1="259.8511" x2="255.99" y1="696.434" y2="689.43"/><polygon fill="none" points="229.45,641.36,228.8481,648.5459,235.2497,651.8654,235.8517,644.6795,229.45,641.36" style="stroke:#181818;stroke-width:1.0;"/></g><!--MD5=[cf39395ebd43fbb806f8d20087ef7f66]
link board to coordinate--><g id="link_board_coordinate"><path codeLine="87" d="M67.75,641.16 C56.78,660.27 47.29,680.52 41,701 C16.01,782.42 29.15,881.57 42.61,944.74 " fill="none" id="board-to-coordinate" style="stroke:#181818;stroke-width:1.0;stroke-dasharray:7.0,7.0;"/><polygon fill="#181818" points="43.74,949.98,45.7193,940.3321,42.669,945.0961,37.905,942.0457,43.74,949.98" style="stroke:#181818;stroke-width:1.0;"/></g><!--MD5=[7b26550a28deee329467bb3321892cf3]
link inLineChecker to colors--><g id="link_inLineChecker_colors"><path codeLine="88" d="M362.73,890.19 C375.87,915.46 389.5,941.67 400.56,962.93 " fill="none" id="inLineChecker-to-colors" style="stroke:#181818;stroke-width:1.0;stroke-dasharray:7.0,7.0;"/><polygon fill="#181818" points="402.88,967.39,402.2567,957.5609,400.5642,962.9586,395.1665,961.2661,402.88,967.39" style="stroke:#181818;stroke-width:1.0;"/></g><!--MD5=[ee9db3ee9a0245dbdc28aed3f1ea6503]
link turn to colors--><g id="link_turn_colors"><path codeLine="89" d="M498.26,865.2147 C498.26,865.2147 465.16,928.86 451.09,955.91 " fill="none" id="turn-colors" style="stroke:#181818;stroke-width:1.0;"/><polygon fill="#181818" points="445.08,967.47,452.7741,961.3218,447.3817,963.0313,445.6722,957.639,445.08,967.47" style="stroke:#181818;stroke-width:1.0;"/><line style="stroke:#181818;stroke-width:1.0;" x1="447.3817" x2="451.08" y1="963.0313" y2="955.935"/><polygon fill="none" points="503.8,854.57,497.4818,858.0457,498.26,865.2147,504.5782,861.739,503.8,854.57" style="stroke:#181818;stroke-width:1.0;"/></g><!--MD5=[da25e71b20586d566bbfcc342003eadf]
link token to colors--><g id="link_token_colors"><path codeLine="90" d="M162.3118,872.9299 C162.3118,872.9299 174.13,885.13 180,890 C239.75,939.59 323.85,974.28 376.09,992.67 " fill="none" id="token-colors" style="stroke:#181818;stroke-width:1.0;"/><polygon fill="#181818" points="388.65,997,381.4463,990.2838,383.9233,995.3695,378.8376,997.8465,388.65,997" style="stroke:#181818;stroke-width:1.0;"/><line style="stroke:#181818;stroke-width:1.0;" x1="383.9233" x2="376.355" y1="995.3695" y2="992.765"/><polygon fill="#181818" points="154.42,863.89,155.3526,871.0405,162.3118,872.9299,161.3792,865.7794,154.42,863.89" style="stroke:#181818;stroke-width:1.0;"/></g><!--MD5=[a4790a59275add077948081d63e6bf43]
link token to coordinate--><g id="link_token_coordinate"><path codeLine="91" d="M91.6192,875.364 C91.6192,875.364 81.21,917.67 76.44,937.08 " fill="none" id="token-coordinate" style="stroke:#181818;stroke-width:1.0;"/><polygon fill="#181818" points="73.29,949.87,79.3223,942.0847,74.4833,945.0145,71.5534,940.1754,73.29,949.87" style="stroke:#181818;stroke-width:1.0;"/><line style="stroke:#181818;stroke-width:1.0;" x1="74.4833" x2="76.395" y1="945.0145" y2="937.245"/><polygon fill="#181818" points="94.48,863.71,89.1649,868.5834,91.6192,875.364,96.9343,870.4906,94.48,863.71" style="stroke:#181818;stroke-width:1.0;"/></g><!--MD5=[11822434ab0ca45b2454fe4f01e6e3c4]
@startuml

class connect4{
    - boardView
    - yesNoDialog
    + playGame()
}
class yesNoDialog{
    + read(message)
    + isAffirmative()
}
class board{
    - tokens[]
    - inLineChecker
    - lastToken
    + reset(maxRows, maxColumns)
    + isFilledColumn(column)
    + putToken(column, color)
    + getFirstEmptyRowFromColumn(column)
    + isEndGame()
    + isFilled()
    + isInLineToken(tokens[])
    + getTokens()
}
class boardView{
    - MAX_ROWS
    - MAX_COLUMNS
    - Board
    - TurnView
    + init()
    + show()
    + showEndGame()
}
class inLineChecker{
    - tokens
    - IN_LINE_NUMBER_OF_TOKENS
    + isInLineToken(tokens[], token)
    - isInLineHorizontal(token)
    - isInLineVertical(token)
    - isInLineDiagonal(token)
    - isInLineReverseDiagonal(token)
    - isColorOnPosition(token)
}

class token{
    - Color
    - coordinate
    + getColor()
    + getRow()
    + getColumn()
}

class coordinate {
    - row 
    - column
    + getRow()
    + getColumn()
}

class turnView{
    - turn
    + getInputColumn(maxColumns)
    + nextTurn()
    + getColor()
    + setInitColor(color)
}

class turn{
    - color
    + getColor()
    + nextTurn()
    + setInitColor(color)
}

enum colors{
Red
Yellow
}

connect4 ..> boardView
connect4 ..> yesNoDialog
boardView *- -> board
boardView ..> turnView
boardView ..> colors
turnView o- -> turn
board o- -> token
board o- -> inLineChecker
board ..> coordinate
inLineChecker ..> colors
turn o- -> colors
token *- -> colors
token *- -> coordinate
@enduml

PlantUML version 1.2022.5(Sat Apr 30 12:55:52 CEST 2022)
(GPL source distribution)
Java Runtime: OpenJDK Runtime Environment
JVM: OpenJDK 64-Bit Server VM
Default Encoding: UTF-8
Language: es
Country: ES
--></g></svg>