<?xml version="1.0" encoding="UTF-8" standalone="no"?><svg xmlns="http://www.w3.org/2000/svg" xmlns:xlink="http://www.w3.org/1999/xlink" contentStyleType="text/css" height="1095px" preserveAspectRatio="none" style="width:465px;height:1095px;background:#FFFFFF;" version="1.1" viewBox="0 0 465 1095" width="465px" zoomAndPan="magnify"><defs/><g><!--MD5=[10b1f240992e2c34b6908209bf85bfd2]
class Connect4--><g id="elem_Connect4"><rect codeLine="2" fill="#F1F1F1" height="100.8281" id="Connect4" rx="2.5" ry="2.5" style="stroke:#181818;stroke-width:0.5;" width="105" x="110.5" y="7"/><ellipse cx="130.9" cy="23" fill="#ADD1B2" rx="11" ry="11" style="stroke:#181818;stroke-width:1.0;"/><path d="M133.6656,18.875 Q133.8219,18.6563 134.0094,18.5469 Q134.1969,18.4375 134.4156,18.4375 Q134.7906,18.4375 135.025,18.7031 Q135.2594,18.9531 135.2594,19.5625 L135.2594,21.0156 Q135.2594,21.625 135.025,21.8906 Q134.7906,22.1563 134.4156,22.1563 Q134.0719,22.1563 133.8688,21.9531 Q133.6656,21.7656 133.5563,21.25 Q133.5094,20.8906 133.3219,20.7031 Q132.9938,20.3281 132.3844,20.1094 Q131.775,19.8906 131.15,19.8906 Q130.3844,19.8906 129.7438,20.2188 Q129.1188,20.5469 128.6188,21.2969 Q128.1344,22.0469 128.1344,23.0781 L128.1344,24.1719 Q128.1344,25.4063 129.025,26.2344 Q129.9156,27.0469 131.5094,27.0469 Q132.4469,27.0469 133.1031,26.7969 Q133.4938,26.6406 133.9156,26.2031 Q134.1813,25.9375 134.3219,25.8594 Q134.4781,25.7813 134.6813,25.7813 Q135.0094,25.7813 135.2594,26.0469 Q135.525,26.2969 135.525,26.6406 Q135.525,26.9844 135.1813,27.3906 Q134.6813,27.9688 133.8844,28.2969 Q132.8063,28.75 131.5094,28.75 Q129.9938,28.75 128.7906,28.125 Q127.8063,27.625 127.1188,26.5625 Q126.4313,25.4844 126.4313,24.2031 L126.4313,23.0469 Q126.4313,21.7188 127.0406,20.5781 Q127.6656,19.4219 128.7594,18.8125 Q129.8531,18.1875 131.0875,18.1875 Q131.8219,18.1875 132.4625,18.3594 Q133.1188,18.5156 133.6656,18.875 Z " fill="#000000"/><text fill="#000000" font-family="sans-serif" font-size="14" lengthAdjust="spacing" textLength="61" x="146.1" y="28.7285">Connect4</text><line style="stroke:#181818;stroke-width:0.5;" x1="111.5" x2="214.5" y1="39" y2="39"/><rect fill="none" height="6" style="stroke:#C82930;stroke-width:1.0;" width="6" x="118.5" y="47"/><text fill="#000000" font-family="sans-serif" font-size="14" lengthAdjust="spacing" textLength="66" x="130.5" y="57.5332">boardView</text><rect fill="none" height="6" style="stroke:#C82930;stroke-width:1.0;" width="6" x="118.5" y="64.6094"/><text fill="#000000" font-family="sans-serif" font-size="14" lengthAdjust="spacing" textLength="79" x="130.5" y="75.1426">yesNoDialog</text><line style="stroke:#181818;stroke-width:0.5;" x1="111.5" x2="214.5" y1="82.2188" y2="82.2188"/><ellipse cx="121.5" cy="93.2188" fill="#84BE84" rx="3" ry="3" style="stroke:#038048;stroke-width:1.0;"/><text fill="#000000" font-family="sans-serif" font-size="14" lengthAdjust="spacing" textLength="74" x="130.5" y="100.752">playGame()</text></g><!--MD5=[2f2ced231ceb229417d2b072acd0beb6]
class YesNoDialogView--><g id="elem_YesNoDialogView"><rect codeLine="7" fill="#F1F1F1" height="83.2188" id="YesNoDialogView" rx="2.5" ry="2.5" style="stroke:#181818;stroke-width:0.5;" width="142" x="7" y="203.5"/><ellipse cx="22" cy="219.5" fill="#ADD1B2" rx="11" ry="11" style="stroke:#181818;stroke-width:1.0;"/><path d="M24.7656,215.375 Q24.9219,215.1563 25.1094,215.0469 Q25.2969,214.9375 25.5156,214.9375 Q25.8906,214.9375 26.125,215.2031 Q26.3594,215.4531 26.3594,216.0625 L26.3594,217.5156 Q26.3594,218.125 26.125,218.3906 Q25.8906,218.6563 25.5156,218.6563 Q25.1719,218.6563 24.9688,218.4531 Q24.7656,218.2656 24.6563,217.75 Q24.6094,217.3906 24.4219,217.2031 Q24.0938,216.8281 23.4844,216.6094 Q22.875,216.3906 22.25,216.3906 Q21.4844,216.3906 20.8438,216.7188 Q20.2188,217.0469 19.7188,217.7969 Q19.2344,218.5469 19.2344,219.5781 L19.2344,220.6719 Q19.2344,221.9063 20.125,222.7344 Q21.0156,223.5469 22.6094,223.5469 Q23.5469,223.5469 24.2031,223.2969 Q24.5938,223.1406 25.0156,222.7031 Q25.2813,222.4375 25.4219,222.3594 Q25.5781,222.2813 25.7813,222.2813 Q26.1094,222.2813 26.3594,222.5469 Q26.625,222.7969 26.625,223.1406 Q26.625,223.4844 26.2813,223.8906 Q25.7813,224.4688 24.9844,224.7969 Q23.9063,225.25 22.6094,225.25 Q21.0938,225.25 19.8906,224.625 Q18.9063,224.125 18.2188,223.0625 Q17.5313,221.9844 17.5313,220.7031 L17.5313,219.5469 Q17.5313,218.2188 18.1406,217.0781 Q18.7656,215.9219 19.8594,215.3125 Q20.9531,214.6875 22.1875,214.6875 Q22.9219,214.6875 23.5625,214.8594 Q24.2188,215.0156 24.7656,215.375 Z " fill="#000000"/><text fill="#000000" font-family="sans-serif" font-size="14" lengthAdjust="spacing" textLength="110" x="36" y="225.2285">YesNoDialogView</text><line style="stroke:#181818;stroke-width:0.5;" x1="8" x2="148" y1="235.5" y2="235.5"/><line style="stroke:#181818;stroke-width:0.5;" x1="8" x2="148" y1="243.5" y2="243.5"/><ellipse cx="18" cy="254.5" fill="#84BE84" rx="3" ry="3" style="stroke:#038048;stroke-width:1.0;"/><text fill="#000000" font-family="sans-serif" font-size="14" lengthAdjust="spacing" textLength="96" x="27" y="262.0332">read(message)</text><ellipse cx="18" cy="272.1094" fill="#84BE84" rx="3" ry="3" style="stroke:#038048;stroke-width:1.0;"/><text fill="#000000" font-family="sans-serif" font-size="14" lengthAdjust="spacing" textLength="86" x="27" y="279.6426">isAffirmative()</text></g><!--MD5=[9563755d011c5cec7ec66dc53565a59e]
class Board--><g id="elem_Board"><rect codeLine="11" fill="#F1F1F1" height="224.0938" id="Board" rx="2.5" ry="2.5" style="stroke:#181818;stroke-width:0.5;" width="215" x="23.5" y="382"/><ellipse cx="107.75" cy="398" fill="#ADD1B2" rx="11" ry="11" style="stroke:#181818;stroke-width:1.0;"/><path d="M110.5156,393.875 Q110.6719,393.6563 110.8594,393.5469 Q111.0469,393.4375 111.2656,393.4375 Q111.6406,393.4375 111.875,393.7031 Q112.1094,393.9531 112.1094,394.5625 L112.1094,396.0156 Q112.1094,396.625 111.875,396.8906 Q111.6406,397.1563 111.2656,397.1563 Q110.9219,397.1563 110.7188,396.9531 Q110.5156,396.7656 110.4063,396.25 Q110.3594,395.8906 110.1719,395.7031 Q109.8438,395.3281 109.2344,395.1094 Q108.625,394.8906 108,394.8906 Q107.2344,394.8906 106.5938,395.2188 Q105.9688,395.5469 105.4688,396.2969 Q104.9844,397.0469 104.9844,398.0781 L104.9844,399.1719 Q104.9844,400.4063 105.875,401.2344 Q106.7656,402.0469 108.3594,402.0469 Q109.2969,402.0469 109.9531,401.7969 Q110.3438,401.6406 110.7656,401.2031 Q111.0313,400.9375 111.1719,400.8594 Q111.3281,400.7813 111.5313,400.7813 Q111.8594,400.7813 112.1094,401.0469 Q112.375,401.2969 112.375,401.6406 Q112.375,401.9844 112.0313,402.3906 Q111.5313,402.9688 110.7344,403.2969 Q109.6563,403.75 108.3594,403.75 Q106.8438,403.75 105.6406,403.125 Q104.6563,402.625 103.9688,401.5625 Q103.2813,400.4844 103.2813,399.2031 L103.2813,398.0469 Q103.2813,396.7188 103.8906,395.5781 Q104.5156,394.4219 105.6094,393.8125 Q106.7031,393.1875 107.9375,393.1875 Q108.6719,393.1875 109.3125,393.3594 Q109.9688,393.5156 110.5156,393.875 Z " fill="#000000"/><text fill="#000000" font-family="sans-serif" font-size="14" lengthAdjust="spacing" textLength="38" x="128.25" y="403.7285">Board</text><line style="stroke:#181818;stroke-width:0.5;" x1="24.5" x2="237.5" y1="414" y2="414"/><rect fill="none" height="6" style="stroke:#C82930;stroke-width:1.0;" width="6" x="31.5" y="422"/><text fill="#000000" font-family="sans-serif" font-size="14" lengthAdjust="spacing" textLength="50" x="43.5" y="432.5332">tokens[]</text><line style="stroke:#181818;stroke-width:0.5;" x1="24.5" x2="237.5" y1="439.6094" y2="439.6094"/><ellipse cx="34.5" cy="450.6094" fill="#84BE84" rx="3" ry="3" style="stroke:#038048;stroke-width:1.0;"/><text fill="#000000" font-family="sans-serif" font-size="14" lengthAdjust="spacing" textLength="189" x="43.5" y="458.1426">reset(maxRows, maxColumns)</text><ellipse cx="34.5" cy="468.2188" fill="#84BE84" rx="3" ry="3" style="stroke:#038048;stroke-width:1.0;"/><text fill="#000000" font-family="sans-serif" font-size="14" lengthAdjust="spacing" textLength="147" x="43.5" y="475.752">isFilledColumn(column)</text><ellipse cx="34.5" cy="485.8281" fill="#84BE84" rx="3" ry="3" style="stroke:#038048;stroke-width:1.0;"/><text fill="#000000" font-family="sans-serif" font-size="14" lengthAdjust="spacing" textLength="154" x="43.5" y="493.3613">putToken(column, color)</text><ellipse cx="34.5" cy="503.4375" fill="#84BE84" rx="3" ry="3" style="stroke:#038048;stroke-width:1.0;"/><text fill="#000000" font-family="sans-serif" font-size="14" lengthAdjust="spacing" textLength="168" x="43.5" y="510.9707">getNextEmptyRow(column)</text><ellipse cx="34.5" cy="521.0469" fill="#84BE84" rx="3" ry="3" style="stroke:#038048;stroke-width:1.0;"/><text fill="#000000" font-family="sans-serif" font-size="14" lengthAdjust="spacing" textLength="83" x="43.5" y="528.5801">isEndGame()</text><ellipse cx="34.5" cy="538.6563" fill="#84BE84" rx="3" ry="3" style="stroke:#038048;stroke-width:1.0;"/><text fill="#000000" font-family="sans-serif" font-size="14" lengthAdjust="spacing" textLength="54" x="43.5" y="546.1895">isFilled()</text><ellipse cx="34.5" cy="556.2656" fill="#84BE84" rx="3" ry="3" style="stroke:#038048;stroke-width:1.0;"/><text fill="#000000" font-family="sans-serif" font-size="14" lengthAdjust="spacing" textLength="88" x="43.5" y="563.7988">isFourInLine()</text><rect fill="#F24D5C" height="6" style="stroke:#C82930;stroke-width:1.0;" width="6" x="31.5" y="570.875"/><text fill="#000000" font-family="sans-serif" font-size="14" lengthAdjust="spacing" textLength="113" x="43.5" y="581.4082">isHorizontal(color)</text><ellipse cx="34.5" cy="591.4844" fill="#84BE84" rx="3" ry="3" style="stroke:#038048;stroke-width:1.0;"/><text fill="#000000" font-family="sans-serif" font-size="14" lengthAdjust="spacing" textLength="77" x="43.5" y="599.0176">getTokens()</text></g><!--MD5=[9b237e88d697a058bd530d6510c96c00]
class BoardView--><g id="elem_BoardView"><rect codeLine="23" fill="#F1F1F1" height="153.6563" id="BoardView" rx="2.5" ry="2.5" style="stroke:#181818;stroke-width:0.5;" width="129" x="184.5" y="168"/><ellipse cx="213" cy="184" fill="#ADD1B2" rx="11" ry="11" style="stroke:#181818;stroke-width:1.0;"/><path d="M215.7656,179.875 Q215.9219,179.6563 216.1094,179.5469 Q216.2969,179.4375 216.5156,179.4375 Q216.8906,179.4375 217.125,179.7031 Q217.3594,179.9531 217.3594,180.5625 L217.3594,182.0156 Q217.3594,182.625 217.125,182.8906 Q216.8906,183.1563 216.5156,183.1563 Q216.1719,183.1563 215.9688,182.9531 Q215.7656,182.7656 215.6563,182.25 Q215.6094,181.8906 215.4219,181.7031 Q215.0938,181.3281 214.4844,181.1094 Q213.875,180.8906 213.25,180.8906 Q212.4844,180.8906 211.8438,181.2188 Q211.2188,181.5469 210.7188,182.2969 Q210.2344,183.0469 210.2344,184.0781 L210.2344,185.1719 Q210.2344,186.4063 211.125,187.2344 Q212.0156,188.0469 213.6094,188.0469 Q214.5469,188.0469 215.2031,187.7969 Q215.5938,187.6406 216.0156,187.2031 Q216.2813,186.9375 216.4219,186.8594 Q216.5781,186.7813 216.7813,186.7813 Q217.1094,186.7813 217.3594,187.0469 Q217.625,187.2969 217.625,187.6406 Q217.625,187.9844 217.2813,188.3906 Q216.7813,188.9688 215.9844,189.2969 Q214.9063,189.75 213.6094,189.75 Q212.0938,189.75 210.8906,189.125 Q209.9063,188.625 209.2188,187.5625 Q208.5313,186.4844 208.5313,185.2031 L208.5313,184.0469 Q208.5313,182.7188 209.1406,181.5781 Q209.7656,180.4219 210.8594,179.8125 Q211.9531,179.1875 213.1875,179.1875 Q213.9219,179.1875 214.5625,179.3594 Q215.2188,179.5156 215.7656,179.875 Z " fill="#000000"/><text fill="#000000" font-family="sans-serif" font-size="14" lengthAdjust="spacing" textLength="67" x="230" y="189.7285">BoardView</text><line style="stroke:#181818;stroke-width:0.5;" x1="185.5" x2="312.5" y1="200" y2="200"/><rect fill="none" height="6" style="stroke:#C82930;stroke-width:1.0;" width="6" x="192.5" y="208"/><text fill="#000000" font-family="sans-serif" font-size="14" lengthAdjust="spacing" textLength="79" x="204.5" y="218.5332">MAX_ROWS</text><rect fill="none" height="6" style="stroke:#C82930;stroke-width:1.0;" width="6" x="192.5" y="225.6094"/><text fill="#000000" font-family="sans-serif" font-size="14" lengthAdjust="spacing" textLength="103" x="204.5" y="236.1426">MAX_COLUMNS</text><rect fill="none" height="6" style="stroke:#C82930;stroke-width:1.0;" width="6" x="192.5" y="243.2188"/><text fill="#000000" font-family="sans-serif" font-size="14" lengthAdjust="spacing" textLength="38" x="204.5" y="253.752">Board</text><rect fill="none" height="6" style="stroke:#C82930;stroke-width:1.0;" width="6" x="192.5" y="260.8281"/><text fill="#000000" font-family="sans-serif" font-size="14" lengthAdjust="spacing" textLength="59" x="204.5" y="271.3613">TurnView</text><line style="stroke:#181818;stroke-width:0.5;" x1="185.5" x2="312.5" y1="278.4375" y2="278.4375"/><ellipse cx="195.5" cy="289.4375" fill="#84BE84" rx="3" ry="3" style="stroke:#038048;stroke-width:1.0;"/><text fill="#000000" font-family="sans-serif" font-size="14" lengthAdjust="spacing" textLength="28" x="204.5" y="296.9707">init()</text><ellipse cx="195.5" cy="307.0469" fill="#84BE84" rx="3" ry="3" style="stroke:#038048;stroke-width:1.0;"/><text fill="#000000" font-family="sans-serif" font-size="14" lengthAdjust="spacing" textLength="42" x="204.5" y="314.5801">show()</text></g><!--MD5=[8c7d7abc12e214c3cc12c9ab70edee11]
class Coordinate--><g id="elem_Coordinate"><rect codeLine="31" fill="#F1F1F1" height="118.4375" id="Coordinate" rx="2.5" ry="2.5" style="stroke:#181818;stroke-width:0.5;" width="104" x="120" y="970"/><ellipse cx="135.9" cy="986" fill="#ADD1B2" rx="11" ry="11" style="stroke:#181818;stroke-width:1.0;"/><path d="M138.6656,981.875 Q138.8219,981.6563 139.0094,981.5469 Q139.1969,981.4375 139.4156,981.4375 Q139.7906,981.4375 140.025,981.7031 Q140.2594,981.9531 140.2594,982.5625 L140.2594,984.0156 Q140.2594,984.625 140.025,984.8906 Q139.7906,985.1563 139.4156,985.1563 Q139.0719,985.1563 138.8688,984.9531 Q138.6656,984.7656 138.5563,984.25 Q138.5094,983.8906 138.3219,983.7031 Q137.9938,983.3281 137.3844,983.1094 Q136.775,982.8906 136.15,982.8906 Q135.3844,982.8906 134.7438,983.2188 Q134.1188,983.5469 133.6188,984.2969 Q133.1344,985.0469 133.1344,986.0781 L133.1344,987.1719 Q133.1344,988.4063 134.025,989.2344 Q134.9156,990.0469 136.5094,990.0469 Q137.4469,990.0469 138.1031,989.7969 Q138.4938,989.6406 138.9156,989.2031 Q139.1813,988.9375 139.3219,988.8594 Q139.4781,988.7813 139.6813,988.7813 Q140.0094,988.7813 140.2594,989.0469 Q140.525,989.2969 140.525,989.6406 Q140.525,989.9844 140.1813,990.3906 Q139.6813,990.9688 138.8844,991.2969 Q137.8063,991.75 136.5094,991.75 Q134.9938,991.75 133.7906,991.125 Q132.8063,990.625 132.1188,989.5625 Q131.4313,988.4844 131.4313,987.2031 L131.4313,986.0469 Q131.4313,984.7188 132.0406,983.5781 Q132.6656,982.4219 133.7594,981.8125 Q134.8531,981.1875 136.0875,981.1875 Q136.8219,981.1875 137.4625,981.3594 Q138.1188,981.5156 138.6656,981.875 Z " fill="#000000"/><text fill="#000000" font-family="sans-serif" font-size="14" lengthAdjust="spacing" textLength="70" x="150.1" y="991.7285">Coordinate</text><line style="stroke:#181818;stroke-width:0.5;" x1="121" x2="223" y1="1002" y2="1002"/><rect fill="none" height="6" style="stroke:#C82930;stroke-width:1.0;" width="6" x="128" y="1010"/><text fill="#000000" font-family="sans-serif" font-size="14" lengthAdjust="spacing" textLength="22" x="140" y="1020.5332">row</text><rect fill="none" height="6" style="stroke:#C82930;stroke-width:1.0;" width="6" x="128" y="1027.6094"/><text fill="#000000" font-family="sans-serif" font-size="14" lengthAdjust="spacing" textLength="45" x="140" y="1038.1426">column</text><line style="stroke:#181818;stroke-width:0.5;" x1="121" x2="223" y1="1045.2188" y2="1045.2188"/><ellipse cx="131" cy="1056.2188" fill="#84BE84" rx="3" ry="3" style="stroke:#038048;stroke-width:1.0;"/><text fill="#000000" font-family="sans-serif" font-size="14" lengthAdjust="spacing" textLength="57" x="140" y="1063.752">getRow()</text><ellipse cx="131" cy="1073.8281" fill="#84BE84" rx="3" ry="3" style="stroke:#038048;stroke-width:1.0;"/><text fill="#000000" font-family="sans-serif" font-size="14" lengthAdjust="spacing" textLength="78" x="140" y="1081.3613">getColumn()</text></g><!--MD5=[d8c8cfd5ca149094f5b67f9f607a5ec7]
class Token--><g id="elem_Token"><rect codeLine="37" fill="#F1F1F1" height="83.2188" id="Token" rx="2.5" ry="2.5" style="stroke:#181818;stroke-width:0.5;" width="90" x="189" y="827"/><ellipse cx="212.1" cy="843" fill="#ADD1B2" rx="11" ry="11" style="stroke:#181818;stroke-width:1.0;"/><path d="M214.8656,838.875 Q215.0219,838.6563 215.2094,838.5469 Q215.3969,838.4375 215.6156,838.4375 Q215.9906,838.4375 216.225,838.7031 Q216.4594,838.9531 216.4594,839.5625 L216.4594,841.0156 Q216.4594,841.625 216.225,841.8906 Q215.9906,842.1563 215.6156,842.1563 Q215.2719,842.1563 215.0688,841.9531 Q214.8656,841.7656 214.7563,841.25 Q214.7094,840.8906 214.5219,840.7031 Q214.1938,840.3281 213.5844,840.1094 Q212.975,839.8906 212.35,839.8906 Q211.5844,839.8906 210.9438,840.2188 Q210.3188,840.5469 209.8188,841.2969 Q209.3344,842.0469 209.3344,843.0781 L209.3344,844.1719 Q209.3344,845.4063 210.225,846.2344 Q211.1156,847.0469 212.7094,847.0469 Q213.6469,847.0469 214.3031,846.7969 Q214.6938,846.6406 215.1156,846.2031 Q215.3813,845.9375 215.5219,845.8594 Q215.6781,845.7813 215.8813,845.7813 Q216.2094,845.7813 216.4594,846.0469 Q216.725,846.2969 216.725,846.6406 Q216.725,846.9844 216.3813,847.3906 Q215.8813,847.9688 215.0844,848.2969 Q214.0063,848.75 212.7094,848.75 Q211.1938,848.75 209.9906,848.125 Q209.0063,847.625 208.3188,846.5625 Q207.6313,845.4844 207.6313,844.2031 L207.6313,843.0469 Q207.6313,841.7188 208.2406,840.5781 Q208.8656,839.4219 209.9594,838.8125 Q211.0531,838.1875 212.2875,838.1875 Q213.0219,838.1875 213.6625,838.3594 Q214.3188,838.5156 214.8656,838.875 Z " fill="#000000"/><text fill="#000000" font-family="sans-serif" font-size="14" lengthAdjust="spacing" textLength="40" x="227.9" y="848.7285">Token</text><line style="stroke:#181818;stroke-width:0.5;" x1="190" x2="278" y1="859" y2="859"/><rect fill="none" height="6" style="stroke:#C82930;stroke-width:1.0;" width="6" x="197" y="867"/><text fill="#000000" font-family="sans-serif" font-size="14" lengthAdjust="spacing" textLength="34" x="209" y="877.5332">Color</text><line style="stroke:#181818;stroke-width:0.5;" x1="190" x2="278" y1="884.6094" y2="884.6094"/><ellipse cx="200" cy="895.6094" fill="#84BE84" rx="3" ry="3" style="stroke:#038048;stroke-width:1.0;"/><text fill="#000000" font-family="sans-serif" font-size="14" lengthAdjust="spacing" textLength="64" x="209" y="903.1426">getColor()</text></g><!--MD5=[0f1adae5684a082996b24e2018afd4c9]
class TurnView--><g id="elem_TurnView"><rect codeLine="41" fill="#F1F1F1" height="118.4375" id="TurnView" rx="2.5" ry="2.5" style="stroke:#181818;stroke-width:0.5;" width="184" x="274" y="435"/><ellipse cx="332.25" cy="451" fill="#ADD1B2" rx="11" ry="11" style="stroke:#181818;stroke-width:1.0;"/><path d="M335.0156,446.875 Q335.1719,446.6563 335.3594,446.5469 Q335.5469,446.4375 335.7656,446.4375 Q336.1406,446.4375 336.375,446.7031 Q336.6094,446.9531 336.6094,447.5625 L336.6094,449.0156 Q336.6094,449.625 336.375,449.8906 Q336.1406,450.1563 335.7656,450.1563 Q335.4219,450.1563 335.2188,449.9531 Q335.0156,449.7656 334.9063,449.25 Q334.8594,448.8906 334.6719,448.7031 Q334.3438,448.3281 333.7344,448.1094 Q333.125,447.8906 332.5,447.8906 Q331.7344,447.8906 331.0938,448.2188 Q330.4688,448.5469 329.9688,449.2969 Q329.4844,450.0469 329.4844,451.0781 L329.4844,452.1719 Q329.4844,453.4063 330.375,454.2344 Q331.2656,455.0469 332.8594,455.0469 Q333.7969,455.0469 334.4531,454.7969 Q334.8438,454.6406 335.2656,454.2031 Q335.5313,453.9375 335.6719,453.8594 Q335.8281,453.7813 336.0313,453.7813 Q336.3594,453.7813 336.6094,454.0469 Q336.875,454.2969 336.875,454.6406 Q336.875,454.9844 336.5313,455.3906 Q336.0313,455.9688 335.2344,456.2969 Q334.1563,456.75 332.8594,456.75 Q331.3438,456.75 330.1406,456.125 Q329.1563,455.625 328.4688,454.5625 Q327.7813,453.4844 327.7813,452.2031 L327.7813,451.0469 Q327.7813,449.7188 328.3906,448.5781 Q329.0156,447.4219 330.1094,446.8125 Q331.2031,446.1875 332.4375,446.1875 Q333.1719,446.1875 333.8125,446.3594 Q334.4688,446.5156 335.0156,446.875 Z " fill="#000000"/><text fill="#000000" font-family="sans-serif" font-size="14" lengthAdjust="spacing" textLength="59" x="352.75" y="456.7285">TurnView</text><line style="stroke:#181818;stroke-width:0.5;" x1="275" x2="457" y1="467" y2="467"/><rect fill="none" height="6" style="stroke:#C82930;stroke-width:1.0;" width="6" x="282" y="475"/><text fill="#000000" font-family="sans-serif" font-size="14" lengthAdjust="spacing" textLength="25" x="294" y="485.5332">turn</text><line style="stroke:#181818;stroke-width:0.5;" x1="275" x2="457" y1="492.6094" y2="492.6094"/><ellipse cx="285" cy="503.6094" fill="#84BE84" rx="3" ry="3" style="stroke:#038048;stroke-width:1.0;"/><text fill="#000000" font-family="sans-serif" font-size="14" lengthAdjust="spacing" textLength="158" x="294" y="511.1426">getColumn(maxColumns)</text><ellipse cx="285" cy="521.2188" fill="#84BE84" rx="3" ry="3" style="stroke:#038048;stroke-width:1.0;"/><text fill="#000000" font-family="sans-serif" font-size="14" lengthAdjust="spacing" textLength="66" x="294" y="528.752">nextTurn()</text><ellipse cx="285" cy="538.8281" fill="#84BE84" rx="3" ry="3" style="stroke:#038048;stroke-width:1.0;"/><text fill="#000000" font-family="sans-serif" font-size="14" lengthAdjust="spacing" textLength="64" x="294" y="546.3613">getColor()</text></g><!--MD5=[dd91eae41778c45e12552e5329e240e8]
class Turn--><g id="elem_Turn"><rect codeLine="48" fill="#F1F1F1" height="100.8281" id="Turn" rx="2.5" ry="2.5" style="stroke:#181818;stroke-width:0.5;" width="92" x="305" y="666"/><ellipse cx="333.5" cy="682" fill="#ADD1B2" rx="11" ry="11" style="stroke:#181818;stroke-width:1.0;"/><path d="M336.2656,677.875 Q336.4219,677.6563 336.6094,677.5469 Q336.7969,677.4375 337.0156,677.4375 Q337.3906,677.4375 337.625,677.7031 Q337.8594,677.9531 337.8594,678.5625 L337.8594,680.0156 Q337.8594,680.625 337.625,680.8906 Q337.3906,681.1563 337.0156,681.1563 Q336.6719,681.1563 336.4688,680.9531 Q336.2656,680.7656 336.1563,680.25 Q336.1094,679.8906 335.9219,679.7031 Q335.5938,679.3281 334.9844,679.1094 Q334.375,678.8906 333.75,678.8906 Q332.9844,678.8906 332.3438,679.2188 Q331.7188,679.5469 331.2188,680.2969 Q330.7344,681.0469 330.7344,682.0781 L330.7344,683.1719 Q330.7344,684.4063 331.625,685.2344 Q332.5156,686.0469 334.1094,686.0469 Q335.0469,686.0469 335.7031,685.7969 Q336.0938,685.6406 336.5156,685.2031 Q336.7813,684.9375 336.9219,684.8594 Q337.0781,684.7813 337.2813,684.7813 Q337.6094,684.7813 337.8594,685.0469 Q338.125,685.2969 338.125,685.6406 Q338.125,685.9844 337.7813,686.3906 Q337.2813,686.9688 336.4844,687.2969 Q335.4063,687.75 334.1094,687.75 Q332.5938,687.75 331.3906,687.125 Q330.4063,686.625 329.7188,685.5625 Q329.0313,684.4844 329.0313,683.2031 L329.0313,682.0469 Q329.0313,680.7188 329.6406,679.5781 Q330.2656,678.4219 331.3594,677.8125 Q332.4531,677.1875 333.6875,677.1875 Q334.4219,677.1875 335.0625,677.3594 Q335.7188,677.5156 336.2656,677.875 Z " fill="#000000"/><text fill="#000000" font-family="sans-serif" font-size="14" lengthAdjust="spacing" textLength="30" x="350.5" y="687.7285">Turn</text><line style="stroke:#181818;stroke-width:0.5;" x1="306" x2="396" y1="698" y2="698"/><rect fill="none" height="6" style="stroke:#C82930;stroke-width:1.0;" width="6" x="313" y="706"/><text fill="#000000" font-family="sans-serif" font-size="14" lengthAdjust="spacing" textLength="31" x="325" y="716.5332">color</text><line style="stroke:#181818;stroke-width:0.5;" x1="306" x2="396" y1="723.6094" y2="723.6094"/><ellipse cx="316" cy="734.6094" fill="#84BE84" rx="3" ry="3" style="stroke:#038048;stroke-width:1.0;"/><text fill="#000000" font-family="sans-serif" font-size="14" lengthAdjust="spacing" textLength="64" x="325" y="742.1426">getColor()</text><ellipse cx="316" cy="752.2188" fill="#84BE84" rx="3" ry="3" style="stroke:#038048;stroke-width:1.0;"/><text fill="#000000" font-family="sans-serif" font-size="14" lengthAdjust="spacing" textLength="66" x="325" y="759.752">nextTurn()</text></g><!--MD5=[2741598bdf59a7d7e0d5c97658fd3022]
class Result--><g id="elem_Result"><rect codeLine="54" fill="#F1F1F1" height="48" id="Result" rx="2.5" ry="2.5" style="stroke:#181818;stroke-width:0.5;" width="72" x="184" y="692.5"/><ellipse cx="199" cy="708.5" fill="#ADD1B2" rx="11" ry="11" style="stroke:#181818;stroke-width:1.0;"/><path d="M201.7656,704.375 Q201.9219,704.1563 202.1094,704.0469 Q202.2969,703.9375 202.5156,703.9375 Q202.8906,703.9375 203.125,704.2031 Q203.3594,704.4531 203.3594,705.0625 L203.3594,706.5156 Q203.3594,707.125 203.125,707.3906 Q202.8906,707.6563 202.5156,707.6563 Q202.1719,707.6563 201.9688,707.4531 Q201.7656,707.2656 201.6563,706.75 Q201.6094,706.3906 201.4219,706.2031 Q201.0938,705.8281 200.4844,705.6094 Q199.875,705.3906 199.25,705.3906 Q198.4844,705.3906 197.8438,705.7188 Q197.2188,706.0469 196.7188,706.7969 Q196.2344,707.5469 196.2344,708.5781 L196.2344,709.6719 Q196.2344,710.9063 197.125,711.7344 Q198.0156,712.5469 199.6094,712.5469 Q200.5469,712.5469 201.2031,712.2969 Q201.5938,712.1406 202.0156,711.7031 Q202.2813,711.4375 202.4219,711.3594 Q202.5781,711.2813 202.7813,711.2813 Q203.1094,711.2813 203.3594,711.5469 Q203.625,711.7969 203.625,712.1406 Q203.625,712.4844 203.2813,712.8906 Q202.7813,713.4688 201.9844,713.7969 Q200.9063,714.25 199.6094,714.25 Q198.0938,714.25 196.8906,713.625 Q195.9063,713.125 195.2188,712.0625 Q194.5313,710.9844 194.5313,709.7031 L194.5313,708.5469 Q194.5313,707.2188 195.1406,706.0781 Q195.7656,704.9219 196.8594,704.3125 Q197.9531,703.6875 199.1875,703.6875 Q199.9219,703.6875 200.5625,703.8594 Q201.2188,704.0156 201.7656,704.375 Z " fill="#000000"/><text fill="#000000" font-family="sans-serif" font-size="14" lengthAdjust="spacing" textLength="40" x="213" y="714.2285">Result</text><line style="stroke:#181818;stroke-width:0.5;" x1="185" x2="255" y1="724.5" y2="724.5"/><line style="stroke:#181818;stroke-width:0.5;" x1="185" x2="255" y1="732.5" y2="732.5"/></g><!--MD5=[c4df9b95f6f4e4e1c32bb5a44abd175a]
class Colors--><g id="elem_Colors"><rect codeLine="56" fill="#F1F1F1" height="83.2188" id="Colors" rx="2.5" ry="2.5" style="stroke:#181818;stroke-width:0.5;" width="73" x="259.5" y="987.5"/><ellipse cx="274.5" cy="1003.5" fill="#EB937F" rx="11" ry="11" style="stroke:#181818;stroke-width:1.0;"/><path d="M273.3594,1004.2969 L273.3594,1006.7969 L277.6875,1006.7969 L277.6875,1005.875 Q277.6875,1005.2656 277.9219,1005 Q278.1719,1004.7344 278.5469,1004.7344 Q278.9219,1004.7344 279.1563,1005 Q279.3906,1005.2656 279.3906,1005.875 L279.3906,1008.5 L271.3906,1008.5 Q270.7656,1008.5 270.5,1008.2656 Q270.25,1008.0313 270.25,1007.6406 Q270.25,1007.2656 270.5156,1007.0313 Q270.7813,1006.7969 271.3906,1006.7969 L271.6563,1006.7969 L271.6563,1000.1406 L271.3906,1000.1406 Q270.7656,1000.1406 270.5,999.9063 Q270.25,999.6719 270.25,999.2813 Q270.25,998.9063 270.5,998.6719 Q270.7656,998.4375 271.3906,998.4375 L279.0156,998.4375 L279.0156,1001.0313 Q279.0156,1001.6406 278.7813,1001.9063 Q278.5625,1002.1563 278.1719,1002.1563 Q277.7969,1002.1563 277.5625,1001.9063 Q277.3281,1001.6406 277.3281,1001.0313 L277.3281,1000.1406 L273.3594,1000.1406 L273.3594,1002.5938 L274.8438,1002.5938 Q274.8438,1001.9375 274.9688,1001.75 Q275.2344,1001.3438 275.7031,1001.3438 Q276.0781,1001.3438 276.3125,1001.6094 Q276.5469,1001.8594 276.5469,1002.4688 L276.5469,1004.4375 Q276.5469,1004.9844 276.4219,1005.1719 Q276.1563,1005.5625 275.7031,1005.5625 Q275.2344,1005.5625 274.9688,1005.1563 Q274.8438,1004.9688 274.8438,1004.2969 L273.3594,1004.2969 Z " fill="#000000"/><text fill="#000000" font-family="sans-serif" font-size="14" lengthAdjust="spacing" textLength="41" x="288.5" y="1009.2285">Colors</text><line style="stroke:#181818;stroke-width:0.5;" x1="260.5" x2="331.5" y1="1019.5" y2="1019.5"/><text fill="#000000" font-family="sans-serif" font-size="14" lengthAdjust="spacing" textLength="26" x="265.5" y="1038.0332">Red</text><text fill="#000000" font-family="sans-serif" font-size="14" lengthAdjust="spacing" textLength="40" x="265.5" y="1055.6426">Yellow</text><line style="stroke:#181818;stroke-width:0.5;" x1="260.5" x2="331.5" y1="1062.7188" y2="1062.7188"/></g><!--MD5=[1da39882317deee69888dc65a2b454be]
link Connect4 to BoardView--><g id="link_Connect4_BoardView"><path codeLine="61" d="M186.05,108.21 C193.89,125.13 202.87,144.5 211.55,163.21 " fill="none" id="Connect4-to-BoardView" style="stroke:#181818;stroke-width:1.0;stroke-dasharray:7.0,7.0;"/><polygon fill="#181818" points="213.74,167.95,213.5944,158.1022,211.642,163.4115,206.3328,161.459,213.74,167.95" style="stroke:#181818;stroke-width:1.0;"/></g><!--MD5=[bd62d02ddcc7cab85c8af840f89aa653]
link Connect4 to YesNoDialogView--><g id="link_Connect4_YesNoDialogView"><path codeLine="62" d="M140.22,108.21 C127.34,136.31 111.36,171.19 98.82,198.56 " fill="none" id="Connect4-to-YesNoDialogView" style="stroke:#181818;stroke-width:1.0;stroke-dasharray:7.0,7.0;"/><polygon fill="#181818" points="96.68,203.23,104.0626,196.711,98.7608,198.6836,96.7883,193.3817,96.68,203.23" style="stroke:#181818;stroke-width:1.0;"/></g><!--MD5=[87ac28f7ff846e55e34c2c863c6ff220]
link BoardView to Board--><g id="link_BoardView_Board"><path codeLine="64" d="M212.63,322.12 C204.33,339.5 195.32,358.36 186.42,376.98 " fill="none" id="BoardView-to-Board" style="stroke:#181818;stroke-width:1.0;stroke-dasharray:7.0,7.0;"/><polygon fill="#181818" points="184.16,381.71,191.6495,375.3141,186.3158,377.1986,184.4313,371.8649,184.16,381.71" style="stroke:#181818;stroke-width:1.0;"/></g><!--MD5=[c7c3dfe1a204cc183b3ebd4fea4524e8]
link BoardView to TurnView--><g id="link_BoardView_TurnView"><path codeLine="65" d="M285.06,322.12 C301.44,356.71 320.59,397.14 336.15,429.99 " fill="none" id="BoardView-to-TurnView" style="stroke:#181818;stroke-width:1.0;stroke-dasharray:7.0,7.0;"/><polygon fill="#181818" points="338.42,434.78,338.1741,424.9342,336.2759,430.2631,330.947,428.3648,338.42,434.78" style="stroke:#181818;stroke-width:1.0;"/></g><!--MD5=[b90c15517c5612720f6d3b5735a27f0e]
link TurnView to Turn--><g id="link_TurnView_Turn"><path codeLine="66" d="M361.2225,565.1921 C361.2225,565.1921 357.1,625.78 355.27,652.72 " fill="none" id="TurnView-Turn" style="stroke:#181818;stroke-width:1.0;"/><polygon fill="#181818" points="354.37,665.93,358.9738,657.2234,354.7106,660.9416,350.9924,656.6784,354.37,665.93" style="stroke:#181818;stroke-width:1.0;"/><line style="stroke:#181818;stroke-width:1.0;" x1="354.7106" x2="355.25" y1="660.9416" y2="652.96"/><polygon fill="none" points="362.04,553.22,357.6406,558.9336,361.2225,565.1921,365.622,559.4786,362.04,553.22" style="stroke:#181818;stroke-width:1.0;"/></g><!--MD5=[8dd95aff79c51151a18c835e3410b3cd]
link Board to Result--><g id="link_Board_Result"><path codeLine="67" d="M175.89,606.22 C188.05,636.34 200.17,666.37 208.62,687.3 " fill="none" id="Board-to-Result" style="stroke:#181818;stroke-width:1.0;"/><polygon fill="#181818" points="210.58,692.16,210.9253,682.3172,208.7108,687.5226,203.5054,685.308,210.58,692.16" style="stroke:#181818;stroke-width:1.0;"/><text fill="#000000" font-family="sans-serif" font-size="13" lengthAdjust="spacing" textLength="99" x="97.2183" y="681.8151">hace falta result?</text></g><!--MD5=[23c004dc6349f1678ef711c3be24147e]
link Board to Token--><g id="link_Board_Token"><path codeLine="69" d="M135.4109,618.2575 C135.4109,618.2575 149.52,720.54 167,767 C173.35,783.89 183.01,800.78 193.03,815.77 " fill="none" id="Board-Token" style="stroke:#181818;stroke-width:1.0;"/><polygon fill="#181818" points="200.71,826.82,198.8658,817.1453,197.8597,822.712,192.293,821.7059,200.71,826.82" style="stroke:#181818;stroke-width:1.0;"/><line style="stroke:#181818;stroke-width:1.0;" x1="197.8597" x2="193.29" y1="822.712" y2="816.145"/><polygon fill="none" points="134.29,606.31,130.8679,612.6574,135.4109,618.2575,138.833,611.9101,134.29,606.31" style="stroke:#181818;stroke-width:1.0;"/></g><!--MD5=[131fd55d1ea8d452206c40f8bf9c1560]
link Turn to Token--><g id="link_Turn_Token"><path codeLine="71" d="M312.37,767.03 C298.5,784.81 282.94,804.76 269.36,822.16 " fill="none" id="Turn-to-Token" style="stroke:#181818;stroke-width:1.0;stroke-dasharray:7.0,7.0;"/><polygon fill="#181818" points="265.96,826.53,274.6464,821.8881,269.0327,822.5855,268.3352,816.9719,265.96,826.53" style="stroke:#181818;stroke-width:1.0;"/></g><!--MD5=[d6208de9411c4b1d5190de2c034c83cb]
link Token to Colors--><g id="link_Token_Colors"><path codeLine="74" d="M254.3378,921.4969 C254.3378,921.4969 268.65,958.07 275.22,974.87 " fill="none" id="Token-Colors" style="stroke:#181818;stroke-width:1.0;"/><polygon fill="#181818" points="280.09,987.32,280.5437,977.4816,278.2719,982.6622,273.0913,980.3905,280.09,987.32" style="stroke:#181818;stroke-width:1.0;"/><line style="stroke:#181818;stroke-width:1.0;" x1="278.2719" x2="275.35" y1="982.6622" y2="975.215"/><polygon fill="#181818" points="249.97,910.32,248.4283,917.3644,254.3378,921.4969,255.8795,914.4525,249.97,910.32" style="stroke:#181818;stroke-width:1.0;"/></g><!--MD5=[f2f17acc82dd155756e97465362881f7]
link Token to Coordinate--><g id="link_Token_Coordinate"><path codeLine="75" d="M218.03,910.32 C211.48,927.06 203.75,946.82 196.52,965.32 " fill="none" id="Token-to-Coordinate" style="stroke:#181818;stroke-width:1.0;stroke-dasharray:7.0,7.0;"/><polygon fill="#181818" points="194.69,970,201.7026,963.0845,196.5174,965.3459,194.256,960.1607,194.69,970" style="stroke:#181818;stroke-width:1.0;"/></g><!--MD5=[fec54f4c3ebf60eba6115ca1b138711c]
@startuml

class Connect4{
    - boardView
    - yesNoDialog
    + playGame()
}
class YesNoDialogView{
    + read(message)
    + isAffirmative()
}
class Board{
    - tokens[]
    + reset(maxRows, maxColumns)
    + isFilledColumn(column)
    + putToken(column, color)
    + getNextEmptyRow(column)
    + isEndGame()
    + isFilled()
    + isFourInLine()
    - isHorizontal(color)
    + getTokens()
}
class BoardView{
    - MAX_ROWS
    - MAX_COLUMNS
    - Board
    - TurnView
    + init()
    + show()
}
class Coordinate{
    - row
    - column
    + getRow()
    + getColumn()
}
class Token{
    - Color
    + getColor()
}
class TurnView{
    - turn
    + getColumn(maxColumns)
    + nextTurn()
    + getColor()
}

class Turn{
    - color
    + getColor()
    + nextTurn()
}

class Result

enum Colors{
Red
Yellow
}

Connect4 ..> BoardView
Connect4 ..> YesNoDialogView

BoardView ..> Board
BoardView ..> TurnView
TurnView o- -> Turn
Board - -> "hace falta result?" Result

Board o- -> Token

Turn ..> Token


Token *- -> Colors
Token ..> Coordinate
@enduml

PlantUML version 1.2022.5(Sat Apr 30 12:55:52 CEST 2022)
(GPL source distribution)
Java Runtime: OpenJDK Runtime Environment
JVM: OpenJDK 64-Bit Server VM
Default Encoding: UTF-8
Language: es
Country: ES
--></g></svg>