<?xml version="1.0" encoding="UTF-8" standalone="no"?><svg xmlns="http://www.w3.org/2000/svg" xmlns:xlink="http://www.w3.org/1999/xlink" contentStyleType="text/css" height="1058px" preserveAspectRatio="none" style="width:576px;height:1058px;background:#FFFFFF;" version="1.1" viewBox="0 0 576 1058" width="576px" zoomAndPan="magnify"><defs/><g><!--MD5=[c8948ff3b85f2fe890b517bc42f92cc2]
class connect4--><g id="elem_connect4"><rect codeLine="2" fill="#F1F1F1" height="100.8281" id="connect4" rx="2.5" ry="2.5" style="stroke:#181818;stroke-width:0.5;" width="105" x="193.5" y="7"/><ellipse cx="215.25" cy="23" fill="#ADD1B2" rx="11" ry="11" style="stroke:#181818;stroke-width:1.0;"/><path d="M218.0156,18.875 Q218.1719,18.6563 218.3594,18.5469 Q218.5469,18.4375 218.7656,18.4375 Q219.1406,18.4375 219.375,18.7031 Q219.6094,18.9531 219.6094,19.5625 L219.6094,21.0156 Q219.6094,21.625 219.375,21.8906 Q219.1406,22.1563 218.7656,22.1563 Q218.4219,22.1563 218.2188,21.9531 Q218.0156,21.7656 217.9063,21.25 Q217.8594,20.8906 217.6719,20.7031 Q217.3438,20.3281 216.7344,20.1094 Q216.125,19.8906 215.5,19.8906 Q214.7344,19.8906 214.0938,20.2188 Q213.4688,20.5469 212.9688,21.2969 Q212.4844,22.0469 212.4844,23.0781 L212.4844,24.1719 Q212.4844,25.4063 213.375,26.2344 Q214.2656,27.0469 215.8594,27.0469 Q216.7969,27.0469 217.4531,26.7969 Q217.8438,26.6406 218.2656,26.2031 Q218.5313,25.9375 218.6719,25.8594 Q218.8281,25.7813 219.0313,25.7813 Q219.3594,25.7813 219.6094,26.0469 Q219.875,26.2969 219.875,26.6406 Q219.875,26.9844 219.5313,27.3906 Q219.0313,27.9688 218.2344,28.2969 Q217.1563,28.75 215.8594,28.75 Q214.3438,28.75 213.1406,28.125 Q212.1563,27.625 211.4688,26.5625 Q210.7813,25.4844 210.7813,24.2031 L210.7813,23.0469 Q210.7813,21.7188 211.3906,20.5781 Q212.0156,19.4219 213.1094,18.8125 Q214.2031,18.1875 215.4375,18.1875 Q216.1719,18.1875 216.8125,18.3594 Q217.4688,18.5156 218.0156,18.875 Z " fill="#000000"/><text fill="#000000" font-family="sans-serif" font-size="14" lengthAdjust="spacing" textLength="58" x="230.75" y="28.7285">connect4</text><line style="stroke:#181818;stroke-width:0.5;" x1="194.5" x2="297.5" y1="39" y2="39"/><rect fill="none" height="6" style="stroke:#C82930;stroke-width:1.0;" width="6" x="201.5" y="47"/><text fill="#000000" font-family="sans-serif" font-size="14" lengthAdjust="spacing" textLength="66" x="213.5" y="57.5332">boardView</text><rect fill="none" height="6" style="stroke:#C82930;stroke-width:1.0;" width="6" x="201.5" y="64.6094"/><text fill="#000000" font-family="sans-serif" font-size="14" lengthAdjust="spacing" textLength="79" x="213.5" y="75.1426">yesNoDialog</text><line style="stroke:#181818;stroke-width:0.5;" x1="194.5" x2="297.5" y1="82.2188" y2="82.2188"/><ellipse cx="204.5" cy="93.2188" fill="#84BE84" rx="3" ry="3" style="stroke:#038048;stroke-width:1.0;"/><text fill="#000000" font-family="sans-serif" font-size="14" lengthAdjust="spacing" textLength="74" x="213.5" y="100.752">playGame()</text></g><!--MD5=[9a248d0bf8eff2287ebd16a0f5c4d5d9]
class yesNoDialog--><g id="elem_yesNoDialog"><rect codeLine="7" fill="#F1F1F1" height="83.2188" id="yesNoDialog" rx="2.5" ry="2.5" style="stroke:#181818;stroke-width:0.5;" width="122" x="105" y="203.5"/><ellipse cx="124.95" cy="219.5" fill="#ADD1B2" rx="11" ry="11" style="stroke:#181818;stroke-width:1.0;"/><path d="M127.7156,215.375 Q127.8719,215.1563 128.0594,215.0469 Q128.2469,214.9375 128.4656,214.9375 Q128.8406,214.9375 129.075,215.2031 Q129.3094,215.4531 129.3094,216.0625 L129.3094,217.5156 Q129.3094,218.125 129.075,218.3906 Q128.8406,218.6563 128.4656,218.6563 Q128.1219,218.6563 127.9188,218.4531 Q127.7156,218.2656 127.6063,217.75 Q127.5594,217.3906 127.3719,217.2031 Q127.0438,216.8281 126.4344,216.6094 Q125.825,216.3906 125.2,216.3906 Q124.4344,216.3906 123.7938,216.7188 Q123.1688,217.0469 122.6688,217.7969 Q122.1844,218.5469 122.1844,219.5781 L122.1844,220.6719 Q122.1844,221.9063 123.075,222.7344 Q123.9656,223.5469 125.5594,223.5469 Q126.4969,223.5469 127.1531,223.2969 Q127.5438,223.1406 127.9656,222.7031 Q128.2313,222.4375 128.3719,222.3594 Q128.5281,222.2813 128.7313,222.2813 Q129.0594,222.2813 129.3094,222.5469 Q129.575,222.7969 129.575,223.1406 Q129.575,223.4844 129.2313,223.8906 Q128.7313,224.4688 127.9344,224.7969 Q126.8563,225.25 125.5594,225.25 Q124.0438,225.25 122.8406,224.625 Q121.8563,224.125 121.1688,223.0625 Q120.4813,221.9844 120.4813,220.7031 L120.4813,219.5469 Q120.4813,218.2188 121.0906,217.0781 Q121.7156,215.9219 122.8094,215.3125 Q123.9031,214.6875 125.1375,214.6875 Q125.8719,214.6875 126.5125,214.8594 Q127.1688,215.0156 127.7156,215.375 Z " fill="#000000"/><text fill="#000000" font-family="sans-serif" font-size="14" lengthAdjust="spacing" textLength="79" x="140.05" y="225.2285">yesNoDialog</text><line style="stroke:#181818;stroke-width:0.5;" x1="106" x2="226" y1="235.5" y2="235.5"/><line style="stroke:#181818;stroke-width:0.5;" x1="106" x2="226" y1="243.5" y2="243.5"/><ellipse cx="116" cy="254.5" fill="#84BE84" rx="3" ry="3" style="stroke:#038048;stroke-width:1.0;"/><text fill="#000000" font-family="sans-serif" font-size="14" lengthAdjust="spacing" textLength="96" x="125" y="262.0332">read(message)</text><ellipse cx="116" cy="272.1094" fill="#84BE84" rx="3" ry="3" style="stroke:#038048;stroke-width:1.0;"/><text fill="#000000" font-family="sans-serif" font-size="14" lengthAdjust="spacing" textLength="86" x="125" y="279.6426">isAffirmative()</text></g><!--MD5=[400f0600dc490cab46af2e6886caefc3]
class board--><g id="elem_board"><rect codeLine="11" fill="#F1F1F1" height="241.7031" id="board" rx="2.5" ry="2.5" style="stroke:#181818;stroke-width:0.5;" width="276" x="40" y="382"/><ellipse cx="155.25" cy="398" fill="#ADD1B2" rx="11" ry="11" style="stroke:#181818;stroke-width:1.0;"/><path d="M158.0156,393.875 Q158.1719,393.6563 158.3594,393.5469 Q158.5469,393.4375 158.7656,393.4375 Q159.1406,393.4375 159.375,393.7031 Q159.6094,393.9531 159.6094,394.5625 L159.6094,396.0156 Q159.6094,396.625 159.375,396.8906 Q159.1406,397.1563 158.7656,397.1563 Q158.4219,397.1563 158.2188,396.9531 Q158.0156,396.7656 157.9063,396.25 Q157.8594,395.8906 157.6719,395.7031 Q157.3438,395.3281 156.7344,395.1094 Q156.125,394.8906 155.5,394.8906 Q154.7344,394.8906 154.0938,395.2188 Q153.4688,395.5469 152.9688,396.2969 Q152.4844,397.0469 152.4844,398.0781 L152.4844,399.1719 Q152.4844,400.4063 153.375,401.2344 Q154.2656,402.0469 155.8594,402.0469 Q156.7969,402.0469 157.4531,401.7969 Q157.8438,401.6406 158.2656,401.2031 Q158.5313,400.9375 158.6719,400.8594 Q158.8281,400.7813 159.0313,400.7813 Q159.3594,400.7813 159.6094,401.0469 Q159.875,401.2969 159.875,401.6406 Q159.875,401.9844 159.5313,402.3906 Q159.0313,402.9688 158.2344,403.2969 Q157.1563,403.75 155.8594,403.75 Q154.3438,403.75 153.1406,403.125 Q152.1563,402.625 151.4688,401.5625 Q150.7813,400.4844 150.7813,399.2031 L150.7813,398.0469 Q150.7813,396.7188 151.3906,395.5781 Q152.0156,394.4219 153.1094,393.8125 Q154.2031,393.1875 155.4375,393.1875 Q156.1719,393.1875 156.8125,393.3594 Q157.4688,393.5156 158.0156,393.875 Z " fill="#000000"/><text fill="#000000" font-family="sans-serif" font-size="14" lengthAdjust="spacing" textLength="37" x="175.75" y="403.7285">board</text><line style="stroke:#181818;stroke-width:0.5;" x1="41" x2="315" y1="414" y2="414"/><rect fill="none" height="6" style="stroke:#C82930;stroke-width:1.0;" width="6" x="48" y="422"/><text fill="#000000" font-family="sans-serif" font-size="14" lengthAdjust="spacing" textLength="50" x="60" y="432.5332">tokens[]</text><rect fill="none" height="6" style="stroke:#C82930;stroke-width:1.0;" width="6" x="48" y="439.6094"/><text fill="#000000" font-family="sans-serif" font-size="14" lengthAdjust="spacing" textLength="91" x="60" y="450.1426">inLineChecker</text><rect fill="none" height="6" style="stroke:#C82930;stroke-width:1.0;" width="6" x="48" y="457.2188"/><text fill="#000000" font-family="sans-serif" font-size="14" lengthAdjust="spacing" textLength="62" x="60" y="467.752">lastToken</text><line style="stroke:#181818;stroke-width:0.5;" x1="41" x2="315" y1="474.8281" y2="474.8281"/><ellipse cx="51" cy="485.8281" fill="#84BE84" rx="3" ry="3" style="stroke:#038048;stroke-width:1.0;"/><text fill="#000000" font-family="sans-serif" font-size="14" lengthAdjust="spacing" textLength="189" x="60" y="493.3613">reset(maxRows, maxColumns)</text><ellipse cx="51" cy="503.4375" fill="#84BE84" rx="3" ry="3" style="stroke:#038048;stroke-width:1.0;"/><text fill="#000000" font-family="sans-serif" font-size="14" lengthAdjust="spacing" textLength="147" x="60" y="510.9707">isFilledColumn(column)</text><ellipse cx="51" cy="521.0469" fill="#84BE84" rx="3" ry="3" style="stroke:#038048;stroke-width:1.0;"/><text fill="#000000" font-family="sans-serif" font-size="14" lengthAdjust="spacing" textLength="154" x="60" y="528.5801">putToken(column, color)</text><ellipse cx="51" cy="538.6563" fill="#84BE84" rx="3" ry="3" style="stroke:#038048;stroke-width:1.0;"/><text fill="#000000" font-family="sans-serif" font-size="14" lengthAdjust="spacing" textLength="250" x="60" y="546.1895">getFirstEmptyRowFromColumn(column)</text><ellipse cx="51" cy="556.2656" fill="#84BE84" rx="3" ry="3" style="stroke:#038048;stroke-width:1.0;"/><text fill="#000000" font-family="sans-serif" font-size="14" lengthAdjust="spacing" textLength="83" x="60" y="563.7988">isEndGame()</text><ellipse cx="51" cy="573.875" fill="#84BE84" rx="3" ry="3" style="stroke:#038048;stroke-width:1.0;"/><text fill="#000000" font-family="sans-serif" font-size="14" lengthAdjust="spacing" textLength="54" x="60" y="581.4082">isFilled()</text><ellipse cx="51" cy="591.4844" fill="#84BE84" rx="3" ry="3" style="stroke:#038048;stroke-width:1.0;"/><text fill="#000000" font-family="sans-serif" font-size="14" lengthAdjust="spacing" textLength="148" x="60" y="599.0176">isInLineToken(tokens[])</text><ellipse cx="51" cy="609.0938" fill="#84BE84" rx="3" ry="3" style="stroke:#038048;stroke-width:1.0;"/><text fill="#000000" font-family="sans-serif" font-size="14" lengthAdjust="spacing" textLength="77" x="60" y="616.627">getTokens()</text></g><!--MD5=[7e91cb2b0bf0004441ee056e3fe2cc82]
class boardView--><g id="elem_boardView"><rect codeLine="24" fill="#F1F1F1" height="153.6563" id="boardView" rx="2.5" ry="2.5" style="stroke:#181818;stroke-width:0.5;" width="129" x="262.5" y="168"/><ellipse cx="291.45" cy="184" fill="#ADD1B2" rx="11" ry="11" style="stroke:#181818;stroke-width:1.0;"/><path d="M294.2156,179.875 Q294.3719,179.6563 294.5594,179.5469 Q294.7469,179.4375 294.9656,179.4375 Q295.3406,179.4375 295.575,179.7031 Q295.8094,179.9531 295.8094,180.5625 L295.8094,182.0156 Q295.8094,182.625 295.575,182.8906 Q295.3406,183.1563 294.9656,183.1563 Q294.6219,183.1563 294.4188,182.9531 Q294.2156,182.7656 294.1063,182.25 Q294.0594,181.8906 293.8719,181.7031 Q293.5438,181.3281 292.9344,181.1094 Q292.325,180.8906 291.7,180.8906 Q290.9344,180.8906 290.2938,181.2188 Q289.6688,181.5469 289.1688,182.2969 Q288.6844,183.0469 288.6844,184.0781 L288.6844,185.1719 Q288.6844,186.4063 289.575,187.2344 Q290.4656,188.0469 292.0594,188.0469 Q292.9969,188.0469 293.6531,187.7969 Q294.0438,187.6406 294.4656,187.2031 Q294.7313,186.9375 294.8719,186.8594 Q295.0281,186.7813 295.2313,186.7813 Q295.5594,186.7813 295.8094,187.0469 Q296.075,187.2969 296.075,187.6406 Q296.075,187.9844 295.7313,188.3906 Q295.2313,188.9688 294.4344,189.2969 Q293.3563,189.75 292.0594,189.75 Q290.5438,189.75 289.3406,189.125 Q288.3563,188.625 287.6688,187.5625 Q286.9813,186.4844 286.9813,185.2031 L286.9813,184.0469 Q286.9813,182.7188 287.5906,181.5781 Q288.2156,180.4219 289.3094,179.8125 Q290.4031,179.1875 291.6375,179.1875 Q292.3719,179.1875 293.0125,179.3594 Q293.6688,179.5156 294.2156,179.875 Z " fill="#000000"/><text fill="#000000" font-family="sans-serif" font-size="14" lengthAdjust="spacing" textLength="66" x="308.55" y="189.7285">boardView</text><line style="stroke:#181818;stroke-width:0.5;" x1="263.5" x2="390.5" y1="200" y2="200"/><rect fill="none" height="6" style="stroke:#C82930;stroke-width:1.0;" width="6" x="270.5" y="208"/><text fill="#000000" font-family="sans-serif" font-size="14" lengthAdjust="spacing" textLength="79" x="282.5" y="218.5332">MAX_ROWS</text><rect fill="none" height="6" style="stroke:#C82930;stroke-width:1.0;" width="6" x="270.5" y="225.6094"/><text fill="#000000" font-family="sans-serif" font-size="14" lengthAdjust="spacing" textLength="103" x="282.5" y="236.1426">MAX_COLUMNS</text><rect fill="none" height="6" style="stroke:#C82930;stroke-width:1.0;" width="6" x="270.5" y="243.2188"/><text fill="#000000" font-family="sans-serif" font-size="14" lengthAdjust="spacing" textLength="38" x="282.5" y="253.752">Board</text><rect fill="none" height="6" style="stroke:#C82930;stroke-width:1.0;" width="6" x="270.5" y="260.8281"/><text fill="#000000" font-family="sans-serif" font-size="14" lengthAdjust="spacing" textLength="59" x="282.5" y="271.3613">TurnView</text><line style="stroke:#181818;stroke-width:0.5;" x1="263.5" x2="390.5" y1="278.4375" y2="278.4375"/><ellipse cx="273.5" cy="289.4375" fill="#84BE84" rx="3" ry="3" style="stroke:#038048;stroke-width:1.0;"/><text fill="#000000" font-family="sans-serif" font-size="14" lengthAdjust="spacing" textLength="28" x="282.5" y="296.9707">init()</text><ellipse cx="273.5" cy="307.0469" fill="#84BE84" rx="3" ry="3" style="stroke:#038048;stroke-width:1.0;"/><text fill="#000000" font-family="sans-serif" font-size="14" lengthAdjust="spacing" textLength="42" x="282.5" y="314.5801">show()</text></g><!--MD5=[4da9fe57077f86121028723fbd49dcb9]
class inLineChecker--><g id="elem_inLineChecker"><rect codeLine="32" fill="#F1F1F1" height="188.875" id="inLineChecker" rx="2.5" ry="2.5" style="stroke:#181818;stroke-width:0.5;" width="232" x="198" y="684"/><ellipse cx="264.25" cy="700" fill="#ADD1B2" rx="11" ry="11" style="stroke:#181818;stroke-width:1.0;"/><path d="M267.0156,695.875 Q267.1719,695.6563 267.3594,695.5469 Q267.5469,695.4375 267.7656,695.4375 Q268.1406,695.4375 268.375,695.7031 Q268.6094,695.9531 268.6094,696.5625 L268.6094,698.0156 Q268.6094,698.625 268.375,698.8906 Q268.1406,699.1563 267.7656,699.1563 Q267.4219,699.1563 267.2188,698.9531 Q267.0156,698.7656 266.9063,698.25 Q266.8594,697.8906 266.6719,697.7031 Q266.3438,697.3281 265.7344,697.1094 Q265.125,696.8906 264.5,696.8906 Q263.7344,696.8906 263.0938,697.2188 Q262.4688,697.5469 261.9688,698.2969 Q261.4844,699.0469 261.4844,700.0781 L261.4844,701.1719 Q261.4844,702.4063 262.375,703.2344 Q263.2656,704.0469 264.8594,704.0469 Q265.7969,704.0469 266.4531,703.7969 Q266.8438,703.6406 267.2656,703.2031 Q267.5313,702.9375 267.6719,702.8594 Q267.8281,702.7813 268.0313,702.7813 Q268.3594,702.7813 268.6094,703.0469 Q268.875,703.2969 268.875,703.6406 Q268.875,703.9844 268.5313,704.3906 Q268.0313,704.9688 267.2344,705.2969 Q266.1563,705.75 264.8594,705.75 Q263.3438,705.75 262.1406,705.125 Q261.1563,704.625 260.4688,703.5625 Q259.7813,702.4844 259.7813,701.2031 L259.7813,700.0469 Q259.7813,698.7188 260.3906,697.5781 Q261.0156,696.4219 262.1094,695.8125 Q263.2031,695.1875 264.4375,695.1875 Q265.1719,695.1875 265.8125,695.3594 Q266.4688,695.5156 267.0156,695.875 Z " fill="#000000"/><text fill="#000000" font-family="sans-serif" font-size="14" lengthAdjust="spacing" textLength="91" x="284.75" y="705.7285">inLineChecker</text><line style="stroke:#181818;stroke-width:0.5;" x1="199" x2="429" y1="716" y2="716"/><rect fill="none" height="6" style="stroke:#C82930;stroke-width:1.0;" width="6" x="206" y="724"/><text fill="#000000" font-family="sans-serif" font-size="14" lengthAdjust="spacing" textLength="42" x="218" y="734.5332">tokens</text><rect fill="none" height="6" style="stroke:#C82930;stroke-width:1.0;" width="6" x="206" y="741.6094"/><text fill="#000000" font-family="sans-serif" font-size="14" lengthAdjust="spacing" textLength="206" x="218" y="752.1426">IN_LINE_NUMBER_OF_TOKENS</text><line style="stroke:#181818;stroke-width:0.5;" x1="199" x2="429" y1="759.2188" y2="759.2188"/><ellipse cx="209" cy="770.2188" fill="#84BE84" rx="3" ry="3" style="stroke:#038048;stroke-width:1.0;"/><text fill="#000000" font-family="sans-serif" font-size="14" lengthAdjust="spacing" textLength="191" x="218" y="777.752">isInLineToken(tokens[], token)</text><rect fill="#F24D5C" height="6" style="stroke:#C82930;stroke-width:1.0;" width="6" x="206" y="784.8281"/><text fill="#000000" font-family="sans-serif" font-size="14" lengthAdjust="spacing" textLength="155" x="218" y="795.3613">isInLineHorizontal(token)</text><rect fill="#F24D5C" height="6" style="stroke:#C82930;stroke-width:1.0;" width="6" x="206" y="802.4375"/><text fill="#000000" font-family="sans-serif" font-size="14" lengthAdjust="spacing" textLength="140" x="218" y="812.9707">isInLineVertical(token)</text><rect fill="#F24D5C" height="6" style="stroke:#C82930;stroke-width:1.0;" width="6" x="206" y="820.0469"/><text fill="#000000" font-family="sans-serif" font-size="14" lengthAdjust="spacing" textLength="149" x="218" y="830.5801">isInLineDiagonal(token)</text><rect fill="#F24D5C" height="6" style="stroke:#C82930;stroke-width:1.0;" width="6" x="206" y="837.6563"/><text fill="#000000" font-family="sans-serif" font-size="14" lengthAdjust="spacing" textLength="202" x="218" y="848.1895">isInLineReverseDiagonal(token)</text><rect fill="#F24D5C" height="6" style="stroke:#C82930;stroke-width:1.0;" width="6" x="206" y="855.2656"/><text fill="#000000" font-family="sans-serif" font-size="14" lengthAdjust="spacing" textLength="158" x="218" y="865.7988">isColorOnPosition(token)</text></g><!--MD5=[606c0e9a527600b962089599cf14ab26]
class token--><g id="elem_token"><rect codeLine="43" fill="#F1F1F1" height="136.0469" id="token" rx="2.5" ry="2.5" style="stroke:#181818;stroke-width:0.5;" width="104" x="59" y="710.5"/><ellipse cx="90.65" cy="726.5" fill="#ADD1B2" rx="11" ry="11" style="stroke:#181818;stroke-width:1.0;"/><path d="M93.4156,722.375 Q93.5719,722.1563 93.7594,722.0469 Q93.9469,721.9375 94.1656,721.9375 Q94.5406,721.9375 94.775,722.2031 Q95.0094,722.4531 95.0094,723.0625 L95.0094,724.5156 Q95.0094,725.125 94.775,725.3906 Q94.5406,725.6563 94.1656,725.6563 Q93.8219,725.6563 93.6188,725.4531 Q93.4156,725.2656 93.3063,724.75 Q93.2594,724.3906 93.0719,724.2031 Q92.7438,723.8281 92.1344,723.6094 Q91.525,723.3906 90.9,723.3906 Q90.1344,723.3906 89.4938,723.7188 Q88.8688,724.0469 88.3688,724.7969 Q87.8844,725.5469 87.8844,726.5781 L87.8844,727.6719 Q87.8844,728.9063 88.775,729.7344 Q89.6656,730.5469 91.2594,730.5469 Q92.1969,730.5469 92.8531,730.2969 Q93.2438,730.1406 93.6656,729.7031 Q93.9313,729.4375 94.0719,729.3594 Q94.2281,729.2813 94.4313,729.2813 Q94.7594,729.2813 95.0094,729.5469 Q95.275,729.7969 95.275,730.1406 Q95.275,730.4844 94.9313,730.8906 Q94.4313,731.4688 93.6344,731.7969 Q92.5563,732.25 91.2594,732.25 Q89.7438,732.25 88.5406,731.625 Q87.5563,731.125 86.8688,730.0625 Q86.1813,728.9844 86.1813,727.7031 L86.1813,726.5469 Q86.1813,725.2188 86.7906,724.0781 Q87.4156,722.9219 88.5094,722.3125 Q89.6031,721.6875 90.8375,721.6875 Q91.5719,721.6875 92.2125,721.8594 Q92.8688,722.0156 93.4156,722.375 Z " fill="#000000"/><text fill="#000000" font-family="sans-serif" font-size="14" lengthAdjust="spacing" textLength="35" x="108.35" y="732.2285">token</text><line style="stroke:#181818;stroke-width:0.5;" x1="60" x2="162" y1="742.5" y2="742.5"/><rect fill="none" height="6" style="stroke:#C82930;stroke-width:1.0;" width="6" x="67" y="750.5"/><text fill="#000000" font-family="sans-serif" font-size="14" lengthAdjust="spacing" textLength="34" x="79" y="761.0332">Color</text><rect fill="none" height="6" style="stroke:#C82930;stroke-width:1.0;" width="6" x="67" y="768.1094"/><text fill="#000000" font-family="sans-serif" font-size="14" lengthAdjust="spacing" textLength="67" x="79" y="778.6426">coordinate</text><line style="stroke:#181818;stroke-width:0.5;" x1="60" x2="162" y1="785.7188" y2="785.7188"/><ellipse cx="70" cy="796.7188" fill="#84BE84" rx="3" ry="3" style="stroke:#038048;stroke-width:1.0;"/><text fill="#000000" font-family="sans-serif" font-size="14" lengthAdjust="spacing" textLength="64" x="79" y="804.252">getColor()</text><ellipse cx="70" cy="814.3281" fill="#84BE84" rx="3" ry="3" style="stroke:#038048;stroke-width:1.0;"/><text fill="#000000" font-family="sans-serif" font-size="14" lengthAdjust="spacing" textLength="57" x="79" y="821.8613">getRow()</text><ellipse cx="70" cy="831.9375" fill="#84BE84" rx="3" ry="3" style="stroke:#038048;stroke-width:1.0;"/><text fill="#000000" font-family="sans-serif" font-size="14" lengthAdjust="spacing" textLength="78" x="79" y="839.4707">getColumn()</text></g><!--MD5=[591ad017c1bea39456346e62f574f03d]
class coordinate--><g id="elem_coordinate"><rect codeLine="51" fill="#F1F1F1" height="118.4375" id="coordinate" rx="2.5" ry="2.5" style="stroke:#181818;stroke-width:0.5;" width="104" x="7" y="933"/><ellipse cx="24.25" cy="949" fill="#ADD1B2" rx="11" ry="11" style="stroke:#181818;stroke-width:1.0;"/><path d="M27.0156,944.875 Q27.1719,944.6563 27.3594,944.5469 Q27.5469,944.4375 27.7656,944.4375 Q28.1406,944.4375 28.375,944.7031 Q28.6094,944.9531 28.6094,945.5625 L28.6094,947.0156 Q28.6094,947.625 28.375,947.8906 Q28.1406,948.1563 27.7656,948.1563 Q27.4219,948.1563 27.2188,947.9531 Q27.0156,947.7656 26.9063,947.25 Q26.8594,946.8906 26.6719,946.7031 Q26.3438,946.3281 25.7344,946.1094 Q25.125,945.8906 24.5,945.8906 Q23.7344,945.8906 23.0938,946.2188 Q22.4688,946.5469 21.9688,947.2969 Q21.4844,948.0469 21.4844,949.0781 L21.4844,950.1719 Q21.4844,951.4063 22.375,952.2344 Q23.2656,953.0469 24.8594,953.0469 Q25.7969,953.0469 26.4531,952.7969 Q26.8438,952.6406 27.2656,952.2031 Q27.5313,951.9375 27.6719,951.8594 Q27.8281,951.7813 28.0313,951.7813 Q28.3594,951.7813 28.6094,952.0469 Q28.875,952.2969 28.875,952.6406 Q28.875,952.9844 28.5313,953.3906 Q28.0313,953.9688 27.2344,954.2969 Q26.1563,954.75 24.8594,954.75 Q23.3438,954.75 22.1406,954.125 Q21.1563,953.625 20.4688,952.5625 Q19.7813,951.4844 19.7813,950.2031 L19.7813,949.0469 Q19.7813,947.7188 20.3906,946.5781 Q21.0156,945.4219 22.1094,944.8125 Q23.2031,944.1875 24.4375,944.1875 Q25.1719,944.1875 25.8125,944.3594 Q26.4688,944.5156 27.0156,944.875 Z " fill="#000000"/><text fill="#000000" font-family="sans-serif" font-size="14" lengthAdjust="spacing" textLength="67" x="38.75" y="954.7285">coordinate</text><line style="stroke:#181818;stroke-width:0.5;" x1="8" x2="110" y1="965" y2="965"/><rect fill="none" height="6" style="stroke:#C82930;stroke-width:1.0;" width="6" x="15" y="973"/><text fill="#000000" font-family="sans-serif" font-size="14" lengthAdjust="spacing" textLength="22" x="27" y="983.5332">row</text><rect fill="none" height="6" style="stroke:#C82930;stroke-width:1.0;" width="6" x="15" y="990.6094"/><text fill="#000000" font-family="sans-serif" font-size="14" lengthAdjust="spacing" textLength="45" x="27" y="1001.1426">column</text><line style="stroke:#181818;stroke-width:0.5;" x1="8" x2="110" y1="1008.2188" y2="1008.2188"/><ellipse cx="18" cy="1019.2188" fill="#84BE84" rx="3" ry="3" style="stroke:#038048;stroke-width:1.0;"/><text fill="#000000" font-family="sans-serif" font-size="14" lengthAdjust="spacing" textLength="57" x="27" y="1026.752">getRow()</text><ellipse cx="18" cy="1036.8281" fill="#84BE84" rx="3" ry="3" style="stroke:#038048;stroke-width:1.0;"/><text fill="#000000" font-family="sans-serif" font-size="14" lengthAdjust="spacing" textLength="78" x="27" y="1044.3613">getColumn()</text></g><!--MD5=[46e2fff4e112e858a5bcac690d902864]
class turnView--><g id="elem_turnView"><rect codeLine="58" fill="#F1F1F1" height="118.4375" id="turnView" rx="2.5" ry="2.5" style="stroke:#181818;stroke-width:0.5;" width="184" x="385" y="444"/><ellipse cx="445.75" cy="460" fill="#ADD1B2" rx="11" ry="11" style="stroke:#181818;stroke-width:1.0;"/><path d="M448.5156,455.875 Q448.6719,455.6563 448.8594,455.5469 Q449.0469,455.4375 449.2656,455.4375 Q449.6406,455.4375 449.875,455.7031 Q450.1094,455.9531 450.1094,456.5625 L450.1094,458.0156 Q450.1094,458.625 449.875,458.8906 Q449.6406,459.1563 449.2656,459.1563 Q448.9219,459.1563 448.7188,458.9531 Q448.5156,458.7656 448.4063,458.25 Q448.3594,457.8906 448.1719,457.7031 Q447.8438,457.3281 447.2344,457.1094 Q446.625,456.8906 446,456.8906 Q445.2344,456.8906 444.5938,457.2188 Q443.9688,457.5469 443.4688,458.2969 Q442.9844,459.0469 442.9844,460.0781 L442.9844,461.1719 Q442.9844,462.4063 443.875,463.2344 Q444.7656,464.0469 446.3594,464.0469 Q447.2969,464.0469 447.9531,463.7969 Q448.3438,463.6406 448.7656,463.2031 Q449.0313,462.9375 449.1719,462.8594 Q449.3281,462.7813 449.5313,462.7813 Q449.8594,462.7813 450.1094,463.0469 Q450.375,463.2969 450.375,463.6406 Q450.375,463.9844 450.0313,464.3906 Q449.5313,464.9688 448.7344,465.2969 Q447.6563,465.75 446.3594,465.75 Q444.8438,465.75 443.6406,465.125 Q442.6563,464.625 441.9688,463.5625 Q441.2813,462.4844 441.2813,461.2031 L441.2813,460.0469 Q441.2813,458.7188 441.8906,457.5781 Q442.5156,456.4219 443.6094,455.8125 Q444.7031,455.1875 445.9375,455.1875 Q446.6719,455.1875 447.3125,455.3594 Q447.9688,455.5156 448.5156,455.875 Z " fill="#000000"/><text fill="#000000" font-family="sans-serif" font-size="14" lengthAdjust="spacing" textLength="54" x="466.25" y="465.7285">turnView</text><line style="stroke:#181818;stroke-width:0.5;" x1="386" x2="568" y1="476" y2="476"/><rect fill="none" height="6" style="stroke:#C82930;stroke-width:1.0;" width="6" x="393" y="484"/><text fill="#000000" font-family="sans-serif" font-size="14" lengthAdjust="spacing" textLength="25" x="405" y="494.5332">turn</text><line style="stroke:#181818;stroke-width:0.5;" x1="386" x2="568" y1="501.6094" y2="501.6094"/><ellipse cx="396" cy="512.6094" fill="#84BE84" rx="3" ry="3" style="stroke:#038048;stroke-width:1.0;"/><text fill="#000000" font-family="sans-serif" font-size="14" lengthAdjust="spacing" textLength="158" x="405" y="520.1426">getColumn(maxColumns)</text><ellipse cx="396" cy="530.2188" fill="#84BE84" rx="3" ry="3" style="stroke:#038048;stroke-width:1.0;"/><text fill="#000000" font-family="sans-serif" font-size="14" lengthAdjust="spacing" textLength="66" x="405" y="537.752">nextTurn()</text><ellipse cx="396" cy="547.8281" fill="#84BE84" rx="3" ry="3" style="stroke:#038048;stroke-width:1.0;"/><text fill="#000000" font-family="sans-serif" font-size="14" lengthAdjust="spacing" textLength="64" x="405" y="555.3613">getColor()</text></g><!--MD5=[023a942bc7f50f75f4bafc8ed131aced]
class turn--><g id="elem_turn"><rect codeLine="65" fill="#F1F1F1" height="100.8281" id="turn" rx="2.5" ry="2.5" style="stroke:#181818;stroke-width:0.5;" width="92" x="465" y="728"/><ellipse cx="495.75" cy="744" fill="#ADD1B2" rx="11" ry="11" style="stroke:#181818;stroke-width:1.0;"/><path d="M498.5156,739.875 Q498.6719,739.6563 498.8594,739.5469 Q499.0469,739.4375 499.2656,739.4375 Q499.6406,739.4375 499.875,739.7031 Q500.1094,739.9531 500.1094,740.5625 L500.1094,742.0156 Q500.1094,742.625 499.875,742.8906 Q499.6406,743.1563 499.2656,743.1563 Q498.9219,743.1563 498.7188,742.9531 Q498.5156,742.7656 498.4063,742.25 Q498.3594,741.8906 498.1719,741.7031 Q497.8438,741.3281 497.2344,741.1094 Q496.625,740.8906 496,740.8906 Q495.2344,740.8906 494.5938,741.2188 Q493.9688,741.5469 493.4688,742.2969 Q492.9844,743.0469 492.9844,744.0781 L492.9844,745.1719 Q492.9844,746.4063 493.875,747.2344 Q494.7656,748.0469 496.3594,748.0469 Q497.2969,748.0469 497.9531,747.7969 Q498.3438,747.6406 498.7656,747.2031 Q499.0313,746.9375 499.1719,746.8594 Q499.3281,746.7813 499.5313,746.7813 Q499.8594,746.7813 500.1094,747.0469 Q500.375,747.2969 500.375,747.6406 Q500.375,747.9844 500.0313,748.3906 Q499.5313,748.9688 498.7344,749.2969 Q497.6563,749.75 496.3594,749.75 Q494.8438,749.75 493.6406,749.125 Q492.6563,748.625 491.9688,747.5625 Q491.2813,746.4844 491.2813,745.2031 L491.2813,744.0469 Q491.2813,742.7188 491.8906,741.5781 Q492.5156,740.4219 493.6094,739.8125 Q494.7031,739.1875 495.9375,739.1875 Q496.6719,739.1875 497.3125,739.3594 Q497.9688,739.5156 498.5156,739.875 Z " fill="#000000"/><text fill="#000000" font-family="sans-serif" font-size="14" lengthAdjust="spacing" textLength="25" x="513.25" y="749.7285">turn</text><line style="stroke:#181818;stroke-width:0.5;" x1="466" x2="556" y1="760" y2="760"/><rect fill="none" height="6" style="stroke:#C82930;stroke-width:1.0;" width="6" x="473" y="768"/><text fill="#000000" font-family="sans-serif" font-size="14" lengthAdjust="spacing" textLength="31" x="485" y="778.5332">color</text><line style="stroke:#181818;stroke-width:0.5;" x1="466" x2="556" y1="785.6094" y2="785.6094"/><ellipse cx="476" cy="796.6094" fill="#84BE84" rx="3" ry="3" style="stroke:#038048;stroke-width:1.0;"/><text fill="#000000" font-family="sans-serif" font-size="14" lengthAdjust="spacing" textLength="64" x="485" y="804.1426">getColor()</text><ellipse cx="476" cy="814.2188" fill="#84BE84" rx="3" ry="3" style="stroke:#038048;stroke-width:1.0;"/><text fill="#000000" font-family="sans-serif" font-size="14" lengthAdjust="spacing" textLength="66" x="485" y="821.752">nextTurn()</text></g><!--MD5=[b79a6dbdb435efa72378790761c8d246]
class colors--><g id="elem_colors"><rect codeLine="71" fill="#F1F1F1" height="83.2188" id="colors" rx="2.5" ry="2.5" style="stroke:#181818;stroke-width:0.5;" width="70" x="279" y="950.5"/><ellipse cx="294" cy="966.5" fill="#EB937F" rx="11" ry="11" style="stroke:#181818;stroke-width:1.0;"/><path d="M292.8594,967.2969 L292.8594,969.7969 L297.1875,969.7969 L297.1875,968.875 Q297.1875,968.2656 297.4219,968 Q297.6719,967.7344 298.0469,967.7344 Q298.4219,967.7344 298.6563,968 Q298.8906,968.2656 298.8906,968.875 L298.8906,971.5 L290.8906,971.5 Q290.2656,971.5 290,971.2656 Q289.75,971.0313 289.75,970.6406 Q289.75,970.2656 290.0156,970.0313 Q290.2813,969.7969 290.8906,969.7969 L291.1563,969.7969 L291.1563,963.1406 L290.8906,963.1406 Q290.2656,963.1406 290,962.9063 Q289.75,962.6719 289.75,962.2813 Q289.75,961.9063 290,961.6719 Q290.2656,961.4375 290.8906,961.4375 L298.5156,961.4375 L298.5156,964.0313 Q298.5156,964.6406 298.2813,964.9063 Q298.0625,965.1563 297.6719,965.1563 Q297.2969,965.1563 297.0625,964.9063 Q296.8281,964.6406 296.8281,964.0313 L296.8281,963.1406 L292.8594,963.1406 L292.8594,965.5938 L294.3438,965.5938 Q294.3438,964.9375 294.4688,964.75 Q294.7344,964.3438 295.2031,964.3438 Q295.5781,964.3438 295.8125,964.6094 Q296.0469,964.8594 296.0469,965.4688 L296.0469,967.4375 Q296.0469,967.9844 295.9219,968.1719 Q295.6563,968.5625 295.2031,968.5625 Q294.7344,968.5625 294.4688,968.1563 Q294.3438,967.9688 294.3438,967.2969 L292.8594,967.2969 Z " fill="#000000"/><text fill="#000000" font-family="sans-serif" font-size="14" lengthAdjust="spacing" textLength="38" x="308" y="972.2285">colors</text><line style="stroke:#181818;stroke-width:0.5;" x1="280" x2="348" y1="982.5" y2="982.5"/><text fill="#000000" font-family="sans-serif" font-size="14" lengthAdjust="spacing" textLength="26" x="285" y="1001.0332">Red</text><text fill="#000000" font-family="sans-serif" font-size="14" lengthAdjust="spacing" textLength="40" x="285" y="1018.6426">Yellow</text><line style="stroke:#181818;stroke-width:0.5;" x1="280" x2="348" y1="1025.7188" y2="1025.7188"/></g><!--MD5=[8457b8eeb6a36ad430b5159bc07dce68]
class messages--><g id="elem_messages"><rect codeLine="76" fill="#F1F1F1" height="48" id="messages" rx="2.5" ry="2.5" style="stroke:#181818;stroke-width:0.5;" width="96" x="334" y="33.5"/><ellipse cx="349" cy="49.5" fill="#ADD1B2" rx="11" ry="11" style="stroke:#181818;stroke-width:1.0;"/><path d="M351.7656,45.375 Q351.9219,45.1563 352.1094,45.0469 Q352.2969,44.9375 352.5156,44.9375 Q352.8906,44.9375 353.125,45.2031 Q353.3594,45.4531 353.3594,46.0625 L353.3594,47.5156 Q353.3594,48.125 353.125,48.3906 Q352.8906,48.6563 352.5156,48.6563 Q352.1719,48.6563 351.9688,48.4531 Q351.7656,48.2656 351.6563,47.75 Q351.6094,47.3906 351.4219,47.2031 Q351.0938,46.8281 350.4844,46.6094 Q349.875,46.3906 349.25,46.3906 Q348.4844,46.3906 347.8438,46.7188 Q347.2188,47.0469 346.7188,47.7969 Q346.2344,48.5469 346.2344,49.5781 L346.2344,50.6719 Q346.2344,51.9063 347.125,52.7344 Q348.0156,53.5469 349.6094,53.5469 Q350.5469,53.5469 351.2031,53.2969 Q351.5938,53.1406 352.0156,52.7031 Q352.2813,52.4375 352.4219,52.3594 Q352.5781,52.2813 352.7813,52.2813 Q353.1094,52.2813 353.3594,52.5469 Q353.625,52.7969 353.625,53.1406 Q353.625,53.4844 353.2813,53.8906 Q352.7813,54.4688 351.9844,54.7969 Q350.9063,55.25 349.6094,55.25 Q348.0938,55.25 346.8906,54.625 Q345.9063,54.125 345.2188,53.0625 Q344.5313,51.9844 344.5313,50.7031 L344.5313,49.5469 Q344.5313,48.2188 345.1406,47.0781 Q345.7656,45.9219 346.8594,45.3125 Q347.9531,44.6875 349.1875,44.6875 Q349.9219,44.6875 350.5625,44.8594 Q351.2188,45.0156 351.7656,45.375 Z " fill="#000000"/><text fill="#000000" font-family="sans-serif" font-size="14" lengthAdjust="spacing" textLength="64" x="363" y="55.2285">messages</text><line style="stroke:#181818;stroke-width:0.5;" x1="335" x2="429" y1="65.5" y2="65.5"/><line style="stroke:#181818;stroke-width:0.5;" x1="335" x2="429" y1="73.5" y2="73.5"/></g><!--MD5=[3aaa55d472d60a859166b4b0a5dca067]
link connect4 to boardView--><g id="link_connect4_boardView"><path codeLine="80" d="M267.71,108.21 C275.09,125.13 283.55,144.5 291.72,163.21 " fill="none" id="connect4-to-boardView" style="stroke:#181818;stroke-width:1.0;stroke-dasharray:7.0,7.0;"/><polygon fill="#181818" points="293.79,167.95,293.8585,158.1014,291.7912,163.3669,286.5256,161.2995,293.79,167.95" style="stroke:#181818;stroke-width:1.0;"/></g><!--MD5=[da575c4dc3d31e7eed0ea63448fe7447]
link connect4 to yesNoDialog--><g id="link_connect4_yesNoDialog"><path codeLine="81" d="M224.56,108.21 C212.44,136.31 197.4,171.19 185.6,198.56 " fill="none" id="connect4-to-yesNoDialog" style="stroke:#181818;stroke-width:1.0;stroke-dasharray:7.0,7.0;"/><polygon fill="#181818" points="183.58,203.23,190.8269,196.5605,185.5668,198.6417,183.4857,193.3816,183.58,203.23" style="stroke:#181818;stroke-width:1.0;"/></g><!--MD5=[fb32ec1c38a4eb0577ee459902ecc0e3]
link boardView to board--><g id="link_boardView_board"><path codeLine="82" d="M276.6585,332.4882 C276.6585,332.4882 261.9,357.86 254.7,370.22 " fill="none" id="boardView-board" style="stroke:#181818;stroke-width:1.0;"/><polygon fill="#181818" points="248.09,381.58,256.0717,375.8101,250.6032,377.2575,249.1558,371.789,248.09,381.58" style="stroke:#181818;stroke-width:1.0;"/><line style="stroke:#181818;stroke-width:1.0;" x1="250.6032" x2="254.63" y1="377.2575" y2="370.345"/><polygon fill="#181818" points="282.7,322.12,276.2232,325.2903,276.6585,332.4882,283.1353,329.318,282.7,322.12" style="stroke:#181818;stroke-width:1.0;"/></g><!--MD5=[281ebd2e004ad5cd374ca87d563edc75]
link boardView to turnView--><g id="link_boardView_turnView"><path codeLine="83" d="M371.6,322.12 C393.42,359.35 419.37,403.64 440.06,438.96 " fill="none" id="boardView-to-turnView" style="stroke:#181818;stroke-width:1.0;stroke-dasharray:7.0,7.0;"/><polygon fill="#181818" points="442.82,443.66,441.7201,433.8727,440.2918,439.3463,434.8182,437.9179,442.82,443.66" style="stroke:#181818;stroke-width:1.0;"/></g><!--MD5=[f62d90ac26fd182904d7612b38d0d9ea]
link turnView to turn--><g id="link_turnView_turn"><path codeLine="84" d="M485.6871,573.9087 C485.6871,573.9087 498.03,673.16 503.21,714.8 " fill="none" id="turnView-turn" style="stroke:#181818;stroke-width:1.0;"/><polygon fill="#181818" points="504.83,727.83,507.6918,718.4061,504.2146,722.868,499.7526,719.3908,504.83,727.83" style="stroke:#181818;stroke-width:1.0;"/><line style="stroke:#181818;stroke-width:1.0;" x1="504.2146" x2="503.225" y1="722.868" y2="714.93"/><polygon fill="none" points="484.21,562,480.9789,568.4467,485.6871,573.9087,488.9181,567.462,484.21,562" style="stroke:#181818;stroke-width:1.0;"/></g><!--MD5=[f41e6990d0a16124120bc990cc7767d3]
link board to token--><g id="link_board_token"><path codeLine="85" d="M145.6592,636.014 C145.6592,636.014 135.23,678.61 130.58,697.59 " fill="none" id="board-token" style="stroke:#181818;stroke-width:1.0;"/><polygon fill="#181818" points="127.43,710.42,133.4519,702.6266,128.6168,705.5629,125.6806,700.7278,127.43,710.42" style="stroke:#181818;stroke-width:1.0;"/><line style="stroke:#181818;stroke-width:1.0;" x1="128.6168" x2="130.53" y1="705.5629" y2="697.79"/><polygon fill="none" points="148.52,624.36,143.2049,629.2334,145.6592,636.014,150.9743,631.1406,148.52,624.36" style="stroke:#181818;stroke-width:1.0;"/></g><!--MD5=[9423bc6e300565d34d7bd0c7b2c4c59e]
link board to inLineChecker--><g id="link_board_inLineChecker"><path codeLine="86" d="M243.2007,635.101 C243.2007,635.101 255.73,660.31 261.6,672.12 " fill="none" id="board-inLineChecker" style="stroke:#181818;stroke-width:1.0;"/><polygon fill="#181818" points="267.41,683.81,266.9773,673.9707,265.1805,679.3346,259.8166,677.5378,267.41,683.81" style="stroke:#181818;stroke-width:1.0;"/><line style="stroke:#181818;stroke-width:1.0;" x1="265.1805" x2="261.625" y1="679.3346" y2="672.17"/><polygon fill="none" points="237.85,624.36,236.945,631.5141,243.2007,635.101,244.1057,627.9469,237.85,624.36" style="stroke:#181818;stroke-width:1.0;"/></g><!--MD5=[cf39395ebd43fbb806f8d20087ef7f66]
link board to coordinate--><g id="link_board_coordinate"><path codeLine="87" d="M70.51,624.03 C58.44,643.01 48,663.25 41,684 C13.69,764.98 27.57,864.73 41.81,928.11 " fill="none" id="board-to-coordinate" style="stroke:#181818;stroke-width:1.0;stroke-dasharray:7.0,7.0;"/><polygon fill="#181818" points="42.92,932.98,44.8186,923.3159,41.8082,928.1052,37.0189,925.0948,42.92,932.98" style="stroke:#181818;stroke-width:1.0;"/></g><!--MD5=[7b26550a28deee329467bb3321892cf3]
link inLineChecker to colors--><g id="link_inLineChecker_colors"><path codeLine="88" d="M314,873.19 C314,898.15 314,924.01 314,945.12 " fill="none" id="inLineChecker-to-colors" style="stroke:#181818;stroke-width:1.0;stroke-dasharray:7.0,7.0;"/><polygon fill="#181818" points="314,950.39,318,941.39,314,945.39,310,941.39,314,950.39" style="stroke:#181818;stroke-width:1.0;"/></g><!--MD5=[ee9db3ee9a0245dbdc28aed3f1ea6503]
link turn to colors--><g id="link_turn_colors"><path codeLine="89" d="M474.1165,839.1992 C474.1165,839.1992 456.91,862.86 448,873 C421.27,903.43 386.92,933.53 359.69,955.72 " fill="none" id="turn-colors" style="stroke:#181818;stroke-width:1.0;"/><polygon fill="#181818" points="349.26,964.12,358.7784,961.5902,353.1541,960.9838,353.7605,955.3596,349.26,964.12" style="stroke:#181818;stroke-width:1.0;"/><line style="stroke:#181818;stroke-width:1.0;" x1="353.1541" x2="359.385" y1="960.9838" y2="955.965"/><polygon fill="none" points="480.87,829.28,474.1869,831.9884,474.1165,839.1992,480.7997,836.4908,480.87,829.28" style="stroke:#181818;stroke-width:1.0;"/></g><!--MD5=[da25e71b20586d566bbfcc342003eadf]
link token to colors--><g id="link_token_colors"><path codeLine="90" d="M165.4588,856.1324 C165.4588,856.1324 175.43,868.02 180,873 C207.29,902.75 241.48,932.76 268.5,955.08 " fill="none" id="token-colors" style="stroke:#181818;stroke-width:1.0;"/><polygon fill="#181818" points="278.85,963.54,274.4112,954.7481,274.978,960.3765,269.3496,960.9433,278.85,963.54" style="stroke:#181818;stroke-width:1.0;"/><line style="stroke:#181818;stroke-width:1.0;" x1="274.978" x2="268.78" y1="960.3765" y2="955.305"/><polygon fill="#181818" points="157.94,846.78,158.582,853.9625,165.4588,856.1324,164.8169,848.9499,157.94,846.78" style="stroke:#181818;stroke-width:1.0;"/></g><!--MD5=[a4790a59275add077948081d63e6bf43]
link token to coordinate--><g id="link_token_coordinate"><path codeLine="91" d="M91.6192,858.364 C91.6192,858.364 81.21,900.67 76.44,920.08 " fill="none" id="token-coordinate" style="stroke:#181818;stroke-width:1.0;"/><polygon fill="#181818" points="73.29,932.87,79.3223,925.0847,74.4833,928.0145,71.5534,923.1754,73.29,932.87" style="stroke:#181818;stroke-width:1.0;"/><line style="stroke:#181818;stroke-width:1.0;" x1="74.4833" x2="76.395" y1="928.0145" y2="920.245"/><polygon fill="#181818" points="94.48,846.71,89.1649,851.5834,91.6192,858.364,96.9343,853.4906,94.48,846.71" style="stroke:#181818;stroke-width:1.0;"/></g><!--MD5=[5d6cef06c4cd41214ec20d2bf9967331]
@startuml

class connect4{
    - boardView
    - yesNoDialog
    + playGame()
}
class yesNoDialog{
    + read(message)
    + isAffirmative()
}
class board{
    - tokens[]
    - inLineChecker
    - lastToken
    + reset(maxRows, maxColumns)
    + isFilledColumn(column)
    + putToken(column, color)
    + getFirstEmptyRowFromColumn(column)
    + isEndGame()
    + isFilled()
    + isInLineToken(tokens[])
    + getTokens()
}
class boardView{
    - MAX_ROWS
    - MAX_COLUMNS
    - Board
    - TurnView
    + init()
    + show()
}
class inLineChecker{
    - tokens
    - IN_LINE_NUMBER_OF_TOKENS
    + isInLineToken(tokens[], token)
    - isInLineHorizontal(token)
    - isInLineVertical(token)
    - isInLineDiagonal(token)
    - isInLineReverseDiagonal(token)
    - isColorOnPosition(token)
}

class token{
    - Color
    - coordinate
    + getColor()
    + getRow()
    + getColumn()
}

class coordinate {
    - row 
    - column
    + getRow()
    + getColumn()
}

class turnView{
    - turn
    + getColumn(maxColumns)
    + nextTurn()
    + getColor()
}

class turn{
    - color
    + getColor()
    + nextTurn()
}

enum colors{
Red
Yellow
}

class messages{

}

connect4 ..> boardView
connect4 ..> yesNoDialog
boardView *- -> board
boardView ..> turnView
turnView o- -> turn
board o- -> token
board o- -> inLineChecker
board ..> coordinate
inLineChecker ..> colors
turn o- -> colors
token *- -> colors
token *- -> coordinate
@enduml

PlantUML version 1.2022.5(Sat Apr 30 12:55:52 CEST 2022)
(GPL source distribution)
Java Runtime: OpenJDK Runtime Environment
JVM: OpenJDK 64-Bit Server VM
Default Encoding: UTF-8
Language: es
Country: ES
--></g></svg>