<?xml version="1.0" encoding="UTF-8" standalone="no"?><svg xmlns="http://www.w3.org/2000/svg" xmlns:xlink="http://www.w3.org/1999/xlink" contentStyleType="text/css" height="1112px" preserveAspectRatio="none" style="width:426px;height:1112px;background:#FFFFFF;" version="1.1" viewBox="0 0 426 1112" width="426px" zoomAndPan="magnify"><defs/><g><!--MD5=[10b1f240992e2c34b6908209bf85bfd2]
class Connect4--><g id="elem_Connect4"><rect codeLine="2" fill="#F1F1F1" height="100.8281" id="Connect4" rx="2.5" ry="2.5" style="stroke:#181818;stroke-width:0.5;" width="105" x="110.5" y="7"/><ellipse cx="130.9" cy="23" fill="#ADD1B2" rx="11" ry="11" style="stroke:#181818;stroke-width:1.0;"/><path d="M133.6656,18.875 Q133.8219,18.6563 134.0094,18.5469 Q134.1969,18.4375 134.4156,18.4375 Q134.7906,18.4375 135.025,18.7031 Q135.2594,18.9531 135.2594,19.5625 L135.2594,21.0156 Q135.2594,21.625 135.025,21.8906 Q134.7906,22.1563 134.4156,22.1563 Q134.0719,22.1563 133.8688,21.9531 Q133.6656,21.7656 133.5563,21.25 Q133.5094,20.8906 133.3219,20.7031 Q132.9938,20.3281 132.3844,20.1094 Q131.775,19.8906 131.15,19.8906 Q130.3844,19.8906 129.7438,20.2188 Q129.1188,20.5469 128.6188,21.2969 Q128.1344,22.0469 128.1344,23.0781 L128.1344,24.1719 Q128.1344,25.4063 129.025,26.2344 Q129.9156,27.0469 131.5094,27.0469 Q132.4469,27.0469 133.1031,26.7969 Q133.4938,26.6406 133.9156,26.2031 Q134.1813,25.9375 134.3219,25.8594 Q134.4781,25.7813 134.6813,25.7813 Q135.0094,25.7813 135.2594,26.0469 Q135.525,26.2969 135.525,26.6406 Q135.525,26.9844 135.1813,27.3906 Q134.6813,27.9688 133.8844,28.2969 Q132.8063,28.75 131.5094,28.75 Q129.9938,28.75 128.7906,28.125 Q127.8063,27.625 127.1188,26.5625 Q126.4313,25.4844 126.4313,24.2031 L126.4313,23.0469 Q126.4313,21.7188 127.0406,20.5781 Q127.6656,19.4219 128.7594,18.8125 Q129.8531,18.1875 131.0875,18.1875 Q131.8219,18.1875 132.4625,18.3594 Q133.1188,18.5156 133.6656,18.875 Z " fill="#000000"/><text fill="#000000" font-family="sans-serif" font-size="14" lengthAdjust="spacing" textLength="61" x="146.1" y="28.7285">Connect4</text><line style="stroke:#181818;stroke-width:0.5;" x1="111.5" x2="214.5" y1="39" y2="39"/><rect fill="none" height="6" style="stroke:#C82930;stroke-width:1.0;" width="6" x="118.5" y="47"/><text fill="#000000" font-family="sans-serif" font-size="14" lengthAdjust="spacing" textLength="66" x="130.5" y="57.5332">boardView</text><rect fill="none" height="6" style="stroke:#C82930;stroke-width:1.0;" width="6" x="118.5" y="64.6094"/><text fill="#000000" font-family="sans-serif" font-size="14" lengthAdjust="spacing" textLength="79" x="130.5" y="75.1426">yesNoDialog</text><line style="stroke:#181818;stroke-width:0.5;" x1="111.5" x2="214.5" y1="82.2188" y2="82.2188"/><ellipse cx="121.5" cy="93.2188" fill="#84BE84" rx="3" ry="3" style="stroke:#038048;stroke-width:1.0;"/><text fill="#000000" font-family="sans-serif" font-size="14" lengthAdjust="spacing" textLength="74" x="130.5" y="100.752">playGame()</text></g><!--MD5=[2f2ced231ceb229417d2b072acd0beb6]
class YesNoDialogView--><g id="elem_YesNoDialogView"><rect codeLine="7" fill="#F1F1F1" height="83.2188" id="YesNoDialogView" rx="2.5" ry="2.5" style="stroke:#181818;stroke-width:0.5;" width="142" x="7" y="203.5"/><ellipse cx="22" cy="219.5" fill="#ADD1B2" rx="11" ry="11" style="stroke:#181818;stroke-width:1.0;"/><path d="M24.7656,215.375 Q24.9219,215.1563 25.1094,215.0469 Q25.2969,214.9375 25.5156,214.9375 Q25.8906,214.9375 26.125,215.2031 Q26.3594,215.4531 26.3594,216.0625 L26.3594,217.5156 Q26.3594,218.125 26.125,218.3906 Q25.8906,218.6563 25.5156,218.6563 Q25.1719,218.6563 24.9688,218.4531 Q24.7656,218.2656 24.6563,217.75 Q24.6094,217.3906 24.4219,217.2031 Q24.0938,216.8281 23.4844,216.6094 Q22.875,216.3906 22.25,216.3906 Q21.4844,216.3906 20.8438,216.7188 Q20.2188,217.0469 19.7188,217.7969 Q19.2344,218.5469 19.2344,219.5781 L19.2344,220.6719 Q19.2344,221.9063 20.125,222.7344 Q21.0156,223.5469 22.6094,223.5469 Q23.5469,223.5469 24.2031,223.2969 Q24.5938,223.1406 25.0156,222.7031 Q25.2813,222.4375 25.4219,222.3594 Q25.5781,222.2813 25.7813,222.2813 Q26.1094,222.2813 26.3594,222.5469 Q26.625,222.7969 26.625,223.1406 Q26.625,223.4844 26.2813,223.8906 Q25.7813,224.4688 24.9844,224.7969 Q23.9063,225.25 22.6094,225.25 Q21.0938,225.25 19.8906,224.625 Q18.9063,224.125 18.2188,223.0625 Q17.5313,221.9844 17.5313,220.7031 L17.5313,219.5469 Q17.5313,218.2188 18.1406,217.0781 Q18.7656,215.9219 19.8594,215.3125 Q20.9531,214.6875 22.1875,214.6875 Q22.9219,214.6875 23.5625,214.8594 Q24.2188,215.0156 24.7656,215.375 Z " fill="#000000"/><text fill="#000000" font-family="sans-serif" font-size="14" lengthAdjust="spacing" textLength="110" x="36" y="225.2285">YesNoDialogView</text><line style="stroke:#181818;stroke-width:0.5;" x1="8" x2="148" y1="235.5" y2="235.5"/><line style="stroke:#181818;stroke-width:0.5;" x1="8" x2="148" y1="243.5" y2="243.5"/><ellipse cx="18" cy="254.5" fill="#84BE84" rx="3" ry="3" style="stroke:#038048;stroke-width:1.0;"/><text fill="#000000" font-family="sans-serif" font-size="14" lengthAdjust="spacing" textLength="96" x="27" y="262.0332">read(message)</text><ellipse cx="18" cy="272.1094" fill="#84BE84" rx="3" ry="3" style="stroke:#038048;stroke-width:1.0;"/><text fill="#000000" font-family="sans-serif" font-size="14" lengthAdjust="spacing" textLength="86" x="27" y="279.6426">isAffirmative()</text></g><!--MD5=[9563755d011c5cec7ec66dc53565a59e]
class Board--><g id="elem_Board"><rect codeLine="11" fill="#F1F1F1" height="224.0938" id="Board" rx="2.5" ry="2.5" style="stroke:#181818;stroke-width:0.5;" width="215" x="41.5" y="560"/><ellipse cx="125.75" cy="576" fill="#ADD1B2" rx="11" ry="11" style="stroke:#181818;stroke-width:1.0;"/><path d="M128.5156,571.875 Q128.6719,571.6563 128.8594,571.5469 Q129.0469,571.4375 129.2656,571.4375 Q129.6406,571.4375 129.875,571.7031 Q130.1094,571.9531 130.1094,572.5625 L130.1094,574.0156 Q130.1094,574.625 129.875,574.8906 Q129.6406,575.1563 129.2656,575.1563 Q128.9219,575.1563 128.7188,574.9531 Q128.5156,574.7656 128.4063,574.25 Q128.3594,573.8906 128.1719,573.7031 Q127.8438,573.3281 127.2344,573.1094 Q126.625,572.8906 126,572.8906 Q125.2344,572.8906 124.5938,573.2188 Q123.9688,573.5469 123.4688,574.2969 Q122.9844,575.0469 122.9844,576.0781 L122.9844,577.1719 Q122.9844,578.4063 123.875,579.2344 Q124.7656,580.0469 126.3594,580.0469 Q127.2969,580.0469 127.9531,579.7969 Q128.3438,579.6406 128.7656,579.2031 Q129.0313,578.9375 129.1719,578.8594 Q129.3281,578.7813 129.5313,578.7813 Q129.8594,578.7813 130.1094,579.0469 Q130.375,579.2969 130.375,579.6406 Q130.375,579.9844 130.0313,580.3906 Q129.5313,580.9688 128.7344,581.2969 Q127.6563,581.75 126.3594,581.75 Q124.8438,581.75 123.6406,581.125 Q122.6563,580.625 121.9688,579.5625 Q121.2813,578.4844 121.2813,577.2031 L121.2813,576.0469 Q121.2813,574.7188 121.8906,573.5781 Q122.5156,572.4219 123.6094,571.8125 Q124.7031,571.1875 125.9375,571.1875 Q126.6719,571.1875 127.3125,571.3594 Q127.9688,571.5156 128.5156,571.875 Z " fill="#000000"/><text fill="#000000" font-family="sans-serif" font-size="14" lengthAdjust="spacing" textLength="38" x="146.25" y="581.7285">Board</text><line style="stroke:#181818;stroke-width:0.5;" x1="42.5" x2="255.5" y1="592" y2="592"/><rect fill="none" height="6" style="stroke:#C82930;stroke-width:1.0;" width="6" x="49.5" y="600"/><text fill="#000000" font-family="sans-serif" font-size="14" lengthAdjust="spacing" textLength="50" x="61.5" y="610.5332">tokens[]</text><line style="stroke:#181818;stroke-width:0.5;" x1="42.5" x2="255.5" y1="617.6094" y2="617.6094"/><ellipse cx="52.5" cy="628.6094" fill="#84BE84" rx="3" ry="3" style="stroke:#038048;stroke-width:1.0;"/><text fill="#000000" font-family="sans-serif" font-size="14" lengthAdjust="spacing" textLength="189" x="61.5" y="636.1426">reset(maxRows, maxColumns)</text><ellipse cx="52.5" cy="646.2188" fill="#84BE84" rx="3" ry="3" style="stroke:#038048;stroke-width:1.0;"/><text fill="#000000" font-family="sans-serif" font-size="14" lengthAdjust="spacing" textLength="147" x="61.5" y="653.752">isFilledColumn(column)</text><ellipse cx="52.5" cy="663.8281" fill="#84BE84" rx="3" ry="3" style="stroke:#038048;stroke-width:1.0;"/><text fill="#000000" font-family="sans-serif" font-size="14" lengthAdjust="spacing" textLength="154" x="61.5" y="671.3613">putToken(column, color)</text><ellipse cx="52.5" cy="681.4375" fill="#84BE84" rx="3" ry="3" style="stroke:#038048;stroke-width:1.0;"/><text fill="#000000" font-family="sans-serif" font-size="14" lengthAdjust="spacing" textLength="168" x="61.5" y="688.9707">getNextEmptyRow(column)</text><ellipse cx="52.5" cy="699.0469" fill="#84BE84" rx="3" ry="3" style="stroke:#038048;stroke-width:1.0;"/><text fill="#000000" font-family="sans-serif" font-size="14" lengthAdjust="spacing" textLength="83" x="61.5" y="706.5801">isEndGame()</text><ellipse cx="52.5" cy="716.6563" fill="#84BE84" rx="3" ry="3" style="stroke:#038048;stroke-width:1.0;"/><text fill="#000000" font-family="sans-serif" font-size="14" lengthAdjust="spacing" textLength="54" x="61.5" y="724.1895">isFilled()</text><ellipse cx="52.5" cy="734.2656" fill="#84BE84" rx="3" ry="3" style="stroke:#038048;stroke-width:1.0;"/><text fill="#000000" font-family="sans-serif" font-size="14" lengthAdjust="spacing" textLength="88" x="61.5" y="741.7988">isFourInLine()</text><rect fill="#F24D5C" height="6" style="stroke:#C82930;stroke-width:1.0;" width="6" x="49.5" y="748.875"/><text fill="#000000" font-family="sans-serif" font-size="14" lengthAdjust="spacing" textLength="113" x="61.5" y="759.4082">isHorizontal(color)</text><ellipse cx="52.5" cy="769.4844" fill="#84BE84" rx="3" ry="3" style="stroke:#038048;stroke-width:1.0;"/><text fill="#000000" font-family="sans-serif" font-size="14" lengthAdjust="spacing" textLength="77" x="61.5" y="777.0176">getTokens()</text></g><!--MD5=[9b237e88d697a058bd530d6510c96c00]
class BoardView--><g id="elem_BoardView"><rect codeLine="23" fill="#F1F1F1" height="153.6563" id="BoardView" rx="2.5" ry="2.5" style="stroke:#181818;stroke-width:0.5;" width="129" x="184.5" y="168"/><ellipse cx="213" cy="184" fill="#ADD1B2" rx="11" ry="11" style="stroke:#181818;stroke-width:1.0;"/><path d="M215.7656,179.875 Q215.9219,179.6563 216.1094,179.5469 Q216.2969,179.4375 216.5156,179.4375 Q216.8906,179.4375 217.125,179.7031 Q217.3594,179.9531 217.3594,180.5625 L217.3594,182.0156 Q217.3594,182.625 217.125,182.8906 Q216.8906,183.1563 216.5156,183.1563 Q216.1719,183.1563 215.9688,182.9531 Q215.7656,182.7656 215.6563,182.25 Q215.6094,181.8906 215.4219,181.7031 Q215.0938,181.3281 214.4844,181.1094 Q213.875,180.8906 213.25,180.8906 Q212.4844,180.8906 211.8438,181.2188 Q211.2188,181.5469 210.7188,182.2969 Q210.2344,183.0469 210.2344,184.0781 L210.2344,185.1719 Q210.2344,186.4063 211.125,187.2344 Q212.0156,188.0469 213.6094,188.0469 Q214.5469,188.0469 215.2031,187.7969 Q215.5938,187.6406 216.0156,187.2031 Q216.2813,186.9375 216.4219,186.8594 Q216.5781,186.7813 216.7813,186.7813 Q217.1094,186.7813 217.3594,187.0469 Q217.625,187.2969 217.625,187.6406 Q217.625,187.9844 217.2813,188.3906 Q216.7813,188.9688 215.9844,189.2969 Q214.9063,189.75 213.6094,189.75 Q212.0938,189.75 210.8906,189.125 Q209.9063,188.625 209.2188,187.5625 Q208.5313,186.4844 208.5313,185.2031 L208.5313,184.0469 Q208.5313,182.7188 209.1406,181.5781 Q209.7656,180.4219 210.8594,179.8125 Q211.9531,179.1875 213.1875,179.1875 Q213.9219,179.1875 214.5625,179.3594 Q215.2188,179.5156 215.7656,179.875 Z " fill="#000000"/><text fill="#000000" font-family="sans-serif" font-size="14" lengthAdjust="spacing" textLength="67" x="230" y="189.7285">BoardView</text><line style="stroke:#181818;stroke-width:0.5;" x1="185.5" x2="312.5" y1="200" y2="200"/><rect fill="none" height="6" style="stroke:#C82930;stroke-width:1.0;" width="6" x="192.5" y="208"/><text fill="#000000" font-family="sans-serif" font-size="14" lengthAdjust="spacing" textLength="79" x="204.5" y="218.5332">MAX_ROWS</text><rect fill="none" height="6" style="stroke:#C82930;stroke-width:1.0;" width="6" x="192.5" y="225.6094"/><text fill="#000000" font-family="sans-serif" font-size="14" lengthAdjust="spacing" textLength="103" x="204.5" y="236.1426">MAX_COLUMNS</text><rect fill="none" height="6" style="stroke:#C82930;stroke-width:1.0;" width="6" x="192.5" y="243.2188"/><text fill="#000000" font-family="sans-serif" font-size="14" lengthAdjust="spacing" textLength="38" x="204.5" y="253.752">Board</text><rect fill="none" height="6" style="stroke:#C82930;stroke-width:1.0;" width="6" x="192.5" y="260.8281"/><text fill="#000000" font-family="sans-serif" font-size="14" lengthAdjust="spacing" textLength="59" x="204.5" y="271.3613">TurnView</text><line style="stroke:#181818;stroke-width:0.5;" x1="185.5" x2="312.5" y1="278.4375" y2="278.4375"/><ellipse cx="195.5" cy="289.4375" fill="#84BE84" rx="3" ry="3" style="stroke:#038048;stroke-width:1.0;"/><text fill="#000000" font-family="sans-serif" font-size="14" lengthAdjust="spacing" textLength="28" x="204.5" y="296.9707">init()</text><ellipse cx="195.5" cy="307.0469" fill="#84BE84" rx="3" ry="3" style="stroke:#038048;stroke-width:1.0;"/><text fill="#000000" font-family="sans-serif" font-size="14" lengthAdjust="spacing" textLength="42" x="204.5" y="314.5801">show()</text></g><!--MD5=[8c7d7abc12e214c3cc12c9ab70edee11]
class Coordinate--><g id="elem_Coordinate"><rect codeLine="31" fill="#F1F1F1" height="118.4375" id="Coordinate" rx="2.5" ry="2.5" style="stroke:#181818;stroke-width:0.5;" width="104" x="129" y="987"/><ellipse cx="144.9" cy="1003" fill="#ADD1B2" rx="11" ry="11" style="stroke:#181818;stroke-width:1.0;"/><path d="M147.6656,998.875 Q147.8219,998.6563 148.0094,998.5469 Q148.1969,998.4375 148.4156,998.4375 Q148.7906,998.4375 149.025,998.7031 Q149.2594,998.9531 149.2594,999.5625 L149.2594,1001.0156 Q149.2594,1001.625 149.025,1001.8906 Q148.7906,1002.1563 148.4156,1002.1563 Q148.0719,1002.1563 147.8688,1001.9531 Q147.6656,1001.7656 147.5563,1001.25 Q147.5094,1000.8906 147.3219,1000.7031 Q146.9938,1000.3281 146.3844,1000.1094 Q145.775,999.8906 145.15,999.8906 Q144.3844,999.8906 143.7438,1000.2188 Q143.1188,1000.5469 142.6188,1001.2969 Q142.1344,1002.0469 142.1344,1003.0781 L142.1344,1004.1719 Q142.1344,1005.4063 143.025,1006.2344 Q143.9156,1007.0469 145.5094,1007.0469 Q146.4469,1007.0469 147.1031,1006.7969 Q147.4938,1006.6406 147.9156,1006.2031 Q148.1813,1005.9375 148.3219,1005.8594 Q148.4781,1005.7813 148.6813,1005.7813 Q149.0094,1005.7813 149.2594,1006.0469 Q149.525,1006.2969 149.525,1006.6406 Q149.525,1006.9844 149.1813,1007.3906 Q148.6813,1007.9688 147.8844,1008.2969 Q146.8063,1008.75 145.5094,1008.75 Q143.9938,1008.75 142.7906,1008.125 Q141.8063,1007.625 141.1188,1006.5625 Q140.4313,1005.4844 140.4313,1004.2031 L140.4313,1003.0469 Q140.4313,1001.7188 141.0406,1000.5781 Q141.6656,999.4219 142.7594,998.8125 Q143.8531,998.1875 145.0875,998.1875 Q145.8219,998.1875 146.4625,998.3594 Q147.1188,998.5156 147.6656,998.875 Z " fill="#000000"/><text fill="#000000" font-family="sans-serif" font-size="14" lengthAdjust="spacing" textLength="70" x="159.1" y="1008.7285">Coordinate</text><line style="stroke:#181818;stroke-width:0.5;" x1="130" x2="232" y1="1019" y2="1019"/><rect fill="none" height="6" style="stroke:#C82930;stroke-width:1.0;" width="6" x="137" y="1027"/><text fill="#000000" font-family="sans-serif" font-size="14" lengthAdjust="spacing" textLength="22" x="149" y="1037.5332">row</text><rect fill="none" height="6" style="stroke:#C82930;stroke-width:1.0;" width="6" x="137" y="1044.6094"/><text fill="#000000" font-family="sans-serif" font-size="14" lengthAdjust="spacing" textLength="45" x="149" y="1055.1426">column</text><line style="stroke:#181818;stroke-width:0.5;" x1="130" x2="232" y1="1062.2188" y2="1062.2188"/><ellipse cx="140" cy="1073.2188" fill="#84BE84" rx="3" ry="3" style="stroke:#038048;stroke-width:1.0;"/><text fill="#000000" font-family="sans-serif" font-size="14" lengthAdjust="spacing" textLength="57" x="149" y="1080.752">getRow()</text><ellipse cx="140" cy="1090.8281" fill="#84BE84" rx="3" ry="3" style="stroke:#038048;stroke-width:1.0;"/><text fill="#000000" font-family="sans-serif" font-size="14" lengthAdjust="spacing" textLength="78" x="149" y="1098.3613">getColumn()</text></g><!--MD5=[d8c8cfd5ca149094f5b67f9f607a5ec7]
class Token--><g id="elem_Token"><rect codeLine="37" fill="#F1F1F1" height="83.2188" id="Token" rx="2.5" ry="2.5" style="stroke:#181818;stroke-width:0.5;" width="90" x="198" y="844"/><ellipse cx="221.1" cy="860" fill="#ADD1B2" rx="11" ry="11" style="stroke:#181818;stroke-width:1.0;"/><path d="M223.8656,855.875 Q224.0219,855.6563 224.2094,855.5469 Q224.3969,855.4375 224.6156,855.4375 Q224.9906,855.4375 225.225,855.7031 Q225.4594,855.9531 225.4594,856.5625 L225.4594,858.0156 Q225.4594,858.625 225.225,858.8906 Q224.9906,859.1563 224.6156,859.1563 Q224.2719,859.1563 224.0688,858.9531 Q223.8656,858.7656 223.7563,858.25 Q223.7094,857.8906 223.5219,857.7031 Q223.1938,857.3281 222.5844,857.1094 Q221.975,856.8906 221.35,856.8906 Q220.5844,856.8906 219.9438,857.2188 Q219.3188,857.5469 218.8188,858.2969 Q218.3344,859.0469 218.3344,860.0781 L218.3344,861.1719 Q218.3344,862.4063 219.225,863.2344 Q220.1156,864.0469 221.7094,864.0469 Q222.6469,864.0469 223.3031,863.7969 Q223.6938,863.6406 224.1156,863.2031 Q224.3813,862.9375 224.5219,862.8594 Q224.6781,862.7813 224.8813,862.7813 Q225.2094,862.7813 225.4594,863.0469 Q225.725,863.2969 225.725,863.6406 Q225.725,863.9844 225.3813,864.3906 Q224.8813,864.9688 224.0844,865.2969 Q223.0063,865.75 221.7094,865.75 Q220.1938,865.75 218.9906,865.125 Q218.0063,864.625 217.3188,863.5625 Q216.6313,862.4844 216.6313,861.2031 L216.6313,860.0469 Q216.6313,858.7188 217.2406,857.5781 Q217.8656,856.4219 218.9594,855.8125 Q220.0531,855.1875 221.2875,855.1875 Q222.0219,855.1875 222.6625,855.3594 Q223.3188,855.5156 223.8656,855.875 Z " fill="#000000"/><text fill="#000000" font-family="sans-serif" font-size="14" lengthAdjust="spacing" textLength="40" x="236.9" y="865.7285">Token</text><line style="stroke:#181818;stroke-width:0.5;" x1="199" x2="287" y1="876" y2="876"/><rect fill="none" height="6" style="stroke:#C82930;stroke-width:1.0;" width="6" x="206" y="884"/><text fill="#000000" font-family="sans-serif" font-size="14" lengthAdjust="spacing" textLength="34" x="218" y="894.5332">Color</text><line style="stroke:#181818;stroke-width:0.5;" x1="199" x2="287" y1="901.6094" y2="901.6094"/><ellipse cx="209" cy="912.6094" fill="#84BE84" rx="3" ry="3" style="stroke:#038048;stroke-width:1.0;"/><text fill="#000000" font-family="sans-serif" font-size="14" lengthAdjust="spacing" textLength="64" x="218" y="920.1426">getColor()</text></g><!--MD5=[0f1adae5684a082996b24e2018afd4c9]
class TurnView--><g id="elem_TurnView"><rect codeLine="41" fill="#F1F1F1" height="118.4375" id="TurnView" rx="2.5" ry="2.5" style="stroke:#181818;stroke-width:0.5;" width="184" x="235" y="382"/><ellipse cx="293.25" cy="398" fill="#ADD1B2" rx="11" ry="11" style="stroke:#181818;stroke-width:1.0;"/><path d="M296.0156,393.875 Q296.1719,393.6563 296.3594,393.5469 Q296.5469,393.4375 296.7656,393.4375 Q297.1406,393.4375 297.375,393.7031 Q297.6094,393.9531 297.6094,394.5625 L297.6094,396.0156 Q297.6094,396.625 297.375,396.8906 Q297.1406,397.1563 296.7656,397.1563 Q296.4219,397.1563 296.2188,396.9531 Q296.0156,396.7656 295.9063,396.25 Q295.8594,395.8906 295.6719,395.7031 Q295.3438,395.3281 294.7344,395.1094 Q294.125,394.8906 293.5,394.8906 Q292.7344,394.8906 292.0938,395.2188 Q291.4688,395.5469 290.9688,396.2969 Q290.4844,397.0469 290.4844,398.0781 L290.4844,399.1719 Q290.4844,400.4063 291.375,401.2344 Q292.2656,402.0469 293.8594,402.0469 Q294.7969,402.0469 295.4531,401.7969 Q295.8438,401.6406 296.2656,401.2031 Q296.5313,400.9375 296.6719,400.8594 Q296.8281,400.7813 297.0313,400.7813 Q297.3594,400.7813 297.6094,401.0469 Q297.875,401.2969 297.875,401.6406 Q297.875,401.9844 297.5313,402.3906 Q297.0313,402.9688 296.2344,403.2969 Q295.1563,403.75 293.8594,403.75 Q292.3438,403.75 291.1406,403.125 Q290.1563,402.625 289.4688,401.5625 Q288.7813,400.4844 288.7813,399.2031 L288.7813,398.0469 Q288.7813,396.7188 289.3906,395.5781 Q290.0156,394.4219 291.1094,393.8125 Q292.2031,393.1875 293.4375,393.1875 Q294.1719,393.1875 294.8125,393.3594 Q295.4688,393.5156 296.0156,393.875 Z " fill="#000000"/><text fill="#000000" font-family="sans-serif" font-size="14" lengthAdjust="spacing" textLength="59" x="313.75" y="403.7285">TurnView</text><line style="stroke:#181818;stroke-width:0.5;" x1="236" x2="418" y1="414" y2="414"/><rect fill="none" height="6" style="stroke:#C82930;stroke-width:1.0;" width="6" x="243" y="422"/><text fill="#000000" font-family="sans-serif" font-size="14" lengthAdjust="spacing" textLength="25" x="255" y="432.5332">turn</text><line style="stroke:#181818;stroke-width:0.5;" x1="236" x2="418" y1="439.6094" y2="439.6094"/><ellipse cx="246" cy="450.6094" fill="#84BE84" rx="3" ry="3" style="stroke:#038048;stroke-width:1.0;"/><text fill="#000000" font-family="sans-serif" font-size="14" lengthAdjust="spacing" textLength="158" x="255" y="458.1426">getColumn(maxColumns)</text><ellipse cx="246" cy="468.2188" fill="#84BE84" rx="3" ry="3" style="stroke:#038048;stroke-width:1.0;"/><text fill="#000000" font-family="sans-serif" font-size="14" lengthAdjust="spacing" textLength="66" x="255" y="475.752">nextTurn()</text><ellipse cx="246" cy="485.8281" fill="#84BE84" rx="3" ry="3" style="stroke:#038048;stroke-width:1.0;"/><text fill="#000000" font-family="sans-serif" font-size="14" lengthAdjust="spacing" textLength="64" x="255" y="493.3613">getColor()</text></g><!--MD5=[dd91eae41778c45e12552e5329e240e8]
class Turn--><g id="elem_Turn"><rect codeLine="48" fill="#F1F1F1" height="100.8281" id="Turn" rx="2.5" ry="2.5" style="stroke:#181818;stroke-width:0.5;" width="92" x="292" y="621.5"/><ellipse cx="320.5" cy="637.5" fill="#ADD1B2" rx="11" ry="11" style="stroke:#181818;stroke-width:1.0;"/><path d="M323.2656,633.375 Q323.4219,633.1563 323.6094,633.0469 Q323.7969,632.9375 324.0156,632.9375 Q324.3906,632.9375 324.625,633.2031 Q324.8594,633.4531 324.8594,634.0625 L324.8594,635.5156 Q324.8594,636.125 324.625,636.3906 Q324.3906,636.6563 324.0156,636.6563 Q323.6719,636.6563 323.4688,636.4531 Q323.2656,636.2656 323.1563,635.75 Q323.1094,635.3906 322.9219,635.2031 Q322.5938,634.8281 321.9844,634.6094 Q321.375,634.3906 320.75,634.3906 Q319.9844,634.3906 319.3438,634.7188 Q318.7188,635.0469 318.2188,635.7969 Q317.7344,636.5469 317.7344,637.5781 L317.7344,638.6719 Q317.7344,639.9063 318.625,640.7344 Q319.5156,641.5469 321.1094,641.5469 Q322.0469,641.5469 322.7031,641.2969 Q323.0938,641.1406 323.5156,640.7031 Q323.7813,640.4375 323.9219,640.3594 Q324.0781,640.2813 324.2813,640.2813 Q324.6094,640.2813 324.8594,640.5469 Q325.125,640.7969 325.125,641.1406 Q325.125,641.4844 324.7813,641.8906 Q324.2813,642.4688 323.4844,642.7969 Q322.4063,643.25 321.1094,643.25 Q319.5938,643.25 318.3906,642.625 Q317.4063,642.125 316.7188,641.0625 Q316.0313,639.9844 316.0313,638.7031 L316.0313,637.5469 Q316.0313,636.2188 316.6406,635.0781 Q317.2656,633.9219 318.3594,633.3125 Q319.4531,632.6875 320.6875,632.6875 Q321.4219,632.6875 322.0625,632.8594 Q322.7188,633.0156 323.2656,633.375 Z " fill="#000000"/><text fill="#000000" font-family="sans-serif" font-size="14" lengthAdjust="spacing" textLength="30" x="337.5" y="643.2285">Turn</text><line style="stroke:#181818;stroke-width:0.5;" x1="293" x2="383" y1="653.5" y2="653.5"/><rect fill="none" height="6" style="stroke:#C82930;stroke-width:1.0;" width="6" x="300" y="661.5"/><text fill="#000000" font-family="sans-serif" font-size="14" lengthAdjust="spacing" textLength="31" x="312" y="672.0332">color</text><line style="stroke:#181818;stroke-width:0.5;" x1="293" x2="383" y1="679.1094" y2="679.1094"/><ellipse cx="303" cy="690.1094" fill="#84BE84" rx="3" ry="3" style="stroke:#038048;stroke-width:1.0;"/><text fill="#000000" font-family="sans-serif" font-size="14" lengthAdjust="spacing" textLength="64" x="312" y="697.6426">getColor()</text><ellipse cx="303" cy="707.7188" fill="#84BE84" rx="3" ry="3" style="stroke:#038048;stroke-width:1.0;"/><text fill="#000000" font-family="sans-serif" font-size="14" lengthAdjust="spacing" textLength="66" x="312" y="715.252">nextTurn()</text></g><!--MD5=[2741598bdf59a7d7e0d5c97658fd3022]
class Result--><g id="elem_Result"><rect codeLine="54" fill="#F1F1F1" height="48" id="Result" rx="2.5" ry="2.5" style="stroke:#181818;stroke-width:0.5;" width="72" x="251" y="33.5"/><ellipse cx="266" cy="49.5" fill="#ADD1B2" rx="11" ry="11" style="stroke:#181818;stroke-width:1.0;"/><path d="M268.7656,45.375 Q268.9219,45.1563 269.1094,45.0469 Q269.2969,44.9375 269.5156,44.9375 Q269.8906,44.9375 270.125,45.2031 Q270.3594,45.4531 270.3594,46.0625 L270.3594,47.5156 Q270.3594,48.125 270.125,48.3906 Q269.8906,48.6563 269.5156,48.6563 Q269.1719,48.6563 268.9688,48.4531 Q268.7656,48.2656 268.6563,47.75 Q268.6094,47.3906 268.4219,47.2031 Q268.0938,46.8281 267.4844,46.6094 Q266.875,46.3906 266.25,46.3906 Q265.4844,46.3906 264.8438,46.7188 Q264.2188,47.0469 263.7188,47.7969 Q263.2344,48.5469 263.2344,49.5781 L263.2344,50.6719 Q263.2344,51.9063 264.125,52.7344 Q265.0156,53.5469 266.6094,53.5469 Q267.5469,53.5469 268.2031,53.2969 Q268.5938,53.1406 269.0156,52.7031 Q269.2813,52.4375 269.4219,52.3594 Q269.5781,52.2813 269.7813,52.2813 Q270.1094,52.2813 270.3594,52.5469 Q270.625,52.7969 270.625,53.1406 Q270.625,53.4844 270.2813,53.8906 Q269.7813,54.4688 268.9844,54.7969 Q267.9063,55.25 266.6094,55.25 Q265.0938,55.25 263.8906,54.625 Q262.9063,54.125 262.2188,53.0625 Q261.5313,51.9844 261.5313,50.7031 L261.5313,49.5469 Q261.5313,48.2188 262.1406,47.0781 Q262.7656,45.9219 263.8594,45.3125 Q264.9531,44.6875 266.1875,44.6875 Q266.9219,44.6875 267.5625,44.8594 Q268.2188,45.0156 268.7656,45.375 Z " fill="#000000"/><text fill="#000000" font-family="sans-serif" font-size="14" lengthAdjust="spacing" textLength="40" x="280" y="55.2285">Result</text><line style="stroke:#181818;stroke-width:0.5;" x1="252" x2="322" y1="65.5" y2="65.5"/><line style="stroke:#181818;stroke-width:0.5;" x1="252" x2="322" y1="73.5" y2="73.5"/></g><!--MD5=[c4df9b95f6f4e4e1c32bb5a44abd175a]
class Colors--><g id="elem_Colors"><rect codeLine="56" fill="#F1F1F1" height="83.2188" id="Colors" rx="2.5" ry="2.5" style="stroke:#181818;stroke-width:0.5;" width="73" x="268.5" y="1004.5"/><ellipse cx="283.5" cy="1020.5" fill="#EB937F" rx="11" ry="11" style="stroke:#181818;stroke-width:1.0;"/><path d="M282.3594,1021.2969 L282.3594,1023.7969 L286.6875,1023.7969 L286.6875,1022.875 Q286.6875,1022.2656 286.9219,1022 Q287.1719,1021.7344 287.5469,1021.7344 Q287.9219,1021.7344 288.1563,1022 Q288.3906,1022.2656 288.3906,1022.875 L288.3906,1025.5 L280.3906,1025.5 Q279.7656,1025.5 279.5,1025.2656 Q279.25,1025.0313 279.25,1024.6406 Q279.25,1024.2656 279.5156,1024.0313 Q279.7813,1023.7969 280.3906,1023.7969 L280.6563,1023.7969 L280.6563,1017.1406 L280.3906,1017.1406 Q279.7656,1017.1406 279.5,1016.9063 Q279.25,1016.6719 279.25,1016.2813 Q279.25,1015.9063 279.5,1015.6719 Q279.7656,1015.4375 280.3906,1015.4375 L288.0156,1015.4375 L288.0156,1018.0313 Q288.0156,1018.6406 287.7813,1018.9063 Q287.5625,1019.1563 287.1719,1019.1563 Q286.7969,1019.1563 286.5625,1018.9063 Q286.3281,1018.6406 286.3281,1018.0313 L286.3281,1017.1406 L282.3594,1017.1406 L282.3594,1019.5938 L283.8438,1019.5938 Q283.8438,1018.9375 283.9688,1018.75 Q284.2344,1018.3438 284.7031,1018.3438 Q285.0781,1018.3438 285.3125,1018.6094 Q285.5469,1018.8594 285.5469,1019.4688 L285.5469,1021.4375 Q285.5469,1021.9844 285.4219,1022.1719 Q285.1563,1022.5625 284.7031,1022.5625 Q284.2344,1022.5625 283.9688,1022.1563 Q283.8438,1021.9688 283.8438,1021.2969 L282.3594,1021.2969 Z " fill="#000000"/><text fill="#000000" font-family="sans-serif" font-size="14" lengthAdjust="spacing" textLength="41" x="297.5" y="1026.2285">Colors</text><line style="stroke:#181818;stroke-width:0.5;" x1="269.5" x2="340.5" y1="1036.5" y2="1036.5"/><text fill="#000000" font-family="sans-serif" font-size="14" lengthAdjust="spacing" textLength="26" x="274.5" y="1055.0332">Red</text><text fill="#000000" font-family="sans-serif" font-size="14" lengthAdjust="spacing" textLength="40" x="274.5" y="1072.6426">Yellow</text><line style="stroke:#181818;stroke-width:0.5;" x1="269.5" x2="340.5" y1="1079.7188" y2="1079.7188"/></g><!--MD5=[1da39882317deee69888dc65a2b454be]
link Connect4 to BoardView--><g id="link_Connect4_BoardView"><path codeLine="61" d="M186.05,108.21 C193.89,125.13 202.87,144.5 211.55,163.21 " fill="none" id="Connect4-to-BoardView" style="stroke:#181818;stroke-width:1.0;stroke-dasharray:7.0,7.0;"/><polygon fill="#181818" points="213.74,167.95,213.5944,158.1022,211.642,163.4115,206.3328,161.459,213.74,167.95" style="stroke:#181818;stroke-width:1.0;"/></g><!--MD5=[bd62d02ddcc7cab85c8af840f89aa653]
link Connect4 to YesNoDialogView--><g id="link_Connect4_YesNoDialogView"><path codeLine="62" d="M140.22,108.21 C127.34,136.31 111.36,171.19 98.82,198.56 " fill="none" id="Connect4-to-YesNoDialogView" style="stroke:#181818;stroke-width:1.0;stroke-dasharray:7.0,7.0;"/><polygon fill="#181818" points="96.68,203.23,104.0626,196.711,98.7608,198.6836,96.7883,193.3817,96.68,203.23" style="stroke:#181818;stroke-width:1.0;"/></g><!--MD5=[87ac28f7ff846e55e34c2c863c6ff220]
link BoardView to Board--><g id="link_BoardView_Board"><path codeLine="64" d="M231.01,322.47 C215.8,387.12 193.77,480.74 176.37,554.68 " fill="none" id="BoardView-to-Board" style="stroke:#181818;stroke-width:1.0;stroke-dasharray:7.0,7.0;"/><polygon fill="#181818" points="175.13,559.97,181.085,552.1254,176.2752,555.1029,173.2977,550.2931,175.13,559.97" style="stroke:#181818;stroke-width:1.0;"/></g><!--MD5=[c7c3dfe1a204cc183b3ebd4fea4524e8]
link BoardView to TurnView--><g id="link_BoardView_TurnView"><path codeLine="65" d="M279.6,322.12 C286.9,340.26 294.61,359.43 301.64,376.92 " fill="none" id="BoardView-to-TurnView" style="stroke:#181818;stroke-width:1.0;stroke-dasharray:7.0,7.0;"/><polygon fill="#181818" points="303.6,381.8,303.9714,371.9581,301.743,377.1576,296.5436,374.9293,303.6,381.8" style="stroke:#181818;stroke-width:1.0;"/></g><!--MD5=[b90c15517c5612720f6d3b5735a27f0e]
link TurnView to Turn--><g id="link_TurnView_Turn"><path codeLine="66" d="M330.3702,512.066 C330.3702,512.066 333.56,578.67 334.98,608.07 " fill="none" id="TurnView-Turn" style="stroke:#181818;stroke-width:1.0;"/><polygon fill="#181818" points="335.6,621.14,339.1602,611.9571,335.3583,616.1458,331.1695,612.3439,335.6,621.14" style="stroke:#181818;stroke-width:1.0;"/><line style="stroke:#181818;stroke-width:1.0;" x1="335.3583" x2="334.985" y1="616.1458" y2="608.15"/><polygon fill="none" points="329.79,500.08,326.0848,506.2664,330.3702,512.066,334.0754,505.8796,329.79,500.08" style="stroke:#181818;stroke-width:1.0;"/></g><!--MD5=[23c004dc6349f1678ef711c3be24147e]
link Board to Token--><g id="link_Board_Token"><path codeLine="68" d="M203.2051,794.9795 C203.2051,794.9795 214.58,820.57 219.51,831.66 " fill="none" id="Board-Token" style="stroke:#181818;stroke-width:1.0;"/><polygon fill="#181818" points="224.86,843.69,224.8633,833.8411,222.8308,839.1203,217.5517,837.0878,224.86,843.69" style="stroke:#181818;stroke-width:1.0;"/><line style="stroke:#181818;stroke-width:1.0;" x1="222.8308" x2="219.585" y1="839.1203" y2="831.815"/><polygon fill="none" points="198.34,784.01,197.116,791.1165,203.2051,794.9795,204.4291,787.8731,198.34,784.01" style="stroke:#181818;stroke-width:1.0;"/></g><!--MD5=[131fd55d1ea8d452206c40f8bf9c1560]
link Turn to Token--><g id="link_Turn_Token"><path codeLine="70" d="M315.73,722.59 C299.94,757.73 278.92,804.53 263.54,838.78 " fill="none" id="Turn-to-Token" style="stroke:#181818;stroke-width:1.0;stroke-dasharray:7.0,7.0;"/><polygon fill="#181818" points="261.31,843.74,268.6415,837.1636,263.3553,839.1775,261.3415,833.8912,261.31,843.74" style="stroke:#181818;stroke-width:1.0;"/></g><!--MD5=[d6208de9411c4b1d5190de2c034c83cb]
link Token to Colors--><g id="link_Token_Colors"><path codeLine="73" d="M263.3378,938.4969 C263.3378,938.4969 277.65,975.07 284.22,991.87 " fill="none" id="Token-Colors" style="stroke:#181818;stroke-width:1.0;"/><polygon fill="#181818" points="289.09,1004.32,289.5437,994.4816,287.2719,999.6622,282.0913,997.3905,289.09,1004.32" style="stroke:#181818;stroke-width:1.0;"/><line style="stroke:#181818;stroke-width:1.0;" x1="287.2719" x2="284.35" y1="999.6622" y2="992.215"/><polygon fill="#181818" points="258.97,927.32,257.4283,934.3644,263.3378,938.4969,264.8795,931.4525,258.97,927.32" style="stroke:#181818;stroke-width:1.0;"/></g><!--MD5=[f2f17acc82dd155756e97465362881f7]
link Token to Coordinate--><g id="link_Token_Coordinate"><path codeLine="74" d="M227.03,927.32 C220.48,944.06 212.75,963.82 205.52,982.32 " fill="none" id="Token-to-Coordinate" style="stroke:#181818;stroke-width:1.0;stroke-dasharray:7.0,7.0;"/><polygon fill="#181818" points="203.69,987,210.7026,980.0845,205.5174,982.3459,203.256,977.1607,203.69,987" style="stroke:#181818;stroke-width:1.0;"/></g><!--MD5=[c2131849c03532725a2990394c7aeaf4]
@startuml

class Connect4{
    - boardView
    - yesNoDialog
    + playGame()
}
class YesNoDialogView{
    + read(message)
    + isAffirmative()
}
class Board{
    - tokens[]
    + reset(maxRows, maxColumns)
    + isFilledColumn(column)
    + putToken(column, color)
    + getNextEmptyRow(column)
    + isEndGame()
    + isFilled()
    + isFourInLine()
    - isHorizontal(color)
    + getTokens()
}
class BoardView{
    - MAX_ROWS
    - MAX_COLUMNS
    - Board
    - TurnView
    + init()
    + show()
}
class Coordinate{
    - row
    - column
    + getRow()
    + getColumn()
}
class Token{
    - Color
    + getColor()
}
class TurnView{
    - turn
    + getColumn(maxColumns)
    + nextTurn()
    + getColor()
}

class Turn{
    - color
    + getColor()
    + nextTurn()
}

class Result

enum Colors{
Red
Yellow
}

Connect4 ..> BoardView
Connect4 ..> YesNoDialogView

BoardView ..> Board
BoardView ..> TurnView
TurnView o- -> Turn

Board o- -> Token

Turn ..> Token


Token *- -> Colors
Token ..> Coordinate
@enduml

PlantUML version 1.2022.5(Sat Apr 30 12:55:52 CEST 2022)
(GPL source distribution)
Java Runtime: OpenJDK Runtime Environment
JVM: OpenJDK 64-Bit Server VM
Default Encoding: UTF-8
Language: es
Country: ES
--></g></svg>