<?xml version="1.0" encoding="UTF-8" standalone="no"?><svg xmlns="http://www.w3.org/2000/svg" xmlns:xlink="http://www.w3.org/1999/xlink" contentStyleType="text/css" height="1183px" preserveAspectRatio="none" style="width:543px;height:1183px;background:#FFFFFF;" version="1.1" viewBox="0 0 543 1183" width="543px" zoomAndPan="magnify"><defs/><g><!--MD5=[10b1f240992e2c34b6908209bf85bfd2]
class Connect4--><g id="elem_Connect4"><rect codeLine="2" fill="#F1F1F1" height="100.8281" id="Connect4" rx="2.5" ry="2.5" style="stroke:#181818;stroke-width:0.5;" width="105" x="223.5" y="7"/><ellipse cx="243.9" cy="23" fill="#ADD1B2" rx="11" ry="11" style="stroke:#181818;stroke-width:1.0;"/><path d="M246.6656,18.875 Q246.8219,18.6563 247.0094,18.5469 Q247.1969,18.4375 247.4156,18.4375 Q247.7906,18.4375 248.025,18.7031 Q248.2594,18.9531 248.2594,19.5625 L248.2594,21.0156 Q248.2594,21.625 248.025,21.8906 Q247.7906,22.1563 247.4156,22.1563 Q247.0719,22.1563 246.8688,21.9531 Q246.6656,21.7656 246.5563,21.25 Q246.5094,20.8906 246.3219,20.7031 Q245.9938,20.3281 245.3844,20.1094 Q244.775,19.8906 244.15,19.8906 Q243.3844,19.8906 242.7438,20.2188 Q242.1188,20.5469 241.6188,21.2969 Q241.1344,22.0469 241.1344,23.0781 L241.1344,24.1719 Q241.1344,25.4063 242.025,26.2344 Q242.9156,27.0469 244.5094,27.0469 Q245.4469,27.0469 246.1031,26.7969 Q246.4938,26.6406 246.9156,26.2031 Q247.1813,25.9375 247.3219,25.8594 Q247.4781,25.7813 247.6813,25.7813 Q248.0094,25.7813 248.2594,26.0469 Q248.525,26.2969 248.525,26.6406 Q248.525,26.9844 248.1813,27.3906 Q247.6813,27.9688 246.8844,28.2969 Q245.8063,28.75 244.5094,28.75 Q242.9938,28.75 241.7906,28.125 Q240.8063,27.625 240.1188,26.5625 Q239.4313,25.4844 239.4313,24.2031 L239.4313,23.0469 Q239.4313,21.7188 240.0406,20.5781 Q240.6656,19.4219 241.7594,18.8125 Q242.8531,18.1875 244.0875,18.1875 Q244.8219,18.1875 245.4625,18.3594 Q246.1188,18.5156 246.6656,18.875 Z " fill="#000000"/><text fill="#000000" font-family="sans-serif" font-size="14" lengthAdjust="spacing" textLength="61" x="259.1" y="28.7285">Connect4</text><line style="stroke:#181818;stroke-width:0.5;" x1="224.5" x2="327.5" y1="39" y2="39"/><rect fill="none" height="6" style="stroke:#C82930;stroke-width:1.0;" width="6" x="231.5" y="47"/><text fill="#000000" font-family="sans-serif" font-size="14" lengthAdjust="spacing" textLength="66" x="243.5" y="57.5332">boardView</text><rect fill="none" height="6" style="stroke:#C82930;stroke-width:1.0;" width="6" x="231.5" y="64.6094"/><text fill="#000000" font-family="sans-serif" font-size="14" lengthAdjust="spacing" textLength="79" x="243.5" y="75.1426">yesNoDialog</text><line style="stroke:#181818;stroke-width:0.5;" x1="224.5" x2="327.5" y1="82.2188" y2="82.2188"/><ellipse cx="234.5" cy="93.2188" fill="#84BE84" rx="3" ry="3" style="stroke:#038048;stroke-width:1.0;"/><text fill="#000000" font-family="sans-serif" font-size="14" lengthAdjust="spacing" textLength="74" x="243.5" y="100.752">playGame()</text></g><!--MD5=[2f2ced231ceb229417d2b072acd0beb6]
class YesNoDialogView--><g id="elem_YesNoDialogView"><rect codeLine="7" fill="#F1F1F1" height="83.2188" id="YesNoDialogView" rx="2.5" ry="2.5" style="stroke:#181818;stroke-width:0.5;" width="142" x="120" y="203.5"/><ellipse cx="135" cy="219.5" fill="#ADD1B2" rx="11" ry="11" style="stroke:#181818;stroke-width:1.0;"/><path d="M137.7656,215.375 Q137.9219,215.1563 138.1094,215.0469 Q138.2969,214.9375 138.5156,214.9375 Q138.8906,214.9375 139.125,215.2031 Q139.3594,215.4531 139.3594,216.0625 L139.3594,217.5156 Q139.3594,218.125 139.125,218.3906 Q138.8906,218.6563 138.5156,218.6563 Q138.1719,218.6563 137.9688,218.4531 Q137.7656,218.2656 137.6563,217.75 Q137.6094,217.3906 137.4219,217.2031 Q137.0938,216.8281 136.4844,216.6094 Q135.875,216.3906 135.25,216.3906 Q134.4844,216.3906 133.8438,216.7188 Q133.2188,217.0469 132.7188,217.7969 Q132.2344,218.5469 132.2344,219.5781 L132.2344,220.6719 Q132.2344,221.9063 133.125,222.7344 Q134.0156,223.5469 135.6094,223.5469 Q136.5469,223.5469 137.2031,223.2969 Q137.5938,223.1406 138.0156,222.7031 Q138.2813,222.4375 138.4219,222.3594 Q138.5781,222.2813 138.7813,222.2813 Q139.1094,222.2813 139.3594,222.5469 Q139.625,222.7969 139.625,223.1406 Q139.625,223.4844 139.2813,223.8906 Q138.7813,224.4688 137.9844,224.7969 Q136.9063,225.25 135.6094,225.25 Q134.0938,225.25 132.8906,224.625 Q131.9063,224.125 131.2188,223.0625 Q130.5313,221.9844 130.5313,220.7031 L130.5313,219.5469 Q130.5313,218.2188 131.1406,217.0781 Q131.7656,215.9219 132.8594,215.3125 Q133.9531,214.6875 135.1875,214.6875 Q135.9219,214.6875 136.5625,214.8594 Q137.2188,215.0156 137.7656,215.375 Z " fill="#000000"/><text fill="#000000" font-family="sans-serif" font-size="14" lengthAdjust="spacing" textLength="110" x="149" y="225.2285">YesNoDialogView</text><line style="stroke:#181818;stroke-width:0.5;" x1="121" x2="261" y1="235.5" y2="235.5"/><line style="stroke:#181818;stroke-width:0.5;" x1="121" x2="261" y1="243.5" y2="243.5"/><ellipse cx="131" cy="254.5" fill="#84BE84" rx="3" ry="3" style="stroke:#038048;stroke-width:1.0;"/><text fill="#000000" font-family="sans-serif" font-size="14" lengthAdjust="spacing" textLength="96" x="140" y="262.0332">read(message)</text><ellipse cx="131" cy="272.1094" fill="#84BE84" rx="3" ry="3" style="stroke:#038048;stroke-width:1.0;"/><text fill="#000000" font-family="sans-serif" font-size="14" lengthAdjust="spacing" textLength="86" x="140" y="279.6426">isAffirmative()</text></g><!--MD5=[9563755d011c5cec7ec66dc53565a59e]
class Board--><g id="elem_Board"><rect codeLine="11" fill="#F1F1F1" height="224.0938" id="Board" rx="2.5" ry="2.5" style="stroke:#181818;stroke-width:0.5;" width="276" x="106" y="560"/><ellipse cx="220.75" cy="576" fill="#ADD1B2" rx="11" ry="11" style="stroke:#181818;stroke-width:1.0;"/><path d="M223.5156,571.875 Q223.6719,571.6563 223.8594,571.5469 Q224.0469,571.4375 224.2656,571.4375 Q224.6406,571.4375 224.875,571.7031 Q225.1094,571.9531 225.1094,572.5625 L225.1094,574.0156 Q225.1094,574.625 224.875,574.8906 Q224.6406,575.1563 224.2656,575.1563 Q223.9219,575.1563 223.7188,574.9531 Q223.5156,574.7656 223.4063,574.25 Q223.3594,573.8906 223.1719,573.7031 Q222.8438,573.3281 222.2344,573.1094 Q221.625,572.8906 221,572.8906 Q220.2344,572.8906 219.5938,573.2188 Q218.9688,573.5469 218.4688,574.2969 Q217.9844,575.0469 217.9844,576.0781 L217.9844,577.1719 Q217.9844,578.4063 218.875,579.2344 Q219.7656,580.0469 221.3594,580.0469 Q222.2969,580.0469 222.9531,579.7969 Q223.3438,579.6406 223.7656,579.2031 Q224.0313,578.9375 224.1719,578.8594 Q224.3281,578.7813 224.5313,578.7813 Q224.8594,578.7813 225.1094,579.0469 Q225.375,579.2969 225.375,579.6406 Q225.375,579.9844 225.0313,580.3906 Q224.5313,580.9688 223.7344,581.2969 Q222.6563,581.75 221.3594,581.75 Q219.8438,581.75 218.6406,581.125 Q217.6563,580.625 216.9688,579.5625 Q216.2813,578.4844 216.2813,577.2031 L216.2813,576.0469 Q216.2813,574.7188 216.8906,573.5781 Q217.5156,572.4219 218.6094,571.8125 Q219.7031,571.1875 220.9375,571.1875 Q221.6719,571.1875 222.3125,571.3594 Q222.9688,571.5156 223.5156,571.875 Z " fill="#000000"/><text fill="#000000" font-family="sans-serif" font-size="14" lengthAdjust="spacing" textLength="38" x="241.25" y="581.7285">Board</text><line style="stroke:#181818;stroke-width:0.5;" x1="107" x2="381" y1="592" y2="592"/><rect fill="none" height="6" style="stroke:#C82930;stroke-width:1.0;" width="6" x="114" y="600"/><text fill="#000000" font-family="sans-serif" font-size="14" lengthAdjust="spacing" textLength="50" x="126" y="610.5332">tokens[]</text><rect fill="none" height="6" style="stroke:#C82930;stroke-width:1.0;" width="6" x="114" y="617.6094"/><text fill="#000000" font-family="sans-serif" font-size="14" lengthAdjust="spacing" textLength="38" x="126" y="628.1426">inLine</text><line style="stroke:#181818;stroke-width:0.5;" x1="107" x2="381" y1="635.2188" y2="635.2188"/><ellipse cx="117" cy="646.2188" fill="#84BE84" rx="3" ry="3" style="stroke:#038048;stroke-width:1.0;"/><text fill="#000000" font-family="sans-serif" font-size="14" lengthAdjust="spacing" textLength="189" x="126" y="653.752">reset(maxRows, maxColumns)</text><ellipse cx="117" cy="663.8281" fill="#84BE84" rx="3" ry="3" style="stroke:#038048;stroke-width:1.0;"/><text fill="#000000" font-family="sans-serif" font-size="14" lengthAdjust="spacing" textLength="147" x="126" y="671.3613">isFilledColumn(column)</text><ellipse cx="117" cy="681.4375" fill="#84BE84" rx="3" ry="3" style="stroke:#038048;stroke-width:1.0;"/><text fill="#000000" font-family="sans-serif" font-size="14" lengthAdjust="spacing" textLength="154" x="126" y="688.9707">putToken(column, color)</text><ellipse cx="117" cy="699.0469" fill="#84BE84" rx="3" ry="3" style="stroke:#038048;stroke-width:1.0;"/><text fill="#000000" font-family="sans-serif" font-size="14" lengthAdjust="spacing" textLength="250" x="126" y="706.5801">getFirstEmptyRowFromColumn(column)</text><ellipse cx="117" cy="716.6563" fill="#84BE84" rx="3" ry="3" style="stroke:#038048;stroke-width:1.0;"/><text fill="#000000" font-family="sans-serif" font-size="14" lengthAdjust="spacing" textLength="83" x="126" y="724.1895">isEndGame()</text><ellipse cx="117" cy="734.2656" fill="#84BE84" rx="3" ry="3" style="stroke:#038048;stroke-width:1.0;"/><text fill="#000000" font-family="sans-serif" font-size="14" lengthAdjust="spacing" textLength="54" x="126" y="741.7988">isFilled()</text><ellipse cx="117" cy="751.875" fill="#84BE84" rx="3" ry="3" style="stroke:#038048;stroke-width:1.0;"/><text fill="#000000" font-family="sans-serif" font-size="14" lengthAdjust="spacing" textLength="147" x="126" y="759.4082">isInLineTokens(tokens)</text><ellipse cx="117" cy="769.4844" fill="#84BE84" rx="3" ry="3" style="stroke:#038048;stroke-width:1.0;"/><text fill="#000000" font-family="sans-serif" font-size="14" lengthAdjust="spacing" textLength="77" x="126" y="777.0176">getTokens()</text></g><!--MD5=[9b237e88d697a058bd530d6510c96c00]
class BoardView--><g id="elem_BoardView"><rect codeLine="23" fill="#F1F1F1" height="153.6563" id="BoardView" rx="2.5" ry="2.5" style="stroke:#181818;stroke-width:0.5;" width="129" x="297.5" y="168"/><ellipse cx="326" cy="184" fill="#ADD1B2" rx="11" ry="11" style="stroke:#181818;stroke-width:1.0;"/><path d="M328.7656,179.875 Q328.9219,179.6563 329.1094,179.5469 Q329.2969,179.4375 329.5156,179.4375 Q329.8906,179.4375 330.125,179.7031 Q330.3594,179.9531 330.3594,180.5625 L330.3594,182.0156 Q330.3594,182.625 330.125,182.8906 Q329.8906,183.1563 329.5156,183.1563 Q329.1719,183.1563 328.9688,182.9531 Q328.7656,182.7656 328.6563,182.25 Q328.6094,181.8906 328.4219,181.7031 Q328.0938,181.3281 327.4844,181.1094 Q326.875,180.8906 326.25,180.8906 Q325.4844,180.8906 324.8438,181.2188 Q324.2188,181.5469 323.7188,182.2969 Q323.2344,183.0469 323.2344,184.0781 L323.2344,185.1719 Q323.2344,186.4063 324.125,187.2344 Q325.0156,188.0469 326.6094,188.0469 Q327.5469,188.0469 328.2031,187.7969 Q328.5938,187.6406 329.0156,187.2031 Q329.2813,186.9375 329.4219,186.8594 Q329.5781,186.7813 329.7813,186.7813 Q330.1094,186.7813 330.3594,187.0469 Q330.625,187.2969 330.625,187.6406 Q330.625,187.9844 330.2813,188.3906 Q329.7813,188.9688 328.9844,189.2969 Q327.9063,189.75 326.6094,189.75 Q325.0938,189.75 323.8906,189.125 Q322.9063,188.625 322.2188,187.5625 Q321.5313,186.4844 321.5313,185.2031 L321.5313,184.0469 Q321.5313,182.7188 322.1406,181.5781 Q322.7656,180.4219 323.8594,179.8125 Q324.9531,179.1875 326.1875,179.1875 Q326.9219,179.1875 327.5625,179.3594 Q328.2188,179.5156 328.7656,179.875 Z " fill="#000000"/><text fill="#000000" font-family="sans-serif" font-size="14" lengthAdjust="spacing" textLength="67" x="343" y="189.7285">BoardView</text><line style="stroke:#181818;stroke-width:0.5;" x1="298.5" x2="425.5" y1="200" y2="200"/><rect fill="none" height="6" style="stroke:#C82930;stroke-width:1.0;" width="6" x="305.5" y="208"/><text fill="#000000" font-family="sans-serif" font-size="14" lengthAdjust="spacing" textLength="79" x="317.5" y="218.5332">MAX_ROWS</text><rect fill="none" height="6" style="stroke:#C82930;stroke-width:1.0;" width="6" x="305.5" y="225.6094"/><text fill="#000000" font-family="sans-serif" font-size="14" lengthAdjust="spacing" textLength="103" x="317.5" y="236.1426">MAX_COLUMNS</text><rect fill="none" height="6" style="stroke:#C82930;stroke-width:1.0;" width="6" x="305.5" y="243.2188"/><text fill="#000000" font-family="sans-serif" font-size="14" lengthAdjust="spacing" textLength="38" x="317.5" y="253.752">Board</text><rect fill="none" height="6" style="stroke:#C82930;stroke-width:1.0;" width="6" x="305.5" y="260.8281"/><text fill="#000000" font-family="sans-serif" font-size="14" lengthAdjust="spacing" textLength="59" x="317.5" y="271.3613">TurnView</text><line style="stroke:#181818;stroke-width:0.5;" x1="298.5" x2="425.5" y1="278.4375" y2="278.4375"/><ellipse cx="308.5" cy="289.4375" fill="#84BE84" rx="3" ry="3" style="stroke:#038048;stroke-width:1.0;"/><text fill="#000000" font-family="sans-serif" font-size="14" lengthAdjust="spacing" textLength="28" x="317.5" y="296.9707">init()</text><ellipse cx="308.5" cy="307.0469" fill="#84BE84" rx="3" ry="3" style="stroke:#038048;stroke-width:1.0;"/><text fill="#000000" font-family="sans-serif" font-size="14" lengthAdjust="spacing" textLength="42" x="317.5" y="314.5801">show()</text></g><!--MD5=[d283c2bfe20570c632ef9bcbc944f579]
class inLine--><g id="elem_inLine"><rect codeLine="31" fill="#F1F1F1" height="188.875" id="inLine" rx="2.5" ry="2.5" style="stroke:#181818;stroke-width:0.5;" width="376" x="7" y="844"/><ellipse cx="171.75" cy="860" fill="#ADD1B2" rx="11" ry="11" style="stroke:#181818;stroke-width:1.0;"/><path d="M174.5156,855.875 Q174.6719,855.6563 174.8594,855.5469 Q175.0469,855.4375 175.2656,855.4375 Q175.6406,855.4375 175.875,855.7031 Q176.1094,855.9531 176.1094,856.5625 L176.1094,858.0156 Q176.1094,858.625 175.875,858.8906 Q175.6406,859.1563 175.2656,859.1563 Q174.9219,859.1563 174.7188,858.9531 Q174.5156,858.7656 174.4063,858.25 Q174.3594,857.8906 174.1719,857.7031 Q173.8438,857.3281 173.2344,857.1094 Q172.625,856.8906 172,856.8906 Q171.2344,856.8906 170.5938,857.2188 Q169.9688,857.5469 169.4688,858.2969 Q168.9844,859.0469 168.9844,860.0781 L168.9844,861.1719 Q168.9844,862.4063 169.875,863.2344 Q170.7656,864.0469 172.3594,864.0469 Q173.2969,864.0469 173.9531,863.7969 Q174.3438,863.6406 174.7656,863.2031 Q175.0313,862.9375 175.1719,862.8594 Q175.3281,862.7813 175.5313,862.7813 Q175.8594,862.7813 176.1094,863.0469 Q176.375,863.2969 176.375,863.6406 Q176.375,863.9844 176.0313,864.3906 Q175.5313,864.9688 174.7344,865.2969 Q173.6563,865.75 172.3594,865.75 Q170.8438,865.75 169.6406,865.125 Q168.6563,864.625 167.9688,863.5625 Q167.2813,862.4844 167.2813,861.2031 L167.2813,860.0469 Q167.2813,858.7188 167.8906,857.5781 Q168.5156,856.4219 169.6094,855.8125 Q170.7031,855.1875 171.9375,855.1875 Q172.6719,855.1875 173.3125,855.3594 Q173.9688,855.5156 174.5156,855.875 Z " fill="#000000"/><text fill="#000000" font-family="sans-serif" font-size="14" lengthAdjust="spacing" textLength="38" x="192.25" y="865.7285">inLine</text><line style="stroke:#181818;stroke-width:0.5;" x1="8" x2="382" y1="876" y2="876"/><rect fill="none" height="6" style="stroke:#C82930;stroke-width:1.0;" width="6" x="15" y="884"/><text fill="#000000" font-family="sans-serif" font-size="14" lengthAdjust="spacing" textLength="42" x="27" y="894.5332">tokens</text><rect fill="none" height="6" style="stroke:#C82930;stroke-width:1.0;" width="6" x="15" y="901.6094"/><text fill="#000000" font-family="sans-serif" font-size="14" lengthAdjust="spacing" textLength="206" x="27" y="912.1426">IN_LINE_NUMBER_OF_TOKENS</text><line style="stroke:#181818;stroke-width:0.5;" x1="8" x2="382" y1="919.2188" y2="919.2188"/><ellipse cx="18" cy="930.2188" fill="#84BE84" rx="3" ry="3" style="stroke:#038048;stroke-width:1.0;"/><text fill="#000000" font-family="sans-serif" font-size="14" lengthAdjust="spacing" textLength="147" x="27" y="937.752">isInLineTokens(tokens)</text><rect fill="#F24D5C" height="6" style="stroke:#C82930;stroke-width:1.0;" width="6" x="15" y="944.8281"/><text fill="#000000" font-family="sans-serif" font-size="14" lengthAdjust="spacing" textLength="303" x="27" y="955.3613">isInLineHorizontal(color, inlineNumberOfTokens)</text><rect fill="#F24D5C" height="6" style="stroke:#C82930;stroke-width:1.0;" width="6" x="15" y="962.4375"/><text fill="#000000" font-family="sans-serif" font-size="14" lengthAdjust="spacing" textLength="288" x="27" y="972.9707">isInLineVertical(color, inlineNumberOfTokens)</text><rect fill="#F24D5C" height="6" style="stroke:#C82930;stroke-width:1.0;" width="6" x="15" y="980.0469"/><text fill="#000000" font-family="sans-serif" font-size="14" lengthAdjust="spacing" textLength="297" x="27" y="990.5801">isInLineDiagonal(color, inlineNumberOfTokens)</text><rect fill="#F24D5C" height="6" style="stroke:#C82930;stroke-width:1.0;" width="6" x="15" y="997.6563"/><text fill="#000000" font-family="sans-serif" font-size="14" lengthAdjust="spacing" textLength="350" x="27" y="1008.1895">isInLineReverseDiagonal(color, inlineNumberOfTokens)</text><rect fill="#F24D5C" height="6" style="stroke:#C82930;stroke-width:1.0;" width="6" x="15" y="1015.2656"/><text fill="#000000" font-family="sans-serif" font-size="14" lengthAdjust="spacing" textLength="237" x="27" y="1025.7988">isColorOnPosition(row, column, color)</text></g><!--MD5=[d8c8cfd5ca149094f5b67f9f607a5ec7]
class Token--><g id="elem_Token"><rect codeLine="42" fill="#F1F1F1" height="83.2188" id="Token" rx="2.5" ry="2.5" style="stroke:#181818;stroke-width:0.5;" width="90" x="418" y="897"/><ellipse cx="441.1" cy="913" fill="#ADD1B2" rx="11" ry="11" style="stroke:#181818;stroke-width:1.0;"/><path d="M443.8656,908.875 Q444.0219,908.6563 444.2094,908.5469 Q444.3969,908.4375 444.6156,908.4375 Q444.9906,908.4375 445.225,908.7031 Q445.4594,908.9531 445.4594,909.5625 L445.4594,911.0156 Q445.4594,911.625 445.225,911.8906 Q444.9906,912.1563 444.6156,912.1563 Q444.2719,912.1563 444.0688,911.9531 Q443.8656,911.7656 443.7563,911.25 Q443.7094,910.8906 443.5219,910.7031 Q443.1938,910.3281 442.5844,910.1094 Q441.975,909.8906 441.35,909.8906 Q440.5844,909.8906 439.9438,910.2188 Q439.3188,910.5469 438.8188,911.2969 Q438.3344,912.0469 438.3344,913.0781 L438.3344,914.1719 Q438.3344,915.4063 439.225,916.2344 Q440.1156,917.0469 441.7094,917.0469 Q442.6469,917.0469 443.3031,916.7969 Q443.6938,916.6406 444.1156,916.2031 Q444.3813,915.9375 444.5219,915.8594 Q444.6781,915.7813 444.8813,915.7813 Q445.2094,915.7813 445.4594,916.0469 Q445.725,916.2969 445.725,916.6406 Q445.725,916.9844 445.3813,917.3906 Q444.8813,917.9688 444.0844,918.2969 Q443.0063,918.75 441.7094,918.75 Q440.1938,918.75 438.9906,918.125 Q438.0063,917.625 437.3188,916.5625 Q436.6313,915.4844 436.6313,914.2031 L436.6313,913.0469 Q436.6313,911.7188 437.2406,910.5781 Q437.8656,909.4219 438.9594,908.8125 Q440.0531,908.1875 441.2875,908.1875 Q442.0219,908.1875 442.6625,908.3594 Q443.3188,908.5156 443.8656,908.875 Z " fill="#000000"/><text fill="#000000" font-family="sans-serif" font-size="14" lengthAdjust="spacing" textLength="40" x="456.9" y="918.7285">Token</text><line style="stroke:#181818;stroke-width:0.5;" x1="419" x2="507" y1="929" y2="929"/><rect fill="none" height="6" style="stroke:#C82930;stroke-width:1.0;" width="6" x="426" y="937"/><text fill="#000000" font-family="sans-serif" font-size="14" lengthAdjust="spacing" textLength="34" x="438" y="947.5332">Color</text><line style="stroke:#181818;stroke-width:0.5;" x1="419" x2="507" y1="954.6094" y2="954.6094"/><ellipse cx="429" cy="965.6094" fill="#84BE84" rx="3" ry="3" style="stroke:#038048;stroke-width:1.0;"/><text fill="#000000" font-family="sans-serif" font-size="14" lengthAdjust="spacing" textLength="64" x="438" y="973.1426">getColor()</text></g><!--MD5=[0f1adae5684a082996b24e2018afd4c9]
class TurnView--><g id="elem_TurnView"><rect codeLine="46" fill="#F1F1F1" height="118.4375" id="TurnView" rx="2.5" ry="2.5" style="stroke:#181818;stroke-width:0.5;" width="184" x="352" y="382"/><ellipse cx="410.25" cy="398" fill="#ADD1B2" rx="11" ry="11" style="stroke:#181818;stroke-width:1.0;"/><path d="M413.0156,393.875 Q413.1719,393.6563 413.3594,393.5469 Q413.5469,393.4375 413.7656,393.4375 Q414.1406,393.4375 414.375,393.7031 Q414.6094,393.9531 414.6094,394.5625 L414.6094,396.0156 Q414.6094,396.625 414.375,396.8906 Q414.1406,397.1563 413.7656,397.1563 Q413.4219,397.1563 413.2188,396.9531 Q413.0156,396.7656 412.9063,396.25 Q412.8594,395.8906 412.6719,395.7031 Q412.3438,395.3281 411.7344,395.1094 Q411.125,394.8906 410.5,394.8906 Q409.7344,394.8906 409.0938,395.2188 Q408.4688,395.5469 407.9688,396.2969 Q407.4844,397.0469 407.4844,398.0781 L407.4844,399.1719 Q407.4844,400.4063 408.375,401.2344 Q409.2656,402.0469 410.8594,402.0469 Q411.7969,402.0469 412.4531,401.7969 Q412.8438,401.6406 413.2656,401.2031 Q413.5313,400.9375 413.6719,400.8594 Q413.8281,400.7813 414.0313,400.7813 Q414.3594,400.7813 414.6094,401.0469 Q414.875,401.2969 414.875,401.6406 Q414.875,401.9844 414.5313,402.3906 Q414.0313,402.9688 413.2344,403.2969 Q412.1563,403.75 410.8594,403.75 Q409.3438,403.75 408.1406,403.125 Q407.1563,402.625 406.4688,401.5625 Q405.7813,400.4844 405.7813,399.2031 L405.7813,398.0469 Q405.7813,396.7188 406.3906,395.5781 Q407.0156,394.4219 408.1094,393.8125 Q409.2031,393.1875 410.4375,393.1875 Q411.1719,393.1875 411.8125,393.3594 Q412.4688,393.5156 413.0156,393.875 Z " fill="#000000"/><text fill="#000000" font-family="sans-serif" font-size="14" lengthAdjust="spacing" textLength="59" x="430.75" y="403.7285">TurnView</text><line style="stroke:#181818;stroke-width:0.5;" x1="353" x2="535" y1="414" y2="414"/><rect fill="none" height="6" style="stroke:#C82930;stroke-width:1.0;" width="6" x="360" y="422"/><text fill="#000000" font-family="sans-serif" font-size="14" lengthAdjust="spacing" textLength="25" x="372" y="432.5332">turn</text><line style="stroke:#181818;stroke-width:0.5;" x1="353" x2="535" y1="439.6094" y2="439.6094"/><ellipse cx="363" cy="450.6094" fill="#84BE84" rx="3" ry="3" style="stroke:#038048;stroke-width:1.0;"/><text fill="#000000" font-family="sans-serif" font-size="14" lengthAdjust="spacing" textLength="158" x="372" y="458.1426">getColumn(maxColumns)</text><ellipse cx="363" cy="468.2188" fill="#84BE84" rx="3" ry="3" style="stroke:#038048;stroke-width:1.0;"/><text fill="#000000" font-family="sans-serif" font-size="14" lengthAdjust="spacing" textLength="66" x="372" y="475.752">nextTurn()</text><ellipse cx="363" cy="485.8281" fill="#84BE84" rx="3" ry="3" style="stroke:#038048;stroke-width:1.0;"/><text fill="#000000" font-family="sans-serif" font-size="14" lengthAdjust="spacing" textLength="64" x="372" y="493.3613">getColor()</text></g><!--MD5=[dd91eae41778c45e12552e5329e240e8]
class Turn--><g id="elem_Turn"><rect codeLine="53" fill="#F1F1F1" height="100.8281" id="Turn" rx="2.5" ry="2.5" style="stroke:#181818;stroke-width:0.5;" width="92" x="417" y="621.5"/><ellipse cx="445.5" cy="637.5" fill="#ADD1B2" rx="11" ry="11" style="stroke:#181818;stroke-width:1.0;"/><path d="M448.2656,633.375 Q448.4219,633.1563 448.6094,633.0469 Q448.7969,632.9375 449.0156,632.9375 Q449.3906,632.9375 449.625,633.2031 Q449.8594,633.4531 449.8594,634.0625 L449.8594,635.5156 Q449.8594,636.125 449.625,636.3906 Q449.3906,636.6563 449.0156,636.6563 Q448.6719,636.6563 448.4688,636.4531 Q448.2656,636.2656 448.1563,635.75 Q448.1094,635.3906 447.9219,635.2031 Q447.5938,634.8281 446.9844,634.6094 Q446.375,634.3906 445.75,634.3906 Q444.9844,634.3906 444.3438,634.7188 Q443.7188,635.0469 443.2188,635.7969 Q442.7344,636.5469 442.7344,637.5781 L442.7344,638.6719 Q442.7344,639.9063 443.625,640.7344 Q444.5156,641.5469 446.1094,641.5469 Q447.0469,641.5469 447.7031,641.2969 Q448.0938,641.1406 448.5156,640.7031 Q448.7813,640.4375 448.9219,640.3594 Q449.0781,640.2813 449.2813,640.2813 Q449.6094,640.2813 449.8594,640.5469 Q450.125,640.7969 450.125,641.1406 Q450.125,641.4844 449.7813,641.8906 Q449.2813,642.4688 448.4844,642.7969 Q447.4063,643.25 446.1094,643.25 Q444.5938,643.25 443.3906,642.625 Q442.4063,642.125 441.7188,641.0625 Q441.0313,639.9844 441.0313,638.7031 L441.0313,637.5469 Q441.0313,636.2188 441.6406,635.0781 Q442.2656,633.9219 443.3594,633.3125 Q444.4531,632.6875 445.6875,632.6875 Q446.4219,632.6875 447.0625,632.8594 Q447.7188,633.0156 448.2656,633.375 Z " fill="#000000"/><text fill="#000000" font-family="sans-serif" font-size="14" lengthAdjust="spacing" textLength="30" x="462.5" y="643.2285">Turn</text><line style="stroke:#181818;stroke-width:0.5;" x1="418" x2="508" y1="653.5" y2="653.5"/><rect fill="none" height="6" style="stroke:#C82930;stroke-width:1.0;" width="6" x="425" y="661.5"/><text fill="#000000" font-family="sans-serif" font-size="14" lengthAdjust="spacing" textLength="31" x="437" y="672.0332">color</text><line style="stroke:#181818;stroke-width:0.5;" x1="418" x2="508" y1="679.1094" y2="679.1094"/><ellipse cx="428" cy="690.1094" fill="#84BE84" rx="3" ry="3" style="stroke:#038048;stroke-width:1.0;"/><text fill="#000000" font-family="sans-serif" font-size="14" lengthAdjust="spacing" textLength="64" x="437" y="697.6426">getColor()</text><ellipse cx="428" cy="707.7188" fill="#84BE84" rx="3" ry="3" style="stroke:#038048;stroke-width:1.0;"/><text fill="#000000" font-family="sans-serif" font-size="14" lengthAdjust="spacing" textLength="66" x="437" y="715.252">nextTurn()</text></g><!--MD5=[c4df9b95f6f4e4e1c32bb5a44abd175a]
class Colors--><g id="elem_Colors"><rect codeLine="59" fill="#F1F1F1" height="83.2188" id="Colors" rx="2.5" ry="2.5" style="stroke:#181818;stroke-width:0.5;" width="73" x="292.5" y="1093"/><ellipse cx="307.5" cy="1109" fill="#EB937F" rx="11" ry="11" style="stroke:#181818;stroke-width:1.0;"/><path d="M306.3594,1109.7969 L306.3594,1112.2969 L310.6875,1112.2969 L310.6875,1111.375 Q310.6875,1110.7656 310.9219,1110.5 Q311.1719,1110.2344 311.5469,1110.2344 Q311.9219,1110.2344 312.1563,1110.5 Q312.3906,1110.7656 312.3906,1111.375 L312.3906,1114 L304.3906,1114 Q303.7656,1114 303.5,1113.7656 Q303.25,1113.5313 303.25,1113.1406 Q303.25,1112.7656 303.5156,1112.5313 Q303.7813,1112.2969 304.3906,1112.2969 L304.6563,1112.2969 L304.6563,1105.6406 L304.3906,1105.6406 Q303.7656,1105.6406 303.5,1105.4063 Q303.25,1105.1719 303.25,1104.7813 Q303.25,1104.4063 303.5,1104.1719 Q303.7656,1103.9375 304.3906,1103.9375 L312.0156,1103.9375 L312.0156,1106.5313 Q312.0156,1107.1406 311.7813,1107.4063 Q311.5625,1107.6563 311.1719,1107.6563 Q310.7969,1107.6563 310.5625,1107.4063 Q310.3281,1107.1406 310.3281,1106.5313 L310.3281,1105.6406 L306.3594,1105.6406 L306.3594,1108.0938 L307.8438,1108.0938 Q307.8438,1107.4375 307.9688,1107.25 Q308.2344,1106.8438 308.7031,1106.8438 Q309.0781,1106.8438 309.3125,1107.1094 Q309.5469,1107.3594 309.5469,1107.9688 L309.5469,1109.9375 Q309.5469,1110.4844 309.4219,1110.6719 Q309.1563,1111.0625 308.7031,1111.0625 Q308.2344,1111.0625 307.9688,1110.6563 Q307.8438,1110.4688 307.8438,1109.7969 L306.3594,1109.7969 Z " fill="#000000"/><text fill="#000000" font-family="sans-serif" font-size="14" lengthAdjust="spacing" textLength="41" x="321.5" y="1114.7285">Colors</text><line style="stroke:#181818;stroke-width:0.5;" x1="293.5" x2="364.5" y1="1125" y2="1125"/><text fill="#000000" font-family="sans-serif" font-size="14" lengthAdjust="spacing" textLength="26" x="298.5" y="1143.5332">Red</text><text fill="#000000" font-family="sans-serif" font-size="14" lengthAdjust="spacing" textLength="40" x="298.5" y="1161.1426">Yellow</text><line style="stroke:#181818;stroke-width:0.5;" x1="293.5" x2="364.5" y1="1168.2188" y2="1168.2188"/></g><!--MD5=[1da39882317deee69888dc65a2b454be]
link Connect4 to BoardView--><g id="link_Connect4_BoardView"><path codeLine="64" d="M299.05,108.21 C306.89,125.13 315.87,144.5 324.55,163.21 " fill="none" id="Connect4-to-BoardView" style="stroke:#181818;stroke-width:1.0;stroke-dasharray:7.0,7.0;"/><polygon fill="#181818" points="326.74,167.95,326.5944,158.1022,324.642,163.4115,319.3328,161.459,326.74,167.95" style="stroke:#181818;stroke-width:1.0;"/></g><!--MD5=[bd62d02ddcc7cab85c8af840f89aa653]
link Connect4 to YesNoDialogView--><g id="link_Connect4_YesNoDialogView"><path codeLine="65" d="M253.22,108.21 C240.34,136.31 224.36,171.19 211.82,198.56 " fill="none" id="Connect4-to-YesNoDialogView" style="stroke:#181818;stroke-width:1.0;stroke-dasharray:7.0,7.0;"/><polygon fill="#181818" points="209.68,203.23,217.0626,196.711,211.7608,198.6836,209.7883,193.3817,209.68,203.23" style="stroke:#181818;stroke-width:1.0;"/></g><!--MD5=[87ac28f7ff846e55e34c2c863c6ff220]
link BoardView to Board--><g id="link_BoardView_Board"><path codeLine="67" d="M337.5501,334.0299 C337.5501,334.0299 297.25,479.2 278.42,547.04 " fill="none" id="BoardView-Board" style="stroke:#181818;stroke-width:1.0;"/><polygon fill="#181818" points="274.83,559.97,281.096,552.3715,276.1702,555.153,273.3887,550.2272,274.83,559.97" style="stroke:#181818;stroke-width:1.0;"/><line style="stroke:#181818;stroke-width:1.0;" x1="276.1702" x2="278.305" y1="555.153" y2="547.44"/><polygon fill="#181818" points="340.77,322.47,335.3067,327.1767,337.5501,334.0299,343.0134,329.3233,340.77,322.47" style="stroke:#181818;stroke-width:1.0;"/></g><!--MD5=[c7c3dfe1a204cc183b3ebd4fea4524e8]
link BoardView to TurnView--><g id="link_BoardView_TurnView"><path codeLine="68" d="M394.17,322.12 C401.84,340.26 409.94,359.43 417.34,376.92 " fill="none" id="BoardView-to-TurnView" style="stroke:#181818;stroke-width:1.0;stroke-dasharray:7.0,7.0;"/><polygon fill="#181818" points="419.4,381.8,419.5682,371.9526,417.4476,377.1969,412.2033,375.0764,419.4,381.8" style="stroke:#181818;stroke-width:1.0;"/></g><!--MD5=[b90c15517c5612720f6d3b5735a27f0e]
link TurnView to Turn--><g id="link_TurnView_Turn"><path codeLine="69" d="M449.8089,512.0392 C449.8089,512.0392 455.34,578.67 457.78,608.07 " fill="none" id="TurnView-Turn" style="stroke:#181818;stroke-width:1.0;"/><polygon fill="#181818" points="458.86,621.14,462.1047,611.841,458.448,616.157,454.1319,612.5002,458.86,621.14" style="stroke:#181818;stroke-width:1.0;"/><line style="stroke:#181818;stroke-width:1.0;" x1="458.448" x2="457.785" y1="616.157" y2="608.185"/><polygon fill="none" points="448.82,500.08,445.3281,506.3892,449.8089,512.0392,453.3008,505.73,448.82,500.08" style="stroke:#181818;stroke-width:1.0;"/></g><!--MD5=[23c004dc6349f1678ef711c3be24147e]
link Board to Token--><g id="link_Board_Token"><path codeLine="71" d="M357.5647,793.0923 C357.5647,793.0923 387.04,827.52 400,844 C410.31,857.11 420.74,871.86 430.06,885.69 " fill="none" id="Board-Token" style="stroke:#181818;stroke-width:1.0;"/><polygon fill="#181818" points="437.28,896.55,435.6277,886.8407,434.5116,892.3864,428.9659,891.2702,437.28,896.55" style="stroke:#181818;stroke-width:1.0;"/><line style="stroke:#181818;stroke-width:1.0;" x1="434.5116" x2="430.08" y1="892.3864" y2="885.72"/><polygon fill="none" points="349.63,784.09,350.5966,791.236,357.5647,793.0923,356.5981,785.9463,349.63,784.09" style="stroke:#181818;stroke-width:1.0;"/></g><!--MD5=[c21fe3baa65c92cdb2b4f5fdc6216634]
link Board to inLine--><g id="link_Board_inLine"><path codeLine="72" d="M221.2544,795.8211 C221.2544,795.8211 216.79,819.87 214.73,831 " fill="none" id="Board-inLine" style="stroke:#181818;stroke-width:1.0;"/><polygon fill="#181818" points="212.33,843.93,217.9042,835.8104,213.2418,839.0138,210.0384,834.3515,212.33,843.93" style="stroke:#181818;stroke-width:1.0;"/><line style="stroke:#181818;stroke-width:1.0;" x1="213.2418" x2="214.705" y1="839.0138" y2="831.15"/><polygon fill="none" points="223.43,784.02,218.4085,789.1954,221.2544,795.8211,226.2759,790.6458,223.43,784.02" style="stroke:#181818;stroke-width:1.0;"/></g><!--MD5=[bc0f113345323652fcfcb94e1508b4f7]
link inLine to Colors--><g id="link_inLine_Colors"><path codeLine="74" d="M259.64,1033.09 C272.97,1052.38 286.42,1071.86 297.89,1088.45 " fill="none" id="inLine-to-Colors" style="stroke:#181818;stroke-width:1.0;stroke-dasharray:7.0,7.0;"/><polygon fill="#181818" points="300.76,1092.61,298.9346,1082.9318,297.9177,1088.4965,292.353,1087.4795,300.76,1092.61" style="stroke:#181818;stroke-width:1.0;"/></g><!--MD5=[131fd55d1ea8d452206c40f8bf9c1560]
link Turn to Token--><g id="link_Turn_Token"><path codeLine="76" d="M463,722.75 C463,771.26 463,844.44 463,891.59 " fill="none" id="Turn-to-Token" style="stroke:#181818;stroke-width:1.0;stroke-dasharray:7.0,7.0;"/><polygon fill="#181818" points="463,896.64,467,887.64,463,891.64,459,887.64,463,896.64" style="stroke:#181818;stroke-width:1.0;"/></g><!--MD5=[d6208de9411c4b1d5190de2c034c83cb]
link Token to Colors--><g id="link_Token_Colors"><path codeLine="79" d="M429.2172,990.0902 C429.2172,990.0902 409.29,1019.53 400,1033 C389.07,1048.85 377.03,1065.99 366.02,1081.56 " fill="none" id="Token-Colors" style="stroke:#181818;stroke-width:1.0;"/><polygon fill="#181818" points="358.22,1092.57,366.6849,1087.5356,361.109,1088.4891,360.1555,1082.9132,358.22,1092.57" style="stroke:#181818;stroke-width:1.0;"/><line style="stroke:#181818;stroke-width:1.0;" x1="361.109" x2="365.735" y1="1088.4891" y2="1081.96"/><polygon fill="#181818" points="435.91,980.13,429.2435,982.8792,429.2172,990.0902,435.8837,987.3411,435.91,980.13" style="stroke:#181818;stroke-width:1.0;"/></g><!--MD5=[56770b4dd835fc06273eaaf8c377c996]
@startuml

class Connect4{
    - boardView
    - yesNoDialog
    + playGame()
}
class YesNoDialogView{
    + read(message)
    + isAffirmative()
}
class Board{
    - tokens[]
    - inLine
    + reset(maxRows, maxColumns)
    + isFilledColumn(column)
    + putToken(column, color)
    + getFirstEmptyRowFromColumn(column)
    + isEndGame()
    + isFilled()
    + isInLineTokens(tokens)
    + getTokens()
}
class BoardView{
    - MAX_ROWS
    - MAX_COLUMNS
    - Board
    - TurnView
    + init()
    + show()
}
class inLine{
    - tokens
    - IN_LINE_NUMBER_OF_TOKENS
    + isInLineTokens(tokens)
    - isInLineHorizontal(color, inlineNumberOfTokens)
    - isInLineVertical(color, inlineNumberOfTokens)
    - isInLineDiagonal(color, inlineNumberOfTokens)
    - isInLineReverseDiagonal(color, inlineNumberOfTokens)
    - isColorOnPosition(row, column, color)
}

class Token{
    - Color
    + getColor()
}
class TurnView{
    - turn
    + getColumn(maxColumns)
    + nextTurn()
    + getColor()
}

class Turn{
    - color
    + getColor()
    + nextTurn()
}

enum Colors{
Red
Yellow
}

Connect4 ..> BoardView
Connect4 ..> YesNoDialogView

BoardView *- -> Board
BoardView ..> TurnView
TurnView o- -> Turn

Board o- -> Token
Board o- -> inLine

inLine ..> Colors

Turn ..> Token


Token *- -> Colors
@enduml

PlantUML version 1.2022.5(Sat Apr 30 12:55:52 CEST 2022)
(GPL source distribution)
Java Runtime: OpenJDK Runtime Environment
JVM: OpenJDK 64-Bit Server VM
Default Encoding: UTF-8
Language: es
Country: ES
--></g></svg>