<?xml version="1.0" encoding="UTF-8" standalone="no"?><svg xmlns="http://www.w3.org/2000/svg" xmlns:xlink="http://www.w3.org/1999/xlink" contentStyleType="text/css" height="1058px" preserveAspectRatio="none" style="width:576px;height:1058px;background:#FFFFFF;" version="1.1" viewBox="0 0 576 1058" width="576px" zoomAndPan="magnify"><defs/><g><!--MD5=[c8948ff3b85f2fe890b517bc42f92cc2]
class connect4--><g id="elem_connect4"><rect codeLine="2" fill="#F1F1F1" height="100.8281" id="connect4" rx="2.5" ry="2.5" style="stroke:#181818;stroke-width:0.5;" width="105" x="189.5" y="7"/><ellipse cx="211.25" cy="23" fill="#ADD1B2" rx="11" ry="11" style="stroke:#181818;stroke-width:1.0;"/><path d="M214.0156,18.875 Q214.1719,18.6563 214.3594,18.5469 Q214.5469,18.4375 214.7656,18.4375 Q215.1406,18.4375 215.375,18.7031 Q215.6094,18.9531 215.6094,19.5625 L215.6094,21.0156 Q215.6094,21.625 215.375,21.8906 Q215.1406,22.1563 214.7656,22.1563 Q214.4219,22.1563 214.2188,21.9531 Q214.0156,21.7656 213.9063,21.25 Q213.8594,20.8906 213.6719,20.7031 Q213.3438,20.3281 212.7344,20.1094 Q212.125,19.8906 211.5,19.8906 Q210.7344,19.8906 210.0938,20.2188 Q209.4688,20.5469 208.9688,21.2969 Q208.4844,22.0469 208.4844,23.0781 L208.4844,24.1719 Q208.4844,25.4063 209.375,26.2344 Q210.2656,27.0469 211.8594,27.0469 Q212.7969,27.0469 213.4531,26.7969 Q213.8438,26.6406 214.2656,26.2031 Q214.5313,25.9375 214.6719,25.8594 Q214.8281,25.7813 215.0313,25.7813 Q215.3594,25.7813 215.6094,26.0469 Q215.875,26.2969 215.875,26.6406 Q215.875,26.9844 215.5313,27.3906 Q215.0313,27.9688 214.2344,28.2969 Q213.1563,28.75 211.8594,28.75 Q210.3438,28.75 209.1406,28.125 Q208.1563,27.625 207.4688,26.5625 Q206.7813,25.4844 206.7813,24.2031 L206.7813,23.0469 Q206.7813,21.7188 207.3906,20.5781 Q208.0156,19.4219 209.1094,18.8125 Q210.2031,18.1875 211.4375,18.1875 Q212.1719,18.1875 212.8125,18.3594 Q213.4688,18.5156 214.0156,18.875 Z " fill="#000000"/><text fill="#000000" font-family="sans-serif" font-size="14" lengthAdjust="spacing" textLength="58" x="226.75" y="28.7285">connect4</text><line style="stroke:#181818;stroke-width:0.5;" x1="190.5" x2="293.5" y1="39" y2="39"/><rect fill="none" height="6" style="stroke:#C82930;stroke-width:1.0;" width="6" x="197.5" y="47"/><text fill="#000000" font-family="sans-serif" font-size="14" lengthAdjust="spacing" textLength="66" x="209.5" y="57.5332">boardView</text><rect fill="none" height="6" style="stroke:#C82930;stroke-width:1.0;" width="6" x="197.5" y="64.6094"/><text fill="#000000" font-family="sans-serif" font-size="14" lengthAdjust="spacing" textLength="79" x="209.5" y="75.1426">yesNoDialog</text><line style="stroke:#181818;stroke-width:0.5;" x1="190.5" x2="293.5" y1="82.2188" y2="82.2188"/><ellipse cx="200.5" cy="93.2188" fill="#84BE84" rx="3" ry="3" style="stroke:#038048;stroke-width:1.0;"/><text fill="#000000" font-family="sans-serif" font-size="14" lengthAdjust="spacing" textLength="74" x="209.5" y="100.752">playGame()</text></g><!--MD5=[cadc920c85e4c9f5726794155a350ca6]
class yesNoDialogView--><g id="elem_yesNoDialogView"><rect codeLine="7" fill="#F1F1F1" height="83.2188" id="yesNoDialogView" rx="2.5" ry="2.5" style="stroke:#181818;stroke-width:0.5;" width="140" x="87" y="203.5"/><ellipse cx="102" cy="219.5" fill="#ADD1B2" rx="11" ry="11" style="stroke:#181818;stroke-width:1.0;"/><path d="M104.7656,215.375 Q104.9219,215.1563 105.1094,215.0469 Q105.2969,214.9375 105.5156,214.9375 Q105.8906,214.9375 106.125,215.2031 Q106.3594,215.4531 106.3594,216.0625 L106.3594,217.5156 Q106.3594,218.125 106.125,218.3906 Q105.8906,218.6563 105.5156,218.6563 Q105.1719,218.6563 104.9688,218.4531 Q104.7656,218.2656 104.6563,217.75 Q104.6094,217.3906 104.4219,217.2031 Q104.0938,216.8281 103.4844,216.6094 Q102.875,216.3906 102.25,216.3906 Q101.4844,216.3906 100.8438,216.7188 Q100.2188,217.0469 99.7188,217.7969 Q99.2344,218.5469 99.2344,219.5781 L99.2344,220.6719 Q99.2344,221.9063 100.125,222.7344 Q101.0156,223.5469 102.6094,223.5469 Q103.5469,223.5469 104.2031,223.2969 Q104.5938,223.1406 105.0156,222.7031 Q105.2813,222.4375 105.4219,222.3594 Q105.5781,222.2813 105.7813,222.2813 Q106.1094,222.2813 106.3594,222.5469 Q106.625,222.7969 106.625,223.1406 Q106.625,223.4844 106.2813,223.8906 Q105.7813,224.4688 104.9844,224.7969 Q103.9063,225.25 102.6094,225.25 Q101.0938,225.25 99.8906,224.625 Q98.9063,224.125 98.2188,223.0625 Q97.5313,221.9844 97.5313,220.7031 L97.5313,219.5469 Q97.5313,218.2188 98.1406,217.0781 Q98.7656,215.9219 99.8594,215.3125 Q100.9531,214.6875 102.1875,214.6875 Q102.9219,214.6875 103.5625,214.8594 Q104.2188,215.0156 104.7656,215.375 Z " fill="#000000"/><text fill="#000000" font-family="sans-serif" font-size="14" lengthAdjust="spacing" textLength="108" x="116" y="225.2285">yesNoDialogView</text><line style="stroke:#181818;stroke-width:0.5;" x1="88" x2="226" y1="235.5" y2="235.5"/><line style="stroke:#181818;stroke-width:0.5;" x1="88" x2="226" y1="243.5" y2="243.5"/><ellipse cx="98" cy="254.5" fill="#84BE84" rx="3" ry="3" style="stroke:#038048;stroke-width:1.0;"/><text fill="#000000" font-family="sans-serif" font-size="14" lengthAdjust="spacing" textLength="96" x="107" y="262.0332">read(message)</text><ellipse cx="98" cy="272.1094" fill="#84BE84" rx="3" ry="3" style="stroke:#038048;stroke-width:1.0;"/><text fill="#000000" font-family="sans-serif" font-size="14" lengthAdjust="spacing" textLength="86" x="107" y="279.6426">isAffirmative()</text></g><!--MD5=[400f0600dc490cab46af2e6886caefc3]
class board--><g id="elem_board"><rect codeLine="11" fill="#F1F1F1" height="241.7031" id="board" rx="2.5" ry="2.5" style="stroke:#181818;stroke-width:0.5;" width="276" x="40" y="382"/><ellipse cx="155.25" cy="398" fill="#ADD1B2" rx="11" ry="11" style="stroke:#181818;stroke-width:1.0;"/><path d="M158.0156,393.875 Q158.1719,393.6563 158.3594,393.5469 Q158.5469,393.4375 158.7656,393.4375 Q159.1406,393.4375 159.375,393.7031 Q159.6094,393.9531 159.6094,394.5625 L159.6094,396.0156 Q159.6094,396.625 159.375,396.8906 Q159.1406,397.1563 158.7656,397.1563 Q158.4219,397.1563 158.2188,396.9531 Q158.0156,396.7656 157.9063,396.25 Q157.8594,395.8906 157.6719,395.7031 Q157.3438,395.3281 156.7344,395.1094 Q156.125,394.8906 155.5,394.8906 Q154.7344,394.8906 154.0938,395.2188 Q153.4688,395.5469 152.9688,396.2969 Q152.4844,397.0469 152.4844,398.0781 L152.4844,399.1719 Q152.4844,400.4063 153.375,401.2344 Q154.2656,402.0469 155.8594,402.0469 Q156.7969,402.0469 157.4531,401.7969 Q157.8438,401.6406 158.2656,401.2031 Q158.5313,400.9375 158.6719,400.8594 Q158.8281,400.7813 159.0313,400.7813 Q159.3594,400.7813 159.6094,401.0469 Q159.875,401.2969 159.875,401.6406 Q159.875,401.9844 159.5313,402.3906 Q159.0313,402.9688 158.2344,403.2969 Q157.1563,403.75 155.8594,403.75 Q154.3438,403.75 153.1406,403.125 Q152.1563,402.625 151.4688,401.5625 Q150.7813,400.4844 150.7813,399.2031 L150.7813,398.0469 Q150.7813,396.7188 151.3906,395.5781 Q152.0156,394.4219 153.1094,393.8125 Q154.2031,393.1875 155.4375,393.1875 Q156.1719,393.1875 156.8125,393.3594 Q157.4688,393.5156 158.0156,393.875 Z " fill="#000000"/><text fill="#000000" font-family="sans-serif" font-size="14" lengthAdjust="spacing" textLength="37" x="175.75" y="403.7285">board</text><line style="stroke:#181818;stroke-width:0.5;" x1="41" x2="315" y1="414" y2="414"/><rect fill="none" height="6" style="stroke:#C82930;stroke-width:1.0;" width="6" x="48" y="422"/><text fill="#000000" font-family="sans-serif" font-size="14" lengthAdjust="spacing" textLength="50" x="60" y="432.5332">tokens[]</text><rect fill="none" height="6" style="stroke:#C82930;stroke-width:1.0;" width="6" x="48" y="439.6094"/><text fill="#000000" font-family="sans-serif" font-size="14" lengthAdjust="spacing" textLength="38" x="60" y="450.1426">inLine</text><rect fill="none" height="6" style="stroke:#C82930;stroke-width:1.0;" width="6" x="48" y="457.2188"/><text fill="#000000" font-family="sans-serif" font-size="14" lengthAdjust="spacing" textLength="62" x="60" y="467.752">lastToken</text><line style="stroke:#181818;stroke-width:0.5;" x1="41" x2="315" y1="474.8281" y2="474.8281"/><ellipse cx="51" cy="485.8281" fill="#84BE84" rx="3" ry="3" style="stroke:#038048;stroke-width:1.0;"/><text fill="#000000" font-family="sans-serif" font-size="14" lengthAdjust="spacing" textLength="189" x="60" y="493.3613">reset(maxRows, maxColumns)</text><ellipse cx="51" cy="503.4375" fill="#84BE84" rx="3" ry="3" style="stroke:#038048;stroke-width:1.0;"/><text fill="#000000" font-family="sans-serif" font-size="14" lengthAdjust="spacing" textLength="147" x="60" y="510.9707">isFilledColumn(column)</text><ellipse cx="51" cy="521.0469" fill="#84BE84" rx="3" ry="3" style="stroke:#038048;stroke-width:1.0;"/><text fill="#000000" font-family="sans-serif" font-size="14" lengthAdjust="spacing" textLength="154" x="60" y="528.5801">putToken(column, color)</text><ellipse cx="51" cy="538.6563" fill="#84BE84" rx="3" ry="3" style="stroke:#038048;stroke-width:1.0;"/><text fill="#000000" font-family="sans-serif" font-size="14" lengthAdjust="spacing" textLength="250" x="60" y="546.1895">getFirstEmptyRowFromColumn(column)</text><ellipse cx="51" cy="556.2656" fill="#84BE84" rx="3" ry="3" style="stroke:#038048;stroke-width:1.0;"/><text fill="#000000" font-family="sans-serif" font-size="14" lengthAdjust="spacing" textLength="83" x="60" y="563.7988">isEndGame()</text><ellipse cx="51" cy="573.875" fill="#84BE84" rx="3" ry="3" style="stroke:#038048;stroke-width:1.0;"/><text fill="#000000" font-family="sans-serif" font-size="14" lengthAdjust="spacing" textLength="54" x="60" y="581.4082">isFilled()</text><ellipse cx="51" cy="591.4844" fill="#84BE84" rx="3" ry="3" style="stroke:#038048;stroke-width:1.0;"/><text fill="#000000" font-family="sans-serif" font-size="14" lengthAdjust="spacing" textLength="148" x="60" y="599.0176">isInLineToken(tokens[])</text><ellipse cx="51" cy="609.0938" fill="#84BE84" rx="3" ry="3" style="stroke:#038048;stroke-width:1.0;"/><text fill="#000000" font-family="sans-serif" font-size="14" lengthAdjust="spacing" textLength="77" x="60" y="616.627">getTokens()</text></g><!--MD5=[7e91cb2b0bf0004441ee056e3fe2cc82]
class boardView--><g id="elem_boardView"><rect codeLine="24" fill="#F1F1F1" height="153.6563" id="boardView" rx="2.5" ry="2.5" style="stroke:#181818;stroke-width:0.5;" width="129" x="262.5" y="168"/><ellipse cx="291.45" cy="184" fill="#ADD1B2" rx="11" ry="11" style="stroke:#181818;stroke-width:1.0;"/><path d="M294.2156,179.875 Q294.3719,179.6563 294.5594,179.5469 Q294.7469,179.4375 294.9656,179.4375 Q295.3406,179.4375 295.575,179.7031 Q295.8094,179.9531 295.8094,180.5625 L295.8094,182.0156 Q295.8094,182.625 295.575,182.8906 Q295.3406,183.1563 294.9656,183.1563 Q294.6219,183.1563 294.4188,182.9531 Q294.2156,182.7656 294.1063,182.25 Q294.0594,181.8906 293.8719,181.7031 Q293.5438,181.3281 292.9344,181.1094 Q292.325,180.8906 291.7,180.8906 Q290.9344,180.8906 290.2938,181.2188 Q289.6688,181.5469 289.1688,182.2969 Q288.6844,183.0469 288.6844,184.0781 L288.6844,185.1719 Q288.6844,186.4063 289.575,187.2344 Q290.4656,188.0469 292.0594,188.0469 Q292.9969,188.0469 293.6531,187.7969 Q294.0438,187.6406 294.4656,187.2031 Q294.7313,186.9375 294.8719,186.8594 Q295.0281,186.7813 295.2313,186.7813 Q295.5594,186.7813 295.8094,187.0469 Q296.075,187.2969 296.075,187.6406 Q296.075,187.9844 295.7313,188.3906 Q295.2313,188.9688 294.4344,189.2969 Q293.3563,189.75 292.0594,189.75 Q290.5438,189.75 289.3406,189.125 Q288.3563,188.625 287.6688,187.5625 Q286.9813,186.4844 286.9813,185.2031 L286.9813,184.0469 Q286.9813,182.7188 287.5906,181.5781 Q288.2156,180.4219 289.3094,179.8125 Q290.4031,179.1875 291.6375,179.1875 Q292.3719,179.1875 293.0125,179.3594 Q293.6688,179.5156 294.2156,179.875 Z " fill="#000000"/><text fill="#000000" font-family="sans-serif" font-size="14" lengthAdjust="spacing" textLength="66" x="308.55" y="189.7285">boardView</text><line style="stroke:#181818;stroke-width:0.5;" x1="263.5" x2="390.5" y1="200" y2="200"/><rect fill="none" height="6" style="stroke:#C82930;stroke-width:1.0;" width="6" x="270.5" y="208"/><text fill="#000000" font-family="sans-serif" font-size="14" lengthAdjust="spacing" textLength="79" x="282.5" y="218.5332">MAX_ROWS</text><rect fill="none" height="6" style="stroke:#C82930;stroke-width:1.0;" width="6" x="270.5" y="225.6094"/><text fill="#000000" font-family="sans-serif" font-size="14" lengthAdjust="spacing" textLength="103" x="282.5" y="236.1426">MAX_COLUMNS</text><rect fill="none" height="6" style="stroke:#C82930;stroke-width:1.0;" width="6" x="270.5" y="243.2188"/><text fill="#000000" font-family="sans-serif" font-size="14" lengthAdjust="spacing" textLength="38" x="282.5" y="253.752">Board</text><rect fill="none" height="6" style="stroke:#C82930;stroke-width:1.0;" width="6" x="270.5" y="260.8281"/><text fill="#000000" font-family="sans-serif" font-size="14" lengthAdjust="spacing" textLength="59" x="282.5" y="271.3613">TurnView</text><line style="stroke:#181818;stroke-width:0.5;" x1="263.5" x2="390.5" y1="278.4375" y2="278.4375"/><ellipse cx="273.5" cy="289.4375" fill="#84BE84" rx="3" ry="3" style="stroke:#038048;stroke-width:1.0;"/><text fill="#000000" font-family="sans-serif" font-size="14" lengthAdjust="spacing" textLength="28" x="282.5" y="296.9707">init()</text><ellipse cx="273.5" cy="307.0469" fill="#84BE84" rx="3" ry="3" style="stroke:#038048;stroke-width:1.0;"/><text fill="#000000" font-family="sans-serif" font-size="14" lengthAdjust="spacing" textLength="42" x="282.5" y="314.5801">show()</text></g><!--MD5=[d283c2bfe20570c632ef9bcbc944f579]
class inLine--><g id="elem_inLine"><rect codeLine="32" fill="#F1F1F1" height="188.875" id="inLine" rx="2.5" ry="2.5" style="stroke:#181818;stroke-width:0.5;" width="232" x="198" y="684"/><ellipse cx="290.75" cy="700" fill="#ADD1B2" rx="11" ry="11" style="stroke:#181818;stroke-width:1.0;"/><path d="M293.5156,695.875 Q293.6719,695.6563 293.8594,695.5469 Q294.0469,695.4375 294.2656,695.4375 Q294.6406,695.4375 294.875,695.7031 Q295.1094,695.9531 295.1094,696.5625 L295.1094,698.0156 Q295.1094,698.625 294.875,698.8906 Q294.6406,699.1563 294.2656,699.1563 Q293.9219,699.1563 293.7188,698.9531 Q293.5156,698.7656 293.4063,698.25 Q293.3594,697.8906 293.1719,697.7031 Q292.8438,697.3281 292.2344,697.1094 Q291.625,696.8906 291,696.8906 Q290.2344,696.8906 289.5938,697.2188 Q288.9688,697.5469 288.4688,698.2969 Q287.9844,699.0469 287.9844,700.0781 L287.9844,701.1719 Q287.9844,702.4063 288.875,703.2344 Q289.7656,704.0469 291.3594,704.0469 Q292.2969,704.0469 292.9531,703.7969 Q293.3438,703.6406 293.7656,703.2031 Q294.0313,702.9375 294.1719,702.8594 Q294.3281,702.7813 294.5313,702.7813 Q294.8594,702.7813 295.1094,703.0469 Q295.375,703.2969 295.375,703.6406 Q295.375,703.9844 295.0313,704.3906 Q294.5313,704.9688 293.7344,705.2969 Q292.6563,705.75 291.3594,705.75 Q289.8438,705.75 288.6406,705.125 Q287.6563,704.625 286.9688,703.5625 Q286.2813,702.4844 286.2813,701.2031 L286.2813,700.0469 Q286.2813,698.7188 286.8906,697.5781 Q287.5156,696.4219 288.6094,695.8125 Q289.7031,695.1875 290.9375,695.1875 Q291.6719,695.1875 292.3125,695.3594 Q292.9688,695.5156 293.5156,695.875 Z " fill="#000000"/><text fill="#000000" font-family="sans-serif" font-size="14" lengthAdjust="spacing" textLength="38" x="311.25" y="705.7285">inLine</text><line style="stroke:#181818;stroke-width:0.5;" x1="199" x2="429" y1="716" y2="716"/><rect fill="none" height="6" style="stroke:#C82930;stroke-width:1.0;" width="6" x="206" y="724"/><text fill="#000000" font-family="sans-serif" font-size="14" lengthAdjust="spacing" textLength="42" x="218" y="734.5332">tokens</text><rect fill="none" height="6" style="stroke:#C82930;stroke-width:1.0;" width="6" x="206" y="741.6094"/><text fill="#000000" font-family="sans-serif" font-size="14" lengthAdjust="spacing" textLength="206" x="218" y="752.1426">IN_LINE_NUMBER_OF_TOKENS</text><line style="stroke:#181818;stroke-width:0.5;" x1="199" x2="429" y1="759.2188" y2="759.2188"/><ellipse cx="209" cy="770.2188" fill="#84BE84" rx="3" ry="3" style="stroke:#038048;stroke-width:1.0;"/><text fill="#000000" font-family="sans-serif" font-size="14" lengthAdjust="spacing" textLength="191" x="218" y="777.752">isInLineToken(tokens[], token)</text><rect fill="#F24D5C" height="6" style="stroke:#C82930;stroke-width:1.0;" width="6" x="206" y="784.8281"/><text fill="#000000" font-family="sans-serif" font-size="14" lengthAdjust="spacing" textLength="155" x="218" y="795.3613">isInLineHorizontal(token)</text><rect fill="#F24D5C" height="6" style="stroke:#C82930;stroke-width:1.0;" width="6" x="206" y="802.4375"/><text fill="#000000" font-family="sans-serif" font-size="14" lengthAdjust="spacing" textLength="140" x="218" y="812.9707">isInLineVertical(token)</text><rect fill="#F24D5C" height="6" style="stroke:#C82930;stroke-width:1.0;" width="6" x="206" y="820.0469"/><text fill="#000000" font-family="sans-serif" font-size="14" lengthAdjust="spacing" textLength="149" x="218" y="830.5801">isInLineDiagonal(token)</text><rect fill="#F24D5C" height="6" style="stroke:#C82930;stroke-width:1.0;" width="6" x="206" y="837.6563"/><text fill="#000000" font-family="sans-serif" font-size="14" lengthAdjust="spacing" textLength="202" x="218" y="848.1895">isInLineReverseDiagonal(token)</text><rect fill="#F24D5C" height="6" style="stroke:#C82930;stroke-width:1.0;" width="6" x="206" y="855.2656"/><text fill="#000000" font-family="sans-serif" font-size="14" lengthAdjust="spacing" textLength="158" x="218" y="865.7988">isColorOnPosition(token)</text></g><!--MD5=[606c0e9a527600b962089599cf14ab26]
class token--><g id="elem_token"><rect codeLine="43" fill="#F1F1F1" height="136.0469" id="token" rx="2.5" ry="2.5" style="stroke:#181818;stroke-width:0.5;" width="104" x="59" y="710.5"/><ellipse cx="90.65" cy="726.5" fill="#ADD1B2" rx="11" ry="11" style="stroke:#181818;stroke-width:1.0;"/><path d="M93.4156,722.375 Q93.5719,722.1563 93.7594,722.0469 Q93.9469,721.9375 94.1656,721.9375 Q94.5406,721.9375 94.775,722.2031 Q95.0094,722.4531 95.0094,723.0625 L95.0094,724.5156 Q95.0094,725.125 94.775,725.3906 Q94.5406,725.6563 94.1656,725.6563 Q93.8219,725.6563 93.6188,725.4531 Q93.4156,725.2656 93.3063,724.75 Q93.2594,724.3906 93.0719,724.2031 Q92.7438,723.8281 92.1344,723.6094 Q91.525,723.3906 90.9,723.3906 Q90.1344,723.3906 89.4938,723.7188 Q88.8688,724.0469 88.3688,724.7969 Q87.8844,725.5469 87.8844,726.5781 L87.8844,727.6719 Q87.8844,728.9063 88.775,729.7344 Q89.6656,730.5469 91.2594,730.5469 Q92.1969,730.5469 92.8531,730.2969 Q93.2438,730.1406 93.6656,729.7031 Q93.9313,729.4375 94.0719,729.3594 Q94.2281,729.2813 94.4313,729.2813 Q94.7594,729.2813 95.0094,729.5469 Q95.275,729.7969 95.275,730.1406 Q95.275,730.4844 94.9313,730.8906 Q94.4313,731.4688 93.6344,731.7969 Q92.5563,732.25 91.2594,732.25 Q89.7438,732.25 88.5406,731.625 Q87.5563,731.125 86.8688,730.0625 Q86.1813,728.9844 86.1813,727.7031 L86.1813,726.5469 Q86.1813,725.2188 86.7906,724.0781 Q87.4156,722.9219 88.5094,722.3125 Q89.6031,721.6875 90.8375,721.6875 Q91.5719,721.6875 92.2125,721.8594 Q92.8688,722.0156 93.4156,722.375 Z " fill="#000000"/><text fill="#000000" font-family="sans-serif" font-size="14" lengthAdjust="spacing" textLength="35" x="108.35" y="732.2285">token</text><line style="stroke:#181818;stroke-width:0.5;" x1="60" x2="162" y1="742.5" y2="742.5"/><rect fill="none" height="6" style="stroke:#C82930;stroke-width:1.0;" width="6" x="67" y="750.5"/><text fill="#000000" font-family="sans-serif" font-size="14" lengthAdjust="spacing" textLength="34" x="79" y="761.0332">Color</text><rect fill="none" height="6" style="stroke:#C82930;stroke-width:1.0;" width="6" x="67" y="768.1094"/><text fill="#000000" font-family="sans-serif" font-size="14" lengthAdjust="spacing" textLength="67" x="79" y="778.6426">coordinate</text><line style="stroke:#181818;stroke-width:0.5;" x1="60" x2="162" y1="785.7188" y2="785.7188"/><ellipse cx="70" cy="796.7188" fill="#84BE84" rx="3" ry="3" style="stroke:#038048;stroke-width:1.0;"/><text fill="#000000" font-family="sans-serif" font-size="14" lengthAdjust="spacing" textLength="64" x="79" y="804.252">getColor()</text><ellipse cx="70" cy="814.3281" fill="#84BE84" rx="3" ry="3" style="stroke:#038048;stroke-width:1.0;"/><text fill="#000000" font-family="sans-serif" font-size="14" lengthAdjust="spacing" textLength="57" x="79" y="821.8613">getRow()</text><ellipse cx="70" cy="831.9375" fill="#84BE84" rx="3" ry="3" style="stroke:#038048;stroke-width:1.0;"/><text fill="#000000" font-family="sans-serif" font-size="14" lengthAdjust="spacing" textLength="78" x="79" y="839.4707">getColumn()</text></g><!--MD5=[591ad017c1bea39456346e62f574f03d]
class coordinate--><g id="elem_coordinate"><rect codeLine="51" fill="#F1F1F1" height="118.4375" id="coordinate" rx="2.5" ry="2.5" style="stroke:#181818;stroke-width:0.5;" width="104" x="7" y="933"/><ellipse cx="24.25" cy="949" fill="#ADD1B2" rx="11" ry="11" style="stroke:#181818;stroke-width:1.0;"/><path d="M27.0156,944.875 Q27.1719,944.6563 27.3594,944.5469 Q27.5469,944.4375 27.7656,944.4375 Q28.1406,944.4375 28.375,944.7031 Q28.6094,944.9531 28.6094,945.5625 L28.6094,947.0156 Q28.6094,947.625 28.375,947.8906 Q28.1406,948.1563 27.7656,948.1563 Q27.4219,948.1563 27.2188,947.9531 Q27.0156,947.7656 26.9063,947.25 Q26.8594,946.8906 26.6719,946.7031 Q26.3438,946.3281 25.7344,946.1094 Q25.125,945.8906 24.5,945.8906 Q23.7344,945.8906 23.0938,946.2188 Q22.4688,946.5469 21.9688,947.2969 Q21.4844,948.0469 21.4844,949.0781 L21.4844,950.1719 Q21.4844,951.4063 22.375,952.2344 Q23.2656,953.0469 24.8594,953.0469 Q25.7969,953.0469 26.4531,952.7969 Q26.8438,952.6406 27.2656,952.2031 Q27.5313,951.9375 27.6719,951.8594 Q27.8281,951.7813 28.0313,951.7813 Q28.3594,951.7813 28.6094,952.0469 Q28.875,952.2969 28.875,952.6406 Q28.875,952.9844 28.5313,953.3906 Q28.0313,953.9688 27.2344,954.2969 Q26.1563,954.75 24.8594,954.75 Q23.3438,954.75 22.1406,954.125 Q21.1563,953.625 20.4688,952.5625 Q19.7813,951.4844 19.7813,950.2031 L19.7813,949.0469 Q19.7813,947.7188 20.3906,946.5781 Q21.0156,945.4219 22.1094,944.8125 Q23.2031,944.1875 24.4375,944.1875 Q25.1719,944.1875 25.8125,944.3594 Q26.4688,944.5156 27.0156,944.875 Z " fill="#000000"/><text fill="#000000" font-family="sans-serif" font-size="14" lengthAdjust="spacing" textLength="67" x="38.75" y="954.7285">coordinate</text><line style="stroke:#181818;stroke-width:0.5;" x1="8" x2="110" y1="965" y2="965"/><rect fill="none" height="6" style="stroke:#C82930;stroke-width:1.0;" width="6" x="15" y="973"/><text fill="#000000" font-family="sans-serif" font-size="14" lengthAdjust="spacing" textLength="22" x="27" y="983.5332">row</text><rect fill="none" height="6" style="stroke:#C82930;stroke-width:1.0;" width="6" x="15" y="990.6094"/><text fill="#000000" font-family="sans-serif" font-size="14" lengthAdjust="spacing" textLength="45" x="27" y="1001.1426">column</text><line style="stroke:#181818;stroke-width:0.5;" x1="8" x2="110" y1="1008.2188" y2="1008.2188"/><ellipse cx="18" cy="1019.2188" fill="#84BE84" rx="3" ry="3" style="stroke:#038048;stroke-width:1.0;"/><text fill="#000000" font-family="sans-serif" font-size="14" lengthAdjust="spacing" textLength="57" x="27" y="1026.752">getRow()</text><ellipse cx="18" cy="1036.8281" fill="#84BE84" rx="3" ry="3" style="stroke:#038048;stroke-width:1.0;"/><text fill="#000000" font-family="sans-serif" font-size="14" lengthAdjust="spacing" textLength="78" x="27" y="1044.3613">getColumn()</text></g><!--MD5=[46e2fff4e112e858a5bcac690d902864]
class turnView--><g id="elem_turnView"><rect codeLine="58" fill="#F1F1F1" height="118.4375" id="turnView" rx="2.5" ry="2.5" style="stroke:#181818;stroke-width:0.5;" width="184" x="385" y="444"/><ellipse cx="445.75" cy="460" fill="#ADD1B2" rx="11" ry="11" style="stroke:#181818;stroke-width:1.0;"/><path d="M448.5156,455.875 Q448.6719,455.6563 448.8594,455.5469 Q449.0469,455.4375 449.2656,455.4375 Q449.6406,455.4375 449.875,455.7031 Q450.1094,455.9531 450.1094,456.5625 L450.1094,458.0156 Q450.1094,458.625 449.875,458.8906 Q449.6406,459.1563 449.2656,459.1563 Q448.9219,459.1563 448.7188,458.9531 Q448.5156,458.7656 448.4063,458.25 Q448.3594,457.8906 448.1719,457.7031 Q447.8438,457.3281 447.2344,457.1094 Q446.625,456.8906 446,456.8906 Q445.2344,456.8906 444.5938,457.2188 Q443.9688,457.5469 443.4688,458.2969 Q442.9844,459.0469 442.9844,460.0781 L442.9844,461.1719 Q442.9844,462.4063 443.875,463.2344 Q444.7656,464.0469 446.3594,464.0469 Q447.2969,464.0469 447.9531,463.7969 Q448.3438,463.6406 448.7656,463.2031 Q449.0313,462.9375 449.1719,462.8594 Q449.3281,462.7813 449.5313,462.7813 Q449.8594,462.7813 450.1094,463.0469 Q450.375,463.2969 450.375,463.6406 Q450.375,463.9844 450.0313,464.3906 Q449.5313,464.9688 448.7344,465.2969 Q447.6563,465.75 446.3594,465.75 Q444.8438,465.75 443.6406,465.125 Q442.6563,464.625 441.9688,463.5625 Q441.2813,462.4844 441.2813,461.2031 L441.2813,460.0469 Q441.2813,458.7188 441.8906,457.5781 Q442.5156,456.4219 443.6094,455.8125 Q444.7031,455.1875 445.9375,455.1875 Q446.6719,455.1875 447.3125,455.3594 Q447.9688,455.5156 448.5156,455.875 Z " fill="#000000"/><text fill="#000000" font-family="sans-serif" font-size="14" lengthAdjust="spacing" textLength="54" x="466.25" y="465.7285">turnView</text><line style="stroke:#181818;stroke-width:0.5;" x1="386" x2="568" y1="476" y2="476"/><rect fill="none" height="6" style="stroke:#C82930;stroke-width:1.0;" width="6" x="393" y="484"/><text fill="#000000" font-family="sans-serif" font-size="14" lengthAdjust="spacing" textLength="25" x="405" y="494.5332">turn</text><line style="stroke:#181818;stroke-width:0.5;" x1="386" x2="568" y1="501.6094" y2="501.6094"/><ellipse cx="396" cy="512.6094" fill="#84BE84" rx="3" ry="3" style="stroke:#038048;stroke-width:1.0;"/><text fill="#000000" font-family="sans-serif" font-size="14" lengthAdjust="spacing" textLength="158" x="405" y="520.1426">getColumn(maxColumns)</text><ellipse cx="396" cy="530.2188" fill="#84BE84" rx="3" ry="3" style="stroke:#038048;stroke-width:1.0;"/><text fill="#000000" font-family="sans-serif" font-size="14" lengthAdjust="spacing" textLength="66" x="405" y="537.752">nextTurn()</text><ellipse cx="396" cy="547.8281" fill="#84BE84" rx="3" ry="3" style="stroke:#038048;stroke-width:1.0;"/><text fill="#000000" font-family="sans-serif" font-size="14" lengthAdjust="spacing" textLength="64" x="405" y="555.3613">getColor()</text></g><!--MD5=[023a942bc7f50f75f4bafc8ed131aced]
class turn--><g id="elem_turn"><rect codeLine="65" fill="#F1F1F1" height="100.8281" id="turn" rx="2.5" ry="2.5" style="stroke:#181818;stroke-width:0.5;" width="92" x="465" y="728"/><ellipse cx="495.75" cy="744" fill="#ADD1B2" rx="11" ry="11" style="stroke:#181818;stroke-width:1.0;"/><path d="M498.5156,739.875 Q498.6719,739.6563 498.8594,739.5469 Q499.0469,739.4375 499.2656,739.4375 Q499.6406,739.4375 499.875,739.7031 Q500.1094,739.9531 500.1094,740.5625 L500.1094,742.0156 Q500.1094,742.625 499.875,742.8906 Q499.6406,743.1563 499.2656,743.1563 Q498.9219,743.1563 498.7188,742.9531 Q498.5156,742.7656 498.4063,742.25 Q498.3594,741.8906 498.1719,741.7031 Q497.8438,741.3281 497.2344,741.1094 Q496.625,740.8906 496,740.8906 Q495.2344,740.8906 494.5938,741.2188 Q493.9688,741.5469 493.4688,742.2969 Q492.9844,743.0469 492.9844,744.0781 L492.9844,745.1719 Q492.9844,746.4063 493.875,747.2344 Q494.7656,748.0469 496.3594,748.0469 Q497.2969,748.0469 497.9531,747.7969 Q498.3438,747.6406 498.7656,747.2031 Q499.0313,746.9375 499.1719,746.8594 Q499.3281,746.7813 499.5313,746.7813 Q499.8594,746.7813 500.1094,747.0469 Q500.375,747.2969 500.375,747.6406 Q500.375,747.9844 500.0313,748.3906 Q499.5313,748.9688 498.7344,749.2969 Q497.6563,749.75 496.3594,749.75 Q494.8438,749.75 493.6406,749.125 Q492.6563,748.625 491.9688,747.5625 Q491.2813,746.4844 491.2813,745.2031 L491.2813,744.0469 Q491.2813,742.7188 491.8906,741.5781 Q492.5156,740.4219 493.6094,739.8125 Q494.7031,739.1875 495.9375,739.1875 Q496.6719,739.1875 497.3125,739.3594 Q497.9688,739.5156 498.5156,739.875 Z " fill="#000000"/><text fill="#000000" font-family="sans-serif" font-size="14" lengthAdjust="spacing" textLength="25" x="513.25" y="749.7285">turn</text><line style="stroke:#181818;stroke-width:0.5;" x1="466" x2="556" y1="760" y2="760"/><rect fill="none" height="6" style="stroke:#C82930;stroke-width:1.0;" width="6" x="473" y="768"/><text fill="#000000" font-family="sans-serif" font-size="14" lengthAdjust="spacing" textLength="31" x="485" y="778.5332">color</text><line style="stroke:#181818;stroke-width:0.5;" x1="466" x2="556" y1="785.6094" y2="785.6094"/><ellipse cx="476" cy="796.6094" fill="#84BE84" rx="3" ry="3" style="stroke:#038048;stroke-width:1.0;"/><text fill="#000000" font-family="sans-serif" font-size="14" lengthAdjust="spacing" textLength="64" x="485" y="804.1426">getColor()</text><ellipse cx="476" cy="814.2188" fill="#84BE84" rx="3" ry="3" style="stroke:#038048;stroke-width:1.0;"/><text fill="#000000" font-family="sans-serif" font-size="14" lengthAdjust="spacing" textLength="66" x="485" y="821.752">nextTurn()</text></g><!--MD5=[b79a6dbdb435efa72378790761c8d246]
class colors--><g id="elem_colors"><rect codeLine="71" fill="#F1F1F1" height="83.2188" id="colors" rx="2.5" ry="2.5" style="stroke:#181818;stroke-width:0.5;" width="70" x="279" y="950.5"/><ellipse cx="294" cy="966.5" fill="#EB937F" rx="11" ry="11" style="stroke:#181818;stroke-width:1.0;"/><path d="M292.8594,967.2969 L292.8594,969.7969 L297.1875,969.7969 L297.1875,968.875 Q297.1875,968.2656 297.4219,968 Q297.6719,967.7344 298.0469,967.7344 Q298.4219,967.7344 298.6563,968 Q298.8906,968.2656 298.8906,968.875 L298.8906,971.5 L290.8906,971.5 Q290.2656,971.5 290,971.2656 Q289.75,971.0313 289.75,970.6406 Q289.75,970.2656 290.0156,970.0313 Q290.2813,969.7969 290.8906,969.7969 L291.1563,969.7969 L291.1563,963.1406 L290.8906,963.1406 Q290.2656,963.1406 290,962.9063 Q289.75,962.6719 289.75,962.2813 Q289.75,961.9063 290,961.6719 Q290.2656,961.4375 290.8906,961.4375 L298.5156,961.4375 L298.5156,964.0313 Q298.5156,964.6406 298.2813,964.9063 Q298.0625,965.1563 297.6719,965.1563 Q297.2969,965.1563 297.0625,964.9063 Q296.8281,964.6406 296.8281,964.0313 L296.8281,963.1406 L292.8594,963.1406 L292.8594,965.5938 L294.3438,965.5938 Q294.3438,964.9375 294.4688,964.75 Q294.7344,964.3438 295.2031,964.3438 Q295.5781,964.3438 295.8125,964.6094 Q296.0469,964.8594 296.0469,965.4688 L296.0469,967.4375 Q296.0469,967.9844 295.9219,968.1719 Q295.6563,968.5625 295.2031,968.5625 Q294.7344,968.5625 294.4688,968.1563 Q294.3438,967.9688 294.3438,967.2969 L292.8594,967.2969 Z " fill="#000000"/><text fill="#000000" font-family="sans-serif" font-size="14" lengthAdjust="spacing" textLength="38" x="308" y="972.2285">colors</text><line style="stroke:#181818;stroke-width:0.5;" x1="280" x2="348" y1="982.5" y2="982.5"/><text fill="#000000" font-family="sans-serif" font-size="14" lengthAdjust="spacing" textLength="26" x="285" y="1001.0332">Red</text><text fill="#000000" font-family="sans-serif" font-size="14" lengthAdjust="spacing" textLength="40" x="285" y="1018.6426">Yellow</text><line style="stroke:#181818;stroke-width:0.5;" x1="280" x2="348" y1="1025.7188" y2="1025.7188"/></g><!--MD5=[3aaa55d472d60a859166b4b0a5dca067]
link connect4 to boardView--><g id="link_connect4_boardView"><path codeLine="76" d="M264.78,108.21 C272.53,125.13 281.41,144.5 289.98,163.21 " fill="none" id="connect4-to-boardView" style="stroke:#181818;stroke-width:1.0;stroke-dasharray:7.0,7.0;"/><polygon fill="#181818" points="292.15,167.95,292.03,158.1019,290.0638,163.406,284.7596,161.4398,292.15,167.95" style="stroke:#181818;stroke-width:1.0;"/></g><!--MD5=[f466d7893f3afed6a957d6be4a37dba3]
link connect4 to yesNoDialogView--><g id="link_connect4_yesNoDialogView"><path codeLine="77" d="M219.22,108.21 C206.34,136.31 190.36,171.19 177.82,198.56 " fill="none" id="connect4-to-yesNoDialogView" style="stroke:#181818;stroke-width:1.0;stroke-dasharray:7.0,7.0;"/><polygon fill="#181818" points="175.68,203.23,183.0626,196.711,177.7608,198.6836,175.7883,193.3817,175.68,203.23" style="stroke:#181818;stroke-width:1.0;"/></g><!--MD5=[fb32ec1c38a4eb0577ee459902ecc0e3]
link boardView to board--><g id="link_boardView_board"><path codeLine="78" d="M276.6585,332.4882 C276.6585,332.4882 261.9,357.86 254.7,370.22 " fill="none" id="boardView-board" style="stroke:#181818;stroke-width:1.0;"/><polygon fill="#181818" points="248.09,381.58,256.0717,375.8101,250.6032,377.2575,249.1558,371.789,248.09,381.58" style="stroke:#181818;stroke-width:1.0;"/><line style="stroke:#181818;stroke-width:1.0;" x1="250.6032" x2="254.63" y1="377.2575" y2="370.345"/><polygon fill="#181818" points="282.7,322.12,276.2232,325.2903,276.6585,332.4882,283.1353,329.318,282.7,322.12" style="stroke:#181818;stroke-width:1.0;"/></g><!--MD5=[281ebd2e004ad5cd374ca87d563edc75]
link boardView to turnView--><g id="link_boardView_turnView"><path codeLine="79" d="M371.6,322.12 C393.42,359.35 419.37,403.64 440.06,438.96 " fill="none" id="boardView-to-turnView" style="stroke:#181818;stroke-width:1.0;stroke-dasharray:7.0,7.0;"/><polygon fill="#181818" points="442.82,443.66,441.7201,433.8727,440.2918,439.3463,434.8182,437.9179,442.82,443.66" style="stroke:#181818;stroke-width:1.0;"/></g><!--MD5=[f62d90ac26fd182904d7612b38d0d9ea]
link turnView to turn--><g id="link_turnView_turn"><path codeLine="80" d="M485.6871,573.9087 C485.6871,573.9087 498.03,673.16 503.21,714.8 " fill="none" id="turnView-turn" style="stroke:#181818;stroke-width:1.0;"/><polygon fill="#181818" points="504.83,727.83,507.6918,718.4061,504.2146,722.868,499.7526,719.3908,504.83,727.83" style="stroke:#181818;stroke-width:1.0;"/><line style="stroke:#181818;stroke-width:1.0;" x1="504.2146" x2="503.225" y1="722.868" y2="714.93"/><polygon fill="none" points="484.21,562,480.9789,568.4467,485.6871,573.9087,488.9181,567.462,484.21,562" style="stroke:#181818;stroke-width:1.0;"/></g><!--MD5=[f41e6990d0a16124120bc990cc7767d3]
link board to token--><g id="link_board_token"><path codeLine="81" d="M145.6592,636.014 C145.6592,636.014 135.23,678.61 130.58,697.59 " fill="none" id="board-token" style="stroke:#181818;stroke-width:1.0;"/><polygon fill="#181818" points="127.43,710.42,133.4519,702.6266,128.6168,705.5629,125.6806,700.7278,127.43,710.42" style="stroke:#181818;stroke-width:1.0;"/><line style="stroke:#181818;stroke-width:1.0;" x1="128.6168" x2="130.53" y1="705.5629" y2="697.79"/><polygon fill="none" points="148.52,624.36,143.2049,629.2334,145.6592,636.014,150.9743,631.1406,148.52,624.36" style="stroke:#181818;stroke-width:1.0;"/></g><!--MD5=[715ad444057b8c2aa7e9cd89c8f563c6]
link board to inLine--><g id="link_board_inLine"><path codeLine="82" d="M243.2007,635.101 C243.2007,635.101 255.73,660.31 261.6,672.12 " fill="none" id="board-inLine" style="stroke:#181818;stroke-width:1.0;"/><polygon fill="#181818" points="267.41,683.81,266.9773,673.9707,265.1805,679.3346,259.8166,677.5378,267.41,683.81" style="stroke:#181818;stroke-width:1.0;"/><line style="stroke:#181818;stroke-width:1.0;" x1="265.1805" x2="261.625" y1="679.3346" y2="672.17"/><polygon fill="none" points="237.85,624.36,236.945,631.5141,243.2007,635.101,244.1057,627.9469,237.85,624.36" style="stroke:#181818;stroke-width:1.0;"/></g><!--MD5=[cf39395ebd43fbb806f8d20087ef7f66]
link board to coordinate--><g id="link_board_coordinate"><path codeLine="83" d="M70.51,624.03 C58.44,643.01 48,663.25 41,684 C13.69,764.98 27.57,864.73 41.81,928.11 " fill="none" id="board-to-coordinate" style="stroke:#181818;stroke-width:1.0;stroke-dasharray:7.0,7.0;"/><polygon fill="#181818" points="42.92,932.98,44.8186,923.3159,41.8082,928.1052,37.0189,925.0948,42.92,932.98" style="stroke:#181818;stroke-width:1.0;"/></g><!--MD5=[cda4cbe7191a8d650ac42c8d51c78cbd]
link inLine to colors--><g id="link_inLine_colors"><path codeLine="84" d="M314,873.19 C314,898.15 314,924.01 314,945.12 " fill="none" id="inLine-to-colors" style="stroke:#181818;stroke-width:1.0;stroke-dasharray:7.0,7.0;"/><polygon fill="#181818" points="314,950.39,318,941.39,314,945.39,310,941.39,314,950.39" style="stroke:#181818;stroke-width:1.0;"/></g><!--MD5=[ee9db3ee9a0245dbdc28aed3f1ea6503]
link turn to colors--><g id="link_turn_colors"><path codeLine="85" d="M474.1165,839.1992 C474.1165,839.1992 456.91,862.86 448,873 C421.27,903.43 386.92,933.53 359.69,955.72 " fill="none" id="turn-colors" style="stroke:#181818;stroke-width:1.0;"/><polygon fill="#181818" points="349.26,964.12,358.7784,961.5902,353.1541,960.9838,353.7605,955.3596,349.26,964.12" style="stroke:#181818;stroke-width:1.0;"/><line style="stroke:#181818;stroke-width:1.0;" x1="353.1541" x2="359.385" y1="960.9838" y2="955.965"/><polygon fill="none" points="480.87,829.28,474.1869,831.9884,474.1165,839.1992,480.7997,836.4908,480.87,829.28" style="stroke:#181818;stroke-width:1.0;"/></g><!--MD5=[da25e71b20586d566bbfcc342003eadf]
link token to colors--><g id="link_token_colors"><path codeLine="86" d="M165.4588,856.1324 C165.4588,856.1324 175.43,868.02 180,873 C207.29,902.75 241.48,932.76 268.5,955.08 " fill="none" id="token-colors" style="stroke:#181818;stroke-width:1.0;"/><polygon fill="#181818" points="278.85,963.54,274.4112,954.7481,274.978,960.3765,269.3496,960.9433,278.85,963.54" style="stroke:#181818;stroke-width:1.0;"/><line style="stroke:#181818;stroke-width:1.0;" x1="274.978" x2="268.78" y1="960.3765" y2="955.305"/><polygon fill="#181818" points="157.94,846.78,158.582,853.9625,165.4588,856.1324,164.8169,848.9499,157.94,846.78" style="stroke:#181818;stroke-width:1.0;"/></g><!--MD5=[a4790a59275add077948081d63e6bf43]
link token to coordinate--><g id="link_token_coordinate"><path codeLine="87" d="M91.6192,858.364 C91.6192,858.364 81.21,900.67 76.44,920.08 " fill="none" id="token-coordinate" style="stroke:#181818;stroke-width:1.0;"/><polygon fill="#181818" points="73.29,932.87,79.3223,925.0847,74.4833,928.0145,71.5534,923.1754,73.29,932.87" style="stroke:#181818;stroke-width:1.0;"/><line style="stroke:#181818;stroke-width:1.0;" x1="74.4833" x2="76.395" y1="928.0145" y2="920.245"/><polygon fill="#181818" points="94.48,846.71,89.1649,851.5834,91.6192,858.364,96.9343,853.4906,94.48,846.71" style="stroke:#181818;stroke-width:1.0;"/></g><!--MD5=[003fba81446d382edaa49b92fddad20a]
@startuml

class connect4{
    - boardView
    - yesNoDialog
    + playGame()
}
class yesNoDialogView{
    + read(message)
    + isAffirmative()
}
class board{
    - tokens[]
    - inLine
    - lastToken
    + reset(maxRows, maxColumns)
    + isFilledColumn(column)
    + putToken(column, color)
    + getFirstEmptyRowFromColumn(column)
    + isEndGame()
    + isFilled()
    + isInLineToken(tokens[])
    + getTokens()
}
class boardView{
    - MAX_ROWS
    - MAX_COLUMNS
    - Board
    - TurnView
    + init()
    + show()
}
class inLine{
    - tokens
    - IN_LINE_NUMBER_OF_TOKENS
    + isInLineToken(tokens[], token)
    - isInLineHorizontal(token)
    - isInLineVertical(token)
    - isInLineDiagonal(token)
    - isInLineReverseDiagonal(token)
    - isColorOnPosition(token)
}

class token{
    - Color
    - coordinate
    + getColor()
    + getRow()
    + getColumn()
}

class coordinate {
    - row 
    - column
    + getRow()
    + getColumn()
}

class turnView{
    - turn
    + getColumn(maxColumns)
    + nextTurn()
    + getColor()
}

class turn{
    - color
    + getColor()
    + nextTurn()
}

enum colors{
Red
Yellow
}

connect4 ..> boardView
connect4 ..> yesNoDialogView
boardView *- -> board
boardView ..> turnView
turnView o- -> turn
board o- -> token
board o- -> inLine
board ..> coordinate
inLine ..> colors
turn o- -> colors
token *- -> colors
token *- -> coordinate
@enduml

PlantUML version 1.2022.5(Sat Apr 30 12:55:52 CEST 2022)
(GPL source distribution)
Java Runtime: OpenJDK Runtime Environment
JVM: OpenJDK 64-Bit Server VM
Default Encoding: UTF-8
Language: es
Country: ES
--></g></svg>