<?xml version="1.0" encoding="UTF-8" standalone="no"?><svg xmlns="http://www.w3.org/2000/svg" xmlns:xlink="http://www.w3.org/1999/xlink" contentStyleType="text/css" height="1183px" preserveAspectRatio="none" style="width:532px;height:1183px;background:#FFFFFF;" version="1.1" viewBox="0 0 532 1183" width="532px" zoomAndPan="magnify"><defs/><g><!--MD5=[10b1f240992e2c34b6908209bf85bfd2]
class Connect4--><g id="elem_Connect4"><rect codeLine="2" fill="#F1F1F1" height="100.8281" id="Connect4" rx="2.5" ry="2.5" style="stroke:#181818;stroke-width:0.5;" width="105" x="206.5" y="7"/><ellipse cx="226.9" cy="23" fill="#ADD1B2" rx="11" ry="11" style="stroke:#181818;stroke-width:1.0;"/><path d="M229.6656,18.875 Q229.8219,18.6563 230.0094,18.5469 Q230.1969,18.4375 230.4156,18.4375 Q230.7906,18.4375 231.025,18.7031 Q231.2594,18.9531 231.2594,19.5625 L231.2594,21.0156 Q231.2594,21.625 231.025,21.8906 Q230.7906,22.1563 230.4156,22.1563 Q230.0719,22.1563 229.8688,21.9531 Q229.6656,21.7656 229.5563,21.25 Q229.5094,20.8906 229.3219,20.7031 Q228.9938,20.3281 228.3844,20.1094 Q227.775,19.8906 227.15,19.8906 Q226.3844,19.8906 225.7438,20.2188 Q225.1188,20.5469 224.6188,21.2969 Q224.1344,22.0469 224.1344,23.0781 L224.1344,24.1719 Q224.1344,25.4063 225.025,26.2344 Q225.9156,27.0469 227.5094,27.0469 Q228.4469,27.0469 229.1031,26.7969 Q229.4938,26.6406 229.9156,26.2031 Q230.1813,25.9375 230.3219,25.8594 Q230.4781,25.7813 230.6813,25.7813 Q231.0094,25.7813 231.2594,26.0469 Q231.525,26.2969 231.525,26.6406 Q231.525,26.9844 231.1813,27.3906 Q230.6813,27.9688 229.8844,28.2969 Q228.8063,28.75 227.5094,28.75 Q225.9938,28.75 224.7906,28.125 Q223.8063,27.625 223.1188,26.5625 Q222.4313,25.4844 222.4313,24.2031 L222.4313,23.0469 Q222.4313,21.7188 223.0406,20.5781 Q223.6656,19.4219 224.7594,18.8125 Q225.8531,18.1875 227.0875,18.1875 Q227.8219,18.1875 228.4625,18.3594 Q229.1188,18.5156 229.6656,18.875 Z " fill="#000000"/><text fill="#000000" font-family="sans-serif" font-size="14" lengthAdjust="spacing" textLength="61" x="242.1" y="28.7285">Connect4</text><line style="stroke:#181818;stroke-width:0.5;" x1="207.5" x2="310.5" y1="39" y2="39"/><rect fill="none" height="6" style="stroke:#C82930;stroke-width:1.0;" width="6" x="214.5" y="47"/><text fill="#000000" font-family="sans-serif" font-size="14" lengthAdjust="spacing" textLength="66" x="226.5" y="57.5332">boardView</text><rect fill="none" height="6" style="stroke:#C82930;stroke-width:1.0;" width="6" x="214.5" y="64.6094"/><text fill="#000000" font-family="sans-serif" font-size="14" lengthAdjust="spacing" textLength="79" x="226.5" y="75.1426">yesNoDialog</text><line style="stroke:#181818;stroke-width:0.5;" x1="207.5" x2="310.5" y1="82.2188" y2="82.2188"/><ellipse cx="217.5" cy="93.2188" fill="#84BE84" rx="3" ry="3" style="stroke:#038048;stroke-width:1.0;"/><text fill="#000000" font-family="sans-serif" font-size="14" lengthAdjust="spacing" textLength="74" x="226.5" y="100.752">playGame()</text></g><!--MD5=[2f2ced231ceb229417d2b072acd0beb6]
class YesNoDialogView--><g id="elem_YesNoDialogView"><rect codeLine="7" fill="#F1F1F1" height="83.2188" id="YesNoDialogView" rx="2.5" ry="2.5" style="stroke:#181818;stroke-width:0.5;" width="142" x="103" y="203.5"/><ellipse cx="118" cy="219.5" fill="#ADD1B2" rx="11" ry="11" style="stroke:#181818;stroke-width:1.0;"/><path d="M120.7656,215.375 Q120.9219,215.1563 121.1094,215.0469 Q121.2969,214.9375 121.5156,214.9375 Q121.8906,214.9375 122.125,215.2031 Q122.3594,215.4531 122.3594,216.0625 L122.3594,217.5156 Q122.3594,218.125 122.125,218.3906 Q121.8906,218.6563 121.5156,218.6563 Q121.1719,218.6563 120.9688,218.4531 Q120.7656,218.2656 120.6563,217.75 Q120.6094,217.3906 120.4219,217.2031 Q120.0938,216.8281 119.4844,216.6094 Q118.875,216.3906 118.25,216.3906 Q117.4844,216.3906 116.8438,216.7188 Q116.2188,217.0469 115.7188,217.7969 Q115.2344,218.5469 115.2344,219.5781 L115.2344,220.6719 Q115.2344,221.9063 116.125,222.7344 Q117.0156,223.5469 118.6094,223.5469 Q119.5469,223.5469 120.2031,223.2969 Q120.5938,223.1406 121.0156,222.7031 Q121.2813,222.4375 121.4219,222.3594 Q121.5781,222.2813 121.7813,222.2813 Q122.1094,222.2813 122.3594,222.5469 Q122.625,222.7969 122.625,223.1406 Q122.625,223.4844 122.2813,223.8906 Q121.7813,224.4688 120.9844,224.7969 Q119.9063,225.25 118.6094,225.25 Q117.0938,225.25 115.8906,224.625 Q114.9063,224.125 114.2188,223.0625 Q113.5313,221.9844 113.5313,220.7031 L113.5313,219.5469 Q113.5313,218.2188 114.1406,217.0781 Q114.7656,215.9219 115.8594,215.3125 Q116.9531,214.6875 118.1875,214.6875 Q118.9219,214.6875 119.5625,214.8594 Q120.2188,215.0156 120.7656,215.375 Z " fill="#000000"/><text fill="#000000" font-family="sans-serif" font-size="14" lengthAdjust="spacing" textLength="110" x="132" y="225.2285">YesNoDialogView</text><line style="stroke:#181818;stroke-width:0.5;" x1="104" x2="244" y1="235.5" y2="235.5"/><line style="stroke:#181818;stroke-width:0.5;" x1="104" x2="244" y1="243.5" y2="243.5"/><ellipse cx="114" cy="254.5" fill="#84BE84" rx="3" ry="3" style="stroke:#038048;stroke-width:1.0;"/><text fill="#000000" font-family="sans-serif" font-size="14" lengthAdjust="spacing" textLength="96" x="123" y="262.0332">read(message)</text><ellipse cx="114" cy="272.1094" fill="#84BE84" rx="3" ry="3" style="stroke:#038048;stroke-width:1.0;"/><text fill="#000000" font-family="sans-serif" font-size="14" lengthAdjust="spacing" textLength="86" x="123" y="279.6426">isAffirmative()</text></g><!--MD5=[9563755d011c5cec7ec66dc53565a59e]
class Board--><g id="elem_Board"><rect codeLine="11" fill="#F1F1F1" height="294.5313" id="Board" rx="2.5" ry="2.5" style="stroke:#181818;stroke-width:0.5;" width="376" x="7" y="560"/><ellipse cx="171.75" cy="576" fill="#ADD1B2" rx="11" ry="11" style="stroke:#181818;stroke-width:1.0;"/><path d="M174.5156,571.875 Q174.6719,571.6563 174.8594,571.5469 Q175.0469,571.4375 175.2656,571.4375 Q175.6406,571.4375 175.875,571.7031 Q176.1094,571.9531 176.1094,572.5625 L176.1094,574.0156 Q176.1094,574.625 175.875,574.8906 Q175.6406,575.1563 175.2656,575.1563 Q174.9219,575.1563 174.7188,574.9531 Q174.5156,574.7656 174.4063,574.25 Q174.3594,573.8906 174.1719,573.7031 Q173.8438,573.3281 173.2344,573.1094 Q172.625,572.8906 172,572.8906 Q171.2344,572.8906 170.5938,573.2188 Q169.9688,573.5469 169.4688,574.2969 Q168.9844,575.0469 168.9844,576.0781 L168.9844,577.1719 Q168.9844,578.4063 169.875,579.2344 Q170.7656,580.0469 172.3594,580.0469 Q173.2969,580.0469 173.9531,579.7969 Q174.3438,579.6406 174.7656,579.2031 Q175.0313,578.9375 175.1719,578.8594 Q175.3281,578.7813 175.5313,578.7813 Q175.8594,578.7813 176.1094,579.0469 Q176.375,579.2969 176.375,579.6406 Q176.375,579.9844 176.0313,580.3906 Q175.5313,580.9688 174.7344,581.2969 Q173.6563,581.75 172.3594,581.75 Q170.8438,581.75 169.6406,581.125 Q168.6563,580.625 167.9688,579.5625 Q167.2813,578.4844 167.2813,577.2031 L167.2813,576.0469 Q167.2813,574.7188 167.8906,573.5781 Q168.5156,572.4219 169.6094,571.8125 Q170.7031,571.1875 171.9375,571.1875 Q172.6719,571.1875 173.3125,571.3594 Q173.9688,571.5156 174.5156,571.875 Z " fill="#000000"/><text fill="#000000" font-family="sans-serif" font-size="14" lengthAdjust="spacing" textLength="38" x="192.25" y="581.7285">Board</text><line style="stroke:#181818;stroke-width:0.5;" x1="8" x2="382" y1="592" y2="592"/><rect fill="none" height="6" style="stroke:#C82930;stroke-width:1.0;" width="6" x="15" y="600"/><text fill="#000000" font-family="sans-serif" font-size="14" lengthAdjust="spacing" textLength="50" x="27" y="610.5332">tokens[]</text><line style="stroke:#181818;stroke-width:0.5;" x1="8" x2="382" y1="617.6094" y2="617.6094"/><ellipse cx="18" cy="628.6094" fill="#84BE84" rx="3" ry="3" style="stroke:#038048;stroke-width:1.0;"/><text fill="#000000" font-family="sans-serif" font-size="14" lengthAdjust="spacing" textLength="189" x="27" y="636.1426">reset(maxRows, maxColumns)</text><ellipse cx="18" cy="646.2188" fill="#84BE84" rx="3" ry="3" style="stroke:#038048;stroke-width:1.0;"/><text fill="#000000" font-family="sans-serif" font-size="14" lengthAdjust="spacing" textLength="147" x="27" y="653.752">isFilledColumn(column)</text><ellipse cx="18" cy="663.8281" fill="#84BE84" rx="3" ry="3" style="stroke:#038048;stroke-width:1.0;"/><text fill="#000000" font-family="sans-serif" font-size="14" lengthAdjust="spacing" textLength="154" x="27" y="671.3613">putToken(column, color)</text><ellipse cx="18" cy="681.4375" fill="#84BE84" rx="3" ry="3" style="stroke:#038048;stroke-width:1.0;"/><text fill="#000000" font-family="sans-serif" font-size="14" lengthAdjust="spacing" textLength="250" x="27" y="688.9707">getFirstEmptyRowFromColumn(column)</text><ellipse cx="18" cy="699.0469" fill="#84BE84" rx="3" ry="3" style="stroke:#038048;stroke-width:1.0;"/><text fill="#000000" font-family="sans-serif" font-size="14" lengthAdjust="spacing" textLength="83" x="27" y="706.5801">isEndGame()</text><ellipse cx="18" cy="716.6563" fill="#84BE84" rx="3" ry="3" style="stroke:#038048;stroke-width:1.0;"/><text fill="#000000" font-family="sans-serif" font-size="14" lengthAdjust="spacing" textLength="54" x="27" y="724.1895">isFilled()</text><ellipse cx="18" cy="734.2656" fill="#84BE84" rx="3" ry="3" style="stroke:#038048;stroke-width:1.0;"/><text fill="#000000" font-family="sans-serif" font-size="14" lengthAdjust="spacing" textLength="113" x="27" y="741.7988">isOnLineTokens()</text><rect fill="#F24D5C" height="6" style="stroke:#C82930;stroke-width:1.0;" width="6" x="15" y="748.875"/><text fill="#000000" font-family="sans-serif" font-size="14" lengthAdjust="spacing" textLength="303" x="27" y="759.4082">isInLineHorizontal(color, inlineNumberOfTokens)</text><rect fill="#F24D5C" height="6" style="stroke:#C82930;stroke-width:1.0;" width="6" x="15" y="766.4844"/><text fill="#000000" font-family="sans-serif" font-size="14" lengthAdjust="spacing" textLength="288" x="27" y="777.0176">isInLineVertical(color, inlineNumberOfTokens)</text><rect fill="#F24D5C" height="6" style="stroke:#C82930;stroke-width:1.0;" width="6" x="15" y="784.0938"/><text fill="#000000" font-family="sans-serif" font-size="14" lengthAdjust="spacing" textLength="297" x="27" y="794.627">isInLineDiagonal(color, inlineNumberOfTokens)</text><rect fill="#F24D5C" height="6" style="stroke:#C82930;stroke-width:1.0;" width="6" x="15" y="801.7031"/><text fill="#000000" font-family="sans-serif" font-size="14" lengthAdjust="spacing" textLength="350" x="27" y="812.2363">isInLineReverseDiagonal(color, inlineNumberOfTokens)</text><rect fill="#F24D5C" height="6" style="stroke:#C82930;stroke-width:1.0;" width="6" x="15" y="819.3125"/><text fill="#000000" font-family="sans-serif" font-size="14" lengthAdjust="spacing" textLength="237" x="27" y="829.8457">isColorOnPosition(row, column, color)</text><ellipse cx="18" cy="839.9219" fill="#84BE84" rx="3" ry="3" style="stroke:#038048;stroke-width:1.0;"/><text fill="#000000" font-family="sans-serif" font-size="14" lengthAdjust="spacing" textLength="77" x="27" y="847.4551">getTokens()</text></g><!--MD5=[9b237e88d697a058bd530d6510c96c00]
class BoardView--><g id="elem_BoardView"><rect codeLine="27" fill="#F1F1F1" height="153.6563" id="BoardView" rx="2.5" ry="2.5" style="stroke:#181818;stroke-width:0.5;" width="129" x="280.5" y="168"/><ellipse cx="309" cy="184" fill="#ADD1B2" rx="11" ry="11" style="stroke:#181818;stroke-width:1.0;"/><path d="M311.7656,179.875 Q311.9219,179.6563 312.1094,179.5469 Q312.2969,179.4375 312.5156,179.4375 Q312.8906,179.4375 313.125,179.7031 Q313.3594,179.9531 313.3594,180.5625 L313.3594,182.0156 Q313.3594,182.625 313.125,182.8906 Q312.8906,183.1563 312.5156,183.1563 Q312.1719,183.1563 311.9688,182.9531 Q311.7656,182.7656 311.6563,182.25 Q311.6094,181.8906 311.4219,181.7031 Q311.0938,181.3281 310.4844,181.1094 Q309.875,180.8906 309.25,180.8906 Q308.4844,180.8906 307.8438,181.2188 Q307.2188,181.5469 306.7188,182.2969 Q306.2344,183.0469 306.2344,184.0781 L306.2344,185.1719 Q306.2344,186.4063 307.125,187.2344 Q308.0156,188.0469 309.6094,188.0469 Q310.5469,188.0469 311.2031,187.7969 Q311.5938,187.6406 312.0156,187.2031 Q312.2813,186.9375 312.4219,186.8594 Q312.5781,186.7813 312.7813,186.7813 Q313.1094,186.7813 313.3594,187.0469 Q313.625,187.2969 313.625,187.6406 Q313.625,187.9844 313.2813,188.3906 Q312.7813,188.9688 311.9844,189.2969 Q310.9063,189.75 309.6094,189.75 Q308.0938,189.75 306.8906,189.125 Q305.9063,188.625 305.2188,187.5625 Q304.5313,186.4844 304.5313,185.2031 L304.5313,184.0469 Q304.5313,182.7188 305.1406,181.5781 Q305.7656,180.4219 306.8594,179.8125 Q307.9531,179.1875 309.1875,179.1875 Q309.9219,179.1875 310.5625,179.3594 Q311.2188,179.5156 311.7656,179.875 Z " fill="#000000"/><text fill="#000000" font-family="sans-serif" font-size="14" lengthAdjust="spacing" textLength="67" x="326" y="189.7285">BoardView</text><line style="stroke:#181818;stroke-width:0.5;" x1="281.5" x2="408.5" y1="200" y2="200"/><rect fill="none" height="6" style="stroke:#C82930;stroke-width:1.0;" width="6" x="288.5" y="208"/><text fill="#000000" font-family="sans-serif" font-size="14" lengthAdjust="spacing" textLength="79" x="300.5" y="218.5332">MAX_ROWS</text><rect fill="none" height="6" style="stroke:#C82930;stroke-width:1.0;" width="6" x="288.5" y="225.6094"/><text fill="#000000" font-family="sans-serif" font-size="14" lengthAdjust="spacing" textLength="103" x="300.5" y="236.1426">MAX_COLUMNS</text><rect fill="none" height="6" style="stroke:#C82930;stroke-width:1.0;" width="6" x="288.5" y="243.2188"/><text fill="#000000" font-family="sans-serif" font-size="14" lengthAdjust="spacing" textLength="38" x="300.5" y="253.752">Board</text><rect fill="none" height="6" style="stroke:#C82930;stroke-width:1.0;" width="6" x="288.5" y="260.8281"/><text fill="#000000" font-family="sans-serif" font-size="14" lengthAdjust="spacing" textLength="59" x="300.5" y="271.3613">TurnView</text><line style="stroke:#181818;stroke-width:0.5;" x1="281.5" x2="408.5" y1="278.4375" y2="278.4375"/><ellipse cx="291.5" cy="289.4375" fill="#84BE84" rx="3" ry="3" style="stroke:#038048;stroke-width:1.0;"/><text fill="#000000" font-family="sans-serif" font-size="14" lengthAdjust="spacing" textLength="28" x="300.5" y="296.9707">init()</text><ellipse cx="291.5" cy="307.0469" fill="#84BE84" rx="3" ry="3" style="stroke:#038048;stroke-width:1.0;"/><text fill="#000000" font-family="sans-serif" font-size="14" lengthAdjust="spacing" textLength="42" x="300.5" y="314.5801">show()</text></g><!--MD5=[8c7d7abc12e214c3cc12c9ab70edee11]
class Coordinate--><g id="elem_Coordinate"><rect codeLine="35" fill="#F1F1F1" height="118.4375" id="Coordinate" rx="2.5" ry="2.5" style="stroke:#181818;stroke-width:0.5;" width="104" x="215" y="1058"/><ellipse cx="230.9" cy="1074" fill="#ADD1B2" rx="11" ry="11" style="stroke:#181818;stroke-width:1.0;"/><path d="M233.6656,1069.875 Q233.8219,1069.6563 234.0094,1069.5469 Q234.1969,1069.4375 234.4156,1069.4375 Q234.7906,1069.4375 235.025,1069.7031 Q235.2594,1069.9531 235.2594,1070.5625 L235.2594,1072.0156 Q235.2594,1072.625 235.025,1072.8906 Q234.7906,1073.1563 234.4156,1073.1563 Q234.0719,1073.1563 233.8688,1072.9531 Q233.6656,1072.7656 233.5563,1072.25 Q233.5094,1071.8906 233.3219,1071.7031 Q232.9938,1071.3281 232.3844,1071.1094 Q231.775,1070.8906 231.15,1070.8906 Q230.3844,1070.8906 229.7438,1071.2188 Q229.1188,1071.5469 228.6188,1072.2969 Q228.1344,1073.0469 228.1344,1074.0781 L228.1344,1075.1719 Q228.1344,1076.4063 229.025,1077.2344 Q229.9156,1078.0469 231.5094,1078.0469 Q232.4469,1078.0469 233.1031,1077.7969 Q233.4938,1077.6406 233.9156,1077.2031 Q234.1813,1076.9375 234.3219,1076.8594 Q234.4781,1076.7813 234.6813,1076.7813 Q235.0094,1076.7813 235.2594,1077.0469 Q235.525,1077.2969 235.525,1077.6406 Q235.525,1077.9844 235.1813,1078.3906 Q234.6813,1078.9688 233.8844,1079.2969 Q232.8063,1079.75 231.5094,1079.75 Q229.9938,1079.75 228.7906,1079.125 Q227.8063,1078.625 227.1188,1077.5625 Q226.4313,1076.4844 226.4313,1075.2031 L226.4313,1074.0469 Q226.4313,1072.7188 227.0406,1071.5781 Q227.6656,1070.4219 228.7594,1069.8125 Q229.8531,1069.1875 231.0875,1069.1875 Q231.8219,1069.1875 232.4625,1069.3594 Q233.1188,1069.5156 233.6656,1069.875 Z " fill="#000000"/><text fill="#000000" font-family="sans-serif" font-size="14" lengthAdjust="spacing" textLength="70" x="245.1" y="1079.7285">Coordinate</text><line style="stroke:#181818;stroke-width:0.5;" x1="216" x2="318" y1="1090" y2="1090"/><rect fill="none" height="6" style="stroke:#C82930;stroke-width:1.0;" width="6" x="223" y="1098"/><text fill="#000000" font-family="sans-serif" font-size="14" lengthAdjust="spacing" textLength="22" x="235" y="1108.5332">row</text><rect fill="none" height="6" style="stroke:#C82930;stroke-width:1.0;" width="6" x="223" y="1115.6094"/><text fill="#000000" font-family="sans-serif" font-size="14" lengthAdjust="spacing" textLength="45" x="235" y="1126.1426">column</text><line style="stroke:#181818;stroke-width:0.5;" x1="216" x2="318" y1="1133.2188" y2="1133.2188"/><ellipse cx="226" cy="1144.2188" fill="#84BE84" rx="3" ry="3" style="stroke:#038048;stroke-width:1.0;"/><text fill="#000000" font-family="sans-serif" font-size="14" lengthAdjust="spacing" textLength="57" x="235" y="1151.752">getRow()</text><ellipse cx="226" cy="1161.8281" fill="#84BE84" rx="3" ry="3" style="stroke:#038048;stroke-width:1.0;"/><text fill="#000000" font-family="sans-serif" font-size="14" lengthAdjust="spacing" textLength="78" x="235" y="1169.3613">getColumn()</text></g><!--MD5=[d8c8cfd5ca149094f5b67f9f607a5ec7]
class Token--><g id="elem_Token"><rect codeLine="41" fill="#F1F1F1" height="83.2188" id="Token" rx="2.5" ry="2.5" style="stroke:#181818;stroke-width:0.5;" width="90" x="284" y="915"/><ellipse cx="307.1" cy="931" fill="#ADD1B2" rx="11" ry="11" style="stroke:#181818;stroke-width:1.0;"/><path d="M309.8656,926.875 Q310.0219,926.6563 310.2094,926.5469 Q310.3969,926.4375 310.6156,926.4375 Q310.9906,926.4375 311.225,926.7031 Q311.4594,926.9531 311.4594,927.5625 L311.4594,929.0156 Q311.4594,929.625 311.225,929.8906 Q310.9906,930.1563 310.6156,930.1563 Q310.2719,930.1563 310.0688,929.9531 Q309.8656,929.7656 309.7563,929.25 Q309.7094,928.8906 309.5219,928.7031 Q309.1938,928.3281 308.5844,928.1094 Q307.975,927.8906 307.35,927.8906 Q306.5844,927.8906 305.9438,928.2188 Q305.3188,928.5469 304.8188,929.2969 Q304.3344,930.0469 304.3344,931.0781 L304.3344,932.1719 Q304.3344,933.4063 305.225,934.2344 Q306.1156,935.0469 307.7094,935.0469 Q308.6469,935.0469 309.3031,934.7969 Q309.6938,934.6406 310.1156,934.2031 Q310.3813,933.9375 310.5219,933.8594 Q310.6781,933.7813 310.8813,933.7813 Q311.2094,933.7813 311.4594,934.0469 Q311.725,934.2969 311.725,934.6406 Q311.725,934.9844 311.3813,935.3906 Q310.8813,935.9688 310.0844,936.2969 Q309.0063,936.75 307.7094,936.75 Q306.1938,936.75 304.9906,936.125 Q304.0063,935.625 303.3188,934.5625 Q302.6313,933.4844 302.6313,932.2031 L302.6313,931.0469 Q302.6313,929.7188 303.2406,928.5781 Q303.8656,927.4219 304.9594,926.8125 Q306.0531,926.1875 307.2875,926.1875 Q308.0219,926.1875 308.6625,926.3594 Q309.3188,926.5156 309.8656,926.875 Z " fill="#000000"/><text fill="#000000" font-family="sans-serif" font-size="14" lengthAdjust="spacing" textLength="40" x="322.9" y="936.7285">Token</text><line style="stroke:#181818;stroke-width:0.5;" x1="285" x2="373" y1="947" y2="947"/><rect fill="none" height="6" style="stroke:#C82930;stroke-width:1.0;" width="6" x="292" y="955"/><text fill="#000000" font-family="sans-serif" font-size="14" lengthAdjust="spacing" textLength="34" x="304" y="965.5332">Color</text><line style="stroke:#181818;stroke-width:0.5;" x1="285" x2="373" y1="972.6094" y2="972.6094"/><ellipse cx="295" cy="983.6094" fill="#84BE84" rx="3" ry="3" style="stroke:#038048;stroke-width:1.0;"/><text fill="#000000" font-family="sans-serif" font-size="14" lengthAdjust="spacing" textLength="64" x="304" y="991.1426">getColor()</text></g><!--MD5=[0f1adae5684a082996b24e2018afd4c9]
class TurnView--><g id="elem_TurnView"><rect codeLine="45" fill="#F1F1F1" height="118.4375" id="TurnView" rx="2.5" ry="2.5" style="stroke:#181818;stroke-width:0.5;" width="184" x="341" y="382"/><ellipse cx="399.25" cy="398" fill="#ADD1B2" rx="11" ry="11" style="stroke:#181818;stroke-width:1.0;"/><path d="M402.0156,393.875 Q402.1719,393.6563 402.3594,393.5469 Q402.5469,393.4375 402.7656,393.4375 Q403.1406,393.4375 403.375,393.7031 Q403.6094,393.9531 403.6094,394.5625 L403.6094,396.0156 Q403.6094,396.625 403.375,396.8906 Q403.1406,397.1563 402.7656,397.1563 Q402.4219,397.1563 402.2188,396.9531 Q402.0156,396.7656 401.9063,396.25 Q401.8594,395.8906 401.6719,395.7031 Q401.3438,395.3281 400.7344,395.1094 Q400.125,394.8906 399.5,394.8906 Q398.7344,394.8906 398.0938,395.2188 Q397.4688,395.5469 396.9688,396.2969 Q396.4844,397.0469 396.4844,398.0781 L396.4844,399.1719 Q396.4844,400.4063 397.375,401.2344 Q398.2656,402.0469 399.8594,402.0469 Q400.7969,402.0469 401.4531,401.7969 Q401.8438,401.6406 402.2656,401.2031 Q402.5313,400.9375 402.6719,400.8594 Q402.8281,400.7813 403.0313,400.7813 Q403.3594,400.7813 403.6094,401.0469 Q403.875,401.2969 403.875,401.6406 Q403.875,401.9844 403.5313,402.3906 Q403.0313,402.9688 402.2344,403.2969 Q401.1563,403.75 399.8594,403.75 Q398.3438,403.75 397.1406,403.125 Q396.1563,402.625 395.4688,401.5625 Q394.7813,400.4844 394.7813,399.2031 L394.7813,398.0469 Q394.7813,396.7188 395.3906,395.5781 Q396.0156,394.4219 397.1094,393.8125 Q398.2031,393.1875 399.4375,393.1875 Q400.1719,393.1875 400.8125,393.3594 Q401.4688,393.5156 402.0156,393.875 Z " fill="#000000"/><text fill="#000000" font-family="sans-serif" font-size="14" lengthAdjust="spacing" textLength="59" x="419.75" y="403.7285">TurnView</text><line style="stroke:#181818;stroke-width:0.5;" x1="342" x2="524" y1="414" y2="414"/><rect fill="none" height="6" style="stroke:#C82930;stroke-width:1.0;" width="6" x="349" y="422"/><text fill="#000000" font-family="sans-serif" font-size="14" lengthAdjust="spacing" textLength="25" x="361" y="432.5332">turn</text><line style="stroke:#181818;stroke-width:0.5;" x1="342" x2="524" y1="439.6094" y2="439.6094"/><ellipse cx="352" cy="450.6094" fill="#84BE84" rx="3" ry="3" style="stroke:#038048;stroke-width:1.0;"/><text fill="#000000" font-family="sans-serif" font-size="14" lengthAdjust="spacing" textLength="158" x="361" y="458.1426">getColumn(maxColumns)</text><ellipse cx="352" cy="468.2188" fill="#84BE84" rx="3" ry="3" style="stroke:#038048;stroke-width:1.0;"/><text fill="#000000" font-family="sans-serif" font-size="14" lengthAdjust="spacing" textLength="66" x="361" y="475.752">nextTurn()</text><ellipse cx="352" cy="485.8281" fill="#84BE84" rx="3" ry="3" style="stroke:#038048;stroke-width:1.0;"/><text fill="#000000" font-family="sans-serif" font-size="14" lengthAdjust="spacing" textLength="64" x="361" y="493.3613">getColor()</text></g><!--MD5=[dd91eae41778c45e12552e5329e240e8]
class Turn--><g id="elem_Turn"><rect codeLine="52" fill="#F1F1F1" height="100.8281" id="Turn" rx="2.5" ry="2.5" style="stroke:#181818;stroke-width:0.5;" width="92" x="418" y="657"/><ellipse cx="446.5" cy="673" fill="#ADD1B2" rx="11" ry="11" style="stroke:#181818;stroke-width:1.0;"/><path d="M449.2656,668.875 Q449.4219,668.6563 449.6094,668.5469 Q449.7969,668.4375 450.0156,668.4375 Q450.3906,668.4375 450.625,668.7031 Q450.8594,668.9531 450.8594,669.5625 L450.8594,671.0156 Q450.8594,671.625 450.625,671.8906 Q450.3906,672.1563 450.0156,672.1563 Q449.6719,672.1563 449.4688,671.9531 Q449.2656,671.7656 449.1563,671.25 Q449.1094,670.8906 448.9219,670.7031 Q448.5938,670.3281 447.9844,670.1094 Q447.375,669.8906 446.75,669.8906 Q445.9844,669.8906 445.3438,670.2188 Q444.7188,670.5469 444.2188,671.2969 Q443.7344,672.0469 443.7344,673.0781 L443.7344,674.1719 Q443.7344,675.4063 444.625,676.2344 Q445.5156,677.0469 447.1094,677.0469 Q448.0469,677.0469 448.7031,676.7969 Q449.0938,676.6406 449.5156,676.2031 Q449.7813,675.9375 449.9219,675.8594 Q450.0781,675.7813 450.2813,675.7813 Q450.6094,675.7813 450.8594,676.0469 Q451.125,676.2969 451.125,676.6406 Q451.125,676.9844 450.7813,677.3906 Q450.2813,677.9688 449.4844,678.2969 Q448.4063,678.75 447.1094,678.75 Q445.5938,678.75 444.3906,678.125 Q443.4063,677.625 442.7188,676.5625 Q442.0313,675.4844 442.0313,674.2031 L442.0313,673.0469 Q442.0313,671.7188 442.6406,670.5781 Q443.2656,669.4219 444.3594,668.8125 Q445.4531,668.1875 446.6875,668.1875 Q447.4219,668.1875 448.0625,668.3594 Q448.7188,668.5156 449.2656,668.875 Z " fill="#000000"/><text fill="#000000" font-family="sans-serif" font-size="14" lengthAdjust="spacing" textLength="30" x="463.5" y="678.7285">Turn</text><line style="stroke:#181818;stroke-width:0.5;" x1="419" x2="509" y1="689" y2="689"/><rect fill="none" height="6" style="stroke:#C82930;stroke-width:1.0;" width="6" x="426" y="697"/><text fill="#000000" font-family="sans-serif" font-size="14" lengthAdjust="spacing" textLength="31" x="438" y="707.5332">color</text><line style="stroke:#181818;stroke-width:0.5;" x1="419" x2="509" y1="714.6094" y2="714.6094"/><ellipse cx="429" cy="725.6094" fill="#84BE84" rx="3" ry="3" style="stroke:#038048;stroke-width:1.0;"/><text fill="#000000" font-family="sans-serif" font-size="14" lengthAdjust="spacing" textLength="64" x="438" y="733.1426">getColor()</text><ellipse cx="429" cy="743.2188" fill="#84BE84" rx="3" ry="3" style="stroke:#038048;stroke-width:1.0;"/><text fill="#000000" font-family="sans-serif" font-size="14" lengthAdjust="spacing" textLength="66" x="438" y="750.752">nextTurn()</text></g><!--MD5=[c4df9b95f6f4e4e1c32bb5a44abd175a]
class Colors--><g id="elem_Colors"><rect codeLine="58" fill="#F1F1F1" height="83.2188" id="Colors" rx="2.5" ry="2.5" style="stroke:#181818;stroke-width:0.5;" width="73" x="354.5" y="1075.5"/><ellipse cx="369.5" cy="1091.5" fill="#EB937F" rx="11" ry="11" style="stroke:#181818;stroke-width:1.0;"/><path d="M368.3594,1092.2969 L368.3594,1094.7969 L372.6875,1094.7969 L372.6875,1093.875 Q372.6875,1093.2656 372.9219,1093 Q373.1719,1092.7344 373.5469,1092.7344 Q373.9219,1092.7344 374.1563,1093 Q374.3906,1093.2656 374.3906,1093.875 L374.3906,1096.5 L366.3906,1096.5 Q365.7656,1096.5 365.5,1096.2656 Q365.25,1096.0313 365.25,1095.6406 Q365.25,1095.2656 365.5156,1095.0313 Q365.7813,1094.7969 366.3906,1094.7969 L366.6563,1094.7969 L366.6563,1088.1406 L366.3906,1088.1406 Q365.7656,1088.1406 365.5,1087.9063 Q365.25,1087.6719 365.25,1087.2813 Q365.25,1086.9063 365.5,1086.6719 Q365.7656,1086.4375 366.3906,1086.4375 L374.0156,1086.4375 L374.0156,1089.0313 Q374.0156,1089.6406 373.7813,1089.9063 Q373.5625,1090.1563 373.1719,1090.1563 Q372.7969,1090.1563 372.5625,1089.9063 Q372.3281,1089.6406 372.3281,1089.0313 L372.3281,1088.1406 L368.3594,1088.1406 L368.3594,1090.5938 L369.8438,1090.5938 Q369.8438,1089.9375 369.9688,1089.75 Q370.2344,1089.3438 370.7031,1089.3438 Q371.0781,1089.3438 371.3125,1089.6094 Q371.5469,1089.8594 371.5469,1090.4688 L371.5469,1092.4375 Q371.5469,1092.9844 371.4219,1093.1719 Q371.1563,1093.5625 370.7031,1093.5625 Q370.2344,1093.5625 369.9688,1093.1563 Q369.8438,1092.9688 369.8438,1092.2969 L368.3594,1092.2969 Z " fill="#000000"/><text fill="#000000" font-family="sans-serif" font-size="14" lengthAdjust="spacing" textLength="41" x="383.5" y="1097.2285">Colors</text><line style="stroke:#181818;stroke-width:0.5;" x1="355.5" x2="426.5" y1="1107.5" y2="1107.5"/><text fill="#000000" font-family="sans-serif" font-size="14" lengthAdjust="spacing" textLength="26" x="360.5" y="1126.0332">Red</text><text fill="#000000" font-family="sans-serif" font-size="14" lengthAdjust="spacing" textLength="40" x="360.5" y="1143.6426">Yellow</text><line style="stroke:#181818;stroke-width:0.5;" x1="355.5" x2="426.5" y1="1150.7188" y2="1150.7188"/></g><!--MD5=[1da39882317deee69888dc65a2b454be]
link Connect4 to BoardView--><g id="link_Connect4_BoardView"><path codeLine="63" d="M282.05,108.21 C289.89,125.13 298.87,144.5 307.55,163.21 " fill="none" id="Connect4-to-BoardView" style="stroke:#181818;stroke-width:1.0;stroke-dasharray:7.0,7.0;"/><polygon fill="#181818" points="309.74,167.95,309.5944,158.1022,307.642,163.4115,302.3328,161.459,309.74,167.95" style="stroke:#181818;stroke-width:1.0;"/></g><!--MD5=[bd62d02ddcc7cab85c8af840f89aa653]
link Connect4 to YesNoDialogView--><g id="link_Connect4_YesNoDialogView"><path codeLine="64" d="M236.22,108.21 C223.34,136.31 207.36,171.19 194.82,198.56 " fill="none" id="Connect4-to-YesNoDialogView" style="stroke:#181818;stroke-width:1.0;stroke-dasharray:7.0,7.0;"/><polygon fill="#181818" points="192.68,203.23,200.0626,196.711,194.7608,198.6836,192.7883,193.3817,192.68,203.23" style="stroke:#181818;stroke-width:1.0;"/></g><!--MD5=[87ac28f7ff846e55e34c2c863c6ff220]
link BoardView to Board--><g id="link_BoardView_Board"><path codeLine="66" d="M316.5105,333.449 C316.5105,333.449 270.19,475.67 247,546.86 " fill="none" id="BoardView-Board" style="stroke:#181818;stroke-width:1.0;"/><polygon fill="#181818" points="242.86,559.57,249.4526,552.2531,244.4098,554.8162,241.8466,549.7734,242.86,559.57" style="stroke:#181818;stroke-width:1.0;"/><line style="stroke:#181818;stroke-width:1.0;" x1="244.4098" x2="246.885" y1="554.8162" y2="547.21"/><polygon fill="#181818" points="320.23,322.04,314.5673,326.5047,316.5105,333.449,322.1733,328.9843,320.23,322.04" style="stroke:#181818;stroke-width:1.0;"/></g><!--MD5=[c7c3dfe1a204cc183b3ebd4fea4524e8]
link BoardView to TurnView--><g id="link_BoardView_TurnView"><path codeLine="67" d="M379.53,322.12 C387.76,340.26 396.45,359.43 404.38,376.92 " fill="none" id="BoardView-to-TurnView" style="stroke:#181818;stroke-width:1.0;stroke-dasharray:7.0,7.0;"/><polygon fill="#181818" points="406.6,381.8,406.5172,371.9515,404.531,377.2482,399.2343,375.2619,406.6,381.8" style="stroke:#181818;stroke-width:1.0;"/></g><!--MD5=[b90c15517c5612720f6d3b5735a27f0e]
link TurnView to Turn--><g id="link_TurnView_Turn"><path codeLine="68" d="M441.1975,511.9683 C441.1975,511.9683 452.02,604.28 456.62,643.5 " fill="none" id="TurnView-Turn" style="stroke:#181818;stroke-width:1.0;"/><polygon fill="#181818" points="458.15,656.6,461.0747,647.1954,457.5677,651.634,453.1291,648.1271,458.15,656.6" style="stroke:#181818;stroke-width:1.0;"/><line style="stroke:#181818;stroke-width:1.0;" x1="457.5677" x2="456.64" y1="651.634" y2="643.69"/><polygon fill="none" points="439.8,500.05,436.526,506.475,441.1975,511.9683,444.4715,505.5433,439.8,500.05" style="stroke:#181818;stroke-width:1.0;"/></g><!--MD5=[23c004dc6349f1678ef711c3be24147e]
link Board to Token--><g id="link_Board_Token"><path codeLine="70" d="M280.2222,865.5878 C280.2222,865.5878 294.48,891.88 300.53,903.03 " fill="none" id="Board-Token" style="stroke:#181818;stroke-width:1.0;"/><polygon fill="#181818" points="306.84,914.64,306.0643,904.8217,304.4558,910.2451,299.0324,908.6365,306.84,914.64" style="stroke:#181818;stroke-width:1.0;"/><line style="stroke:#181818;stroke-width:1.0;" x1="304.4558" x2="300.64" y1="910.2451" y2="903.22"/><polygon fill="none" points="274.5,855.04,273.8452,862.2213,280.2222,865.5878,280.877,858.4065,274.5,855.04" style="stroke:#181818;stroke-width:1.0;"/></g><!--MD5=[131fd55d1ea8d452206c40f8bf9c1560]
link Turn to Token--><g id="link_Turn_Token"><path codeLine="72" d="M445.7,758.27 C434.29,787.23 418.49,824.02 401,855 C390.3,873.95 376.78,893.66 364.35,910.55 " fill="none" id="Turn-to-Token" style="stroke:#181818;stroke-width:1.0;stroke-dasharray:7.0,7.0;"/><polygon fill="#181818" points="361.22,914.78,369.8007,909.9457,364.204,910.768,363.3816,905.1713,361.22,914.78" style="stroke:#181818;stroke-width:1.0;"/></g><!--MD5=[d6208de9411c4b1d5190de2c034c83cb]
link Token to Colors--><g id="link_Token_Colors"><path codeLine="75" d="M349.3378,1009.4969 C349.3378,1009.4969 363.65,1046.07 370.22,1062.87 " fill="none" id="Token-Colors" style="stroke:#181818;stroke-width:1.0;"/><polygon fill="#181818" points="375.09,1075.32,375.5437,1065.4816,373.2719,1070.6622,368.0913,1068.3905,375.09,1075.32" style="stroke:#181818;stroke-width:1.0;"/><line style="stroke:#181818;stroke-width:1.0;" x1="373.2719" x2="370.35" y1="1070.6622" y2="1063.215"/><polygon fill="#181818" points="344.97,998.32,343.4283,1005.3644,349.3378,1009.4969,350.8795,1002.4525,344.97,998.32" style="stroke:#181818;stroke-width:1.0;"/></g><!--MD5=[f2f17acc82dd155756e97465362881f7]
link Token to Coordinate--><g id="link_Token_Coordinate"><path codeLine="76" d="M313.03,998.32 C306.48,1015.06 298.75,1034.82 291.52,1053.32 " fill="none" id="Token-to-Coordinate" style="stroke:#181818;stroke-width:1.0;stroke-dasharray:7.0,7.0;"/><polygon fill="#181818" points="289.69,1058,296.7026,1051.0845,291.5174,1053.3459,289.256,1048.1607,289.69,1058" style="stroke:#181818;stroke-width:1.0;"/></g><!--MD5=[7844cb411868ac9f7086b24fb1100756]
@startuml

class Connect4{
    - boardView
    - yesNoDialog
    + playGame()
}
class YesNoDialogView{
    + read(message)
    + isAffirmative()
}
class Board{
    - tokens[]
    + reset(maxRows, maxColumns)
    + isFilledColumn(column)
    + putToken(column, color)
    + getFirstEmptyRowFromColumn(column)
    + isEndGame()
    + isFilled()
    + isOnLineTokens()
    - isInLineHorizontal(color, inlineNumberOfTokens)
    - isInLineVertical(color, inlineNumberOfTokens)
    - isInLineDiagonal(color, inlineNumberOfTokens)
    - isInLineReverseDiagonal(color, inlineNumberOfTokens)
    - isColorOnPosition(row, column, color)
    + getTokens()
}
class BoardView{
    - MAX_ROWS
    - MAX_COLUMNS
    - Board
    - TurnView
    + init()
    + show()
}
class Coordinate{
    - row
    - column
    + getRow()
    + getColumn()
}
class Token{
    - Color
    + getColor()
}
class TurnView{
    - turn
    + getColumn(maxColumns)
    + nextTurn()
    + getColor()
}

class Turn{
    - color
    + getColor()
    + nextTurn()
}

enum Colors{
Red
Yellow
}

Connect4 ..> BoardView
Connect4 ..> YesNoDialogView

BoardView *- -> Board
BoardView ..> TurnView
TurnView o- -> Turn

Board o- -> Token

Turn ..> Token


Token *- -> Colors
Token ..> Coordinate
@enduml

PlantUML version 1.2022.5(Sat Apr 30 12:55:52 CEST 2022)
(GPL source distribution)
Java Runtime: OpenJDK Runtime Environment
JVM: OpenJDK 64-Bit Server VM
Default Encoding: UTF-8
Language: es
Country: ES
--></g></svg>