<?xml version="1.0" encoding="UTF-8" standalone="no"?><svg xmlns="http://www.w3.org/2000/svg" xmlns:xlink="http://www.w3.org/1999/xlink" contentStyleType="text/css" height="1271px" preserveAspectRatio="none" style="width:493px;height:1271px;background:#FFFFFF;" version="1.1" viewBox="0 0 493 1271" width="493px" zoomAndPan="magnify"><defs/><g><!--MD5=[c8948ff3b85f2fe890b517bc42f92cc2]
class connect4--><g id="elem_connect4"><rect codeLine="2" fill="#F1F1F1" height="100.8281" id="connect4" rx="2.5" ry="2.5" style="stroke:#181818;stroke-width:0.5;" width="105" x="171.5" y="7"/><ellipse cx="193.25" cy="23" fill="#ADD1B2" rx="11" ry="11" style="stroke:#181818;stroke-width:1.0;"/><path d="M196.0156,18.875 Q196.1719,18.6563 196.3594,18.5469 Q196.5469,18.4375 196.7656,18.4375 Q197.1406,18.4375 197.375,18.7031 Q197.6094,18.9531 197.6094,19.5625 L197.6094,21.0156 Q197.6094,21.625 197.375,21.8906 Q197.1406,22.1563 196.7656,22.1563 Q196.4219,22.1563 196.2188,21.9531 Q196.0156,21.7656 195.9063,21.25 Q195.8594,20.8906 195.6719,20.7031 Q195.3438,20.3281 194.7344,20.1094 Q194.125,19.8906 193.5,19.8906 Q192.7344,19.8906 192.0938,20.2188 Q191.4688,20.5469 190.9688,21.2969 Q190.4844,22.0469 190.4844,23.0781 L190.4844,24.1719 Q190.4844,25.4063 191.375,26.2344 Q192.2656,27.0469 193.8594,27.0469 Q194.7969,27.0469 195.4531,26.7969 Q195.8438,26.6406 196.2656,26.2031 Q196.5313,25.9375 196.6719,25.8594 Q196.8281,25.7813 197.0313,25.7813 Q197.3594,25.7813 197.6094,26.0469 Q197.875,26.2969 197.875,26.6406 Q197.875,26.9844 197.5313,27.3906 Q197.0313,27.9688 196.2344,28.2969 Q195.1563,28.75 193.8594,28.75 Q192.3438,28.75 191.1406,28.125 Q190.1563,27.625 189.4688,26.5625 Q188.7813,25.4844 188.7813,24.2031 L188.7813,23.0469 Q188.7813,21.7188 189.3906,20.5781 Q190.0156,19.4219 191.1094,18.8125 Q192.2031,18.1875 193.4375,18.1875 Q194.1719,18.1875 194.8125,18.3594 Q195.4688,18.5156 196.0156,18.875 Z " fill="#000000"/><text fill="#000000" font-family="sans-serif" font-size="14" lengthAdjust="spacing" textLength="58" x="208.75" y="28.7285">connect4</text><line style="stroke:#181818;stroke-width:0.5;" x1="172.5" x2="275.5" y1="39" y2="39"/><rect fill="none" height="6" style="stroke:#C82930;stroke-width:1.0;" width="6" x="179.5" y="47"/><text fill="#000000" font-family="sans-serif" font-size="14" lengthAdjust="spacing" textLength="66" x="191.5" y="57.5332">boardView</text><rect fill="none" height="6" style="stroke:#C82930;stroke-width:1.0;" width="6" x="179.5" y="64.6094"/><text fill="#000000" font-family="sans-serif" font-size="14" lengthAdjust="spacing" textLength="79" x="191.5" y="75.1426">yesNoDialog</text><line style="stroke:#181818;stroke-width:0.5;" x1="172.5" x2="275.5" y1="82.2188" y2="82.2188"/><ellipse cx="182.5" cy="93.2188" fill="#84BE84" rx="3" ry="3" style="stroke:#038048;stroke-width:1.0;"/><text fill="#000000" font-family="sans-serif" font-size="14" lengthAdjust="spacing" textLength="74" x="191.5" y="100.752">playGame()</text></g><!--MD5=[9a248d0bf8eff2287ebd16a0f5c4d5d9]
class yesNoDialog--><g id="elem_yesNoDialog"><rect codeLine="7" fill="#F1F1F1" height="83.2188" id="yesNoDialog" rx="2.5" ry="2.5" style="stroke:#181818;stroke-width:0.5;" width="122" x="82" y="212"/><ellipse cx="101.95" cy="228" fill="#ADD1B2" rx="11" ry="11" style="stroke:#181818;stroke-width:1.0;"/><path d="M104.7156,223.875 Q104.8719,223.6563 105.0594,223.5469 Q105.2469,223.4375 105.4656,223.4375 Q105.8406,223.4375 106.075,223.7031 Q106.3094,223.9531 106.3094,224.5625 L106.3094,226.0156 Q106.3094,226.625 106.075,226.8906 Q105.8406,227.1563 105.4656,227.1563 Q105.1219,227.1563 104.9188,226.9531 Q104.7156,226.7656 104.6063,226.25 Q104.5594,225.8906 104.3719,225.7031 Q104.0438,225.3281 103.4344,225.1094 Q102.825,224.8906 102.2,224.8906 Q101.4344,224.8906 100.7938,225.2188 Q100.1688,225.5469 99.6688,226.2969 Q99.1844,227.0469 99.1844,228.0781 L99.1844,229.1719 Q99.1844,230.4063 100.075,231.2344 Q100.9656,232.0469 102.5594,232.0469 Q103.4969,232.0469 104.1531,231.7969 Q104.5438,231.6406 104.9656,231.2031 Q105.2313,230.9375 105.3719,230.8594 Q105.5281,230.7813 105.7313,230.7813 Q106.0594,230.7813 106.3094,231.0469 Q106.575,231.2969 106.575,231.6406 Q106.575,231.9844 106.2313,232.3906 Q105.7313,232.9688 104.9344,233.2969 Q103.8563,233.75 102.5594,233.75 Q101.0438,233.75 99.8406,233.125 Q98.8563,232.625 98.1688,231.5625 Q97.4813,230.4844 97.4813,229.2031 L97.4813,228.0469 Q97.4813,226.7188 98.0906,225.5781 Q98.7156,224.4219 99.8094,223.8125 Q100.9031,223.1875 102.1375,223.1875 Q102.8719,223.1875 103.5125,223.3594 Q104.1688,223.5156 104.7156,223.875 Z " fill="#000000"/><text fill="#000000" font-family="sans-serif" font-size="14" lengthAdjust="spacing" textLength="79" x="117.05" y="233.7285">yesNoDialog</text><line style="stroke:#181818;stroke-width:0.5;" x1="83" x2="203" y1="244" y2="244"/><line style="stroke:#181818;stroke-width:0.5;" x1="83" x2="203" y1="252" y2="252"/><ellipse cx="93" cy="263" fill="#84BE84" rx="3" ry="3" style="stroke:#038048;stroke-width:1.0;"/><text fill="#000000" font-family="sans-serif" font-size="14" lengthAdjust="spacing" textLength="96" x="102" y="270.5332">read(message)</text><ellipse cx="93" cy="280.6094" fill="#84BE84" rx="3" ry="3" style="stroke:#038048;stroke-width:1.0;"/><text fill="#000000" font-family="sans-serif" font-size="14" lengthAdjust="spacing" textLength="86" x="102" y="288.1426">isAffirmative()</text></g><!--MD5=[400f0600dc490cab46af2e6886caefc3]
class board--><g id="elem_board"><rect codeLine="11" fill="#F1F1F1" height="224.0938" id="board" rx="2.5" ry="2.5" style="stroke:#181818;stroke-width:0.5;" width="276" x="57" y="399"/><ellipse cx="172.25" cy="415" fill="#ADD1B2" rx="11" ry="11" style="stroke:#181818;stroke-width:1.0;"/><path d="M175.0156,410.875 Q175.1719,410.6563 175.3594,410.5469 Q175.5469,410.4375 175.7656,410.4375 Q176.1406,410.4375 176.375,410.7031 Q176.6094,410.9531 176.6094,411.5625 L176.6094,413.0156 Q176.6094,413.625 176.375,413.8906 Q176.1406,414.1563 175.7656,414.1563 Q175.4219,414.1563 175.2188,413.9531 Q175.0156,413.7656 174.9063,413.25 Q174.8594,412.8906 174.6719,412.7031 Q174.3438,412.3281 173.7344,412.1094 Q173.125,411.8906 172.5,411.8906 Q171.7344,411.8906 171.0938,412.2188 Q170.4688,412.5469 169.9688,413.2969 Q169.4844,414.0469 169.4844,415.0781 L169.4844,416.1719 Q169.4844,417.4063 170.375,418.2344 Q171.2656,419.0469 172.8594,419.0469 Q173.7969,419.0469 174.4531,418.7969 Q174.8438,418.6406 175.2656,418.2031 Q175.5313,417.9375 175.6719,417.8594 Q175.8281,417.7813 176.0313,417.7813 Q176.3594,417.7813 176.6094,418.0469 Q176.875,418.2969 176.875,418.6406 Q176.875,418.9844 176.5313,419.3906 Q176.0313,419.9688 175.2344,420.2969 Q174.1563,420.75 172.8594,420.75 Q171.3438,420.75 170.1406,420.125 Q169.1563,419.625 168.4688,418.5625 Q167.7813,417.4844 167.7813,416.2031 L167.7813,415.0469 Q167.7813,413.7188 168.3906,412.5781 Q169.0156,411.4219 170.1094,410.8125 Q171.2031,410.1875 172.4375,410.1875 Q173.1719,410.1875 173.8125,410.3594 Q174.4688,410.5156 175.0156,410.875 Z " fill="#000000"/><text fill="#000000" font-family="sans-serif" font-size="14" lengthAdjust="spacing" textLength="37" x="192.75" y="420.7285">board</text><line style="stroke:#181818;stroke-width:0.5;" x1="58" x2="332" y1="431" y2="431"/><rect fill="none" height="6" style="stroke:#C82930;stroke-width:1.0;" width="6" x="65" y="439"/><text fill="#000000" font-family="sans-serif" font-size="14" lengthAdjust="spacing" textLength="50" x="77" y="449.5332">tokens[]</text><rect fill="none" height="6" style="stroke:#C82930;stroke-width:1.0;" width="6" x="65" y="456.6094"/><text fill="#000000" font-family="sans-serif" font-size="14" lengthAdjust="spacing" textLength="62" x="77" y="467.1426">lastToken</text><line style="stroke:#181818;stroke-width:0.5;" x1="58" x2="332" y1="474.2188" y2="474.2188"/><ellipse cx="68" cy="485.2188" fill="#84BE84" rx="3" ry="3" style="stroke:#038048;stroke-width:1.0;"/><text fill="#000000" font-family="sans-serif" font-size="14" lengthAdjust="spacing" textLength="189" x="77" y="492.752">reset(maxRows, maxColumns)</text><ellipse cx="68" cy="502.8281" fill="#84BE84" rx="3" ry="3" style="stroke:#038048;stroke-width:1.0;"/><text fill="#000000" font-family="sans-serif" font-size="14" lengthAdjust="spacing" textLength="137" x="77" y="510.3613">isFilledColumn(token)</text><ellipse cx="68" cy="520.4375" fill="#84BE84" rx="3" ry="3" style="stroke:#038048;stroke-width:1.0;"/><text fill="#000000" font-family="sans-serif" font-size="14" lengthAdjust="spacing" textLength="105" x="77" y="527.9707">putToken(token)</text><rect fill="#F24D5C" height="6" style="stroke:#C82930;stroke-width:1.0;" width="6" x="65" y="535.0469"/><text fill="#000000" font-family="sans-serif" font-size="14" lengthAdjust="spacing" textLength="250" x="77" y="545.5801">getFirstEmptyRowFromColumn(column)</text><ellipse cx="68" cy="555.6563" fill="#84BE84" rx="3" ry="3" style="stroke:#038048;stroke-width:1.0;"/><text fill="#000000" font-family="sans-serif" font-size="14" lengthAdjust="spacing" textLength="83" x="77" y="563.1895">isEndGame()</text><ellipse cx="68" cy="573.2656" fill="#84BE84" rx="3" ry="3" style="stroke:#038048;stroke-width:1.0;"/><text fill="#000000" font-family="sans-serif" font-size="14" lengthAdjust="spacing" textLength="54" x="77" y="580.7988">isFilled()</text><ellipse cx="68" cy="590.875" fill="#84BE84" rx="3" ry="3" style="stroke:#038048;stroke-width:1.0;"/><text fill="#000000" font-family="sans-serif" font-size="14" lengthAdjust="spacing" textLength="133" x="77" y="598.4082">isInLineToken(token)</text><ellipse cx="68" cy="608.4844" fill="#84BE84" rx="3" ry="3" style="stroke:#038048;stroke-width:1.0;"/><text fill="#000000" font-family="sans-serif" font-size="14" lengthAdjust="spacing" textLength="77" x="77" y="616.0176">getTokens()</text></g><!--MD5=[7e91cb2b0bf0004441ee056e3fe2cc82]
class boardView--><g id="elem_boardView"><rect codeLine="23" fill="#F1F1F1" height="171.2656" id="boardView" rx="2.5" ry="2.5" style="stroke:#181818;stroke-width:0.5;" width="131" x="239.5" y="168"/><ellipse cx="269.35" cy="184" fill="#ADD1B2" rx="11" ry="11" style="stroke:#181818;stroke-width:1.0;"/><path d="M272.1156,179.875 Q272.2719,179.6563 272.4594,179.5469 Q272.6469,179.4375 272.8656,179.4375 Q273.2406,179.4375 273.475,179.7031 Q273.7094,179.9531 273.7094,180.5625 L273.7094,182.0156 Q273.7094,182.625 273.475,182.8906 Q273.2406,183.1563 272.8656,183.1563 Q272.5219,183.1563 272.3188,182.9531 Q272.1156,182.7656 272.0063,182.25 Q271.9594,181.8906 271.7719,181.7031 Q271.4438,181.3281 270.8344,181.1094 Q270.225,180.8906 269.6,180.8906 Q268.8344,180.8906 268.1938,181.2188 Q267.5688,181.5469 267.0688,182.2969 Q266.5844,183.0469 266.5844,184.0781 L266.5844,185.1719 Q266.5844,186.4063 267.475,187.2344 Q268.3656,188.0469 269.9594,188.0469 Q270.8969,188.0469 271.5531,187.7969 Q271.9438,187.6406 272.3656,187.2031 Q272.6313,186.9375 272.7719,186.8594 Q272.9281,186.7813 273.1313,186.7813 Q273.4594,186.7813 273.7094,187.0469 Q273.975,187.2969 273.975,187.6406 Q273.975,187.9844 273.6313,188.3906 Q273.1313,188.9688 272.3344,189.2969 Q271.2563,189.75 269.9594,189.75 Q268.4438,189.75 267.2406,189.125 Q266.2563,188.625 265.5688,187.5625 Q264.8813,186.4844 264.8813,185.2031 L264.8813,184.0469 Q264.8813,182.7188 265.4906,181.5781 Q266.1156,180.4219 267.2094,179.8125 Q268.3031,179.1875 269.5375,179.1875 Q270.2719,179.1875 270.9125,179.3594 Q271.5688,179.5156 272.1156,179.875 Z " fill="#000000"/><text fill="#000000" font-family="sans-serif" font-size="14" lengthAdjust="spacing" textLength="66" x="286.65" y="189.7285">boardView</text><line style="stroke:#181818;stroke-width:0.5;" x1="240.5" x2="369.5" y1="200" y2="200"/><rect fill="none" height="6" style="stroke:#C82930;stroke-width:1.0;" width="6" x="247.5" y="208"/><text fill="#000000" font-family="sans-serif" font-size="14" lengthAdjust="spacing" textLength="79" x="259.5" y="218.5332">MAX_ROWS</text><rect fill="none" height="6" style="stroke:#C82930;stroke-width:1.0;" width="6" x="247.5" y="225.6094"/><text fill="#000000" font-family="sans-serif" font-size="14" lengthAdjust="spacing" textLength="103" x="259.5" y="236.1426">MAX_COLUMNS</text><rect fill="none" height="6" style="stroke:#C82930;stroke-width:1.0;" width="6" x="247.5" y="243.2188"/><text fill="#000000" font-family="sans-serif" font-size="14" lengthAdjust="spacing" textLength="38" x="259.5" y="253.752">Board</text><rect fill="none" height="6" style="stroke:#C82930;stroke-width:1.0;" width="6" x="247.5" y="260.8281"/><text fill="#000000" font-family="sans-serif" font-size="14" lengthAdjust="spacing" textLength="59" x="259.5" y="271.3613">TurnView</text><line style="stroke:#181818;stroke-width:0.5;" x1="240.5" x2="369.5" y1="278.4375" y2="278.4375"/><ellipse cx="250.5" cy="289.4375" fill="#84BE84" rx="3" ry="3" style="stroke:#038048;stroke-width:1.0;"/><text fill="#000000" font-family="sans-serif" font-size="14" lengthAdjust="spacing" textLength="28" x="259.5" y="296.9707">init()</text><ellipse cx="250.5" cy="307.0469" fill="#84BE84" rx="3" ry="3" style="stroke:#038048;stroke-width:1.0;"/><text fill="#000000" font-family="sans-serif" font-size="14" lengthAdjust="spacing" textLength="42" x="259.5" y="314.5801">show()</text><ellipse cx="250.5" cy="324.6563" fill="#84BE84" rx="3" ry="3" style="stroke:#038048;stroke-width:1.0;"/><text fill="#000000" font-family="sans-serif" font-size="14" lengthAdjust="spacing" textLength="105" x="259.5" y="332.1895">showEndGame()</text></g><!--MD5=[4da9fe57077f86121028723fbd49dcb9]
class inLineChecker--><g id="elem_inLineChecker"><rect codeLine="32" fill="#F1F1F1" height="171.2656" id="inLineChecker" rx="2.5" ry="2.5" style="stroke:#181818;stroke-width:0.5;" width="232" x="7" y="683"/><ellipse cx="73.25" cy="699" fill="#ADD1B2" rx="11" ry="11" style="stroke:#181818;stroke-width:1.0;"/><path d="M76.0156,694.875 Q76.1719,694.6563 76.3594,694.5469 Q76.5469,694.4375 76.7656,694.4375 Q77.1406,694.4375 77.375,694.7031 Q77.6094,694.9531 77.6094,695.5625 L77.6094,697.0156 Q77.6094,697.625 77.375,697.8906 Q77.1406,698.1563 76.7656,698.1563 Q76.4219,698.1563 76.2188,697.9531 Q76.0156,697.7656 75.9063,697.25 Q75.8594,696.8906 75.6719,696.7031 Q75.3438,696.3281 74.7344,696.1094 Q74.125,695.8906 73.5,695.8906 Q72.7344,695.8906 72.0938,696.2188 Q71.4688,696.5469 70.9688,697.2969 Q70.4844,698.0469 70.4844,699.0781 L70.4844,700.1719 Q70.4844,701.4063 71.375,702.2344 Q72.2656,703.0469 73.8594,703.0469 Q74.7969,703.0469 75.4531,702.7969 Q75.8438,702.6406 76.2656,702.2031 Q76.5313,701.9375 76.6719,701.8594 Q76.8281,701.7813 77.0313,701.7813 Q77.3594,701.7813 77.6094,702.0469 Q77.875,702.2969 77.875,702.6406 Q77.875,702.9844 77.5313,703.3906 Q77.0313,703.9688 76.2344,704.2969 Q75.1563,704.75 73.8594,704.75 Q72.3438,704.75 71.1406,704.125 Q70.1563,703.625 69.4688,702.5625 Q68.7813,701.4844 68.7813,700.2031 L68.7813,699.0469 Q68.7813,697.7188 69.3906,696.5781 Q70.0156,695.4219 71.1094,694.8125 Q72.2031,694.1875 73.4375,694.1875 Q74.1719,694.1875 74.8125,694.3594 Q75.4688,694.5156 76.0156,694.875 Z " fill="#000000"/><text fill="#000000" font-family="sans-serif" font-size="14" lengthAdjust="spacing" textLength="91" x="93.75" y="704.7285">inLineChecker</text><line style="stroke:#181818;stroke-width:0.5;" x1="8" x2="238" y1="715" y2="715"/><rect fill="none" height="6" style="stroke:#C82930;stroke-width:1.0;" width="6" x="15" y="723"/><text fill="#000000" font-family="sans-serif" font-size="14" lengthAdjust="spacing" textLength="206" x="27" y="733.5332">IN_LINE_NUMBER_OF_TOKENS</text><rect fill="none" height="6" style="stroke:#C82930;stroke-width:1.0;" width="6" x="15" y="740.6094"/><text fill="#000000" font-family="sans-serif" font-size="14" lengthAdjust="spacing" textLength="42" x="27" y="751.1426">tokens</text><line style="stroke:#181818;stroke-width:0.5;" x1="8" x2="238" y1="758.2188" y2="758.2188"/><ellipse cx="18" cy="769.2188" fill="#84BE84" rx="3" ry="3" style="stroke:#038048;stroke-width:1.0;"/><text fill="#000000" font-family="sans-serif" font-size="14" lengthAdjust="spacing" textLength="191" x="27" y="776.752">isInLineToken(tokens[], token)</text><rect fill="#F24D5C" height="6" style="stroke:#C82930;stroke-width:1.0;" width="6" x="15" y="783.8281"/><text fill="#000000" font-family="sans-serif" font-size="14" lengthAdjust="spacing" textLength="155" x="27" y="794.3613">isInLineHorizontal(token)</text><rect fill="#F24D5C" height="6" style="stroke:#C82930;stroke-width:1.0;" width="6" x="15" y="801.4375"/><text fill="#000000" font-family="sans-serif" font-size="14" lengthAdjust="spacing" textLength="140" x="27" y="811.9707">isInLineVertical(token)</text><rect fill="#F24D5C" height="6" style="stroke:#C82930;stroke-width:1.0;" width="6" x="15" y="819.0469"/><text fill="#000000" font-family="sans-serif" font-size="14" lengthAdjust="spacing" textLength="149" x="27" y="829.5801">isInLineDiagonal(token)</text><rect fill="#F24D5C" height="6" style="stroke:#C82930;stroke-width:1.0;" width="6" x="15" y="836.6563"/><text fill="#000000" font-family="sans-serif" font-size="14" lengthAdjust="spacing" textLength="202" x="27" y="847.1895">isInLineReverseDiagonal(token)</text></g><!--MD5=[606c0e9a527600b962089599cf14ab26]
class token--><g id="elem_token"><rect codeLine="42" fill="#F1F1F1" height="153.6563" id="token" rx="2.5" ry="2.5" style="stroke:#181818;stroke-width:0.5;" width="104" x="250" y="914"/><ellipse cx="281.65" cy="930" fill="#ADD1B2" rx="11" ry="11" style="stroke:#181818;stroke-width:1.0;"/><path d="M284.4156,925.875 Q284.5719,925.6563 284.7594,925.5469 Q284.9469,925.4375 285.1656,925.4375 Q285.5406,925.4375 285.775,925.7031 Q286.0094,925.9531 286.0094,926.5625 L286.0094,928.0156 Q286.0094,928.625 285.775,928.8906 Q285.5406,929.1563 285.1656,929.1563 Q284.8219,929.1563 284.6188,928.9531 Q284.4156,928.7656 284.3063,928.25 Q284.2594,927.8906 284.0719,927.7031 Q283.7438,927.3281 283.1344,927.1094 Q282.525,926.8906 281.9,926.8906 Q281.1344,926.8906 280.4938,927.2188 Q279.8688,927.5469 279.3688,928.2969 Q278.8844,929.0469 278.8844,930.0781 L278.8844,931.1719 Q278.8844,932.4063 279.775,933.2344 Q280.6656,934.0469 282.2594,934.0469 Q283.1969,934.0469 283.8531,933.7969 Q284.2438,933.6406 284.6656,933.2031 Q284.9313,932.9375 285.0719,932.8594 Q285.2281,932.7813 285.4313,932.7813 Q285.7594,932.7813 286.0094,933.0469 Q286.275,933.2969 286.275,933.6406 Q286.275,933.9844 285.9313,934.3906 Q285.4313,934.9688 284.6344,935.2969 Q283.5563,935.75 282.2594,935.75 Q280.7438,935.75 279.5406,935.125 Q278.5563,934.625 277.8688,933.5625 Q277.1813,932.4844 277.1813,931.2031 L277.1813,930.0469 Q277.1813,928.7188 277.7906,927.5781 Q278.4156,926.4219 279.5094,925.8125 Q280.6031,925.1875 281.8375,925.1875 Q282.5719,925.1875 283.2125,925.3594 Q283.8688,925.5156 284.4156,925.875 Z " fill="#000000"/><text fill="#000000" font-family="sans-serif" font-size="14" lengthAdjust="spacing" textLength="35" x="299.35" y="935.7285">token</text><line style="stroke:#181818;stroke-width:0.5;" x1="251" x2="353" y1="946" y2="946"/><rect fill="none" height="6" style="stroke:#C82930;stroke-width:1.0;" width="6" x="258" y="954"/><text fill="#000000" font-family="sans-serif" font-size="14" lengthAdjust="spacing" textLength="31" x="270" y="964.5332">color</text><rect fill="none" height="6" style="stroke:#C82930;stroke-width:1.0;" width="6" x="258" y="971.6094"/><text fill="#000000" font-family="sans-serif" font-size="14" lengthAdjust="spacing" textLength="67" x="270" y="982.1426">coordinate</text><line style="stroke:#181818;stroke-width:0.5;" x1="251" x2="353" y1="989.2188" y2="989.2188"/><ellipse cx="261" cy="1000.2188" fill="#84BE84" rx="3" ry="3" style="stroke:#038048;stroke-width:1.0;"/><text fill="#000000" font-family="sans-serif" font-size="14" lengthAdjust="spacing" textLength="64" x="270" y="1007.752">getColor()</text><ellipse cx="261" cy="1017.8281" fill="#84BE84" rx="3" ry="3" style="stroke:#038048;stroke-width:1.0;"/><text fill="#000000" font-family="sans-serif" font-size="14" lengthAdjust="spacing" textLength="57" x="270" y="1025.3613">getRow()</text><ellipse cx="261" cy="1035.4375" fill="#84BE84" rx="3" ry="3" style="stroke:#038048;stroke-width:1.0;"/><text fill="#000000" font-family="sans-serif" font-size="14" lengthAdjust="spacing" textLength="78" x="270" y="1042.9707">getColumn()</text><ellipse cx="261" cy="1053.0469" fill="#84BE84" rx="3" ry="3" style="stroke:#038048;stroke-width:1.0;"/><text fill="#000000" font-family="sans-serif" font-size="14" lengthAdjust="spacing" textLength="78" x="270" y="1060.5801">setRow(row)</text></g><!--MD5=[591ad017c1bea39456346e62f574f03d]
class coordinate--><g id="elem_coordinate"><rect codeLine="51" fill="#F1F1F1" height="136.0469" id="coordinate" rx="2.5" ry="2.5" style="stroke:#181818;stroke-width:0.5;" width="104" x="364" y="1128"/><ellipse cx="381.25" cy="1144" fill="#ADD1B2" rx="11" ry="11" style="stroke:#181818;stroke-width:1.0;"/><path d="M384.0156,1139.875 Q384.1719,1139.6563 384.3594,1139.5469 Q384.5469,1139.4375 384.7656,1139.4375 Q385.1406,1139.4375 385.375,1139.7031 Q385.6094,1139.9531 385.6094,1140.5625 L385.6094,1142.0156 Q385.6094,1142.625 385.375,1142.8906 Q385.1406,1143.1563 384.7656,1143.1563 Q384.4219,1143.1563 384.2188,1142.9531 Q384.0156,1142.7656 383.9063,1142.25 Q383.8594,1141.8906 383.6719,1141.7031 Q383.3438,1141.3281 382.7344,1141.1094 Q382.125,1140.8906 381.5,1140.8906 Q380.7344,1140.8906 380.0938,1141.2188 Q379.4688,1141.5469 378.9688,1142.2969 Q378.4844,1143.0469 378.4844,1144.0781 L378.4844,1145.1719 Q378.4844,1146.4063 379.375,1147.2344 Q380.2656,1148.0469 381.8594,1148.0469 Q382.7969,1148.0469 383.4531,1147.7969 Q383.8438,1147.6406 384.2656,1147.2031 Q384.5313,1146.9375 384.6719,1146.8594 Q384.8281,1146.7813 385.0313,1146.7813 Q385.3594,1146.7813 385.6094,1147.0469 Q385.875,1147.2969 385.875,1147.6406 Q385.875,1147.9844 385.5313,1148.3906 Q385.0313,1148.9688 384.2344,1149.2969 Q383.1563,1149.75 381.8594,1149.75 Q380.3438,1149.75 379.1406,1149.125 Q378.1563,1148.625 377.4688,1147.5625 Q376.7813,1146.4844 376.7813,1145.2031 L376.7813,1144.0469 Q376.7813,1142.7188 377.3906,1141.5781 Q378.0156,1140.4219 379.1094,1139.8125 Q380.2031,1139.1875 381.4375,1139.1875 Q382.1719,1139.1875 382.8125,1139.3594 Q383.4688,1139.5156 384.0156,1139.875 Z " fill="#000000"/><text fill="#000000" font-family="sans-serif" font-size="14" lengthAdjust="spacing" textLength="67" x="395.75" y="1149.7285">coordinate</text><line style="stroke:#181818;stroke-width:0.5;" x1="365" x2="467" y1="1160" y2="1160"/><rect fill="none" height="6" style="stroke:#C82930;stroke-width:1.0;" width="6" x="372" y="1168"/><text fill="#000000" font-family="sans-serif" font-size="14" lengthAdjust="spacing" textLength="22" x="384" y="1178.5332">row</text><rect fill="none" height="6" style="stroke:#C82930;stroke-width:1.0;" width="6" x="372" y="1185.6094"/><text fill="#000000" font-family="sans-serif" font-size="14" lengthAdjust="spacing" textLength="45" x="384" y="1196.1426">column</text><line style="stroke:#181818;stroke-width:0.5;" x1="365" x2="467" y1="1203.2188" y2="1203.2188"/><ellipse cx="375" cy="1214.2188" fill="#84BE84" rx="3" ry="3" style="stroke:#038048;stroke-width:1.0;"/><text fill="#000000" font-family="sans-serif" font-size="14" lengthAdjust="spacing" textLength="57" x="384" y="1221.752">getRow()</text><ellipse cx="375" cy="1231.8281" fill="#84BE84" rx="3" ry="3" style="stroke:#038048;stroke-width:1.0;"/><text fill="#000000" font-family="sans-serif" font-size="14" lengthAdjust="spacing" textLength="78" x="384" y="1239.3613">getColumn()</text><ellipse cx="375" cy="1249.4375" fill="#84BE84" rx="3" ry="3" style="stroke:#038048;stroke-width:1.0;"/><text fill="#000000" font-family="sans-serif" font-size="14" lengthAdjust="spacing" textLength="78" x="384" y="1256.9707">setRow(row)</text></g><!--MD5=[46e2fff4e112e858a5bcac690d902864]
class turnView--><g id="elem_turnView"><rect codeLine="59" fill="#F1F1F1" height="118.4375" id="turnView" rx="2.5" ry="2.5" style="stroke:#181818;stroke-width:0.5;" width="96" x="368" y="452"/><ellipse cx="387.5" cy="468" fill="#ADD1B2" rx="11" ry="11" style="stroke:#181818;stroke-width:1.0;"/><path d="M390.2656,463.875 Q390.4219,463.6563 390.6094,463.5469 Q390.7969,463.4375 391.0156,463.4375 Q391.3906,463.4375 391.625,463.7031 Q391.8594,463.9531 391.8594,464.5625 L391.8594,466.0156 Q391.8594,466.625 391.625,466.8906 Q391.3906,467.1563 391.0156,467.1563 Q390.6719,467.1563 390.4688,466.9531 Q390.2656,466.7656 390.1563,466.25 Q390.1094,465.8906 389.9219,465.7031 Q389.5938,465.3281 388.9844,465.1094 Q388.375,464.8906 387.75,464.8906 Q386.9844,464.8906 386.3438,465.2188 Q385.7188,465.5469 385.2188,466.2969 Q384.7344,467.0469 384.7344,468.0781 L384.7344,469.1719 Q384.7344,470.4063 385.625,471.2344 Q386.5156,472.0469 388.1094,472.0469 Q389.0469,472.0469 389.7031,471.7969 Q390.0938,471.6406 390.5156,471.2031 Q390.7813,470.9375 390.9219,470.8594 Q391.0781,470.7813 391.2813,470.7813 Q391.6094,470.7813 391.8594,471.0469 Q392.125,471.2969 392.125,471.6406 Q392.125,471.9844 391.7813,472.3906 Q391.2813,472.9688 390.4844,473.2969 Q389.4063,473.75 388.1094,473.75 Q386.5938,473.75 385.3906,473.125 Q384.4063,472.625 383.7188,471.5625 Q383.0313,470.4844 383.0313,469.2031 L383.0313,468.0469 Q383.0313,466.7188 383.6406,465.5781 Q384.2656,464.4219 385.3594,463.8125 Q386.4531,463.1875 387.6875,463.1875 Q388.4219,463.1875 389.0625,463.3594 Q389.7188,463.5156 390.2656,463.875 Z " fill="#000000"/><text fill="#000000" font-family="sans-serif" font-size="14" lengthAdjust="spacing" textLength="54" x="402.5" y="473.7285">turnView</text><line style="stroke:#181818;stroke-width:0.5;" x1="369" x2="463" y1="484" y2="484"/><rect fill="none" height="6" style="stroke:#C82930;stroke-width:1.0;" width="6" x="376" y="492"/><text fill="#000000" font-family="sans-serif" font-size="14" lengthAdjust="spacing" textLength="25" x="388" y="502.5332">turn</text><line style="stroke:#181818;stroke-width:0.5;" x1="369" x2="463" y1="509.6094" y2="509.6094"/><ellipse cx="379" cy="520.6094" fill="#84BE84" rx="3" ry="3" style="stroke:#038048;stroke-width:1.0;"/><text fill="#000000" font-family="sans-serif" font-size="14" lengthAdjust="spacing" textLength="70" x="388" y="528.1426">getToken()</text><ellipse cx="379" cy="538.2188" fill="#84BE84" rx="3" ry="3" style="stroke:#038048;stroke-width:1.0;"/><text fill="#000000" font-family="sans-serif" font-size="14" lengthAdjust="spacing" textLength="66" x="388" y="545.752">nextTurn()</text><ellipse cx="379" cy="555.8281" fill="#84BE84" rx="3" ry="3" style="stroke:#038048;stroke-width:1.0;"/><text fill="#000000" font-family="sans-serif" font-size="14" lengthAdjust="spacing" textLength="64" x="388" y="563.3613">getColor()</text></g><!--MD5=[023a942bc7f50f75f4bafc8ed131aced]
class turn--><g id="elem_turn"><rect codeLine="66" fill="#F1F1F1" height="118.4375" id="turn" rx="2.5" ry="2.5" style="stroke:#181818;stroke-width:0.5;" width="141" x="345.5" y="709.5"/><ellipse cx="399.25" cy="725.5" fill="#ADD1B2" rx="11" ry="11" style="stroke:#181818;stroke-width:1.0;"/><path d="M402.0156,721.375 Q402.1719,721.1563 402.3594,721.0469 Q402.5469,720.9375 402.7656,720.9375 Q403.1406,720.9375 403.375,721.2031 Q403.6094,721.4531 403.6094,722.0625 L403.6094,723.5156 Q403.6094,724.125 403.375,724.3906 Q403.1406,724.6563 402.7656,724.6563 Q402.4219,724.6563 402.2188,724.4531 Q402.0156,724.2656 401.9063,723.75 Q401.8594,723.3906 401.6719,723.2031 Q401.3438,722.8281 400.7344,722.6094 Q400.125,722.3906 399.5,722.3906 Q398.7344,722.3906 398.0938,722.7188 Q397.4688,723.0469 396.9688,723.7969 Q396.4844,724.5469 396.4844,725.5781 L396.4844,726.6719 Q396.4844,727.9063 397.375,728.7344 Q398.2656,729.5469 399.8594,729.5469 Q400.7969,729.5469 401.4531,729.2969 Q401.8438,729.1406 402.2656,728.7031 Q402.5313,728.4375 402.6719,728.3594 Q402.8281,728.2813 403.0313,728.2813 Q403.3594,728.2813 403.6094,728.5469 Q403.875,728.7969 403.875,729.1406 Q403.875,729.4844 403.5313,729.8906 Q403.0313,730.4688 402.2344,730.7969 Q401.1563,731.25 399.8594,731.25 Q398.3438,731.25 397.1406,730.625 Q396.1563,730.125 395.4688,729.0625 Q394.7813,727.9844 394.7813,726.7031 L394.7813,725.5469 Q394.7813,724.2188 395.3906,723.0781 Q396.0156,721.9219 397.1094,721.3125 Q398.2031,720.6875 399.4375,720.6875 Q400.1719,720.6875 400.8125,720.8594 Q401.4688,721.0156 402.0156,721.375 Z " fill="#000000"/><text fill="#000000" font-family="sans-serif" font-size="14" lengthAdjust="spacing" textLength="25" x="419.75" y="731.2285">turn</text><line style="stroke:#181818;stroke-width:0.5;" x1="346.5" x2="485.5" y1="741.5" y2="741.5"/><rect fill="none" height="6" style="stroke:#C82930;stroke-width:1.0;" width="6" x="353.5" y="749.5"/><text fill="#000000" font-family="sans-serif" font-size="14" lengthAdjust="spacing" textLength="31" x="365.5" y="760.0332">color</text><line style="stroke:#181818;stroke-width:0.5;" x1="346.5" x2="485.5" y1="767.1094" y2="767.1094"/><ellipse cx="356.5" cy="778.1094" fill="#84BE84" rx="3" ry="3" style="stroke:#038048;stroke-width:1.0;"/><text fill="#000000" font-family="sans-serif" font-size="14" lengthAdjust="spacing" textLength="115" x="365.5" y="785.6426">getToken(column)</text><ellipse cx="356.5" cy="795.7188" fill="#84BE84" rx="3" ry="3" style="stroke:#038048;stroke-width:1.0;"/><text fill="#000000" font-family="sans-serif" font-size="14" lengthAdjust="spacing" textLength="66" x="365.5" y="803.252">nextTurn()</text><ellipse cx="356.5" cy="813.3281" fill="#84BE84" rx="3" ry="3" style="stroke:#038048;stroke-width:1.0;"/><text fill="#000000" font-family="sans-serif" font-size="14" lengthAdjust="spacing" textLength="64" x="365.5" y="820.8613">getColor()</text></g><!--MD5=[b79a6dbdb435efa72378790761c8d246]
class colors--><g id="elem_colors"><rect codeLine="73" fill="#F1F1F1" height="83.2188" id="colors" rx="2.5" ry="2.5" style="stroke:#181818;stroke-width:0.5;" width="70" x="259" y="1154.5"/><ellipse cx="274" cy="1170.5" fill="#EB937F" rx="11" ry="11" style="stroke:#181818;stroke-width:1.0;"/><path d="M272.8594,1171.2969 L272.8594,1173.7969 L277.1875,1173.7969 L277.1875,1172.875 Q277.1875,1172.2656 277.4219,1172 Q277.6719,1171.7344 278.0469,1171.7344 Q278.4219,1171.7344 278.6563,1172 Q278.8906,1172.2656 278.8906,1172.875 L278.8906,1175.5 L270.8906,1175.5 Q270.2656,1175.5 270,1175.2656 Q269.75,1175.0313 269.75,1174.6406 Q269.75,1174.2656 270.0156,1174.0313 Q270.2813,1173.7969 270.8906,1173.7969 L271.1563,1173.7969 L271.1563,1167.1406 L270.8906,1167.1406 Q270.2656,1167.1406 270,1166.9063 Q269.75,1166.6719 269.75,1166.2813 Q269.75,1165.9063 270,1165.6719 Q270.2656,1165.4375 270.8906,1165.4375 L278.5156,1165.4375 L278.5156,1168.0313 Q278.5156,1168.6406 278.2813,1168.9063 Q278.0625,1169.1563 277.6719,1169.1563 Q277.2969,1169.1563 277.0625,1168.9063 Q276.8281,1168.6406 276.8281,1168.0313 L276.8281,1167.1406 L272.8594,1167.1406 L272.8594,1169.5938 L274.3438,1169.5938 Q274.3438,1168.9375 274.4688,1168.75 Q274.7344,1168.3438 275.2031,1168.3438 Q275.5781,1168.3438 275.8125,1168.6094 Q276.0469,1168.8594 276.0469,1169.4688 L276.0469,1171.4375 Q276.0469,1171.9844 275.9219,1172.1719 Q275.6563,1172.5625 275.2031,1172.5625 Q274.7344,1172.5625 274.4688,1172.1563 Q274.3438,1171.9688 274.3438,1171.2969 L272.8594,1171.2969 Z " fill="#000000"/><text fill="#000000" font-family="sans-serif" font-size="14" lengthAdjust="spacing" textLength="38" x="288" y="1176.2285">colors</text><line style="stroke:#181818;stroke-width:0.5;" x1="260" x2="328" y1="1186.5" y2="1186.5"/><text fill="#000000" font-family="sans-serif" font-size="14" lengthAdjust="spacing" textLength="26" x="265" y="1205.0332">Red</text><text fill="#000000" font-family="sans-serif" font-size="14" lengthAdjust="spacing" textLength="40" x="265" y="1222.6426">Yellow</text><line style="stroke:#181818;stroke-width:0.5;" x1="260" x2="328" y1="1229.7188" y2="1229.7188"/></g><!--MD5=[3aaa55d472d60a859166b4b0a5dca067]
link connect4 to boardView--><g id="link_connect4_boardView"><path codeLine="78" d="M244.75,108.21 C251.75,124.97 259.8,144.24 267.68,163.11 " fill="none" id="connect4-to-boardView" style="stroke:#181818;stroke-width:1.0;stroke-dasharray:7.0,7.0;"/><polygon fill="#181818" points="269.68,167.9,269.9,158.0536,267.7519,163.2867,262.5187,161.1386,269.68,167.9" style="stroke:#181818;stroke-width:1.0;"/></g><!--MD5=[da575c4dc3d31e7eed0ea63448fe7447]
link connect4 to yesNoDialog--><g id="link_connect4_yesNoDialog"><path codeLine="79" d="M203.25,108.21 C190.52,138.69 174.35,177.41 161.97,207.07 " fill="none" id="connect4-to-yesNoDialog" style="stroke:#181818;stroke-width:1.0;stroke-dasharray:7.0,7.0;"/><polygon fill="#181818" points="160.02,211.75,167.1813,204.9886,161.9481,207.1367,159.8,201.9036,160.02,211.75" style="stroke:#181818;stroke-width:1.0;"/></g><!--MD5=[fb32ec1c38a4eb0577ee459902ecc0e3]
link boardView to board--><g id="link_boardView_board"><path codeLine="80" d="M263.7739,350.2415 C263.7739,350.2415 253.26,374.69 248.2,386.44 " fill="none" id="boardView-board" style="stroke:#181818;stroke-width:1.0;"/><polygon fill="#181818" points="242.94,398.65,250.1734,391.9659,244.9175,394.0577,242.8257,388.8018,242.94,398.65" style="stroke:#181818;stroke-width:1.0;"/><line style="stroke:#181818;stroke-width:1.0;" x1="244.9175" x2="248.08" y1="394.0577" y2="386.71"/><polygon fill="#181818" points="268.52,339.22,262.4731,343.1487,263.7739,350.2415,269.8208,346.3128,268.52,339.22" style="stroke:#181818;stroke-width:1.0;"/></g><!--MD5=[281ebd2e004ad5cd374ca87d563edc75]
link boardView to turnView--><g id="link_boardView_turnView"><path codeLine="81" d="M341.81,339.22 C357.09,374.39 374.5,414.48 388.62,446.98 " fill="none" id="boardView-to-turnView" style="stroke:#181818;stroke-width:1.0;stroke-dasharray:7.0,7.0;"/><polygon fill="#181818" points="390.68,451.72,390.7485,441.8714,388.6812,447.1369,383.4156,445.0695,390.68,451.72" style="stroke:#181818;stroke-width:1.0;"/></g><!--MD5=[f41e6990d0a16124120bc990cc7767d3]
link board to token--><g id="link_board_token"><path codeLine="82" d="M241.9491,634.656 C241.9491,634.656 252.13,667.56 256,683 C274.1,755.2 286.06,838.85 293.24,900.59 " fill="none" id="board-token" style="stroke:#181818;stroke-width:1.0;"/><polygon fill="#181818" points="294.74,913.81,297.6954,904.415,294.174,908.8421,289.7469,905.3207,294.74,913.81" style="stroke:#181818;stroke-width:1.0;"/><line style="stroke:#181818;stroke-width:1.0;" x1="294.174" x2="293.27" y1="908.8421" y2="900.895"/><polygon fill="none" points="238.19,623.26,236.2709,630.211,241.9491,634.656,243.8682,627.705,238.19,623.26" style="stroke:#181818;stroke-width:1.0;"/></g><!--MD5=[9423bc6e300565d34d7bd0c7b2c4c59e]
link board to inLineChecker--><g id="link_board_inLineChecker"><path codeLine="83" d="M163.63,623.32 C158.5,641.51 153.25,660.16 148.29,677.75 " fill="none" id="board-to-inLineChecker" style="stroke:#181818;stroke-width:1.0;stroke-dasharray:7.0,7.0;"/><polygon fill="#181818" points="146.9,682.68,153.1919,675.1029,148.2566,677.8676,145.492,672.9323,146.9,682.68" style="stroke:#181818;stroke-width:1.0;"/></g><!--MD5=[f62d90ac26fd182904d7612b38d0d9ea]
link turnView to turn--><g id="link_turnView_turn"><path codeLine="84" d="M416,582.3 C416,582.3 416,661.1 416,696.33 " fill="none" id="turnView-turn" style="stroke:#181818;stroke-width:1.0;"/><polygon fill="#181818" points="416,709.45,420,700.45,416,704.45,412,700.45,416,709.45" style="stroke:#181818;stroke-width:1.0;"/><line style="stroke:#181818;stroke-width:1.0;" x1="416" x2="416" y1="704.45" y2="696.45"/><polygon fill="#181818" points="416,570.3,412,576.3,416,582.3,420,576.3,416,570.3" style="stroke:#181818;stroke-width:1.0;"/></g><!--MD5=[4e39cf79884c68058f8bf6151a66dc45]
link turn to coordinate--><g id="link_turn_coordinate"><path codeLine="85" d="M416,827.77 C416,904.5 416,1039.38 416,1122.58 " fill="none" id="turn-to-coordinate" style="stroke:#181818;stroke-width:1.0;stroke-dasharray:7.0,7.0;"/><polygon fill="#181818" points="416,1127.98,420,1118.98,416,1122.98,412,1118.98,416,1127.98" style="stroke:#181818;stroke-width:1.0;"/></g><!--MD5=[01b1974935c448a6f00d63f326808864]
link turn to token--><g id="link_turn_token"><path codeLine="86" d="M385.9,827.72 C372.99,852.69 357.69,882.28 343.72,909.3 " fill="none" id="turn-to-token" style="stroke:#181818;stroke-width:1.0;stroke-dasharray:7.0,7.0;"/><polygon fill="#181818" points="341.31,913.97,348.9998,907.8164,343.6087,909.5297,341.8954,904.1386,341.31,913.97" style="stroke:#181818;stroke-width:1.0;"/></g><!--MD5=[da25e71b20586d566bbfcc342003eadf]
link token to colors--><g id="link_token_colors"><path codeLine="87" d="M298.5251,1080.1606 C298.5251,1080.1606 296.84,1122.81 296.12,1141.17 " fill="none" id="token-colors" style="stroke:#181818;stroke-width:1.0;"/><polygon fill="#181818" points="295.6,1154.33,299.953,1145.4953,295.7979,1149.3339,291.9593,1145.1788,295.6,1154.33" style="stroke:#181818;stroke-width:1.0;"/><line style="stroke:#181818;stroke-width:1.0;" x1="295.7979" x2="296.115" y1="1149.3339" y2="1141.34"/><polygon fill="#181818" points="299,1068.17,294.7657,1074.007,298.5251,1080.1606,302.7594,1074.3236,299,1068.17" style="stroke:#181818;stroke-width:1.0;"/></g><!--MD5=[a4790a59275add077948081d63e6bf43]
link token to coordinate--><g id="link_token_coordinate"><path codeLine="88" d="M350.6469,1078.6324 C350.6469,1078.6324 365.12,1104.4 371.86,1116.4 " fill="none" id="token-coordinate" style="stroke:#181818;stroke-width:1.0;"/><polygon fill="#181818" points="378.23,1127.75,377.3192,1117.9433,375.7855,1123.3883,370.3405,1121.8546,378.23,1127.75" style="stroke:#181818;stroke-width:1.0;"/><line style="stroke:#181818;stroke-width:1.0;" x1="375.7855" x2="371.87" y1="1123.3883" y2="1116.415"/><polygon fill="#181818" points="344.77,1068.17,344.221,1075.3602,350.6469,1078.6324,351.1959,1071.4423,344.77,1068.17" style="stroke:#181818;stroke-width:1.0;"/></g><!--MD5=[50901fbfbaa632c864f824508995094e]
@startuml

class connect4{
    - boardView
    - yesNoDialog
    + playGame()
}
class yesNoDialog{
    + read(message)
    + isAffirmative()
}
class board{
    - tokens[]
    - lastToken
    + reset(maxRows, maxColumns)
    + isFilledColumn(token)
    + putToken(token)
    - getFirstEmptyRowFromColumn(column)
    + isEndGame()
    + isFilled()
    + isInLineToken(token)
    + getTokens()
}
class boardView{
    - MAX_ROWS
    - MAX_COLUMNS
    - Board
    - TurnView
    + init()
    + show()
    + showEndGame()
}
class inLineChecker{
    - IN_LINE_NUMBER_OF_TOKENS
    - tokens
    + isInLineToken(tokens[], token)
    - isInLineHorizontal(token)
    - isInLineVertical(token)
    - isInLineDiagonal(token)
    - isInLineReverseDiagonal(token)
}

class token{
    - color
    - coordinate
    + getColor()
    + getRow()
    + getColumn()
    + setRow(row)
}

class coordinate {
    - row 
    - column
    + getRow()
    + getColumn()
    + setRow(row)
}

class turnView{
    - turn
    + getToken()
    + nextTurn()
    + getColor()
}

class turn{
    - color
    + getToken(column) 
    + nextTurn()
    + getColor()
}

enum colors{
Red
Yellow
}

connect4 ..> boardView
connect4 ..> yesNoDialog
boardView *- -> board
boardView ..> turnView
board o- -> token
board ..> inLineChecker
turnView *- -> turn
turn ..> coordinate
turn ..> token
token *- -> colors
token *- -> coordinate
@enduml

PlantUML version 1.2022.5(Sat Apr 30 12:55:52 CEST 2022)
(GPL source distribution)
Java Runtime: OpenJDK Runtime Environment
JVM: OpenJDK 64-Bit Server VM
Default Encoding: UTF-8
Language: es
Country: ES
--></g></svg>