<?xml version="1.0" encoding="UTF-8" standalone="no"?><svg xmlns="http://www.w3.org/2000/svg" xmlns:xlink="http://www.w3.org/1999/xlink" contentStyleType="text/css" height="1075px" preserveAspectRatio="none" style="width:612px;height:1075px;background:#FFFFFF;" version="1.1" viewBox="0 0 612 1075" width="612px" zoomAndPan="magnify"><defs/><g><!--MD5=[c8948ff3b85f2fe890b517bc42f92cc2]
class connect4--><g id="elem_connect4"><rect codeLine="2" fill="#F1F1F1" height="100.8281" id="connect4" rx="2.5" ry="2.5" style="stroke:#181818;stroke-width:0.5;" width="105" x="206.5" y="7"/><ellipse cx="228.25" cy="23" fill="#ADD1B2" rx="11" ry="11" style="stroke:#181818;stroke-width:1.0;"/><path d="M231.0156,18.875 Q231.1719,18.6563 231.3594,18.5469 Q231.5469,18.4375 231.7656,18.4375 Q232.1406,18.4375 232.375,18.7031 Q232.6094,18.9531 232.6094,19.5625 L232.6094,21.0156 Q232.6094,21.625 232.375,21.8906 Q232.1406,22.1563 231.7656,22.1563 Q231.4219,22.1563 231.2188,21.9531 Q231.0156,21.7656 230.9063,21.25 Q230.8594,20.8906 230.6719,20.7031 Q230.3438,20.3281 229.7344,20.1094 Q229.125,19.8906 228.5,19.8906 Q227.7344,19.8906 227.0938,20.2188 Q226.4688,20.5469 225.9688,21.2969 Q225.4844,22.0469 225.4844,23.0781 L225.4844,24.1719 Q225.4844,25.4063 226.375,26.2344 Q227.2656,27.0469 228.8594,27.0469 Q229.7969,27.0469 230.4531,26.7969 Q230.8438,26.6406 231.2656,26.2031 Q231.5313,25.9375 231.6719,25.8594 Q231.8281,25.7813 232.0313,25.7813 Q232.3594,25.7813 232.6094,26.0469 Q232.875,26.2969 232.875,26.6406 Q232.875,26.9844 232.5313,27.3906 Q232.0313,27.9688 231.2344,28.2969 Q230.1563,28.75 228.8594,28.75 Q227.3438,28.75 226.1406,28.125 Q225.1563,27.625 224.4688,26.5625 Q223.7813,25.4844 223.7813,24.2031 L223.7813,23.0469 Q223.7813,21.7188 224.3906,20.5781 Q225.0156,19.4219 226.1094,18.8125 Q227.2031,18.1875 228.4375,18.1875 Q229.1719,18.1875 229.8125,18.3594 Q230.4688,18.5156 231.0156,18.875 Z " fill="#000000"/><text fill="#000000" font-family="sans-serif" font-size="14" lengthAdjust="spacing" textLength="58" x="243.75" y="28.7285">connect4</text><line style="stroke:#181818;stroke-width:0.5;" x1="207.5" x2="310.5" y1="39" y2="39"/><rect fill="none" height="6" style="stroke:#C82930;stroke-width:1.0;" width="6" x="214.5" y="47"/><text fill="#000000" font-family="sans-serif" font-size="14" lengthAdjust="spacing" textLength="66" x="226.5" y="57.5332">boardView</text><rect fill="none" height="6" style="stroke:#C82930;stroke-width:1.0;" width="6" x="214.5" y="64.6094"/><text fill="#000000" font-family="sans-serif" font-size="14" lengthAdjust="spacing" textLength="79" x="226.5" y="75.1426">yesNoDialog</text><line style="stroke:#181818;stroke-width:0.5;" x1="207.5" x2="310.5" y1="82.2188" y2="82.2188"/><ellipse cx="217.5" cy="93.2188" fill="#84BE84" rx="3" ry="3" style="stroke:#038048;stroke-width:1.0;"/><text fill="#000000" font-family="sans-serif" font-size="14" lengthAdjust="spacing" textLength="74" x="226.5" y="100.752">playGame()</text></g><!--MD5=[9a248d0bf8eff2287ebd16a0f5c4d5d9]
class yesNoDialog--><g id="elem_yesNoDialog"><rect codeLine="7" fill="#F1F1F1" height="83.2188" id="yesNoDialog" rx="2.5" ry="2.5" style="stroke:#181818;stroke-width:0.5;" width="122" x="117" y="212"/><ellipse cx="136.95" cy="228" fill="#ADD1B2" rx="11" ry="11" style="stroke:#181818;stroke-width:1.0;"/><path d="M139.7156,223.875 Q139.8719,223.6563 140.0594,223.5469 Q140.2469,223.4375 140.4656,223.4375 Q140.8406,223.4375 141.075,223.7031 Q141.3094,223.9531 141.3094,224.5625 L141.3094,226.0156 Q141.3094,226.625 141.075,226.8906 Q140.8406,227.1563 140.4656,227.1563 Q140.1219,227.1563 139.9188,226.9531 Q139.7156,226.7656 139.6063,226.25 Q139.5594,225.8906 139.3719,225.7031 Q139.0438,225.3281 138.4344,225.1094 Q137.825,224.8906 137.2,224.8906 Q136.4344,224.8906 135.7938,225.2188 Q135.1688,225.5469 134.6688,226.2969 Q134.1844,227.0469 134.1844,228.0781 L134.1844,229.1719 Q134.1844,230.4063 135.075,231.2344 Q135.9656,232.0469 137.5594,232.0469 Q138.4969,232.0469 139.1531,231.7969 Q139.5438,231.6406 139.9656,231.2031 Q140.2313,230.9375 140.3719,230.8594 Q140.5281,230.7813 140.7313,230.7813 Q141.0594,230.7813 141.3094,231.0469 Q141.575,231.2969 141.575,231.6406 Q141.575,231.9844 141.2313,232.3906 Q140.7313,232.9688 139.9344,233.2969 Q138.8563,233.75 137.5594,233.75 Q136.0438,233.75 134.8406,233.125 Q133.8563,232.625 133.1688,231.5625 Q132.4813,230.4844 132.4813,229.2031 L132.4813,228.0469 Q132.4813,226.7188 133.0906,225.5781 Q133.7156,224.4219 134.8094,223.8125 Q135.9031,223.1875 137.1375,223.1875 Q137.8719,223.1875 138.5125,223.3594 Q139.1688,223.5156 139.7156,223.875 Z " fill="#000000"/><text fill="#000000" font-family="sans-serif" font-size="14" lengthAdjust="spacing" textLength="79" x="152.05" y="233.7285">yesNoDialog</text><line style="stroke:#181818;stroke-width:0.5;" x1="118" x2="238" y1="244" y2="244"/><line style="stroke:#181818;stroke-width:0.5;" x1="118" x2="238" y1="252" y2="252"/><ellipse cx="128" cy="263" fill="#84BE84" rx="3" ry="3" style="stroke:#038048;stroke-width:1.0;"/><text fill="#000000" font-family="sans-serif" font-size="14" lengthAdjust="spacing" textLength="96" x="137" y="270.5332">read(message)</text><ellipse cx="128" cy="280.6094" fill="#84BE84" rx="3" ry="3" style="stroke:#038048;stroke-width:1.0;"/><text fill="#000000" font-family="sans-serif" font-size="14" lengthAdjust="spacing" textLength="86" x="137" y="288.1426">isAffirmative()</text></g><!--MD5=[400f0600dc490cab46af2e6886caefc3]
class board--><g id="elem_board"><rect codeLine="11" fill="#F1F1F1" height="241.7031" id="board" rx="2.5" ry="2.5" style="stroke:#181818;stroke-width:0.5;" width="276" x="44" y="399"/><ellipse cx="159.25" cy="415" fill="#ADD1B2" rx="11" ry="11" style="stroke:#181818;stroke-width:1.0;"/><path d="M162.0156,410.875 Q162.1719,410.6563 162.3594,410.5469 Q162.5469,410.4375 162.7656,410.4375 Q163.1406,410.4375 163.375,410.7031 Q163.6094,410.9531 163.6094,411.5625 L163.6094,413.0156 Q163.6094,413.625 163.375,413.8906 Q163.1406,414.1563 162.7656,414.1563 Q162.4219,414.1563 162.2188,413.9531 Q162.0156,413.7656 161.9063,413.25 Q161.8594,412.8906 161.6719,412.7031 Q161.3438,412.3281 160.7344,412.1094 Q160.125,411.8906 159.5,411.8906 Q158.7344,411.8906 158.0938,412.2188 Q157.4688,412.5469 156.9688,413.2969 Q156.4844,414.0469 156.4844,415.0781 L156.4844,416.1719 Q156.4844,417.4063 157.375,418.2344 Q158.2656,419.0469 159.8594,419.0469 Q160.7969,419.0469 161.4531,418.7969 Q161.8438,418.6406 162.2656,418.2031 Q162.5313,417.9375 162.6719,417.8594 Q162.8281,417.7813 163.0313,417.7813 Q163.3594,417.7813 163.6094,418.0469 Q163.875,418.2969 163.875,418.6406 Q163.875,418.9844 163.5313,419.3906 Q163.0313,419.9688 162.2344,420.2969 Q161.1563,420.75 159.8594,420.75 Q158.3438,420.75 157.1406,420.125 Q156.1563,419.625 155.4688,418.5625 Q154.7813,417.4844 154.7813,416.2031 L154.7813,415.0469 Q154.7813,413.7188 155.3906,412.5781 Q156.0156,411.4219 157.1094,410.8125 Q158.2031,410.1875 159.4375,410.1875 Q160.1719,410.1875 160.8125,410.3594 Q161.4688,410.5156 162.0156,410.875 Z " fill="#000000"/><text fill="#000000" font-family="sans-serif" font-size="14" lengthAdjust="spacing" textLength="37" x="179.75" y="420.7285">board</text><line style="stroke:#181818;stroke-width:0.5;" x1="45" x2="319" y1="431" y2="431"/><rect fill="none" height="6" style="stroke:#C82930;stroke-width:1.0;" width="6" x="52" y="439"/><text fill="#000000" font-family="sans-serif" font-size="14" lengthAdjust="spacing" textLength="50" x="64" y="449.5332">tokens[]</text><rect fill="none" height="6" style="stroke:#C82930;stroke-width:1.0;" width="6" x="52" y="456.6094"/><text fill="#000000" font-family="sans-serif" font-size="14" lengthAdjust="spacing" textLength="91" x="64" y="467.1426">inLineChecker</text><rect fill="none" height="6" style="stroke:#C82930;stroke-width:1.0;" width="6" x="52" y="474.2188"/><text fill="#000000" font-family="sans-serif" font-size="14" lengthAdjust="spacing" textLength="62" x="64" y="484.752">lastToken</text><line style="stroke:#181818;stroke-width:0.5;" x1="45" x2="319" y1="491.8281" y2="491.8281"/><ellipse cx="55" cy="502.8281" fill="#84BE84" rx="3" ry="3" style="stroke:#038048;stroke-width:1.0;"/><text fill="#000000" font-family="sans-serif" font-size="14" lengthAdjust="spacing" textLength="189" x="64" y="510.3613">reset(maxRows, maxColumns)</text><ellipse cx="55" cy="520.4375" fill="#84BE84" rx="3" ry="3" style="stroke:#038048;stroke-width:1.0;"/><text fill="#000000" font-family="sans-serif" font-size="14" lengthAdjust="spacing" textLength="147" x="64" y="527.9707">isFilledColumn(column)</text><ellipse cx="55" cy="538.0469" fill="#84BE84" rx="3" ry="3" style="stroke:#038048;stroke-width:1.0;"/><text fill="#000000" font-family="sans-serif" font-size="14" lengthAdjust="spacing" textLength="154" x="64" y="545.5801">putToken(column, color)</text><ellipse cx="55" cy="555.6563" fill="#84BE84" rx="3" ry="3" style="stroke:#038048;stroke-width:1.0;"/><text fill="#000000" font-family="sans-serif" font-size="14" lengthAdjust="spacing" textLength="250" x="64" y="563.1895">getFirstEmptyRowFromColumn(column)</text><ellipse cx="55" cy="573.2656" fill="#84BE84" rx="3" ry="3" style="stroke:#038048;stroke-width:1.0;"/><text fill="#000000" font-family="sans-serif" font-size="14" lengthAdjust="spacing" textLength="83" x="64" y="580.7988">isEndGame()</text><ellipse cx="55" cy="590.875" fill="#84BE84" rx="3" ry="3" style="stroke:#038048;stroke-width:1.0;"/><text fill="#000000" font-family="sans-serif" font-size="14" lengthAdjust="spacing" textLength="54" x="64" y="598.4082">isFilled()</text><ellipse cx="55" cy="608.4844" fill="#84BE84" rx="3" ry="3" style="stroke:#038048;stroke-width:1.0;"/><text fill="#000000" font-family="sans-serif" font-size="14" lengthAdjust="spacing" textLength="148" x="64" y="616.0176">isInLineToken(tokens[])</text><ellipse cx="55" cy="626.0938" fill="#84BE84" rx="3" ry="3" style="stroke:#038048;stroke-width:1.0;"/><text fill="#000000" font-family="sans-serif" font-size="14" lengthAdjust="spacing" textLength="77" x="64" y="633.627">getTokens()</text></g><!--MD5=[7e91cb2b0bf0004441ee056e3fe2cc82]
class boardView--><g id="elem_boardView"><rect codeLine="24" fill="#F1F1F1" height="171.2656" id="boardView" rx="2.5" ry="2.5" style="stroke:#181818;stroke-width:0.5;" width="131" x="274.5" y="168"/><ellipse cx="304.35" cy="184" fill="#ADD1B2" rx="11" ry="11" style="stroke:#181818;stroke-width:1.0;"/><path d="M307.1156,179.875 Q307.2719,179.6563 307.4594,179.5469 Q307.6469,179.4375 307.8656,179.4375 Q308.2406,179.4375 308.475,179.7031 Q308.7094,179.9531 308.7094,180.5625 L308.7094,182.0156 Q308.7094,182.625 308.475,182.8906 Q308.2406,183.1563 307.8656,183.1563 Q307.5219,183.1563 307.3188,182.9531 Q307.1156,182.7656 307.0063,182.25 Q306.9594,181.8906 306.7719,181.7031 Q306.4438,181.3281 305.8344,181.1094 Q305.225,180.8906 304.6,180.8906 Q303.8344,180.8906 303.1938,181.2188 Q302.5688,181.5469 302.0688,182.2969 Q301.5844,183.0469 301.5844,184.0781 L301.5844,185.1719 Q301.5844,186.4063 302.475,187.2344 Q303.3656,188.0469 304.9594,188.0469 Q305.8969,188.0469 306.5531,187.7969 Q306.9438,187.6406 307.3656,187.2031 Q307.6313,186.9375 307.7719,186.8594 Q307.9281,186.7813 308.1313,186.7813 Q308.4594,186.7813 308.7094,187.0469 Q308.975,187.2969 308.975,187.6406 Q308.975,187.9844 308.6313,188.3906 Q308.1313,188.9688 307.3344,189.2969 Q306.2563,189.75 304.9594,189.75 Q303.4438,189.75 302.2406,189.125 Q301.2563,188.625 300.5688,187.5625 Q299.8813,186.4844 299.8813,185.2031 L299.8813,184.0469 Q299.8813,182.7188 300.4906,181.5781 Q301.1156,180.4219 302.2094,179.8125 Q303.3031,179.1875 304.5375,179.1875 Q305.2719,179.1875 305.9125,179.3594 Q306.5688,179.5156 307.1156,179.875 Z " fill="#000000"/><text fill="#000000" font-family="sans-serif" font-size="14" lengthAdjust="spacing" textLength="66" x="321.65" y="189.7285">boardView</text><line style="stroke:#181818;stroke-width:0.5;" x1="275.5" x2="404.5" y1="200" y2="200"/><rect fill="none" height="6" style="stroke:#C82930;stroke-width:1.0;" width="6" x="282.5" y="208"/><text fill="#000000" font-family="sans-serif" font-size="14" lengthAdjust="spacing" textLength="79" x="294.5" y="218.5332">MAX_ROWS</text><rect fill="none" height="6" style="stroke:#C82930;stroke-width:1.0;" width="6" x="282.5" y="225.6094"/><text fill="#000000" font-family="sans-serif" font-size="14" lengthAdjust="spacing" textLength="103" x="294.5" y="236.1426">MAX_COLUMNS</text><rect fill="none" height="6" style="stroke:#C82930;stroke-width:1.0;" width="6" x="282.5" y="243.2188"/><text fill="#000000" font-family="sans-serif" font-size="14" lengthAdjust="spacing" textLength="38" x="294.5" y="253.752">Board</text><rect fill="none" height="6" style="stroke:#C82930;stroke-width:1.0;" width="6" x="282.5" y="260.8281"/><text fill="#000000" font-family="sans-serif" font-size="14" lengthAdjust="spacing" textLength="59" x="294.5" y="271.3613">TurnView</text><line style="stroke:#181818;stroke-width:0.5;" x1="275.5" x2="404.5" y1="278.4375" y2="278.4375"/><ellipse cx="285.5" cy="289.4375" fill="#84BE84" rx="3" ry="3" style="stroke:#038048;stroke-width:1.0;"/><text fill="#000000" font-family="sans-serif" font-size="14" lengthAdjust="spacing" textLength="28" x="294.5" y="296.9707">init()</text><ellipse cx="285.5" cy="307.0469" fill="#84BE84" rx="3" ry="3" style="stroke:#038048;stroke-width:1.0;"/><text fill="#000000" font-family="sans-serif" font-size="14" lengthAdjust="spacing" textLength="42" x="294.5" y="314.5801">show()</text><ellipse cx="285.5" cy="324.6563" fill="#84BE84" rx="3" ry="3" style="stroke:#038048;stroke-width:1.0;"/><text fill="#000000" font-family="sans-serif" font-size="14" lengthAdjust="spacing" textLength="105" x="294.5" y="332.1895">showEndGame()</text></g><!--MD5=[4da9fe57077f86121028723fbd49dcb9]
class inLineChecker--><g id="elem_inLineChecker"><rect codeLine="33" fill="#F1F1F1" height="188.875" id="inLineChecker" rx="2.5" ry="2.5" style="stroke:#181818;stroke-width:0.5;" width="232" x="198" y="701"/><ellipse cx="264.25" cy="717" fill="#ADD1B2" rx="11" ry="11" style="stroke:#181818;stroke-width:1.0;"/><path d="M267.0156,712.875 Q267.1719,712.6563 267.3594,712.5469 Q267.5469,712.4375 267.7656,712.4375 Q268.1406,712.4375 268.375,712.7031 Q268.6094,712.9531 268.6094,713.5625 L268.6094,715.0156 Q268.6094,715.625 268.375,715.8906 Q268.1406,716.1563 267.7656,716.1563 Q267.4219,716.1563 267.2188,715.9531 Q267.0156,715.7656 266.9063,715.25 Q266.8594,714.8906 266.6719,714.7031 Q266.3438,714.3281 265.7344,714.1094 Q265.125,713.8906 264.5,713.8906 Q263.7344,713.8906 263.0938,714.2188 Q262.4688,714.5469 261.9688,715.2969 Q261.4844,716.0469 261.4844,717.0781 L261.4844,718.1719 Q261.4844,719.4063 262.375,720.2344 Q263.2656,721.0469 264.8594,721.0469 Q265.7969,721.0469 266.4531,720.7969 Q266.8438,720.6406 267.2656,720.2031 Q267.5313,719.9375 267.6719,719.8594 Q267.8281,719.7813 268.0313,719.7813 Q268.3594,719.7813 268.6094,720.0469 Q268.875,720.2969 268.875,720.6406 Q268.875,720.9844 268.5313,721.3906 Q268.0313,721.9688 267.2344,722.2969 Q266.1563,722.75 264.8594,722.75 Q263.3438,722.75 262.1406,722.125 Q261.1563,721.625 260.4688,720.5625 Q259.7813,719.4844 259.7813,718.2031 L259.7813,717.0469 Q259.7813,715.7188 260.3906,714.5781 Q261.0156,713.4219 262.1094,712.8125 Q263.2031,712.1875 264.4375,712.1875 Q265.1719,712.1875 265.8125,712.3594 Q266.4688,712.5156 267.0156,712.875 Z " fill="#000000"/><text fill="#000000" font-family="sans-serif" font-size="14" lengthAdjust="spacing" textLength="91" x="284.75" y="722.7285">inLineChecker</text><line style="stroke:#181818;stroke-width:0.5;" x1="199" x2="429" y1="733" y2="733"/><rect fill="none" height="6" style="stroke:#C82930;stroke-width:1.0;" width="6" x="206" y="741"/><text fill="#000000" font-family="sans-serif" font-size="14" lengthAdjust="spacing" textLength="42" x="218" y="751.5332">tokens</text><rect fill="none" height="6" style="stroke:#C82930;stroke-width:1.0;" width="6" x="206" y="758.6094"/><text fill="#000000" font-family="sans-serif" font-size="14" lengthAdjust="spacing" textLength="206" x="218" y="769.1426">IN_LINE_NUMBER_OF_TOKENS</text><line style="stroke:#181818;stroke-width:0.5;" x1="199" x2="429" y1="776.2188" y2="776.2188"/><ellipse cx="209" cy="787.2188" fill="#84BE84" rx="3" ry="3" style="stroke:#038048;stroke-width:1.0;"/><text fill="#000000" font-family="sans-serif" font-size="14" lengthAdjust="spacing" textLength="191" x="218" y="794.752">isInLineToken(tokens[], token)</text><rect fill="#F24D5C" height="6" style="stroke:#C82930;stroke-width:1.0;" width="6" x="206" y="801.8281"/><text fill="#000000" font-family="sans-serif" font-size="14" lengthAdjust="spacing" textLength="155" x="218" y="812.3613">isInLineHorizontal(token)</text><rect fill="#F24D5C" height="6" style="stroke:#C82930;stroke-width:1.0;" width="6" x="206" y="819.4375"/><text fill="#000000" font-family="sans-serif" font-size="14" lengthAdjust="spacing" textLength="140" x="218" y="829.9707">isInLineVertical(token)</text><rect fill="#F24D5C" height="6" style="stroke:#C82930;stroke-width:1.0;" width="6" x="206" y="837.0469"/><text fill="#000000" font-family="sans-serif" font-size="14" lengthAdjust="spacing" textLength="149" x="218" y="847.5801">isInLineDiagonal(token)</text><rect fill="#F24D5C" height="6" style="stroke:#C82930;stroke-width:1.0;" width="6" x="206" y="854.6563"/><text fill="#000000" font-family="sans-serif" font-size="14" lengthAdjust="spacing" textLength="202" x="218" y="865.1895">isInLineReverseDiagonal(token)</text><rect fill="#F24D5C" height="6" style="stroke:#C82930;stroke-width:1.0;" width="6" x="206" y="872.2656"/><text fill="#000000" font-family="sans-serif" font-size="14" lengthAdjust="spacing" textLength="158" x="218" y="882.7988">isColorOnPosition(token)</text></g><!--MD5=[606c0e9a527600b962089599cf14ab26]
class token--><g id="elem_token"><rect codeLine="44" fill="#F1F1F1" height="136.0469" id="token" rx="2.5" ry="2.5" style="stroke:#181818;stroke-width:0.5;" width="104" x="59" y="727.5"/><ellipse cx="90.65" cy="743.5" fill="#ADD1B2" rx="11" ry="11" style="stroke:#181818;stroke-width:1.0;"/><path d="M93.4156,739.375 Q93.5719,739.1563 93.7594,739.0469 Q93.9469,738.9375 94.1656,738.9375 Q94.5406,738.9375 94.775,739.2031 Q95.0094,739.4531 95.0094,740.0625 L95.0094,741.5156 Q95.0094,742.125 94.775,742.3906 Q94.5406,742.6563 94.1656,742.6563 Q93.8219,742.6563 93.6188,742.4531 Q93.4156,742.2656 93.3063,741.75 Q93.2594,741.3906 93.0719,741.2031 Q92.7438,740.8281 92.1344,740.6094 Q91.525,740.3906 90.9,740.3906 Q90.1344,740.3906 89.4938,740.7188 Q88.8688,741.0469 88.3688,741.7969 Q87.8844,742.5469 87.8844,743.5781 L87.8844,744.6719 Q87.8844,745.9063 88.775,746.7344 Q89.6656,747.5469 91.2594,747.5469 Q92.1969,747.5469 92.8531,747.2969 Q93.2438,747.1406 93.6656,746.7031 Q93.9313,746.4375 94.0719,746.3594 Q94.2281,746.2813 94.4313,746.2813 Q94.7594,746.2813 95.0094,746.5469 Q95.275,746.7969 95.275,747.1406 Q95.275,747.4844 94.9313,747.8906 Q94.4313,748.4688 93.6344,748.7969 Q92.5563,749.25 91.2594,749.25 Q89.7438,749.25 88.5406,748.625 Q87.5563,748.125 86.8688,747.0625 Q86.1813,745.9844 86.1813,744.7031 L86.1813,743.5469 Q86.1813,742.2188 86.7906,741.0781 Q87.4156,739.9219 88.5094,739.3125 Q89.6031,738.6875 90.8375,738.6875 Q91.5719,738.6875 92.2125,738.8594 Q92.8688,739.0156 93.4156,739.375 Z " fill="#000000"/><text fill="#000000" font-family="sans-serif" font-size="14" lengthAdjust="spacing" textLength="35" x="108.35" y="749.2285">token</text><line style="stroke:#181818;stroke-width:0.5;" x1="60" x2="162" y1="759.5" y2="759.5"/><rect fill="none" height="6" style="stroke:#C82930;stroke-width:1.0;" width="6" x="67" y="767.5"/><text fill="#000000" font-family="sans-serif" font-size="14" lengthAdjust="spacing" textLength="34" x="79" y="778.0332">Color</text><rect fill="none" height="6" style="stroke:#C82930;stroke-width:1.0;" width="6" x="67" y="785.1094"/><text fill="#000000" font-family="sans-serif" font-size="14" lengthAdjust="spacing" textLength="67" x="79" y="795.6426">coordinate</text><line style="stroke:#181818;stroke-width:0.5;" x1="60" x2="162" y1="802.7188" y2="802.7188"/><ellipse cx="70" cy="813.7188" fill="#84BE84" rx="3" ry="3" style="stroke:#038048;stroke-width:1.0;"/><text fill="#000000" font-family="sans-serif" font-size="14" lengthAdjust="spacing" textLength="64" x="79" y="821.252">getColor()</text><ellipse cx="70" cy="831.3281" fill="#84BE84" rx="3" ry="3" style="stroke:#038048;stroke-width:1.0;"/><text fill="#000000" font-family="sans-serif" font-size="14" lengthAdjust="spacing" textLength="57" x="79" y="838.8613">getRow()</text><ellipse cx="70" cy="848.9375" fill="#84BE84" rx="3" ry="3" style="stroke:#038048;stroke-width:1.0;"/><text fill="#000000" font-family="sans-serif" font-size="14" lengthAdjust="spacing" textLength="78" x="79" y="856.4707">getColumn()</text></g><!--MD5=[591ad017c1bea39456346e62f574f03d]
class coordinate--><g id="elem_coordinate"><rect codeLine="52" fill="#F1F1F1" height="118.4375" id="coordinate" rx="2.5" ry="2.5" style="stroke:#181818;stroke-width:0.5;" width="104" x="7" y="950"/><ellipse cx="24.25" cy="966" fill="#ADD1B2" rx="11" ry="11" style="stroke:#181818;stroke-width:1.0;"/><path d="M27.0156,961.875 Q27.1719,961.6563 27.3594,961.5469 Q27.5469,961.4375 27.7656,961.4375 Q28.1406,961.4375 28.375,961.7031 Q28.6094,961.9531 28.6094,962.5625 L28.6094,964.0156 Q28.6094,964.625 28.375,964.8906 Q28.1406,965.1563 27.7656,965.1563 Q27.4219,965.1563 27.2188,964.9531 Q27.0156,964.7656 26.9063,964.25 Q26.8594,963.8906 26.6719,963.7031 Q26.3438,963.3281 25.7344,963.1094 Q25.125,962.8906 24.5,962.8906 Q23.7344,962.8906 23.0938,963.2188 Q22.4688,963.5469 21.9688,964.2969 Q21.4844,965.0469 21.4844,966.0781 L21.4844,967.1719 Q21.4844,968.4063 22.375,969.2344 Q23.2656,970.0469 24.8594,970.0469 Q25.7969,970.0469 26.4531,969.7969 Q26.8438,969.6406 27.2656,969.2031 Q27.5313,968.9375 27.6719,968.8594 Q27.8281,968.7813 28.0313,968.7813 Q28.3594,968.7813 28.6094,969.0469 Q28.875,969.2969 28.875,969.6406 Q28.875,969.9844 28.5313,970.3906 Q28.0313,970.9688 27.2344,971.2969 Q26.1563,971.75 24.8594,971.75 Q23.3438,971.75 22.1406,971.125 Q21.1563,970.625 20.4688,969.5625 Q19.7813,968.4844 19.7813,967.2031 L19.7813,966.0469 Q19.7813,964.7188 20.3906,963.5781 Q21.0156,962.4219 22.1094,961.8125 Q23.2031,961.1875 24.4375,961.1875 Q25.1719,961.1875 25.8125,961.3594 Q26.4688,961.5156 27.0156,961.875 Z " fill="#000000"/><text fill="#000000" font-family="sans-serif" font-size="14" lengthAdjust="spacing" textLength="67" x="38.75" y="971.7285">coordinate</text><line style="stroke:#181818;stroke-width:0.5;" x1="8" x2="110" y1="982" y2="982"/><rect fill="none" height="6" style="stroke:#C82930;stroke-width:1.0;" width="6" x="15" y="990"/><text fill="#000000" font-family="sans-serif" font-size="14" lengthAdjust="spacing" textLength="22" x="27" y="1000.5332">row</text><rect fill="none" height="6" style="stroke:#C82930;stroke-width:1.0;" width="6" x="15" y="1007.6094"/><text fill="#000000" font-family="sans-serif" font-size="14" lengthAdjust="spacing" textLength="45" x="27" y="1018.1426">column</text><line style="stroke:#181818;stroke-width:0.5;" x1="8" x2="110" y1="1025.2188" y2="1025.2188"/><ellipse cx="18" cy="1036.2188" fill="#84BE84" rx="3" ry="3" style="stroke:#038048;stroke-width:1.0;"/><text fill="#000000" font-family="sans-serif" font-size="14" lengthAdjust="spacing" textLength="57" x="27" y="1043.752">getRow()</text><ellipse cx="18" cy="1053.8281" fill="#84BE84" rx="3" ry="3" style="stroke:#038048;stroke-width:1.0;"/><text fill="#000000" font-family="sans-serif" font-size="14" lengthAdjust="spacing" textLength="78" x="27" y="1061.3613">getColumn()</text></g><!--MD5=[46e2fff4e112e858a5bcac690d902864]
class turnView--><g id="elem_turnView"><rect codeLine="59" fill="#F1F1F1" height="136.0469" id="turnView" rx="2.5" ry="2.5" style="stroke:#181818;stroke-width:0.5;" width="215" x="390.5" y="452"/><ellipse cx="466.75" cy="468" fill="#ADD1B2" rx="11" ry="11" style="stroke:#181818;stroke-width:1.0;"/><path d="M469.5156,463.875 Q469.6719,463.6563 469.8594,463.5469 Q470.0469,463.4375 470.2656,463.4375 Q470.6406,463.4375 470.875,463.7031 Q471.1094,463.9531 471.1094,464.5625 L471.1094,466.0156 Q471.1094,466.625 470.875,466.8906 Q470.6406,467.1563 470.2656,467.1563 Q469.9219,467.1563 469.7188,466.9531 Q469.5156,466.7656 469.4063,466.25 Q469.3594,465.8906 469.1719,465.7031 Q468.8438,465.3281 468.2344,465.1094 Q467.625,464.8906 467,464.8906 Q466.2344,464.8906 465.5938,465.2188 Q464.9688,465.5469 464.4688,466.2969 Q463.9844,467.0469 463.9844,468.0781 L463.9844,469.1719 Q463.9844,470.4063 464.875,471.2344 Q465.7656,472.0469 467.3594,472.0469 Q468.2969,472.0469 468.9531,471.7969 Q469.3438,471.6406 469.7656,471.2031 Q470.0313,470.9375 470.1719,470.8594 Q470.3281,470.7813 470.5313,470.7813 Q470.8594,470.7813 471.1094,471.0469 Q471.375,471.2969 471.375,471.6406 Q471.375,471.9844 471.0313,472.3906 Q470.5313,472.9688 469.7344,473.2969 Q468.6563,473.75 467.3594,473.75 Q465.8438,473.75 464.6406,473.125 Q463.6563,472.625 462.9688,471.5625 Q462.2813,470.4844 462.2813,469.2031 L462.2813,468.0469 Q462.2813,466.7188 462.8906,465.5781 Q463.5156,464.4219 464.6094,463.8125 Q465.7031,463.1875 466.9375,463.1875 Q467.6719,463.1875 468.3125,463.3594 Q468.9688,463.5156 469.5156,463.875 Z " fill="#000000"/><text fill="#000000" font-family="sans-serif" font-size="14" lengthAdjust="spacing" textLength="54" x="487.25" y="473.7285">turnView</text><line style="stroke:#181818;stroke-width:0.5;" x1="391.5" x2="604.5" y1="484" y2="484"/><rect fill="none" height="6" style="stroke:#C82930;stroke-width:1.0;" width="6" x="398.5" y="492"/><text fill="#000000" font-family="sans-serif" font-size="14" lengthAdjust="spacing" textLength="25" x="410.5" y="502.5332">turn</text><line style="stroke:#181818;stroke-width:0.5;" x1="391.5" x2="604.5" y1="509.6094" y2="509.6094"/><ellipse cx="401.5" cy="520.6094" fill="#84BE84" rx="3" ry="3" style="stroke:#038048;stroke-width:1.0;"/><text fill="#000000" font-family="sans-serif" font-size="14" lengthAdjust="spacing" textLength="189" x="410.5" y="528.1426">getInputColumn(maxColumns)</text><ellipse cx="401.5" cy="538.2188" fill="#84BE84" rx="3" ry="3" style="stroke:#038048;stroke-width:1.0;"/><text fill="#000000" font-family="sans-serif" font-size="14" lengthAdjust="spacing" textLength="66" x="410.5" y="545.752">nextTurn()</text><ellipse cx="401.5" cy="555.8281" fill="#84BE84" rx="3" ry="3" style="stroke:#038048;stroke-width:1.0;"/><text fill="#000000" font-family="sans-serif" font-size="14" lengthAdjust="spacing" textLength="64" x="410.5" y="563.3613">getColor()</text><ellipse cx="401.5" cy="573.4375" fill="#84BE84" rx="3" ry="3" style="stroke:#038048;stroke-width:1.0;"/><text fill="#000000" font-family="sans-serif" font-size="14" lengthAdjust="spacing" textLength="112" x="410.5" y="580.9707">setInitColor(color)</text></g><!--MD5=[023a942bc7f50f75f4bafc8ed131aced]
class turn--><g id="elem_turn"><rect codeLine="67" fill="#F1F1F1" height="118.4375" id="turn" rx="2.5" ry="2.5" style="stroke:#181818;stroke-width:0.5;" width="138" x="465" y="736.5"/><ellipse cx="517.25" cy="752.5" fill="#ADD1B2" rx="11" ry="11" style="stroke:#181818;stroke-width:1.0;"/><path d="M520.0156,748.375 Q520.1719,748.1563 520.3594,748.0469 Q520.5469,747.9375 520.7656,747.9375 Q521.1406,747.9375 521.375,748.2031 Q521.6094,748.4531 521.6094,749.0625 L521.6094,750.5156 Q521.6094,751.125 521.375,751.3906 Q521.1406,751.6563 520.7656,751.6563 Q520.4219,751.6563 520.2188,751.4531 Q520.0156,751.2656 519.9063,750.75 Q519.8594,750.3906 519.6719,750.2031 Q519.3438,749.8281 518.7344,749.6094 Q518.125,749.3906 517.5,749.3906 Q516.7344,749.3906 516.0938,749.7188 Q515.4688,750.0469 514.9688,750.7969 Q514.4844,751.5469 514.4844,752.5781 L514.4844,753.6719 Q514.4844,754.9063 515.375,755.7344 Q516.2656,756.5469 517.8594,756.5469 Q518.7969,756.5469 519.4531,756.2969 Q519.8438,756.1406 520.2656,755.7031 Q520.5313,755.4375 520.6719,755.3594 Q520.8281,755.2813 521.0313,755.2813 Q521.3594,755.2813 521.6094,755.5469 Q521.875,755.7969 521.875,756.1406 Q521.875,756.4844 521.5313,756.8906 Q521.0313,757.4688 520.2344,757.7969 Q519.1563,758.25 517.8594,758.25 Q516.3438,758.25 515.1406,757.625 Q514.1563,757.125 513.4688,756.0625 Q512.7813,754.9844 512.7813,753.7031 L512.7813,752.5469 Q512.7813,751.2188 513.3906,750.0781 Q514.0156,748.9219 515.1094,748.3125 Q516.2031,747.6875 517.4375,747.6875 Q518.1719,747.6875 518.8125,747.8594 Q519.4688,748.0156 520.0156,748.375 Z " fill="#000000"/><text fill="#000000" font-family="sans-serif" font-size="14" lengthAdjust="spacing" textLength="25" x="537.75" y="758.2285">turn</text><line style="stroke:#181818;stroke-width:0.5;" x1="466" x2="602" y1="768.5" y2="768.5"/><rect fill="none" height="6" style="stroke:#C82930;stroke-width:1.0;" width="6" x="473" y="776.5"/><text fill="#000000" font-family="sans-serif" font-size="14" lengthAdjust="spacing" textLength="31" x="485" y="787.0332">color</text><line style="stroke:#181818;stroke-width:0.5;" x1="466" x2="602" y1="794.1094" y2="794.1094"/><ellipse cx="476" cy="805.1094" fill="#84BE84" rx="3" ry="3" style="stroke:#038048;stroke-width:1.0;"/><text fill="#000000" font-family="sans-serif" font-size="14" lengthAdjust="spacing" textLength="64" x="485" y="812.6426">getColor()</text><ellipse cx="476" cy="822.7188" fill="#84BE84" rx="3" ry="3" style="stroke:#038048;stroke-width:1.0;"/><text fill="#000000" font-family="sans-serif" font-size="14" lengthAdjust="spacing" textLength="66" x="485" y="830.252">nextTurn()</text><ellipse cx="476" cy="840.3281" fill="#84BE84" rx="3" ry="3" style="stroke:#038048;stroke-width:1.0;"/><text fill="#000000" font-family="sans-serif" font-size="14" lengthAdjust="spacing" textLength="112" x="485" y="847.8613">setInitColor(color)</text></g><!--MD5=[b79a6dbdb435efa72378790761c8d246]
class colors--><g id="elem_colors"><rect codeLine="74" fill="#F1F1F1" height="83.2188" id="colors" rx="2.5" ry="2.5" style="stroke:#181818;stroke-width:0.5;" width="70" x="279" y="967.5"/><ellipse cx="294" cy="983.5" fill="#EB937F" rx="11" ry="11" style="stroke:#181818;stroke-width:1.0;"/><path d="M292.8594,984.2969 L292.8594,986.7969 L297.1875,986.7969 L297.1875,985.875 Q297.1875,985.2656 297.4219,985 Q297.6719,984.7344 298.0469,984.7344 Q298.4219,984.7344 298.6563,985 Q298.8906,985.2656 298.8906,985.875 L298.8906,988.5 L290.8906,988.5 Q290.2656,988.5 290,988.2656 Q289.75,988.0313 289.75,987.6406 Q289.75,987.2656 290.0156,987.0313 Q290.2813,986.7969 290.8906,986.7969 L291.1563,986.7969 L291.1563,980.1406 L290.8906,980.1406 Q290.2656,980.1406 290,979.9063 Q289.75,979.6719 289.75,979.2813 Q289.75,978.9063 290,978.6719 Q290.2656,978.4375 290.8906,978.4375 L298.5156,978.4375 L298.5156,981.0313 Q298.5156,981.6406 298.2813,981.9063 Q298.0625,982.1563 297.6719,982.1563 Q297.2969,982.1563 297.0625,981.9063 Q296.8281,981.6406 296.8281,981.0313 L296.8281,980.1406 L292.8594,980.1406 L292.8594,982.5938 L294.3438,982.5938 Q294.3438,981.9375 294.4688,981.75 Q294.7344,981.3438 295.2031,981.3438 Q295.5781,981.3438 295.8125,981.6094 Q296.0469,981.8594 296.0469,982.4688 L296.0469,984.4375 Q296.0469,984.9844 295.9219,985.1719 Q295.6563,985.5625 295.2031,985.5625 Q294.7344,985.5625 294.4688,985.1563 Q294.3438,984.9688 294.3438,984.2969 L292.8594,984.2969 Z " fill="#000000"/><text fill="#000000" font-family="sans-serif" font-size="14" lengthAdjust="spacing" textLength="38" x="308" y="989.2285">colors</text><line style="stroke:#181818;stroke-width:0.5;" x1="280" x2="348" y1="999.5" y2="999.5"/><text fill="#000000" font-family="sans-serif" font-size="14" lengthAdjust="spacing" textLength="26" x="285" y="1018.0332">Red</text><text fill="#000000" font-family="sans-serif" font-size="14" lengthAdjust="spacing" textLength="40" x="285" y="1035.6426">Yellow</text><line style="stroke:#181818;stroke-width:0.5;" x1="280" x2="348" y1="1042.7188" y2="1042.7188"/></g><!--MD5=[3aaa55d472d60a859166b4b0a5dca067]
link connect4 to boardView--><g id="link_connect4_boardView"><path codeLine="79" d="M279.75,108.21 C286.75,124.97 294.8,144.24 302.68,163.11 " fill="none" id="connect4-to-boardView" style="stroke:#181818;stroke-width:1.0;stroke-dasharray:7.0,7.0;"/><polygon fill="#181818" points="304.68,167.9,304.9,158.0536,302.7519,163.2867,297.5187,161.1386,304.68,167.9" style="stroke:#181818;stroke-width:1.0;"/></g><!--MD5=[da575c4dc3d31e7eed0ea63448fe7447]
link connect4 to yesNoDialog--><g id="link_connect4_yesNoDialog"><path codeLine="80" d="M238.25,108.21 C225.52,138.69 209.35,177.41 196.97,207.07 " fill="none" id="connect4-to-yesNoDialog" style="stroke:#181818;stroke-width:1.0;stroke-dasharray:7.0,7.0;"/><polygon fill="#181818" points="195.02,211.75,202.1813,204.9886,196.9481,207.1367,194.8,201.9036,195.02,211.75" style="stroke:#181818;stroke-width:1.0;"/></g><!--MD5=[fb32ec1c38a4eb0577ee459902ecc0e3]
link boardView to board--><g id="link_boardView_board"><path codeLine="81" d="M283.2171,349.5885 C283.2171,349.5885 268.12,374.84 260.73,387.21 " fill="none" id="boardView-board" style="stroke:#181818;stroke-width:1.0;"/><polygon fill="#181818" points="253.95,398.56,261.9965,392.8808,256.512,394.2662,255.1265,388.7817,253.95,398.56" style="stroke:#181818;stroke-width:1.0;"/><line style="stroke:#181818;stroke-width:1.0;" x1="256.512" x2="260.615" y1="394.2662" y2="387.4"/><polygon fill="#181818" points="289.36,339.28,282.8524,342.3866,283.2171,349.5885,289.7247,346.4819,289.36,339.28" style="stroke:#181818;stroke-width:1.0;"/></g><!--MD5=[281ebd2e004ad5cd374ca87d563edc75]
link boardView to turnView--><g id="link_boardView_turnView"><path codeLine="82" d="M390.64,339.28 C411.46,374.13 435.31,414.05 455.23,447.41 " fill="none" id="boardView-to-turnView" style="stroke:#181818;stroke-width:1.0;stroke-dasharray:7.0,7.0;"/><polygon fill="#181818" points="457.89,451.86,456.7135,442.0817,455.3281,447.5662,449.8435,446.1808,457.89,451.86" style="stroke:#181818;stroke-width:1.0;"/></g><!--MD5=[f62d90ac26fd182904d7612b38d0d9ea]
link turnView to turn--><g id="link_turnView_turn"><path codeLine="83" d="M508.4195,600.1569 C508.4195,600.1569 519.68,685.67 524.59,722.98 " fill="none" id="turnView-turn" style="stroke:#181818;stroke-width:1.0;"/><polygon fill="#181818" points="526.34,736.32,529.1298,726.8745,525.6867,731.3629,521.1984,727.9198,526.34,736.32" style="stroke:#181818;stroke-width:1.0;"/><line style="stroke:#181818;stroke-width:1.0;" x1="525.6867" x2="524.645" y1="731.3629" y2="723.425"/><polygon fill="none" points="506.85,588.26,503.6691,594.7316,508.4195,600.1569,511.6004,593.6853,506.85,588.26" style="stroke:#181818;stroke-width:1.0;"/></g><!--MD5=[f41e6990d0a16124120bc990cc7767d3]
link board to token--><g id="link_board_token"><path codeLine="84" d="M147.7411,652.9741 C147.7411,652.9741 136.67,695.61 131.75,714.59 " fill="none" id="board-token" style="stroke:#181818;stroke-width:1.0;"/><polygon fill="#181818" points="128.41,727.42,134.5476,719.7174,129.6692,722.5812,126.8055,717.7027,128.41,727.42" style="stroke:#181818;stroke-width:1.0;"/><line style="stroke:#181818;stroke-width:1.0;" x1="129.6692" x2="131.68" y1="722.5812" y2="714.835"/><polygon fill="none" points="150.76,641.36,145.3792,646.1607,147.7411,652.9741,153.1219,648.1733,150.76,641.36" style="stroke:#181818;stroke-width:1.0;"/></g><!--MD5=[9423bc6e300565d34d7bd0c7b2c4c59e]
link board to inLineChecker--><g id="link_board_inLineChecker"><path codeLine="85" d="M245.2978,652.1711 C245.2978,652.1711 257.32,677.06 262.96,688.75 " fill="none" id="board-inLineChecker" style="stroke:#181818;stroke-width:1.0;"/><polygon fill="#181818" points="268.78,700.81,268.4681,690.9661,266.6056,696.3075,261.2642,694.4451,268.78,700.81" style="stroke:#181818;stroke-width:1.0;"/><line style="stroke:#181818;stroke-width:1.0;" x1="266.6056" x2="263.13" y1="696.3075" y2="689.1"/><polygon fill="none" points="240.09,641.36,239.0902,648.5015,245.2978,652.1711,246.2976,645.0296,240.09,641.36" style="stroke:#181818;stroke-width:1.0;"/></g><!--MD5=[cf39395ebd43fbb806f8d20087ef7f66]
link board to coordinate--><g id="link_board_coordinate"><path codeLine="86" d="M71.06,641.22 C58.79,660.1 48.15,680.27 41,701 C13.12,781.79 27.15,881.59 41.57,945.03 " fill="none" id="board-to-coordinate" style="stroke:#181818;stroke-width:1.0;stroke-dasharray:7.0,7.0;"/><polygon fill="#181818" points="42.7,949.91,44.5655,940.2394,41.5715,945.039,36.772,942.045,42.7,949.91" style="stroke:#181818;stroke-width:1.0;"/></g><!--MD5=[7b26550a28deee329467bb3321892cf3]
link inLineChecker to colors--><g id="link_inLineChecker_colors"><path codeLine="87" d="M314,890.19 C314,915.15 314,941.01 314,962.12 " fill="none" id="inLineChecker-to-colors" style="stroke:#181818;stroke-width:1.0;stroke-dasharray:7.0,7.0;"/><polygon fill="#181818" points="314,967.39,318,958.39,314,962.39,310,958.39,314,967.39" style="stroke:#181818;stroke-width:1.0;"/></g><!--MD5=[ee9db3ee9a0245dbdc28aed3f1ea6503]
link turn to colors--><g id="link_turn_colors"><path codeLine="88" d="M473.9592,863.5112 C473.9592,863.5112 456.33,881.84 448,890 C419.44,917.94 385.68,947.66 359.18,970.28 " fill="none" id="turn-colors" style="stroke:#181818;stroke-width:1.0;"/><polygon fill="#181818" points="349.04,978.9,358.4878,976.1181,352.8494,975.6614,353.3061,970.0231,349.04,978.9" style="stroke:#181818;stroke-width:1.0;"/><line style="stroke:#181818;stroke-width:1.0;" x1="352.8494" x2="358.95" y1="975.6614" y2="970.48"/><polygon fill="none" points="482.17,854.76,475.1475,856.3986,473.9592,863.5112,480.9817,861.8725,482.17,854.76" style="stroke:#181818;stroke-width:1.0;"/></g><!--MD5=[da25e71b20586d566bbfcc342003eadf]
link token to colors--><g id="link_token_colors"><path codeLine="89" d="M165.4588,873.1324 C165.4588,873.1324 175.43,885.02 180,890 C207.29,919.75 241.48,949.76 268.5,972.08 " fill="none" id="token-colors" style="stroke:#181818;stroke-width:1.0;"/><polygon fill="#181818" points="278.85,980.54,274.4112,971.7481,274.978,977.3765,269.3496,977.9433,278.85,980.54" style="stroke:#181818;stroke-width:1.0;"/><line style="stroke:#181818;stroke-width:1.0;" x1="274.978" x2="268.78" y1="977.3765" y2="972.305"/><polygon fill="#181818" points="157.94,863.78,158.582,870.9625,165.4588,873.1324,164.8169,865.9499,157.94,863.78" style="stroke:#181818;stroke-width:1.0;"/></g><!--MD5=[a4790a59275add077948081d63e6bf43]
link token to coordinate--><g id="link_token_coordinate"><path codeLine="90" d="M91.6192,875.364 C91.6192,875.364 81.21,917.67 76.44,937.08 " fill="none" id="token-coordinate" style="stroke:#181818;stroke-width:1.0;"/><polygon fill="#181818" points="73.29,949.87,79.3223,942.0847,74.4833,945.0145,71.5534,940.1754,73.29,949.87" style="stroke:#181818;stroke-width:1.0;"/><line style="stroke:#181818;stroke-width:1.0;" x1="74.4833" x2="76.395" y1="945.0145" y2="937.245"/><polygon fill="#181818" points="94.48,863.71,89.1649,868.5834,91.6192,875.364,96.9343,870.4906,94.48,863.71" style="stroke:#181818;stroke-width:1.0;"/></g><!--MD5=[406bd6b8acb2824cacaf6418bbd2af07]
@startuml

class connect4{
    - boardView
    - yesNoDialog
    + playGame()
}
class yesNoDialog{
    + read(message)
    + isAffirmative()
}
class board{
    - tokens[]
    - inLineChecker
    - lastToken
    + reset(maxRows, maxColumns)
    + isFilledColumn(column)
    + putToken(column, color)
    + getFirstEmptyRowFromColumn(column)
    + isEndGame()
    + isFilled()
    + isInLineToken(tokens[])
    + getTokens()
}
class boardView{
    - MAX_ROWS
    - MAX_COLUMNS
    - Board
    - TurnView
    + init()
    + show()
    + showEndGame()
}
class inLineChecker{
    - tokens
    - IN_LINE_NUMBER_OF_TOKENS
    + isInLineToken(tokens[], token)
    - isInLineHorizontal(token)
    - isInLineVertical(token)
    - isInLineDiagonal(token)
    - isInLineReverseDiagonal(token)
    - isColorOnPosition(token)
}

class token{
    - Color
    - coordinate
    + getColor()
    + getRow()
    + getColumn()
}

class coordinate {
    - row 
    - column
    + getRow()
    + getColumn()
}

class turnView{
    - turn
    + getInputColumn(maxColumns)
    + nextTurn()
    + getColor()
    + setInitColor(color)
}

class turn{
    - color
    + getColor()
    + nextTurn()
    + setInitColor(color)
}

enum colors{
Red
Yellow
}

connect4 ..> boardView
connect4 ..> yesNoDialog
boardView *- -> board
boardView ..> turnView
turnView o- -> turn
board o- -> token
board o- -> inLineChecker
board ..> coordinate
inLineChecker ..> colors
turn o- -> colors
token *- -> colors
token *- -> coordinate
@enduml

PlantUML version 1.2022.5(Sat Apr 30 12:55:52 CEST 2022)
(GPL source distribution)
Java Runtime: OpenJDK Runtime Environment
JVM: OpenJDK 64-Bit Server VM
Default Encoding: UTF-8
Language: es
Country: ES
--></g></svg>