<?xml version="1.0" encoding="UTF-8" standalone="no"?><svg xmlns="http://www.w3.org/2000/svg" xmlns:xlink="http://www.w3.org/1999/xlink" contentStyleType="text/css" height="1075px" preserveAspectRatio="none" style="width:595px;height:1075px;background:#FFFFFF;" version="1.1" viewBox="0 0 595 1075" width="595px" zoomAndPan="magnify"><defs/><g><!--MD5=[c8948ff3b85f2fe890b517bc42f92cc2]
class connect4--><g id="elem_connect4"><rect codeLine="2" fill="#F1F1F1" height="100.8281" id="connect4" rx="2.5" ry="2.5" style="stroke:#181818;stroke-width:0.5;" width="105" x="191.5" y="7"/><ellipse cx="213.25" cy="23" fill="#ADD1B2" rx="11" ry="11" style="stroke:#181818;stroke-width:1.0;"/><path d="M216.0156,18.875 Q216.1719,18.6563 216.3594,18.5469 Q216.5469,18.4375 216.7656,18.4375 Q217.1406,18.4375 217.375,18.7031 Q217.6094,18.9531 217.6094,19.5625 L217.6094,21.0156 Q217.6094,21.625 217.375,21.8906 Q217.1406,22.1563 216.7656,22.1563 Q216.4219,22.1563 216.2188,21.9531 Q216.0156,21.7656 215.9063,21.25 Q215.8594,20.8906 215.6719,20.7031 Q215.3438,20.3281 214.7344,20.1094 Q214.125,19.8906 213.5,19.8906 Q212.7344,19.8906 212.0938,20.2188 Q211.4688,20.5469 210.9688,21.2969 Q210.4844,22.0469 210.4844,23.0781 L210.4844,24.1719 Q210.4844,25.4063 211.375,26.2344 Q212.2656,27.0469 213.8594,27.0469 Q214.7969,27.0469 215.4531,26.7969 Q215.8438,26.6406 216.2656,26.2031 Q216.5313,25.9375 216.6719,25.8594 Q216.8281,25.7813 217.0313,25.7813 Q217.3594,25.7813 217.6094,26.0469 Q217.875,26.2969 217.875,26.6406 Q217.875,26.9844 217.5313,27.3906 Q217.0313,27.9688 216.2344,28.2969 Q215.1563,28.75 213.8594,28.75 Q212.3438,28.75 211.1406,28.125 Q210.1563,27.625 209.4688,26.5625 Q208.7813,25.4844 208.7813,24.2031 L208.7813,23.0469 Q208.7813,21.7188 209.3906,20.5781 Q210.0156,19.4219 211.1094,18.8125 Q212.2031,18.1875 213.4375,18.1875 Q214.1719,18.1875 214.8125,18.3594 Q215.4688,18.5156 216.0156,18.875 Z " fill="#000000"/><text fill="#000000" font-family="sans-serif" font-size="14" lengthAdjust="spacing" textLength="58" x="228.75" y="28.7285">connect4</text><line style="stroke:#181818;stroke-width:0.5;" x1="192.5" x2="295.5" y1="39" y2="39"/><rect fill="none" height="6" style="stroke:#C82930;stroke-width:1.0;" width="6" x="199.5" y="47"/><text fill="#000000" font-family="sans-serif" font-size="14" lengthAdjust="spacing" textLength="66" x="211.5" y="57.5332">boardView</text><rect fill="none" height="6" style="stroke:#C82930;stroke-width:1.0;" width="6" x="199.5" y="64.6094"/><text fill="#000000" font-family="sans-serif" font-size="14" lengthAdjust="spacing" textLength="79" x="211.5" y="75.1426">yesNoDialog</text><line style="stroke:#181818;stroke-width:0.5;" x1="192.5" x2="295.5" y1="82.2188" y2="82.2188"/><ellipse cx="202.5" cy="93.2188" fill="#84BE84" rx="3" ry="3" style="stroke:#038048;stroke-width:1.0;"/><text fill="#000000" font-family="sans-serif" font-size="14" lengthAdjust="spacing" textLength="74" x="211.5" y="100.752">playGame()</text></g><!--MD5=[9a248d0bf8eff2287ebd16a0f5c4d5d9]
class yesNoDialog--><g id="elem_yesNoDialog"><rect codeLine="7" fill="#F1F1F1" height="83.2188" id="yesNoDialog" rx="2.5" ry="2.5" style="stroke:#181818;stroke-width:0.5;" width="122" x="102" y="212"/><ellipse cx="121.95" cy="228" fill="#ADD1B2" rx="11" ry="11" style="stroke:#181818;stroke-width:1.0;"/><path d="M124.7156,223.875 Q124.8719,223.6563 125.0594,223.5469 Q125.2469,223.4375 125.4656,223.4375 Q125.8406,223.4375 126.075,223.7031 Q126.3094,223.9531 126.3094,224.5625 L126.3094,226.0156 Q126.3094,226.625 126.075,226.8906 Q125.8406,227.1563 125.4656,227.1563 Q125.1219,227.1563 124.9188,226.9531 Q124.7156,226.7656 124.6063,226.25 Q124.5594,225.8906 124.3719,225.7031 Q124.0438,225.3281 123.4344,225.1094 Q122.825,224.8906 122.2,224.8906 Q121.4344,224.8906 120.7938,225.2188 Q120.1688,225.5469 119.6688,226.2969 Q119.1844,227.0469 119.1844,228.0781 L119.1844,229.1719 Q119.1844,230.4063 120.075,231.2344 Q120.9656,232.0469 122.5594,232.0469 Q123.4969,232.0469 124.1531,231.7969 Q124.5438,231.6406 124.9656,231.2031 Q125.2313,230.9375 125.3719,230.8594 Q125.5281,230.7813 125.7313,230.7813 Q126.0594,230.7813 126.3094,231.0469 Q126.575,231.2969 126.575,231.6406 Q126.575,231.9844 126.2313,232.3906 Q125.7313,232.9688 124.9344,233.2969 Q123.8563,233.75 122.5594,233.75 Q121.0438,233.75 119.8406,233.125 Q118.8563,232.625 118.1688,231.5625 Q117.4813,230.4844 117.4813,229.2031 L117.4813,228.0469 Q117.4813,226.7188 118.0906,225.5781 Q118.7156,224.4219 119.8094,223.8125 Q120.9031,223.1875 122.1375,223.1875 Q122.8719,223.1875 123.5125,223.3594 Q124.1688,223.5156 124.7156,223.875 Z " fill="#000000"/><text fill="#000000" font-family="sans-serif" font-size="14" lengthAdjust="spacing" textLength="79" x="137.05" y="233.7285">yesNoDialog</text><line style="stroke:#181818;stroke-width:0.5;" x1="103" x2="223" y1="244" y2="244"/><line style="stroke:#181818;stroke-width:0.5;" x1="103" x2="223" y1="252" y2="252"/><ellipse cx="113" cy="263" fill="#84BE84" rx="3" ry="3" style="stroke:#038048;stroke-width:1.0;"/><text fill="#000000" font-family="sans-serif" font-size="14" lengthAdjust="spacing" textLength="96" x="122" y="270.5332">read(message)</text><ellipse cx="113" cy="280.6094" fill="#84BE84" rx="3" ry="3" style="stroke:#038048;stroke-width:1.0;"/><text fill="#000000" font-family="sans-serif" font-size="14" lengthAdjust="spacing" textLength="86" x="122" y="288.1426">isAffirmative()</text></g><!--MD5=[400f0600dc490cab46af2e6886caefc3]
class board--><g id="elem_board"><rect codeLine="11" fill="#F1F1F1" height="241.7031" id="board" rx="2.5" ry="2.5" style="stroke:#181818;stroke-width:0.5;" width="276" x="32" y="399"/><ellipse cx="147.25" cy="415" fill="#ADD1B2" rx="11" ry="11" style="stroke:#181818;stroke-width:1.0;"/><path d="M150.0156,410.875 Q150.1719,410.6563 150.3594,410.5469 Q150.5469,410.4375 150.7656,410.4375 Q151.1406,410.4375 151.375,410.7031 Q151.6094,410.9531 151.6094,411.5625 L151.6094,413.0156 Q151.6094,413.625 151.375,413.8906 Q151.1406,414.1563 150.7656,414.1563 Q150.4219,414.1563 150.2188,413.9531 Q150.0156,413.7656 149.9063,413.25 Q149.8594,412.8906 149.6719,412.7031 Q149.3438,412.3281 148.7344,412.1094 Q148.125,411.8906 147.5,411.8906 Q146.7344,411.8906 146.0938,412.2188 Q145.4688,412.5469 144.9688,413.2969 Q144.4844,414.0469 144.4844,415.0781 L144.4844,416.1719 Q144.4844,417.4063 145.375,418.2344 Q146.2656,419.0469 147.8594,419.0469 Q148.7969,419.0469 149.4531,418.7969 Q149.8438,418.6406 150.2656,418.2031 Q150.5313,417.9375 150.6719,417.8594 Q150.8281,417.7813 151.0313,417.7813 Q151.3594,417.7813 151.6094,418.0469 Q151.875,418.2969 151.875,418.6406 Q151.875,418.9844 151.5313,419.3906 Q151.0313,419.9688 150.2344,420.2969 Q149.1563,420.75 147.8594,420.75 Q146.3438,420.75 145.1406,420.125 Q144.1563,419.625 143.4688,418.5625 Q142.7813,417.4844 142.7813,416.2031 L142.7813,415.0469 Q142.7813,413.7188 143.3906,412.5781 Q144.0156,411.4219 145.1094,410.8125 Q146.2031,410.1875 147.4375,410.1875 Q148.1719,410.1875 148.8125,410.3594 Q149.4688,410.5156 150.0156,410.875 Z " fill="#000000"/><text fill="#000000" font-family="sans-serif" font-size="14" lengthAdjust="spacing" textLength="37" x="167.75" y="420.7285">board</text><line style="stroke:#181818;stroke-width:0.5;" x1="33" x2="307" y1="431" y2="431"/><rect fill="none" height="6" style="stroke:#C82930;stroke-width:1.0;" width="6" x="40" y="439"/><text fill="#000000" font-family="sans-serif" font-size="14" lengthAdjust="spacing" textLength="50" x="52" y="449.5332">tokens[]</text><rect fill="none" height="6" style="stroke:#C82930;stroke-width:1.0;" width="6" x="40" y="456.6094"/><text fill="#000000" font-family="sans-serif" font-size="14" lengthAdjust="spacing" textLength="91" x="52" y="467.1426">inLineChecker</text><rect fill="none" height="6" style="stroke:#C82930;stroke-width:1.0;" width="6" x="40" y="474.2188"/><text fill="#000000" font-family="sans-serif" font-size="14" lengthAdjust="spacing" textLength="62" x="52" y="484.752">lastToken</text><line style="stroke:#181818;stroke-width:0.5;" x1="33" x2="307" y1="491.8281" y2="491.8281"/><ellipse cx="43" cy="502.8281" fill="#84BE84" rx="3" ry="3" style="stroke:#038048;stroke-width:1.0;"/><text fill="#000000" font-family="sans-serif" font-size="14" lengthAdjust="spacing" textLength="189" x="52" y="510.3613">reset(maxRows, maxColumns)</text><ellipse cx="43" cy="520.4375" fill="#84BE84" rx="3" ry="3" style="stroke:#038048;stroke-width:1.0;"/><text fill="#000000" font-family="sans-serif" font-size="14" lengthAdjust="spacing" textLength="147" x="52" y="527.9707">isFilledColumn(column)</text><ellipse cx="43" cy="538.0469" fill="#84BE84" rx="3" ry="3" style="stroke:#038048;stroke-width:1.0;"/><text fill="#000000" font-family="sans-serif" font-size="14" lengthAdjust="spacing" textLength="154" x="52" y="545.5801">putToken(column, color)</text><ellipse cx="43" cy="555.6563" fill="#84BE84" rx="3" ry="3" style="stroke:#038048;stroke-width:1.0;"/><text fill="#000000" font-family="sans-serif" font-size="14" lengthAdjust="spacing" textLength="250" x="52" y="563.1895">getFirstEmptyRowFromColumn(column)</text><ellipse cx="43" cy="573.2656" fill="#84BE84" rx="3" ry="3" style="stroke:#038048;stroke-width:1.0;"/><text fill="#000000" font-family="sans-serif" font-size="14" lengthAdjust="spacing" textLength="83" x="52" y="580.7988">isEndGame()</text><ellipse cx="43" cy="590.875" fill="#84BE84" rx="3" ry="3" style="stroke:#038048;stroke-width:1.0;"/><text fill="#000000" font-family="sans-serif" font-size="14" lengthAdjust="spacing" textLength="54" x="52" y="598.4082">isFilled()</text><ellipse cx="43" cy="608.4844" fill="#84BE84" rx="3" ry="3" style="stroke:#038048;stroke-width:1.0;"/><text fill="#000000" font-family="sans-serif" font-size="14" lengthAdjust="spacing" textLength="148" x="52" y="616.0176">isInLineToken(tokens[])</text><ellipse cx="43" cy="626.0938" fill="#84BE84" rx="3" ry="3" style="stroke:#038048;stroke-width:1.0;"/><text fill="#000000" font-family="sans-serif" font-size="14" lengthAdjust="spacing" textLength="77" x="52" y="633.627">getTokens()</text></g><!--MD5=[7e91cb2b0bf0004441ee056e3fe2cc82]
class boardView--><g id="elem_boardView"><rect codeLine="24" fill="#F1F1F1" height="171.2656" id="boardView" rx="2.5" ry="2.5" style="stroke:#181818;stroke-width:0.5;" width="131" x="259.5" y="168"/><ellipse cx="289.35" cy="184" fill="#ADD1B2" rx="11" ry="11" style="stroke:#181818;stroke-width:1.0;"/><path d="M292.1156,179.875 Q292.2719,179.6563 292.4594,179.5469 Q292.6469,179.4375 292.8656,179.4375 Q293.2406,179.4375 293.475,179.7031 Q293.7094,179.9531 293.7094,180.5625 L293.7094,182.0156 Q293.7094,182.625 293.475,182.8906 Q293.2406,183.1563 292.8656,183.1563 Q292.5219,183.1563 292.3188,182.9531 Q292.1156,182.7656 292.0063,182.25 Q291.9594,181.8906 291.7719,181.7031 Q291.4438,181.3281 290.8344,181.1094 Q290.225,180.8906 289.6,180.8906 Q288.8344,180.8906 288.1938,181.2188 Q287.5688,181.5469 287.0688,182.2969 Q286.5844,183.0469 286.5844,184.0781 L286.5844,185.1719 Q286.5844,186.4063 287.475,187.2344 Q288.3656,188.0469 289.9594,188.0469 Q290.8969,188.0469 291.5531,187.7969 Q291.9438,187.6406 292.3656,187.2031 Q292.6313,186.9375 292.7719,186.8594 Q292.9281,186.7813 293.1313,186.7813 Q293.4594,186.7813 293.7094,187.0469 Q293.975,187.2969 293.975,187.6406 Q293.975,187.9844 293.6313,188.3906 Q293.1313,188.9688 292.3344,189.2969 Q291.2563,189.75 289.9594,189.75 Q288.4438,189.75 287.2406,189.125 Q286.2563,188.625 285.5688,187.5625 Q284.8813,186.4844 284.8813,185.2031 L284.8813,184.0469 Q284.8813,182.7188 285.4906,181.5781 Q286.1156,180.4219 287.2094,179.8125 Q288.3031,179.1875 289.5375,179.1875 Q290.2719,179.1875 290.9125,179.3594 Q291.5688,179.5156 292.1156,179.875 Z " fill="#000000"/><text fill="#000000" font-family="sans-serif" font-size="14" lengthAdjust="spacing" textLength="66" x="306.65" y="189.7285">boardView</text><line style="stroke:#181818;stroke-width:0.5;" x1="260.5" x2="389.5" y1="200" y2="200"/><rect fill="none" height="6" style="stroke:#C82930;stroke-width:1.0;" width="6" x="267.5" y="208"/><text fill="#000000" font-family="sans-serif" font-size="14" lengthAdjust="spacing" textLength="79" x="279.5" y="218.5332">MAX_ROWS</text><rect fill="none" height="6" style="stroke:#C82930;stroke-width:1.0;" width="6" x="267.5" y="225.6094"/><text fill="#000000" font-family="sans-serif" font-size="14" lengthAdjust="spacing" textLength="103" x="279.5" y="236.1426">MAX_COLUMNS</text><rect fill="none" height="6" style="stroke:#C82930;stroke-width:1.0;" width="6" x="267.5" y="243.2188"/><text fill="#000000" font-family="sans-serif" font-size="14" lengthAdjust="spacing" textLength="38" x="279.5" y="253.752">Board</text><rect fill="none" height="6" style="stroke:#C82930;stroke-width:1.0;" width="6" x="267.5" y="260.8281"/><text fill="#000000" font-family="sans-serif" font-size="14" lengthAdjust="spacing" textLength="59" x="279.5" y="271.3613">TurnView</text><line style="stroke:#181818;stroke-width:0.5;" x1="260.5" x2="389.5" y1="278.4375" y2="278.4375"/><ellipse cx="270.5" cy="289.4375" fill="#84BE84" rx="3" ry="3" style="stroke:#038048;stroke-width:1.0;"/><text fill="#000000" font-family="sans-serif" font-size="14" lengthAdjust="spacing" textLength="28" x="279.5" y="296.9707">init()</text><ellipse cx="270.5" cy="307.0469" fill="#84BE84" rx="3" ry="3" style="stroke:#038048;stroke-width:1.0;"/><text fill="#000000" font-family="sans-serif" font-size="14" lengthAdjust="spacing" textLength="42" x="279.5" y="314.5801">show()</text><ellipse cx="270.5" cy="324.6563" fill="#84BE84" rx="3" ry="3" style="stroke:#038048;stroke-width:1.0;"/><text fill="#000000" font-family="sans-serif" font-size="14" lengthAdjust="spacing" textLength="105" x="279.5" y="332.1895">showEndGame()</text></g><!--MD5=[4da9fe57077f86121028723fbd49dcb9]
class inLineChecker--><g id="elem_inLineChecker"><rect codeLine="33" fill="#F1F1F1" height="188.875" id="inLineChecker" rx="2.5" ry="2.5" style="stroke:#181818;stroke-width:0.5;" width="232" x="198" y="701"/><ellipse cx="264.25" cy="717" fill="#ADD1B2" rx="11" ry="11" style="stroke:#181818;stroke-width:1.0;"/><path d="M267.0156,712.875 Q267.1719,712.6563 267.3594,712.5469 Q267.5469,712.4375 267.7656,712.4375 Q268.1406,712.4375 268.375,712.7031 Q268.6094,712.9531 268.6094,713.5625 L268.6094,715.0156 Q268.6094,715.625 268.375,715.8906 Q268.1406,716.1563 267.7656,716.1563 Q267.4219,716.1563 267.2188,715.9531 Q267.0156,715.7656 266.9063,715.25 Q266.8594,714.8906 266.6719,714.7031 Q266.3438,714.3281 265.7344,714.1094 Q265.125,713.8906 264.5,713.8906 Q263.7344,713.8906 263.0938,714.2188 Q262.4688,714.5469 261.9688,715.2969 Q261.4844,716.0469 261.4844,717.0781 L261.4844,718.1719 Q261.4844,719.4063 262.375,720.2344 Q263.2656,721.0469 264.8594,721.0469 Q265.7969,721.0469 266.4531,720.7969 Q266.8438,720.6406 267.2656,720.2031 Q267.5313,719.9375 267.6719,719.8594 Q267.8281,719.7813 268.0313,719.7813 Q268.3594,719.7813 268.6094,720.0469 Q268.875,720.2969 268.875,720.6406 Q268.875,720.9844 268.5313,721.3906 Q268.0313,721.9688 267.2344,722.2969 Q266.1563,722.75 264.8594,722.75 Q263.3438,722.75 262.1406,722.125 Q261.1563,721.625 260.4688,720.5625 Q259.7813,719.4844 259.7813,718.2031 L259.7813,717.0469 Q259.7813,715.7188 260.3906,714.5781 Q261.0156,713.4219 262.1094,712.8125 Q263.2031,712.1875 264.4375,712.1875 Q265.1719,712.1875 265.8125,712.3594 Q266.4688,712.5156 267.0156,712.875 Z " fill="#000000"/><text fill="#000000" font-family="sans-serif" font-size="14" lengthAdjust="spacing" textLength="91" x="284.75" y="722.7285">inLineChecker</text><line style="stroke:#181818;stroke-width:0.5;" x1="199" x2="429" y1="733" y2="733"/><rect fill="none" height="6" style="stroke:#C82930;stroke-width:1.0;" width="6" x="206" y="741"/><text fill="#000000" font-family="sans-serif" font-size="14" lengthAdjust="spacing" textLength="42" x="218" y="751.5332">tokens</text><rect fill="none" height="6" style="stroke:#C82930;stroke-width:1.0;" width="6" x="206" y="758.6094"/><text fill="#000000" font-family="sans-serif" font-size="14" lengthAdjust="spacing" textLength="206" x="218" y="769.1426">IN_LINE_NUMBER_OF_TOKENS</text><line style="stroke:#181818;stroke-width:0.5;" x1="199" x2="429" y1="776.2188" y2="776.2188"/><ellipse cx="209" cy="787.2188" fill="#84BE84" rx="3" ry="3" style="stroke:#038048;stroke-width:1.0;"/><text fill="#000000" font-family="sans-serif" font-size="14" lengthAdjust="spacing" textLength="191" x="218" y="794.752">isInLineToken(tokens[], token)</text><rect fill="#F24D5C" height="6" style="stroke:#C82930;stroke-width:1.0;" width="6" x="206" y="801.8281"/><text fill="#000000" font-family="sans-serif" font-size="14" lengthAdjust="spacing" textLength="155" x="218" y="812.3613">isInLineHorizontal(token)</text><rect fill="#F24D5C" height="6" style="stroke:#C82930;stroke-width:1.0;" width="6" x="206" y="819.4375"/><text fill="#000000" font-family="sans-serif" font-size="14" lengthAdjust="spacing" textLength="140" x="218" y="829.9707">isInLineVertical(token)</text><rect fill="#F24D5C" height="6" style="stroke:#C82930;stroke-width:1.0;" width="6" x="206" y="837.0469"/><text fill="#000000" font-family="sans-serif" font-size="14" lengthAdjust="spacing" textLength="149" x="218" y="847.5801">isInLineDiagonal(token)</text><rect fill="#F24D5C" height="6" style="stroke:#C82930;stroke-width:1.0;" width="6" x="206" y="854.6563"/><text fill="#000000" font-family="sans-serif" font-size="14" lengthAdjust="spacing" textLength="202" x="218" y="865.1895">isInLineReverseDiagonal(token)</text><rect fill="#F24D5C" height="6" style="stroke:#C82930;stroke-width:1.0;" width="6" x="206" y="872.2656"/><text fill="#000000" font-family="sans-serif" font-size="14" lengthAdjust="spacing" textLength="158" x="218" y="882.7988">isColorOnPosition(token)</text></g><!--MD5=[606c0e9a527600b962089599cf14ab26]
class token--><g id="elem_token"><rect codeLine="44" fill="#F1F1F1" height="136.0469" id="token" rx="2.5" ry="2.5" style="stroke:#181818;stroke-width:0.5;" width="104" x="59" y="727.5"/><ellipse cx="90.65" cy="743.5" fill="#ADD1B2" rx="11" ry="11" style="stroke:#181818;stroke-width:1.0;"/><path d="M93.4156,739.375 Q93.5719,739.1563 93.7594,739.0469 Q93.9469,738.9375 94.1656,738.9375 Q94.5406,738.9375 94.775,739.2031 Q95.0094,739.4531 95.0094,740.0625 L95.0094,741.5156 Q95.0094,742.125 94.775,742.3906 Q94.5406,742.6563 94.1656,742.6563 Q93.8219,742.6563 93.6188,742.4531 Q93.4156,742.2656 93.3063,741.75 Q93.2594,741.3906 93.0719,741.2031 Q92.7438,740.8281 92.1344,740.6094 Q91.525,740.3906 90.9,740.3906 Q90.1344,740.3906 89.4938,740.7188 Q88.8688,741.0469 88.3688,741.7969 Q87.8844,742.5469 87.8844,743.5781 L87.8844,744.6719 Q87.8844,745.9063 88.775,746.7344 Q89.6656,747.5469 91.2594,747.5469 Q92.1969,747.5469 92.8531,747.2969 Q93.2438,747.1406 93.6656,746.7031 Q93.9313,746.4375 94.0719,746.3594 Q94.2281,746.2813 94.4313,746.2813 Q94.7594,746.2813 95.0094,746.5469 Q95.275,746.7969 95.275,747.1406 Q95.275,747.4844 94.9313,747.8906 Q94.4313,748.4688 93.6344,748.7969 Q92.5563,749.25 91.2594,749.25 Q89.7438,749.25 88.5406,748.625 Q87.5563,748.125 86.8688,747.0625 Q86.1813,745.9844 86.1813,744.7031 L86.1813,743.5469 Q86.1813,742.2188 86.7906,741.0781 Q87.4156,739.9219 88.5094,739.3125 Q89.6031,738.6875 90.8375,738.6875 Q91.5719,738.6875 92.2125,738.8594 Q92.8688,739.0156 93.4156,739.375 Z " fill="#000000"/><text fill="#000000" font-family="sans-serif" font-size="14" lengthAdjust="spacing" textLength="35" x="108.35" y="749.2285">token</text><line style="stroke:#181818;stroke-width:0.5;" x1="60" x2="162" y1="759.5" y2="759.5"/><rect fill="none" height="6" style="stroke:#C82930;stroke-width:1.0;" width="6" x="67" y="767.5"/><text fill="#000000" font-family="sans-serif" font-size="14" lengthAdjust="spacing" textLength="34" x="79" y="778.0332">Color</text><rect fill="none" height="6" style="stroke:#C82930;stroke-width:1.0;" width="6" x="67" y="785.1094"/><text fill="#000000" font-family="sans-serif" font-size="14" lengthAdjust="spacing" textLength="67" x="79" y="795.6426">coordinate</text><line style="stroke:#181818;stroke-width:0.5;" x1="60" x2="162" y1="802.7188" y2="802.7188"/><ellipse cx="70" cy="813.7188" fill="#84BE84" rx="3" ry="3" style="stroke:#038048;stroke-width:1.0;"/><text fill="#000000" font-family="sans-serif" font-size="14" lengthAdjust="spacing" textLength="64" x="79" y="821.252">getColor()</text><ellipse cx="70" cy="831.3281" fill="#84BE84" rx="3" ry="3" style="stroke:#038048;stroke-width:1.0;"/><text fill="#000000" font-family="sans-serif" font-size="14" lengthAdjust="spacing" textLength="57" x="79" y="838.8613">getRow()</text><ellipse cx="70" cy="848.9375" fill="#84BE84" rx="3" ry="3" style="stroke:#038048;stroke-width:1.0;"/><text fill="#000000" font-family="sans-serif" font-size="14" lengthAdjust="spacing" textLength="78" x="79" y="856.4707">getColumn()</text></g><!--MD5=[591ad017c1bea39456346e62f574f03d]
class coordinate--><g id="elem_coordinate"><rect codeLine="52" fill="#F1F1F1" height="118.4375" id="coordinate" rx="2.5" ry="2.5" style="stroke:#181818;stroke-width:0.5;" width="104" x="7" y="950"/><ellipse cx="24.25" cy="966" fill="#ADD1B2" rx="11" ry="11" style="stroke:#181818;stroke-width:1.0;"/><path d="M27.0156,961.875 Q27.1719,961.6563 27.3594,961.5469 Q27.5469,961.4375 27.7656,961.4375 Q28.1406,961.4375 28.375,961.7031 Q28.6094,961.9531 28.6094,962.5625 L28.6094,964.0156 Q28.6094,964.625 28.375,964.8906 Q28.1406,965.1563 27.7656,965.1563 Q27.4219,965.1563 27.2188,964.9531 Q27.0156,964.7656 26.9063,964.25 Q26.8594,963.8906 26.6719,963.7031 Q26.3438,963.3281 25.7344,963.1094 Q25.125,962.8906 24.5,962.8906 Q23.7344,962.8906 23.0938,963.2188 Q22.4688,963.5469 21.9688,964.2969 Q21.4844,965.0469 21.4844,966.0781 L21.4844,967.1719 Q21.4844,968.4063 22.375,969.2344 Q23.2656,970.0469 24.8594,970.0469 Q25.7969,970.0469 26.4531,969.7969 Q26.8438,969.6406 27.2656,969.2031 Q27.5313,968.9375 27.6719,968.8594 Q27.8281,968.7813 28.0313,968.7813 Q28.3594,968.7813 28.6094,969.0469 Q28.875,969.2969 28.875,969.6406 Q28.875,969.9844 28.5313,970.3906 Q28.0313,970.9688 27.2344,971.2969 Q26.1563,971.75 24.8594,971.75 Q23.3438,971.75 22.1406,971.125 Q21.1563,970.625 20.4688,969.5625 Q19.7813,968.4844 19.7813,967.2031 L19.7813,966.0469 Q19.7813,964.7188 20.3906,963.5781 Q21.0156,962.4219 22.1094,961.8125 Q23.2031,961.1875 24.4375,961.1875 Q25.1719,961.1875 25.8125,961.3594 Q26.4688,961.5156 27.0156,961.875 Z " fill="#000000"/><text fill="#000000" font-family="sans-serif" font-size="14" lengthAdjust="spacing" textLength="67" x="38.75" y="971.7285">coordinate</text><line style="stroke:#181818;stroke-width:0.5;" x1="8" x2="110" y1="982" y2="982"/><rect fill="none" height="6" style="stroke:#C82930;stroke-width:1.0;" width="6" x="15" y="990"/><text fill="#000000" font-family="sans-serif" font-size="14" lengthAdjust="spacing" textLength="22" x="27" y="1000.5332">row</text><rect fill="none" height="6" style="stroke:#C82930;stroke-width:1.0;" width="6" x="15" y="1007.6094"/><text fill="#000000" font-family="sans-serif" font-size="14" lengthAdjust="spacing" textLength="45" x="27" y="1018.1426">column</text><line style="stroke:#181818;stroke-width:0.5;" x1="8" x2="110" y1="1025.2188" y2="1025.2188"/><ellipse cx="18" cy="1036.2188" fill="#84BE84" rx="3" ry="3" style="stroke:#038048;stroke-width:1.0;"/><text fill="#000000" font-family="sans-serif" font-size="14" lengthAdjust="spacing" textLength="57" x="27" y="1043.752">getRow()</text><ellipse cx="18" cy="1053.8281" fill="#84BE84" rx="3" ry="3" style="stroke:#038048;stroke-width:1.0;"/><text fill="#000000" font-family="sans-serif" font-size="14" lengthAdjust="spacing" textLength="78" x="27" y="1061.3613">getColumn()</text></g><!--MD5=[46e2fff4e112e858a5bcac690d902864]
class turnView--><g id="elem_turnView"><rect codeLine="59" fill="#F1F1F1" height="118.4375" id="turnView" rx="2.5" ry="2.5" style="stroke:#181818;stroke-width:0.5;" width="215" x="373.5" y="461"/><ellipse cx="449.75" cy="477" fill="#ADD1B2" rx="11" ry="11" style="stroke:#181818;stroke-width:1.0;"/><path d="M452.5156,472.875 Q452.6719,472.6563 452.8594,472.5469 Q453.0469,472.4375 453.2656,472.4375 Q453.6406,472.4375 453.875,472.7031 Q454.1094,472.9531 454.1094,473.5625 L454.1094,475.0156 Q454.1094,475.625 453.875,475.8906 Q453.6406,476.1563 453.2656,476.1563 Q452.9219,476.1563 452.7188,475.9531 Q452.5156,475.7656 452.4063,475.25 Q452.3594,474.8906 452.1719,474.7031 Q451.8438,474.3281 451.2344,474.1094 Q450.625,473.8906 450,473.8906 Q449.2344,473.8906 448.5938,474.2188 Q447.9688,474.5469 447.4688,475.2969 Q446.9844,476.0469 446.9844,477.0781 L446.9844,478.1719 Q446.9844,479.4063 447.875,480.2344 Q448.7656,481.0469 450.3594,481.0469 Q451.2969,481.0469 451.9531,480.7969 Q452.3438,480.6406 452.7656,480.2031 Q453.0313,479.9375 453.1719,479.8594 Q453.3281,479.7813 453.5313,479.7813 Q453.8594,479.7813 454.1094,480.0469 Q454.375,480.2969 454.375,480.6406 Q454.375,480.9844 454.0313,481.3906 Q453.5313,481.9688 452.7344,482.2969 Q451.6563,482.75 450.3594,482.75 Q448.8438,482.75 447.6406,482.125 Q446.6563,481.625 445.9688,480.5625 Q445.2813,479.4844 445.2813,478.2031 L445.2813,477.0469 Q445.2813,475.7188 445.8906,474.5781 Q446.5156,473.4219 447.6094,472.8125 Q448.7031,472.1875 449.9375,472.1875 Q450.6719,472.1875 451.3125,472.3594 Q451.9688,472.5156 452.5156,472.875 Z " fill="#000000"/><text fill="#000000" font-family="sans-serif" font-size="14" lengthAdjust="spacing" textLength="54" x="470.25" y="482.7285">turnView</text><line style="stroke:#181818;stroke-width:0.5;" x1="374.5" x2="587.5" y1="493" y2="493"/><rect fill="none" height="6" style="stroke:#C82930;stroke-width:1.0;" width="6" x="381.5" y="501"/><text fill="#000000" font-family="sans-serif" font-size="14" lengthAdjust="spacing" textLength="25" x="393.5" y="511.5332">turn</text><line style="stroke:#181818;stroke-width:0.5;" x1="374.5" x2="587.5" y1="518.6094" y2="518.6094"/><ellipse cx="384.5" cy="529.6094" fill="#84BE84" rx="3" ry="3" style="stroke:#038048;stroke-width:1.0;"/><text fill="#000000" font-family="sans-serif" font-size="14" lengthAdjust="spacing" textLength="189" x="393.5" y="537.1426">getInputColumn(maxColumns)</text><ellipse cx="384.5" cy="547.2188" fill="#84BE84" rx="3" ry="3" style="stroke:#038048;stroke-width:1.0;"/><text fill="#000000" font-family="sans-serif" font-size="14" lengthAdjust="spacing" textLength="66" x="393.5" y="554.752">nextTurn()</text><ellipse cx="384.5" cy="564.8281" fill="#84BE84" rx="3" ry="3" style="stroke:#038048;stroke-width:1.0;"/><text fill="#000000" font-family="sans-serif" font-size="14" lengthAdjust="spacing" textLength="64" x="393.5" y="572.3613">getColor()</text></g><!--MD5=[023a942bc7f50f75f4bafc8ed131aced]
class turn--><g id="elem_turn"><rect codeLine="66" fill="#F1F1F1" height="100.8281" id="turn" rx="2.5" ry="2.5" style="stroke:#181818;stroke-width:0.5;" width="92" x="465" y="745"/><ellipse cx="495.75" cy="761" fill="#ADD1B2" rx="11" ry="11" style="stroke:#181818;stroke-width:1.0;"/><path d="M498.5156,756.875 Q498.6719,756.6563 498.8594,756.5469 Q499.0469,756.4375 499.2656,756.4375 Q499.6406,756.4375 499.875,756.7031 Q500.1094,756.9531 500.1094,757.5625 L500.1094,759.0156 Q500.1094,759.625 499.875,759.8906 Q499.6406,760.1563 499.2656,760.1563 Q498.9219,760.1563 498.7188,759.9531 Q498.5156,759.7656 498.4063,759.25 Q498.3594,758.8906 498.1719,758.7031 Q497.8438,758.3281 497.2344,758.1094 Q496.625,757.8906 496,757.8906 Q495.2344,757.8906 494.5938,758.2188 Q493.9688,758.5469 493.4688,759.2969 Q492.9844,760.0469 492.9844,761.0781 L492.9844,762.1719 Q492.9844,763.4063 493.875,764.2344 Q494.7656,765.0469 496.3594,765.0469 Q497.2969,765.0469 497.9531,764.7969 Q498.3438,764.6406 498.7656,764.2031 Q499.0313,763.9375 499.1719,763.8594 Q499.3281,763.7813 499.5313,763.7813 Q499.8594,763.7813 500.1094,764.0469 Q500.375,764.2969 500.375,764.6406 Q500.375,764.9844 500.0313,765.3906 Q499.5313,765.9688 498.7344,766.2969 Q497.6563,766.75 496.3594,766.75 Q494.8438,766.75 493.6406,766.125 Q492.6563,765.625 491.9688,764.5625 Q491.2813,763.4844 491.2813,762.2031 L491.2813,761.0469 Q491.2813,759.7188 491.8906,758.5781 Q492.5156,757.4219 493.6094,756.8125 Q494.7031,756.1875 495.9375,756.1875 Q496.6719,756.1875 497.3125,756.3594 Q497.9688,756.5156 498.5156,756.875 Z " fill="#000000"/><text fill="#000000" font-family="sans-serif" font-size="14" lengthAdjust="spacing" textLength="25" x="513.25" y="766.7285">turn</text><line style="stroke:#181818;stroke-width:0.5;" x1="466" x2="556" y1="777" y2="777"/><rect fill="none" height="6" style="stroke:#C82930;stroke-width:1.0;" width="6" x="473" y="785"/><text fill="#000000" font-family="sans-serif" font-size="14" lengthAdjust="spacing" textLength="31" x="485" y="795.5332">color</text><line style="stroke:#181818;stroke-width:0.5;" x1="466" x2="556" y1="802.6094" y2="802.6094"/><ellipse cx="476" cy="813.6094" fill="#84BE84" rx="3" ry="3" style="stroke:#038048;stroke-width:1.0;"/><text fill="#000000" font-family="sans-serif" font-size="14" lengthAdjust="spacing" textLength="66" x="485" y="821.1426">nextTurn()</text><ellipse cx="476" cy="831.2188" fill="#84BE84" rx="3" ry="3" style="stroke:#038048;stroke-width:1.0;"/><text fill="#000000" font-family="sans-serif" font-size="14" lengthAdjust="spacing" textLength="64" x="485" y="838.752">getColor()</text></g><!--MD5=[b79a6dbdb435efa72378790761c8d246]
class colors--><g id="elem_colors"><rect codeLine="72" fill="#F1F1F1" height="83.2188" id="colors" rx="2.5" ry="2.5" style="stroke:#181818;stroke-width:0.5;" width="70" x="279" y="967.5"/><ellipse cx="294" cy="983.5" fill="#EB937F" rx="11" ry="11" style="stroke:#181818;stroke-width:1.0;"/><path d="M292.8594,984.2969 L292.8594,986.7969 L297.1875,986.7969 L297.1875,985.875 Q297.1875,985.2656 297.4219,985 Q297.6719,984.7344 298.0469,984.7344 Q298.4219,984.7344 298.6563,985 Q298.8906,985.2656 298.8906,985.875 L298.8906,988.5 L290.8906,988.5 Q290.2656,988.5 290,988.2656 Q289.75,988.0313 289.75,987.6406 Q289.75,987.2656 290.0156,987.0313 Q290.2813,986.7969 290.8906,986.7969 L291.1563,986.7969 L291.1563,980.1406 L290.8906,980.1406 Q290.2656,980.1406 290,979.9063 Q289.75,979.6719 289.75,979.2813 Q289.75,978.9063 290,978.6719 Q290.2656,978.4375 290.8906,978.4375 L298.5156,978.4375 L298.5156,981.0313 Q298.5156,981.6406 298.2813,981.9063 Q298.0625,982.1563 297.6719,982.1563 Q297.2969,982.1563 297.0625,981.9063 Q296.8281,981.6406 296.8281,981.0313 L296.8281,980.1406 L292.8594,980.1406 L292.8594,982.5938 L294.3438,982.5938 Q294.3438,981.9375 294.4688,981.75 Q294.7344,981.3438 295.2031,981.3438 Q295.5781,981.3438 295.8125,981.6094 Q296.0469,981.8594 296.0469,982.4688 L296.0469,984.4375 Q296.0469,984.9844 295.9219,985.1719 Q295.6563,985.5625 295.2031,985.5625 Q294.7344,985.5625 294.4688,985.1563 Q294.3438,984.9688 294.3438,984.2969 L292.8594,984.2969 Z " fill="#000000"/><text fill="#000000" font-family="sans-serif" font-size="14" lengthAdjust="spacing" textLength="38" x="308" y="989.2285">colors</text><line style="stroke:#181818;stroke-width:0.5;" x1="280" x2="348" y1="999.5" y2="999.5"/><text fill="#000000" font-family="sans-serif" font-size="14" lengthAdjust="spacing" textLength="26" x="285" y="1018.0332">Red</text><text fill="#000000" font-family="sans-serif" font-size="14" lengthAdjust="spacing" textLength="40" x="285" y="1035.6426">Yellow</text><line style="stroke:#181818;stroke-width:0.5;" x1="280" x2="348" y1="1042.7188" y2="1042.7188"/></g><!--MD5=[3aaa55d472d60a859166b4b0a5dca067]
link connect4 to boardView--><g id="link_connect4_boardView"><path codeLine="77" d="M264.75,108.21 C271.75,124.97 279.8,144.24 287.68,163.11 " fill="none" id="connect4-to-boardView" style="stroke:#181818;stroke-width:1.0;stroke-dasharray:7.0,7.0;"/><polygon fill="#181818" points="289.68,167.9,289.9,158.0536,287.7519,163.2867,282.5187,161.1386,289.68,167.9" style="stroke:#181818;stroke-width:1.0;"/></g><!--MD5=[da575c4dc3d31e7eed0ea63448fe7447]
link connect4 to yesNoDialog--><g id="link_connect4_yesNoDialog"><path codeLine="78" d="M223.25,108.21 C210.52,138.69 194.35,177.41 181.97,207.07 " fill="none" id="connect4-to-yesNoDialog" style="stroke:#181818;stroke-width:1.0;stroke-dasharray:7.0,7.0;"/><polygon fill="#181818" points="180.02,211.75,187.1813,204.9886,181.9481,207.1367,179.8,201.9036,180.02,211.75" style="stroke:#181818;stroke-width:1.0;"/></g><!--MD5=[fb32ec1c38a4eb0577ee459902ecc0e3]
link boardView to board--><g id="link_boardView_board"><path codeLine="79" d="M269.2531,349.6334 C269.2531,349.6334 254.48,374.84 247.23,387.21 " fill="none" id="boardView-board" style="stroke:#181818;stroke-width:1.0;"/><polygon fill="#181818" points="240.58,398.56,248.5813,392.8173,243.1079,394.2461,241.6791,388.7727,240.58,398.56" style="stroke:#181818;stroke-width:1.0;"/><line style="stroke:#181818;stroke-width:1.0;" x1="243.1079" x2="247.155" y1="394.2461" y2="387.34"/><polygon fill="#181818" points="275.32,339.28,268.8354,342.4344,269.2531,349.6334,275.7377,346.479,275.32,339.28" style="stroke:#181818;stroke-width:1.0;"/></g><!--MD5=[281ebd2e004ad5cd374ca87d563edc75]
link boardView to turnView--><g id="link_boardView_turnView"><path codeLine="80" d="M375,339.28 C397.35,377.17 423.23,421.05 443.82,455.97 " fill="none" id="boardView-to-turnView" style="stroke:#181818;stroke-width:1.0;stroke-dasharray:7.0,7.0;"/><polygon fill="#181818" points="446.57,460.62,445.4319,450.8371,444.0249,456.3162,438.5458,454.9093,446.57,460.62" style="stroke:#181818;stroke-width:1.0;"/></g><!--MD5=[f62d90ac26fd182904d7612b38d0d9ea]
link turnView to turn--><g id="link_turnView_turn"><path codeLine="81" d="M488.6663,590.9287 C488.6663,590.9287 499.56,690.16 504.12,731.8 " fill="none" id="turnView-turn" style="stroke:#181818;stroke-width:1.0;"/><polygon fill="#181818" points="505.55,744.83,508.5373,735.4451,505.0009,739.8602,500.5857,736.3238,505.55,744.83" style="stroke:#181818;stroke-width:1.0;"/><line style="stroke:#181818;stroke-width:1.0;" x1="505.0009" x2="504.135" y1="739.8602" y2="731.91"/><polygon fill="none" points="487.36,579,484.0369,585.3998,488.6663,590.9287,491.9894,584.5289,487.36,579" style="stroke:#181818;stroke-width:1.0;"/></g><!--MD5=[f41e6990d0a16124120bc990cc7767d3]
link board to token--><g id="link_board_token"><path codeLine="82" d="M141.5067,653.0896 C141.5067,653.0896 132.33,695.61 128.24,714.59 " fill="none" id="board-token" style="stroke:#181818;stroke-width:1.0;"/><polygon fill="#181818" points="125.47,727.42,131.278,719.4659,126.5244,722.5324,123.4579,717.7789,125.47,727.42" style="stroke:#181818;stroke-width:1.0;"/><line style="stroke:#181818;stroke-width:1.0;" x1="126.5244" x2="128.21" y1="722.5324" y2="714.71"/><polygon fill="none" points="144.04,641.36,138.8635,646.3804,141.5067,653.0896,146.6832,648.0692,144.04,641.36" style="stroke:#181818;stroke-width:1.0;"/></g><!--MD5=[9423bc6e300565d34d7bd0c7b2c4c59e]
link board to inLineChecker--><g id="link_board_inLineChecker"><path codeLine="83" d="M238.9622,651.9773 C238.9622,651.9773 252.3,677.31 258.52,689.12 " fill="none" id="board-inLineChecker" style="stroke:#181818;stroke-width:1.0;"/><polygon fill="#181818" points="264.67,700.81,264.0149,690.983,262.3399,696.3861,256.9367,694.7111,264.67,700.81" style="stroke:#181818;stroke-width:1.0;"/><line style="stroke:#181818;stroke-width:1.0;" x1="262.3399" x2="258.615" y1="696.3861" y2="689.31"/><polygon fill="none" points="233.37,641.36,232.627,648.5327,238.9622,651.9773,239.7052,644.8046,233.37,641.36" style="stroke:#181818;stroke-width:1.0;"/></g><!--MD5=[cf39395ebd43fbb806f8d20087ef7f66]
link board to coordinate--><g id="link_board_coordinate"><path codeLine="84" d="M69.03,641.14 C57.55,660.18 47.62,680.41 41,701 C14.95,782.08 28.35,881.32 42.15,944.6 " fill="none" id="board-to-coordinate" style="stroke:#181818;stroke-width:1.0;stroke-dasharray:7.0,7.0;"/><polygon fill="#181818" points="43.32,949.85,45.2664,940.1954,42.2323,944.9697,37.458,941.9357,43.32,949.85" style="stroke:#181818;stroke-width:1.0;"/></g><!--MD5=[7b26550a28deee329467bb3321892cf3]
link inLineChecker to colors--><g id="link_inLineChecker_colors"><path codeLine="85" d="M314,890.19 C314,915.15 314,941.01 314,962.12 " fill="none" id="inLineChecker-to-colors" style="stroke:#181818;stroke-width:1.0;stroke-dasharray:7.0,7.0;"/><polygon fill="#181818" points="314,967.39,318,958.39,314,962.39,310,958.39,314,967.39" style="stroke:#181818;stroke-width:1.0;"/></g><!--MD5=[ee9db3ee9a0245dbdc28aed3f1ea6503]
link turn to colors--><g id="link_turn_colors"><path codeLine="86" d="M474.1165,856.1992 C474.1165,856.1992 456.91,879.86 448,890 C421.27,920.43 386.92,950.53 359.69,972.72 " fill="none" id="turn-colors" style="stroke:#181818;stroke-width:1.0;"/><polygon fill="#181818" points="349.26,981.12,358.7784,978.5902,353.1541,977.9838,353.7605,972.3596,349.26,981.12" style="stroke:#181818;stroke-width:1.0;"/><line style="stroke:#181818;stroke-width:1.0;" x1="353.1541" x2="359.385" y1="977.9838" y2="972.965"/><polygon fill="none" points="480.87,846.28,474.1869,848.9884,474.1165,856.1992,480.7997,853.4908,480.87,846.28" style="stroke:#181818;stroke-width:1.0;"/></g><!--MD5=[da25e71b20586d566bbfcc342003eadf]
link token to colors--><g id="link_token_colors"><path codeLine="87" d="M165.4588,873.1324 C165.4588,873.1324 175.43,885.02 180,890 C207.29,919.75 241.48,949.76 268.5,972.08 " fill="none" id="token-colors" style="stroke:#181818;stroke-width:1.0;"/><polygon fill="#181818" points="278.85,980.54,274.4112,971.7481,274.978,977.3765,269.3496,977.9433,278.85,980.54" style="stroke:#181818;stroke-width:1.0;"/><line style="stroke:#181818;stroke-width:1.0;" x1="274.978" x2="268.78" y1="977.3765" y2="972.305"/><polygon fill="#181818" points="157.94,863.78,158.582,870.9625,165.4588,873.1324,164.8169,865.9499,157.94,863.78" style="stroke:#181818;stroke-width:1.0;"/></g><!--MD5=[a4790a59275add077948081d63e6bf43]
link token to coordinate--><g id="link_token_coordinate"><path codeLine="88" d="M91.6192,875.364 C91.6192,875.364 81.21,917.67 76.44,937.08 " fill="none" id="token-coordinate" style="stroke:#181818;stroke-width:1.0;"/><polygon fill="#181818" points="73.29,949.87,79.3223,942.0847,74.4833,945.0145,71.5534,940.1754,73.29,949.87" style="stroke:#181818;stroke-width:1.0;"/><line style="stroke:#181818;stroke-width:1.0;" x1="74.4833" x2="76.395" y1="945.0145" y2="937.245"/><polygon fill="#181818" points="94.48,863.71,89.1649,868.5834,91.6192,875.364,96.9343,870.4906,94.48,863.71" style="stroke:#181818;stroke-width:1.0;"/></g><!--MD5=[c4d23fa834b93870e3d4fe4b436e47b3]
@startuml

class connect4{
    - boardView
    - yesNoDialog
    + playGame()
}
class yesNoDialog{
    + read(message)
    + isAffirmative()
}
class board{
    - tokens[]
    - inLineChecker
    - lastToken
    + reset(maxRows, maxColumns)
    + isFilledColumn(column)
    + putToken(column, color)
    + getFirstEmptyRowFromColumn(column)
    + isEndGame()
    + isFilled()
    + isInLineToken(tokens[])
    + getTokens()
}
class boardView{
    - MAX_ROWS
    - MAX_COLUMNS
    - Board
    - TurnView
    + init()
    + show()
    + showEndGame()
}
class inLineChecker{
    - tokens
    - IN_LINE_NUMBER_OF_TOKENS
    + isInLineToken(tokens[], token)
    - isInLineHorizontal(token)
    - isInLineVertical(token)
    - isInLineDiagonal(token)
    - isInLineReverseDiagonal(token)
    - isColorOnPosition(token)
}

class token{
    - Color
    - coordinate
    + getColor()
    + getRow()
    + getColumn()
}

class coordinate {
    - row 
    - column
    + getRow()
    + getColumn()
}

class turnView{
    - turn
    + getInputColumn(maxColumns)
    + nextTurn()
    + getColor()
}

class turn{
    - color
    + nextTurn()
    + getColor()
}

enum colors{
Red
Yellow
}

connect4 ..> boardView
connect4 ..> yesNoDialog
boardView *- -> board
boardView ..> turnView
turnView o- -> turn
board o- -> token
board o- -> inLineChecker
board ..> coordinate
inLineChecker ..> colors
turn o- -> colors
token *- -> colors
token *- -> coordinate
@enduml

PlantUML version 1.2022.5(Sat Apr 30 12:55:52 CEST 2022)
(GPL source distribution)
Java Runtime: OpenJDK Runtime Environment
JVM: OpenJDK 64-Bit Server VM
Default Encoding: UTF-8
Language: es
Country: ES
--></g></svg>