<?xml version="1.0" encoding="UTF-8" standalone="no"?><svg xmlns="http://www.w3.org/2000/svg" xmlns:xlink="http://www.w3.org/1999/xlink" contentStyleType="text/css" height="745px" preserveAspectRatio="none" style="width:345px;height:745px;background:#FFFFFF;" version="1.1" viewBox="0 0 345 745" width="345px" zoomAndPan="magnify"><defs/><g><!--MD5=[10b1f240992e2c34b6908209bf85bfd2]
class Connect4--><g id="elem_Connect4"><rect codeLine="1" fill="#F1F1F1" height="48" id="Connect4" rx="2.5" ry="2.5" style="stroke:#181818;stroke-width:0.5;" width="93" x="107" y="7"/><ellipse cx="122" cy="23" fill="#ADD1B2" rx="11" ry="11" style="stroke:#181818;stroke-width:1.0;"/><path d="M124.7656,18.875 Q124.9219,18.6563 125.1094,18.5469 Q125.2969,18.4375 125.5156,18.4375 Q125.8906,18.4375 126.125,18.7031 Q126.3594,18.9531 126.3594,19.5625 L126.3594,21.0156 Q126.3594,21.625 126.125,21.8906 Q125.8906,22.1563 125.5156,22.1563 Q125.1719,22.1563 124.9688,21.9531 Q124.7656,21.7656 124.6563,21.25 Q124.6094,20.8906 124.4219,20.7031 Q124.0938,20.3281 123.4844,20.1094 Q122.875,19.8906 122.25,19.8906 Q121.4844,19.8906 120.8438,20.2188 Q120.2188,20.5469 119.7188,21.2969 Q119.2344,22.0469 119.2344,23.0781 L119.2344,24.1719 Q119.2344,25.4063 120.125,26.2344 Q121.0156,27.0469 122.6094,27.0469 Q123.5469,27.0469 124.2031,26.7969 Q124.5938,26.6406 125.0156,26.2031 Q125.2813,25.9375 125.4219,25.8594 Q125.5781,25.7813 125.7813,25.7813 Q126.1094,25.7813 126.3594,26.0469 Q126.625,26.2969 126.625,26.6406 Q126.625,26.9844 126.2813,27.3906 Q125.7813,27.9688 124.9844,28.2969 Q123.9063,28.75 122.6094,28.75 Q121.0938,28.75 119.8906,28.125 Q118.9063,27.625 118.2188,26.5625 Q117.5313,25.4844 117.5313,24.2031 L117.5313,23.0469 Q117.5313,21.7188 118.1406,20.5781 Q118.7656,19.4219 119.8594,18.8125 Q120.9531,18.1875 122.1875,18.1875 Q122.9219,18.1875 123.5625,18.3594 Q124.2188,18.5156 124.7656,18.875 Z " fill="#000000"/><text fill="#000000" font-family="sans-serif" font-size="14" lengthAdjust="spacing" textLength="61" x="136" y="28.7285">Connect4</text><line style="stroke:#181818;stroke-width:0.5;" x1="108" x2="199" y1="39" y2="39"/><line style="stroke:#181818;stroke-width:0.5;" x1="108" x2="199" y1="47" y2="47"/></g><!--MD5=[9563755d011c5cec7ec66dc53565a59e]
class Board--><g id="elem_Board"><rect codeLine="2" fill="#F1F1F1" height="48" id="Board" rx="2.5" ry="2.5" style="stroke:#181818;stroke-width:0.5;" width="70" x="31.5" y="223"/><ellipse cx="46.5" cy="239" fill="#ADD1B2" rx="11" ry="11" style="stroke:#181818;stroke-width:1.0;"/><path d="M49.2656,234.875 Q49.4219,234.6563 49.6094,234.5469 Q49.7969,234.4375 50.0156,234.4375 Q50.3906,234.4375 50.625,234.7031 Q50.8594,234.9531 50.8594,235.5625 L50.8594,237.0156 Q50.8594,237.625 50.625,237.8906 Q50.3906,238.1563 50.0156,238.1563 Q49.6719,238.1563 49.4688,237.9531 Q49.2656,237.7656 49.1563,237.25 Q49.1094,236.8906 48.9219,236.7031 Q48.5938,236.3281 47.9844,236.1094 Q47.375,235.8906 46.75,235.8906 Q45.9844,235.8906 45.3438,236.2188 Q44.7188,236.5469 44.2188,237.2969 Q43.7344,238.0469 43.7344,239.0781 L43.7344,240.1719 Q43.7344,241.4063 44.625,242.2344 Q45.5156,243.0469 47.1094,243.0469 Q48.0469,243.0469 48.7031,242.7969 Q49.0938,242.6406 49.5156,242.2031 Q49.7813,241.9375 49.9219,241.8594 Q50.0781,241.7813 50.2813,241.7813 Q50.6094,241.7813 50.8594,242.0469 Q51.125,242.2969 51.125,242.6406 Q51.125,242.9844 50.7813,243.3906 Q50.2813,243.9688 49.4844,244.2969 Q48.4063,244.75 47.1094,244.75 Q45.5938,244.75 44.3906,244.125 Q43.4063,243.625 42.7188,242.5625 Q42.0313,241.4844 42.0313,240.2031 L42.0313,239.0469 Q42.0313,237.7188 42.6406,236.5781 Q43.2656,235.4219 44.3594,234.8125 Q45.4531,234.1875 46.6875,234.1875 Q47.4219,234.1875 48.0625,234.3594 Q48.7188,234.5156 49.2656,234.875 Z " fill="#000000"/><text fill="#000000" font-family="sans-serif" font-size="14" lengthAdjust="spacing" textLength="38" x="60.5" y="244.7285">Board</text><line style="stroke:#181818;stroke-width:0.5;" x1="32.5" x2="100.5" y1="255" y2="255"/><line style="stroke:#181818;stroke-width:0.5;" x1="32.5" x2="100.5" y1="263" y2="263"/></g><!--MD5=[d8c8cfd5ca149094f5b67f9f607a5ec7]
class Token--><g id="elem_Token"><rect codeLine="3" fill="#F1F1F1" height="48" id="Token" rx="2.5" ry="2.5" style="stroke:#181818;stroke-width:0.5;" width="72" x="34.5" y="439"/><ellipse cx="49.5" cy="455" fill="#ADD1B2" rx="11" ry="11" style="stroke:#181818;stroke-width:1.0;"/><path d="M52.2656,450.875 Q52.4219,450.6563 52.6094,450.5469 Q52.7969,450.4375 53.0156,450.4375 Q53.3906,450.4375 53.625,450.7031 Q53.8594,450.9531 53.8594,451.5625 L53.8594,453.0156 Q53.8594,453.625 53.625,453.8906 Q53.3906,454.1563 53.0156,454.1563 Q52.6719,454.1563 52.4688,453.9531 Q52.2656,453.7656 52.1563,453.25 Q52.1094,452.8906 51.9219,452.7031 Q51.5938,452.3281 50.9844,452.1094 Q50.375,451.8906 49.75,451.8906 Q48.9844,451.8906 48.3438,452.2188 Q47.7188,452.5469 47.2188,453.2969 Q46.7344,454.0469 46.7344,455.0781 L46.7344,456.1719 Q46.7344,457.4063 47.625,458.2344 Q48.5156,459.0469 50.1094,459.0469 Q51.0469,459.0469 51.7031,458.7969 Q52.0938,458.6406 52.5156,458.2031 Q52.7813,457.9375 52.9219,457.8594 Q53.0781,457.7813 53.2813,457.7813 Q53.6094,457.7813 53.8594,458.0469 Q54.125,458.2969 54.125,458.6406 Q54.125,458.9844 53.7813,459.3906 Q53.2813,459.9688 52.4844,460.2969 Q51.4063,460.75 50.1094,460.75 Q48.5938,460.75 47.3906,460.125 Q46.4063,459.625 45.7188,458.5625 Q45.0313,457.4844 45.0313,456.2031 L45.0313,455.0469 Q45.0313,453.7188 45.6406,452.5781 Q46.2656,451.4219 47.3594,450.8125 Q48.4531,450.1875 49.6875,450.1875 Q50.4219,450.1875 51.0625,450.3594 Q51.7188,450.5156 52.2656,450.875 Z " fill="#000000"/><text fill="#000000" font-family="sans-serif" font-size="14" lengthAdjust="spacing" textLength="40" x="63.5" y="460.7285">Token</text><line style="stroke:#181818;stroke-width:0.5;" x1="35.5" x2="105.5" y1="471" y2="471"/><line style="stroke:#181818;stroke-width:0.5;" x1="35.5" x2="105.5" y1="479" y2="479"/></g><!--MD5=[dd91eae41778c45e12552e5329e240e8]
class Turn--><g id="elem_Turn"><rect codeLine="4" fill="#F1F1F1" height="48" id="Turn" rx="2.5" ry="2.5" style="stroke:#181818;stroke-width:0.5;" width="62" x="122.5" y="115"/><ellipse cx="137.5" cy="131" fill="#ADD1B2" rx="11" ry="11" style="stroke:#181818;stroke-width:1.0;"/><path d="M140.2656,126.875 Q140.4219,126.6563 140.6094,126.5469 Q140.7969,126.4375 141.0156,126.4375 Q141.3906,126.4375 141.625,126.7031 Q141.8594,126.9531 141.8594,127.5625 L141.8594,129.0156 Q141.8594,129.625 141.625,129.8906 Q141.3906,130.1563 141.0156,130.1563 Q140.6719,130.1563 140.4688,129.9531 Q140.2656,129.7656 140.1563,129.25 Q140.1094,128.8906 139.9219,128.7031 Q139.5938,128.3281 138.9844,128.1094 Q138.375,127.8906 137.75,127.8906 Q136.9844,127.8906 136.3438,128.2188 Q135.7188,128.5469 135.2188,129.2969 Q134.7344,130.0469 134.7344,131.0781 L134.7344,132.1719 Q134.7344,133.4063 135.625,134.2344 Q136.5156,135.0469 138.1094,135.0469 Q139.0469,135.0469 139.7031,134.7969 Q140.0938,134.6406 140.5156,134.2031 Q140.7813,133.9375 140.9219,133.8594 Q141.0781,133.7813 141.2813,133.7813 Q141.6094,133.7813 141.8594,134.0469 Q142.125,134.2969 142.125,134.6406 Q142.125,134.9844 141.7813,135.3906 Q141.2813,135.9688 140.4844,136.2969 Q139.4063,136.75 138.1094,136.75 Q136.5938,136.75 135.3906,136.125 Q134.4063,135.625 133.7188,134.5625 Q133.0313,133.4844 133.0313,132.2031 L133.0313,131.0469 Q133.0313,129.7188 133.6406,128.5781 Q134.2656,127.4219 135.3594,126.8125 Q136.4531,126.1875 137.6875,126.1875 Q138.4219,126.1875 139.0625,126.3594 Q139.7188,126.5156 140.2656,126.875 Z " fill="#000000"/><text fill="#000000" font-family="sans-serif" font-size="14" lengthAdjust="spacing" textLength="30" x="151.5" y="136.7285">Turn</text><line style="stroke:#181818;stroke-width:0.5;" x1="123.5" x2="183.5" y1="147" y2="147"/><line style="stroke:#181818;stroke-width:0.5;" x1="123.5" x2="183.5" y1="155" y2="155"/></g><!--MD5=[2cb47ba637a0d19583e6199456f6ad0b]
class Player--><g id="elem_Player"><rect codeLine="5" fill="#F1F1F1" height="48" id="Player" rx="2.5" ry="2.5" style="stroke:#181818;stroke-width:0.5;" width="72" x="118.5" y="331"/><ellipse cx="133.5" cy="347" fill="#ADD1B2" rx="11" ry="11" style="stroke:#181818;stroke-width:1.0;"/><path d="M136.2656,342.875 Q136.4219,342.6563 136.6094,342.5469 Q136.7969,342.4375 137.0156,342.4375 Q137.3906,342.4375 137.625,342.7031 Q137.8594,342.9531 137.8594,343.5625 L137.8594,345.0156 Q137.8594,345.625 137.625,345.8906 Q137.3906,346.1563 137.0156,346.1563 Q136.6719,346.1563 136.4688,345.9531 Q136.2656,345.7656 136.1563,345.25 Q136.1094,344.8906 135.9219,344.7031 Q135.5938,344.3281 134.9844,344.1094 Q134.375,343.8906 133.75,343.8906 Q132.9844,343.8906 132.3438,344.2188 Q131.7188,344.5469 131.2188,345.2969 Q130.7344,346.0469 130.7344,347.0781 L130.7344,348.1719 Q130.7344,349.4063 131.625,350.2344 Q132.5156,351.0469 134.1094,351.0469 Q135.0469,351.0469 135.7031,350.7969 Q136.0938,350.6406 136.5156,350.2031 Q136.7813,349.9375 136.9219,349.8594 Q137.0781,349.7813 137.2813,349.7813 Q137.6094,349.7813 137.8594,350.0469 Q138.125,350.2969 138.125,350.6406 Q138.125,350.9844 137.7813,351.3906 Q137.2813,351.9688 136.4844,352.2969 Q135.4063,352.75 134.1094,352.75 Q132.5938,352.75 131.3906,352.125 Q130.4063,351.625 129.7188,350.5625 Q129.0313,349.4844 129.0313,348.2031 L129.0313,347.0469 Q129.0313,345.7188 129.6406,344.5781 Q130.2656,343.4219 131.3594,342.8125 Q132.4531,342.1875 133.6875,342.1875 Q134.4219,342.1875 135.0625,342.3594 Q135.7188,342.5156 136.2656,342.875 Z " fill="#000000"/><text fill="#000000" font-family="sans-serif" font-size="14" lengthAdjust="spacing" textLength="40" x="147.5" y="352.7285">Player</text><line style="stroke:#181818;stroke-width:0.5;" x1="119.5" x2="189.5" y1="363" y2="363"/><line style="stroke:#181818;stroke-width:0.5;" x1="119.5" x2="189.5" y1="371" y2="371"/></g><!--MD5=[a1532312638e560355e472287ca7b7f1]
class Holes--><g id="elem_Holes"><rect codeLine="6" fill="#F1F1F1" height="48" id="Holes" rx="2.5" ry="2.5" style="stroke:#181818;stroke-width:0.5;" width="67" x="16" y="331"/><ellipse cx="31" cy="347" fill="#ADD1B2" rx="11" ry="11" style="stroke:#181818;stroke-width:1.0;"/><path d="M33.7656,342.875 Q33.9219,342.6563 34.1094,342.5469 Q34.2969,342.4375 34.5156,342.4375 Q34.8906,342.4375 35.125,342.7031 Q35.3594,342.9531 35.3594,343.5625 L35.3594,345.0156 Q35.3594,345.625 35.125,345.8906 Q34.8906,346.1563 34.5156,346.1563 Q34.1719,346.1563 33.9688,345.9531 Q33.7656,345.7656 33.6563,345.25 Q33.6094,344.8906 33.4219,344.7031 Q33.0938,344.3281 32.4844,344.1094 Q31.875,343.8906 31.25,343.8906 Q30.4844,343.8906 29.8438,344.2188 Q29.2188,344.5469 28.7188,345.2969 Q28.2344,346.0469 28.2344,347.0781 L28.2344,348.1719 Q28.2344,349.4063 29.125,350.2344 Q30.0156,351.0469 31.6094,351.0469 Q32.5469,351.0469 33.2031,350.7969 Q33.5938,350.6406 34.0156,350.2031 Q34.2813,349.9375 34.4219,349.8594 Q34.5781,349.7813 34.7813,349.7813 Q35.1094,349.7813 35.3594,350.0469 Q35.625,350.2969 35.625,350.6406 Q35.625,350.9844 35.2813,351.3906 Q34.7813,351.9688 33.9844,352.2969 Q32.9063,352.75 31.6094,352.75 Q30.0938,352.75 28.8906,352.125 Q27.9063,351.625 27.2188,350.5625 Q26.5313,349.4844 26.5313,348.2031 L26.5313,347.0469 Q26.5313,345.7188 27.1406,344.5781 Q27.7656,343.4219 28.8594,342.8125 Q29.9531,342.1875 31.1875,342.1875 Q31.9219,342.1875 32.5625,342.3594 Q33.2188,342.5156 33.7656,342.875 Z " fill="#000000"/><text fill="#000000" font-family="sans-serif" font-size="14" lengthAdjust="spacing" textLength="35" x="45" y="352.7285">Holes</text><line style="stroke:#181818;stroke-width:0.5;" x1="17" x2="82" y1="363" y2="363"/><line style="stroke:#181818;stroke-width:0.5;" x1="17" x2="82" y1="371" y2="371"/></g><!--MD5=[0992d3fdc9d3d7c02b735131bb70871d]
class Goal--><g id="elem_Goal"><rect codeLine="7" fill="#F1F1F1" height="48" id="Goal" rx="2.5" ry="2.5" style="stroke:#181818;stroke-width:0.5;" width="62" x="209.5" y="223"/><ellipse cx="224.5" cy="239" fill="#ADD1B2" rx="11" ry="11" style="stroke:#181818;stroke-width:1.0;"/><path d="M227.2656,234.875 Q227.4219,234.6563 227.6094,234.5469 Q227.7969,234.4375 228.0156,234.4375 Q228.3906,234.4375 228.625,234.7031 Q228.8594,234.9531 228.8594,235.5625 L228.8594,237.0156 Q228.8594,237.625 228.625,237.8906 Q228.3906,238.1563 228.0156,238.1563 Q227.6719,238.1563 227.4688,237.9531 Q227.2656,237.7656 227.1563,237.25 Q227.1094,236.8906 226.9219,236.7031 Q226.5938,236.3281 225.9844,236.1094 Q225.375,235.8906 224.75,235.8906 Q223.9844,235.8906 223.3438,236.2188 Q222.7188,236.5469 222.2188,237.2969 Q221.7344,238.0469 221.7344,239.0781 L221.7344,240.1719 Q221.7344,241.4063 222.625,242.2344 Q223.5156,243.0469 225.1094,243.0469 Q226.0469,243.0469 226.7031,242.7969 Q227.0938,242.6406 227.5156,242.2031 Q227.7813,241.9375 227.9219,241.8594 Q228.0781,241.7813 228.2813,241.7813 Q228.6094,241.7813 228.8594,242.0469 Q229.125,242.2969 229.125,242.6406 Q229.125,242.9844 228.7813,243.3906 Q228.2813,243.9688 227.4844,244.2969 Q226.4063,244.75 225.1094,244.75 Q223.5938,244.75 222.3906,244.125 Q221.4063,243.625 220.7188,242.5625 Q220.0313,241.4844 220.0313,240.2031 L220.0313,239.0469 Q220.0313,237.7188 220.6406,236.5781 Q221.2656,235.4219 222.3594,234.8125 Q223.4531,234.1875 224.6875,234.1875 Q225.4219,234.1875 226.0625,234.3594 Q226.7188,234.5156 227.2656,234.875 Z " fill="#000000"/><text fill="#000000" font-family="sans-serif" font-size="14" lengthAdjust="spacing" textLength="30" x="238.5" y="244.7285">Goal</text><line style="stroke:#181818;stroke-width:0.5;" x1="210.5" x2="270.5" y1="255" y2="255"/><line style="stroke:#181818;stroke-width:0.5;" x1="210.5" x2="270.5" y1="263" y2="263"/></g><!--MD5=[f2deb167c5d67bac922ffe673e7c823d]
class InLine--><g id="elem_InLine"><rect codeLine="8" fill="#F1F1F1" height="48" id="InLine" rx="2.5" ry="2.5" style="stroke:#181818;stroke-width:0.5;" width="70" x="133.5" y="564.5"/><ellipse cx="148.5" cy="580.5" fill="#ADD1B2" rx="11" ry="11" style="stroke:#181818;stroke-width:1.0;"/><path d="M151.2656,576.375 Q151.4219,576.1563 151.6094,576.0469 Q151.7969,575.9375 152.0156,575.9375 Q152.3906,575.9375 152.625,576.2031 Q152.8594,576.4531 152.8594,577.0625 L152.8594,578.5156 Q152.8594,579.125 152.625,579.3906 Q152.3906,579.6563 152.0156,579.6563 Q151.6719,579.6563 151.4688,579.4531 Q151.2656,579.2656 151.1563,578.75 Q151.1094,578.3906 150.9219,578.2031 Q150.5938,577.8281 149.9844,577.6094 Q149.375,577.3906 148.75,577.3906 Q147.9844,577.3906 147.3438,577.7188 Q146.7188,578.0469 146.2188,578.7969 Q145.7344,579.5469 145.7344,580.5781 L145.7344,581.6719 Q145.7344,582.9063 146.625,583.7344 Q147.5156,584.5469 149.1094,584.5469 Q150.0469,584.5469 150.7031,584.2969 Q151.0938,584.1406 151.5156,583.7031 Q151.7813,583.4375 151.9219,583.3594 Q152.0781,583.2813 152.2813,583.2813 Q152.6094,583.2813 152.8594,583.5469 Q153.125,583.7969 153.125,584.1406 Q153.125,584.4844 152.7813,584.8906 Q152.2813,585.4688 151.4844,585.7969 Q150.4063,586.25 149.1094,586.25 Q147.5938,586.25 146.3906,585.625 Q145.4063,585.125 144.7188,584.0625 Q144.0313,582.9844 144.0313,581.7031 L144.0313,580.5469 Q144.0313,579.2188 144.6406,578.0781 Q145.2656,576.9219 146.3594,576.3125 Q147.4531,575.6875 148.6875,575.6875 Q149.4219,575.6875 150.0625,575.8594 Q150.7188,576.0156 151.2656,576.375 Z " fill="#000000"/><text fill="#000000" font-family="sans-serif" font-size="14" lengthAdjust="spacing" textLength="38" x="162.5" y="586.2285">InLine</text><line style="stroke:#181818;stroke-width:0.5;" x1="134.5" x2="202.5" y1="596.5" y2="596.5"/><line style="stroke:#181818;stroke-width:0.5;" x1="134.5" x2="202.5" y1="604.5" y2="604.5"/></g><!--MD5=[c4df9b95f6f4e4e1c32bb5a44abd175a]
class Colors--><g id="elem_Colors"><rect codeLine="9" fill="#F1F1F1" height="83.2188" id="Colors" rx="2.5" ry="2.5" style="stroke:#181818;stroke-width:0.5;" width="73" x="25" y="547"/><ellipse cx="40" cy="563" fill="#EB937F" rx="11" ry="11" style="stroke:#181818;stroke-width:1.0;"/><path d="M38.8594,563.7969 L38.8594,566.2969 L43.1875,566.2969 L43.1875,565.375 Q43.1875,564.7656 43.4219,564.5 Q43.6719,564.2344 44.0469,564.2344 Q44.4219,564.2344 44.6563,564.5 Q44.8906,564.7656 44.8906,565.375 L44.8906,568 L36.8906,568 Q36.2656,568 36,567.7656 Q35.75,567.5313 35.75,567.1406 Q35.75,566.7656 36.0156,566.5313 Q36.2813,566.2969 36.8906,566.2969 L37.1563,566.2969 L37.1563,559.6406 L36.8906,559.6406 Q36.2656,559.6406 36,559.4063 Q35.75,559.1719 35.75,558.7813 Q35.75,558.4063 36,558.1719 Q36.2656,557.9375 36.8906,557.9375 L44.5156,557.9375 L44.5156,560.5313 Q44.5156,561.1406 44.2813,561.4063 Q44.0625,561.6563 43.6719,561.6563 Q43.2969,561.6563 43.0625,561.4063 Q42.8281,561.1406 42.8281,560.5313 L42.8281,559.6406 L38.8594,559.6406 L38.8594,562.0938 L40.3438,562.0938 Q40.3438,561.4375 40.4688,561.25 Q40.7344,560.8438 41.2031,560.8438 Q41.5781,560.8438 41.8125,561.1094 Q42.0469,561.3594 42.0469,561.9688 L42.0469,563.9375 Q42.0469,564.4844 41.9219,564.6719 Q41.6563,565.0625 41.2031,565.0625 Q40.7344,565.0625 40.4688,564.6563 Q40.3438,564.4688 40.3438,563.7969 L38.8594,563.7969 Z " fill="#000000"/><text fill="#000000" font-family="sans-serif" font-size="14" lengthAdjust="spacing" textLength="41" x="54" y="568.7285">Colors</text><line style="stroke:#181818;stroke-width:0.5;" x1="26" x2="97" y1="579" y2="579"/><text fill="#000000" font-family="sans-serif" font-size="14" lengthAdjust="spacing" textLength="26" x="31" y="597.5332">Red</text><text fill="#000000" font-family="sans-serif" font-size="14" lengthAdjust="spacing" textLength="40" x="31" y="615.1426">Yellow</text><line style="stroke:#181818;stroke-width:0.5;" x1="26" x2="97" y1="622.2188" y2="622.2188"/></g><!--MD5=[9ddfc9bd1e3a4b04466623ab197feef8]
class Vertical--><g id="elem_Vertical"><rect fill="#F1F1F1" height="48" id="Vertical" rx="2.5" ry="2.5" style="stroke:#181818;stroke-width:0.5;" width="79" x="7" y="690"/><ellipse cx="22" cy="706" fill="#ADD1B2" rx="11" ry="11" style="stroke:#181818;stroke-width:1.0;"/><path d="M24.7656,701.875 Q24.9219,701.6563 25.1094,701.5469 Q25.2969,701.4375 25.5156,701.4375 Q25.8906,701.4375 26.125,701.7031 Q26.3594,701.9531 26.3594,702.5625 L26.3594,704.0156 Q26.3594,704.625 26.125,704.8906 Q25.8906,705.1563 25.5156,705.1563 Q25.1719,705.1563 24.9688,704.9531 Q24.7656,704.7656 24.6563,704.25 Q24.6094,703.8906 24.4219,703.7031 Q24.0938,703.3281 23.4844,703.1094 Q22.875,702.8906 22.25,702.8906 Q21.4844,702.8906 20.8438,703.2188 Q20.2188,703.5469 19.7188,704.2969 Q19.2344,705.0469 19.2344,706.0781 L19.2344,707.1719 Q19.2344,708.4063 20.125,709.2344 Q21.0156,710.0469 22.6094,710.0469 Q23.5469,710.0469 24.2031,709.7969 Q24.5938,709.6406 25.0156,709.2031 Q25.2813,708.9375 25.4219,708.8594 Q25.5781,708.7813 25.7813,708.7813 Q26.1094,708.7813 26.3594,709.0469 Q26.625,709.2969 26.625,709.6406 Q26.625,709.9844 26.2813,710.3906 Q25.7813,710.9688 24.9844,711.2969 Q23.9063,711.75 22.6094,711.75 Q21.0938,711.75 19.8906,711.125 Q18.9063,710.625 18.2188,709.5625 Q17.5313,708.4844 17.5313,707.2031 L17.5313,706.0469 Q17.5313,704.7188 18.1406,703.5781 Q18.7656,702.4219 19.8594,701.8125 Q20.9531,701.1875 22.1875,701.1875 Q22.9219,701.1875 23.5625,701.3594 Q24.2188,701.5156 24.7656,701.875 Z " fill="#000000"/><text fill="#000000" font-family="sans-serif" font-size="14" lengthAdjust="spacing" textLength="47" x="36" y="711.7285">Vertical</text><line style="stroke:#181818;stroke-width:0.5;" x1="8" x2="85" y1="722" y2="722"/><line style="stroke:#181818;stroke-width:0.5;" x1="8" x2="85" y1="730" y2="730"/></g><!--MD5=[2808de09be71fab9caf2df132bae0681]
class Horizontal--><g id="elem_Horizontal"><rect fill="#F1F1F1" height="48" id="Horizontal" rx="2.5" ry="2.5" style="stroke:#181818;stroke-width:0.5;" width="94" x="121.5" y="690"/><ellipse cx="136.5" cy="706" fill="#ADD1B2" rx="11" ry="11" style="stroke:#181818;stroke-width:1.0;"/><path d="M139.2656,701.875 Q139.4219,701.6563 139.6094,701.5469 Q139.7969,701.4375 140.0156,701.4375 Q140.3906,701.4375 140.625,701.7031 Q140.8594,701.9531 140.8594,702.5625 L140.8594,704.0156 Q140.8594,704.625 140.625,704.8906 Q140.3906,705.1563 140.0156,705.1563 Q139.6719,705.1563 139.4688,704.9531 Q139.2656,704.7656 139.1563,704.25 Q139.1094,703.8906 138.9219,703.7031 Q138.5938,703.3281 137.9844,703.1094 Q137.375,702.8906 136.75,702.8906 Q135.9844,702.8906 135.3438,703.2188 Q134.7188,703.5469 134.2188,704.2969 Q133.7344,705.0469 133.7344,706.0781 L133.7344,707.1719 Q133.7344,708.4063 134.625,709.2344 Q135.5156,710.0469 137.1094,710.0469 Q138.0469,710.0469 138.7031,709.7969 Q139.0938,709.6406 139.5156,709.2031 Q139.7813,708.9375 139.9219,708.8594 Q140.0781,708.7813 140.2813,708.7813 Q140.6094,708.7813 140.8594,709.0469 Q141.125,709.2969 141.125,709.6406 Q141.125,709.9844 140.7813,710.3906 Q140.2813,710.9688 139.4844,711.2969 Q138.4063,711.75 137.1094,711.75 Q135.5938,711.75 134.3906,711.125 Q133.4063,710.625 132.7188,709.5625 Q132.0313,708.4844 132.0313,707.2031 L132.0313,706.0469 Q132.0313,704.7188 132.6406,703.5781 Q133.2656,702.4219 134.3594,701.8125 Q135.4531,701.1875 136.6875,701.1875 Q137.4219,701.1875 138.0625,701.3594 Q138.7188,701.5156 139.2656,701.875 Z " fill="#000000"/><text fill="#000000" font-family="sans-serif" font-size="14" lengthAdjust="spacing" textLength="62" x="150.5" y="711.7285">Horizontal</text><line style="stroke:#181818;stroke-width:0.5;" x1="122.5" x2="214.5" y1="722" y2="722"/><line style="stroke:#181818;stroke-width:0.5;" x1="122.5" x2="214.5" y1="730" y2="730"/></g><!--MD5=[a135607b44036ad87f368405615013d9]
class Diagonal--><g id="elem_Diagonal"><rect fill="#F1F1F1" height="48" id="Diagonal" rx="2.5" ry="2.5" style="stroke:#181818;stroke-width:0.5;" width="88" x="250.5" y="690"/><ellipse cx="265.5" cy="706" fill="#ADD1B2" rx="11" ry="11" style="stroke:#181818;stroke-width:1.0;"/><path d="M268.2656,701.875 Q268.4219,701.6563 268.6094,701.5469 Q268.7969,701.4375 269.0156,701.4375 Q269.3906,701.4375 269.625,701.7031 Q269.8594,701.9531 269.8594,702.5625 L269.8594,704.0156 Q269.8594,704.625 269.625,704.8906 Q269.3906,705.1563 269.0156,705.1563 Q268.6719,705.1563 268.4688,704.9531 Q268.2656,704.7656 268.1563,704.25 Q268.1094,703.8906 267.9219,703.7031 Q267.5938,703.3281 266.9844,703.1094 Q266.375,702.8906 265.75,702.8906 Q264.9844,702.8906 264.3438,703.2188 Q263.7188,703.5469 263.2188,704.2969 Q262.7344,705.0469 262.7344,706.0781 L262.7344,707.1719 Q262.7344,708.4063 263.625,709.2344 Q264.5156,710.0469 266.1094,710.0469 Q267.0469,710.0469 267.7031,709.7969 Q268.0938,709.6406 268.5156,709.2031 Q268.7813,708.9375 268.9219,708.8594 Q269.0781,708.7813 269.2813,708.7813 Q269.6094,708.7813 269.8594,709.0469 Q270.125,709.2969 270.125,709.6406 Q270.125,709.9844 269.7813,710.3906 Q269.2813,710.9688 268.4844,711.2969 Q267.4063,711.75 266.1094,711.75 Q264.5938,711.75 263.3906,711.125 Q262.4063,710.625 261.7188,709.5625 Q261.0313,708.4844 261.0313,707.2031 L261.0313,706.0469 Q261.0313,704.7188 261.6406,703.5781 Q262.2656,702.4219 263.3594,701.8125 Q264.4531,701.1875 265.6875,701.1875 Q266.4219,701.1875 267.0625,701.3594 Q267.7188,701.5156 268.2656,701.875 Z " fill="#000000"/><text fill="#000000" font-family="sans-serif" font-size="14" lengthAdjust="spacing" textLength="56" x="279.5" y="711.7285">Diagonal</text><line style="stroke:#181818;stroke-width:0.5;" x1="251.5" x2="337.5" y1="722" y2="722"/><line style="stroke:#181818;stroke-width:0.5;" x1="251.5" x2="337.5" y1="730" y2="730"/></g><!--MD5=[5426a1d26e36fcd61d30da6b8a6545ec]
link Connect4 to Board--><g id="link_Connect4_Board"><path codeLine="14" d="M131.2737,65.2642 C131.2737,65.2642 111.73,98.27 104.5,115 C91.14,145.91 80.9,182.91 74.43,209.69 " fill="none" id="Connect4-Board" style="stroke:#181818;stroke-width:1.0;"/><polygon fill="#181818" points="71.4,222.67,77.3427,214.816,72.5375,217.8011,69.5525,212.996,71.4,222.67" style="stroke:#181818;stroke-width:1.0;"/><line style="stroke:#181818;stroke-width:1.0;" x1="72.5375" x2="74.36" y1="217.8011" y2="210.015"/><polygon fill="#181818" points="137.7,55.13,131.1088,58.055,131.2737,65.2642,137.8649,62.3392,137.7,55.13" style="stroke:#181818;stroke-width:1.0;"/></g><!--MD5=[6824fd9902778444ee49992acd2ffe7e]
link Connect4 to Turn--><g id="link_Connect4_Turn"><path codeLine="15" d="M153.5,67 C153.5,67 153.5,90.68 153.5,101.36 " fill="none" id="Connect4-Turn" style="stroke:#181818;stroke-width:1.0;"/><polygon fill="#181818" points="153.5,114.68,157.5,105.68,153.5,109.68,149.5,105.68,153.5,114.68" style="stroke:#181818;stroke-width:1.0;"/><line style="stroke:#181818;stroke-width:1.0;" x1="153.5" x2="153.5" y1="109.68" y2="101.68"/><polygon fill="#181818" points="153.5,55,149.5,61,153.5,67,157.5,61,153.5,55" style="stroke:#181818;stroke-width:1.0;"/><text fill="#000000" font-family="sans-serif" font-size="13" lengthAdjust="spacing" textLength="29" x="120.9656" y="104.34">7..42</text></g><!--MD5=[48736af7f00a353a75917f062947d3dd]
link Connect4 to Goal--><g id="link_Connect4_Goal"><path codeLine="16" d="M175.2149,65.404 C175.2149,65.404 194.4,98.52 201.5,115 C214.85,145.99 225.41,182.98 232.15,209.73 " fill="none" id="Connect4-Goal" style="stroke:#181818;stroke-width:1.0;"/><polygon fill="#181818" points="235.32,222.71,237.0694,213.0178,234.1332,217.8529,229.2981,214.9166,235.32,222.71" style="stroke:#181818;stroke-width:1.0;"/><line style="stroke:#181818;stroke-width:1.0;" x1="234.1332" x2="232.23" y1="217.8529" y2="210.08"/><polygon fill="#181818" points="168.9,55.2,168.6561,62.407,175.2149,65.404,175.4588,58.197,168.9,55.2" style="stroke:#181818;stroke-width:1.0;"/></g><!--MD5=[0756a2b387b9bc51463d4da24a42c40c]
link Goal to InLine--><g id="link_Goal_InLine"><path codeLine="18" d="M233.1173,282.8082 C233.1173,282.8082 189.94,486.41 176.11,551.63 " fill="none" id="Goal-InLine" style="stroke:#181818;stroke-width:1.0;"/><polygon fill="#181818" points="173.4,564.4,179.1823,556.4272,174.4386,559.5091,171.3568,554.7654,173.4,564.4" style="stroke:#181818;stroke-width:1.0;"/><line style="stroke:#181818;stroke-width:1.0;" x1="174.4386" x2="176.1" y1="559.5091" y2="551.685"/><polygon fill="#181818" points="235.61,271.07,230.4509,276.1082,233.1173,282.8082,238.2764,277.77,235.61,271.07" style="stroke:#181818;stroke-width:1.0;"/></g><!--MD5=[d2fe9019f400e3832cd5e824cbbaa897]
link Token to InLine--><g id="link_Token_InLine"><path codeLine="20" d="M88.93,487.23 C105.43,508.02 129.62,538.5 146.99,560.39 " fill="none" id="Token-to-InLine" style="stroke:#181818;stroke-width:1.0;"/><polygon fill="#181818" points="150.15,564.37,147.6767,554.8367,147.037,560.4573,141.4164,559.8176,150.15,564.37" style="stroke:#181818;stroke-width:1.0;"/><text fill="#000000" font-family="sans-serif" font-size="13" lengthAdjust="spacing" textLength="7" x="85.5692" y="508.624">4</text></g><!--MD5=[cf51b7a9691f4c832d1e69591dae137f]
link Player to InLine--><g id="link_Player_InLine"><path codeLine="21" d="M156.6024,391.0188 C156.6024,391.0188 163.68,507.77 166.3,551.19 " fill="none" id="Player-InLine" style="stroke:#181818;stroke-width:1.0;"/><polygon fill="#181818" points="167.09,564.21,170.5492,554.9886,166.7935,559.2188,162.5633,555.463,167.09,564.21" style="stroke:#181818;stroke-width:1.0;"/><line style="stroke:#181818;stroke-width:1.0;" x1="166.7935" x2="166.305" y1="559.2188" y2="551.23"/><polygon fill="none" points="155.89,379.04,152.2533,385.2669,156.6024,391.0188,160.2391,384.792,155.89,379.04" style="stroke:#181818;stroke-width:1.0;"/></g><!--MD5=[be9d42ce6be79b8d3cb63a3c73ab3b23]
reverse link InLine to Vertical--><g id="link_InLine_Vertical"><path codeLine="23" d="M131.4,627.05 C111.17,647.53 86.78,672.22 69.34,689.87 " fill="none" id="InLine-backto-Vertical" style="stroke:#181818;stroke-width:1.0;"/><polygon fill="none" points="126.52,622.04,145.55,612.73,136.48,631.88,126.52,622.04" style="stroke:#181818;stroke-width:1.0;"/></g><!--MD5=[3135168f6bee9c0d10d1b3b48afa38ab]
reverse link InLine to Horizontal--><g id="link_InLine_Horizontal"><path codeLine="24" d="M168.5,632.85 C168.5,652.05 168.5,673.86 168.5,689.87 " fill="none" id="InLine-backto-Horizontal" style="stroke:#181818;stroke-width:1.0;"/><polygon fill="none" points="161.5,632.73,168.5,612.73,175.5,632.73,161.5,632.73" style="stroke:#181818;stroke-width:1.0;"/></g><!--MD5=[f7fe882bf086f9825140fa8a06051888]
reverse link InLine to Diagonal--><g id="link_InLine_Diagonal"><path codeLine="25" d="M206.51,626.76 C227.46,647.29 252.81,672.14 270.91,689.87 " fill="none" id="InLine-backto-Diagonal" style="stroke:#181818;stroke-width:1.0;"/><polygon fill="none" points="201.58,631.73,192.2,612.73,211.38,621.73,201.58,631.73" style="stroke:#181818;stroke-width:1.0;"/></g><!--MD5=[d81713d91ad05be3b975338c4816ee0b]
link Turn to Player--><g id="link_Turn_Player"><path codeLine="28" d="M153.6627,175.3099 C153.6627,175.3099 154.15,278.26 154.33,317.6 " fill="none" id="Turn-Player" style="stroke:#181818;stroke-width:1.0;"/><polygon fill="#181818" points="154.39,330.72,158.3504,321.7025,154.368,325.72,150.3505,321.7377,154.39,330.72" style="stroke:#181818;stroke-width:1.0;"/><line style="stroke:#181818;stroke-width:1.0;" x1="154.368" x2="154.33" y1="325.72" y2="317.72"/><polygon fill="none" points="153.61,163.31,149.6364,169.3275,153.6627,175.3099,157.6363,169.2924,153.61,163.31" style="stroke:#181818;stroke-width:1.0;"/><text fill="#000000" font-family="sans-serif" font-size="13" lengthAdjust="spacing" textLength="7" x="146.4649" y="319.9884">2</text></g><!--MD5=[aeb9c8b6d1fa4b3f4e931948f58ad7cf]
link Turn to Board--><g id="link_Turn_Board"><path codeLine="29" d="M134.62,163 C121.26,179.28 103.28,201.19 89.15,218.41 " fill="none" id="Turn-to-Board" style="stroke:#181818;stroke-width:1.0;"/><polygon fill="#181818" points="85.64,222.68,94.4376,218.2526,88.8085,218.8121,88.249,213.183,85.64,222.68" style="stroke:#181818;stroke-width:1.0;"/></g><!--MD5=[0f2235f5d721aae1f2cc61ae282599a2]
link Board to Holes--><g id="link_Board_Holes"><path codeLine="31" d="M60.9121,282.849 C60.9121,282.849 57.09,306.68 55.34,317.58 " fill="none" id="Board-Holes" style="stroke:#181818;stroke-width:1.0;"/><polygon fill="#181818" points="53.24,330.68,58.6145,322.4269,54.0317,325.7431,50.7155,321.1602,53.24,330.68" style="stroke:#181818;stroke-width:1.0;"/><line style="stroke:#181818;stroke-width:1.0;" x1="54.0317" x2="55.3" y1="325.7431" y2="317.84"/><polygon fill="#181818" points="62.81,271,57.9114,276.2918,60.9121,282.849,65.8107,277.5571,62.81,271" style="stroke:#181818;stroke-width:1.0;"/><text fill="#000000" font-family="sans-serif" font-size="13" lengthAdjust="spacing" textLength="21" x="30.5922" y="320.34">7x6</text></g><!--MD5=[6145148ce8061ed2b1358f75c397ca71]
link Holes to Token--><g id="link_Holes_Token"><path codeLine="33" d="M56.3931,390.771 C56.3931,390.771 61.13,414.68 63.29,425.58 " fill="none" id="Holes-Token" style="stroke:#181818;stroke-width:1.0;"/><polygon fill="#181818" points="65.88,438.68,68.0538,429.074,64.9079,433.7754,60.2065,430.6294,65.88,438.68" style="stroke:#181818;stroke-width:1.0;"/><line style="stroke:#181818;stroke-width:1.0;" x1="64.9079" x2="63.355" y1="433.7754" y2="425.925"/><polygon fill="none" points="54.06,379,51.3029,385.6632,56.3931,390.771,59.1502,384.1078,54.06,379" style="stroke:#181818;stroke-width:1.0;"/><text fill="#000000" font-family="sans-serif" font-size="13" lengthAdjust="spacing" textLength="29" x="32.2195" y="428.34">0..42</text></g><!--MD5=[525e20984b3f0335f86e1ed389de5b3d]
link Player to Token--><g id="link_Player_Token"><path codeLine="35" d="M136.27,379 C123.37,395.28 106.01,417.19 92.37,434.41 " fill="none" id="Player-to-Token" style="stroke:#181818;stroke-width:1.0;stroke-dasharray:7.0,7.0;"/><polygon fill="#181818" points="88.98,438.68,97.7136,434.1276,92.093,434.7673,91.4533,429.1467,88.98,438.68" style="stroke:#181818;stroke-width:1.0;"/><text fill="#000000" font-family="sans-serif" font-size="13" lengthAdjust="spacing" textLength="14" x="77.7783" y="428.34">21</text></g><!--MD5=[d6208de9411c4b1d5190de2c034c83cb]
link Token to Colors--><g id="link_Token_Colors"><path codeLine="37" d="M67.9269,499.1975 C67.9269,499.1975 66.23,522.55 65.41,533.86 " fill="none" id="Token-Colors" style="stroke:#181818;stroke-width:1.0;"/><polygon fill="#181818" points="64.46,546.87,69.1026,538.184,64.8229,541.8832,61.1237,537.6034,64.46,546.87" style="stroke:#181818;stroke-width:1.0;"/><line style="stroke:#181818;stroke-width:1.0;" x1="64.8229" x2="65.405" y1="541.8832" y2="533.9"/><polygon fill="#181818" points="68.81,487.23,64.3793,492.9194,67.9269,499.1975,72.3576,493.5081,68.81,487.23" style="stroke:#181818;stroke-width:1.0;"/></g><!--MD5=[52a91c9498688b07b743d442bc318243]
@startuml
class Connect4
class Board
class Token
class Turn
class Player
class Holes
class Goal
class InLine
enum Colors{
Red
Yellow
}

Connect4 *- -> Board
Connect4 *- -> "7..42" Turn
Connect4 *- -> Goal

Goal *- -> InLine

Token "4" - ->  InLine
Player o- -> InLine

InLine <|- - Vertical
InLine <|- - Horizontal
InLine <|- - Diagonal


Turn o- -> "2" Player
Turn - -> Board

Board *- -> "7x6" Holes

Holes o- -> "0..42" Token

Player ..> "21" Token

Token *- -> Colors
@enduml

PlantUML version 1.2022.5(Sat Apr 30 12:55:52 CEST 2022)
(GPL source distribution)
Java Runtime: OpenJDK Runtime Environment
JVM: OpenJDK 64-Bit Server VM
Default Encoding: UTF-8
Language: es
Country: ES
--></g></svg>