<?xml version="1.0" encoding="UTF-8" standalone="no"?><svg xmlns="http://www.w3.org/2000/svg" xmlns:xlink="http://www.w3.org/1999/xlink" contentStyleType="text/css" height="1076px" preserveAspectRatio="none" style="width:382px;height:1076px;background:#FFFFFF;" version="1.1" viewBox="0 0 382 1076" width="382px" zoomAndPan="magnify"><defs/><g><!--MD5=[10b1f240992e2c34b6908209bf85bfd2]
class Connect4--><g id="elem_Connect4"><rect codeLine="2" fill="#F1F1F1" height="100.8281" id="Connect4" rx="2.5" ry="2.5" style="stroke:#181818;stroke-width:0.5;" width="105" x="110.5" y="7"/><ellipse cx="130.9" cy="23" fill="#ADD1B2" rx="11" ry="11" style="stroke:#181818;stroke-width:1.0;"/><path d="M133.6656,18.875 Q133.8219,18.6563 134.0094,18.5469 Q134.1969,18.4375 134.4156,18.4375 Q134.7906,18.4375 135.025,18.7031 Q135.2594,18.9531 135.2594,19.5625 L135.2594,21.0156 Q135.2594,21.625 135.025,21.8906 Q134.7906,22.1563 134.4156,22.1563 Q134.0719,22.1563 133.8688,21.9531 Q133.6656,21.7656 133.5563,21.25 Q133.5094,20.8906 133.3219,20.7031 Q132.9938,20.3281 132.3844,20.1094 Q131.775,19.8906 131.15,19.8906 Q130.3844,19.8906 129.7438,20.2188 Q129.1188,20.5469 128.6188,21.2969 Q128.1344,22.0469 128.1344,23.0781 L128.1344,24.1719 Q128.1344,25.4063 129.025,26.2344 Q129.9156,27.0469 131.5094,27.0469 Q132.4469,27.0469 133.1031,26.7969 Q133.4938,26.6406 133.9156,26.2031 Q134.1813,25.9375 134.3219,25.8594 Q134.4781,25.7813 134.6813,25.7813 Q135.0094,25.7813 135.2594,26.0469 Q135.525,26.2969 135.525,26.6406 Q135.525,26.9844 135.1813,27.3906 Q134.6813,27.9688 133.8844,28.2969 Q132.8063,28.75 131.5094,28.75 Q129.9938,28.75 128.7906,28.125 Q127.8063,27.625 127.1188,26.5625 Q126.4313,25.4844 126.4313,24.2031 L126.4313,23.0469 Q126.4313,21.7188 127.0406,20.5781 Q127.6656,19.4219 128.7594,18.8125 Q129.8531,18.1875 131.0875,18.1875 Q131.8219,18.1875 132.4625,18.3594 Q133.1188,18.5156 133.6656,18.875 Z " fill="#000000"/><text fill="#000000" font-family="sans-serif" font-size="14" lengthAdjust="spacing" textLength="61" x="146.1" y="28.7285">Connect4</text><line style="stroke:#181818;stroke-width:0.5;" x1="111.5" x2="214.5" y1="39" y2="39"/><rect fill="none" height="6" style="stroke:#C82930;stroke-width:1.0;" width="6" x="118.5" y="47"/><text fill="#000000" font-family="sans-serif" font-size="14" lengthAdjust="spacing" textLength="66" x="130.5" y="57.5332">boardView</text><rect fill="none" height="6" style="stroke:#C82930;stroke-width:1.0;" width="6" x="118.5" y="64.6094"/><text fill="#000000" font-family="sans-serif" font-size="14" lengthAdjust="spacing" textLength="79" x="130.5" y="75.1426">yesNoDialog</text><line style="stroke:#181818;stroke-width:0.5;" x1="111.5" x2="214.5" y1="82.2188" y2="82.2188"/><ellipse cx="121.5" cy="93.2188" fill="#84BE84" rx="3" ry="3" style="stroke:#038048;stroke-width:1.0;"/><text fill="#000000" font-family="sans-serif" font-size="14" lengthAdjust="spacing" textLength="74" x="130.5" y="100.752">playGame()</text></g><!--MD5=[2f2ced231ceb229417d2b072acd0beb6]
class YesNoDialogView--><g id="elem_YesNoDialogView"><rect codeLine="7" fill="#F1F1F1" height="83.2188" id="YesNoDialogView" rx="2.5" ry="2.5" style="stroke:#181818;stroke-width:0.5;" width="142" x="7" y="203.5"/><ellipse cx="22" cy="219.5" fill="#ADD1B2" rx="11" ry="11" style="stroke:#181818;stroke-width:1.0;"/><path d="M24.7656,215.375 Q24.9219,215.1563 25.1094,215.0469 Q25.2969,214.9375 25.5156,214.9375 Q25.8906,214.9375 26.125,215.2031 Q26.3594,215.4531 26.3594,216.0625 L26.3594,217.5156 Q26.3594,218.125 26.125,218.3906 Q25.8906,218.6563 25.5156,218.6563 Q25.1719,218.6563 24.9688,218.4531 Q24.7656,218.2656 24.6563,217.75 Q24.6094,217.3906 24.4219,217.2031 Q24.0938,216.8281 23.4844,216.6094 Q22.875,216.3906 22.25,216.3906 Q21.4844,216.3906 20.8438,216.7188 Q20.2188,217.0469 19.7188,217.7969 Q19.2344,218.5469 19.2344,219.5781 L19.2344,220.6719 Q19.2344,221.9063 20.125,222.7344 Q21.0156,223.5469 22.6094,223.5469 Q23.5469,223.5469 24.2031,223.2969 Q24.5938,223.1406 25.0156,222.7031 Q25.2813,222.4375 25.4219,222.3594 Q25.5781,222.2813 25.7813,222.2813 Q26.1094,222.2813 26.3594,222.5469 Q26.625,222.7969 26.625,223.1406 Q26.625,223.4844 26.2813,223.8906 Q25.7813,224.4688 24.9844,224.7969 Q23.9063,225.25 22.6094,225.25 Q21.0938,225.25 19.8906,224.625 Q18.9063,224.125 18.2188,223.0625 Q17.5313,221.9844 17.5313,220.7031 L17.5313,219.5469 Q17.5313,218.2188 18.1406,217.0781 Q18.7656,215.9219 19.8594,215.3125 Q20.9531,214.6875 22.1875,214.6875 Q22.9219,214.6875 23.5625,214.8594 Q24.2188,215.0156 24.7656,215.375 Z " fill="#000000"/><text fill="#000000" font-family="sans-serif" font-size="14" lengthAdjust="spacing" textLength="110" x="36" y="225.2285">YesNoDialogView</text><line style="stroke:#181818;stroke-width:0.5;" x1="8" x2="148" y1="235.5" y2="235.5"/><line style="stroke:#181818;stroke-width:0.5;" x1="8" x2="148" y1="243.5" y2="243.5"/><ellipse cx="18" cy="254.5" fill="#84BE84" rx="3" ry="3" style="stroke:#038048;stroke-width:1.0;"/><text fill="#000000" font-family="sans-serif" font-size="14" lengthAdjust="spacing" textLength="96" x="27" y="262.0332">read(message)</text><ellipse cx="18" cy="272.1094" fill="#84BE84" rx="3" ry="3" style="stroke:#038048;stroke-width:1.0;"/><text fill="#000000" font-family="sans-serif" font-size="14" lengthAdjust="spacing" textLength="86" x="27" y="279.6426">isAffirmative()</text></g><!--MD5=[9563755d011c5cec7ec66dc53565a59e]
class Board--><g id="elem_Board"><rect codeLine="11" fill="#F1F1F1" height="171.2656" id="Board" rx="2.5" ry="2.5" style="stroke:#181818;stroke-width:0.5;" width="131" x="108.5" y="382"/><ellipse cx="150.95" cy="398" fill="#ADD1B2" rx="11" ry="11" style="stroke:#181818;stroke-width:1.0;"/><path d="M153.7156,393.875 Q153.8719,393.6563 154.0594,393.5469 Q154.2469,393.4375 154.4656,393.4375 Q154.8406,393.4375 155.075,393.7031 Q155.3094,393.9531 155.3094,394.5625 L155.3094,396.0156 Q155.3094,396.625 155.075,396.8906 Q154.8406,397.1563 154.4656,397.1563 Q154.1219,397.1563 153.9188,396.9531 Q153.7156,396.7656 153.6063,396.25 Q153.5594,395.8906 153.3719,395.7031 Q153.0438,395.3281 152.4344,395.1094 Q151.825,394.8906 151.2,394.8906 Q150.4344,394.8906 149.7938,395.2188 Q149.1688,395.5469 148.6688,396.2969 Q148.1844,397.0469 148.1844,398.0781 L148.1844,399.1719 Q148.1844,400.4063 149.075,401.2344 Q149.9656,402.0469 151.5594,402.0469 Q152.4969,402.0469 153.1531,401.7969 Q153.5438,401.6406 153.9656,401.2031 Q154.2313,400.9375 154.3719,400.8594 Q154.5281,400.7813 154.7313,400.7813 Q155.0594,400.7813 155.3094,401.0469 Q155.575,401.2969 155.575,401.6406 Q155.575,401.9844 155.2313,402.3906 Q154.7313,402.9688 153.9344,403.2969 Q152.8563,403.75 151.5594,403.75 Q150.0438,403.75 148.8406,403.125 Q147.8563,402.625 147.1688,401.5625 Q146.4813,400.4844 146.4813,399.2031 L146.4813,398.0469 Q146.4813,396.7188 147.0906,395.5781 Q147.7156,394.4219 148.8094,393.8125 Q149.9031,393.1875 151.1375,393.1875 Q151.8719,393.1875 152.5125,393.3594 Q153.1688,393.5156 153.7156,393.875 Z " fill="#000000"/><text fill="#000000" font-family="sans-serif" font-size="14" lengthAdjust="spacing" textLength="38" x="171.05" y="403.7285">Board</text><line style="stroke:#181818;stroke-width:0.5;" x1="109.5" x2="238.5" y1="414" y2="414"/><rect fill="none" height="6" style="stroke:#C82930;stroke-width:1.0;" width="6" x="116.5" y="422"/><text fill="#000000" font-family="sans-serif" font-size="14" lengthAdjust="spacing" textLength="50" x="128.5" y="432.5332">tokens[]</text><line style="stroke:#181818;stroke-width:0.5;" x1="109.5" x2="238.5" y1="439.6094" y2="439.6094"/><ellipse cx="119.5" cy="450.6094" fill="#84BE84" rx="3" ry="3" style="stroke:#038048;stroke-width:1.0;"/><text fill="#000000" font-family="sans-serif" font-size="14" lengthAdjust="spacing" textLength="97" x="128.5" y="458.1426">fillEmptyHoles()</text><ellipse cx="119.5" cy="468.2188" fill="#84BE84" rx="3" ry="3" style="stroke:#038048;stroke-width:1.0;"/><text fill="#000000" font-family="sans-serif" font-size="14" lengthAdjust="spacing" textLength="83" x="128.5" y="475.752">isHole(token)</text><ellipse cx="119.5" cy="485.8281" fill="#84BE84" rx="3" ry="3" style="stroke:#038048;stroke-width:1.0;"/><text fill="#000000" font-family="sans-serif" font-size="14" lengthAdjust="spacing" textLength="105" x="128.5" y="493.3613">putToken(token)</text><ellipse cx="119.5" cy="503.4375" fill="#84BE84" rx="3" ry="3" style="stroke:#038048;stroke-width:1.0;"/><text fill="#000000" font-family="sans-serif" font-size="14" lengthAdjust="spacing" textLength="83" x="128.5" y="510.9707">isEndGame()</text><ellipse cx="119.5" cy="521.0469" fill="#84BE84" rx="3" ry="3" style="stroke:#038048;stroke-width:1.0;"/><text fill="#000000" font-family="sans-serif" font-size="14" lengthAdjust="spacing" textLength="81" x="128.5" y="528.5801">isFullBoard()</text><rect fill="#F24D5C" height="6" style="stroke:#C82930;stroke-width:1.0;" width="6" x="116.5" y="535.6563"/><text fill="#000000" font-family="sans-serif" font-size="14" lengthAdjust="spacing" textLength="93" x="128.5" y="546.1895">isInLine(token)</text></g><!--MD5=[9b237e88d697a058bd530d6510c96c00]
class BoardView--><g id="elem_BoardView"><rect codeLine="20" fill="#F1F1F1" height="153.6563" id="BoardView" rx="2.5" ry="2.5" style="stroke:#181818;stroke-width:0.5;" width="129" x="184.5" y="168"/><ellipse cx="213" cy="184" fill="#ADD1B2" rx="11" ry="11" style="stroke:#181818;stroke-width:1.0;"/><path d="M215.7656,179.875 Q215.9219,179.6563 216.1094,179.5469 Q216.2969,179.4375 216.5156,179.4375 Q216.8906,179.4375 217.125,179.7031 Q217.3594,179.9531 217.3594,180.5625 L217.3594,182.0156 Q217.3594,182.625 217.125,182.8906 Q216.8906,183.1563 216.5156,183.1563 Q216.1719,183.1563 215.9688,182.9531 Q215.7656,182.7656 215.6563,182.25 Q215.6094,181.8906 215.4219,181.7031 Q215.0938,181.3281 214.4844,181.1094 Q213.875,180.8906 213.25,180.8906 Q212.4844,180.8906 211.8438,181.2188 Q211.2188,181.5469 210.7188,182.2969 Q210.2344,183.0469 210.2344,184.0781 L210.2344,185.1719 Q210.2344,186.4063 211.125,187.2344 Q212.0156,188.0469 213.6094,188.0469 Q214.5469,188.0469 215.2031,187.7969 Q215.5938,187.6406 216.0156,187.2031 Q216.2813,186.9375 216.4219,186.8594 Q216.5781,186.7813 216.7813,186.7813 Q217.1094,186.7813 217.3594,187.0469 Q217.625,187.2969 217.625,187.6406 Q217.625,187.9844 217.2813,188.3906 Q216.7813,188.9688 215.9844,189.2969 Q214.9063,189.75 213.6094,189.75 Q212.0938,189.75 210.8906,189.125 Q209.9063,188.625 209.2188,187.5625 Q208.5313,186.4844 208.5313,185.2031 L208.5313,184.0469 Q208.5313,182.7188 209.1406,181.5781 Q209.7656,180.4219 210.8594,179.8125 Q211.9531,179.1875 213.1875,179.1875 Q213.9219,179.1875 214.5625,179.3594 Q215.2188,179.5156 215.7656,179.875 Z " fill="#000000"/><text fill="#000000" font-family="sans-serif" font-size="14" lengthAdjust="spacing" textLength="67" x="230" y="189.7285">BoardView</text><line style="stroke:#181818;stroke-width:0.5;" x1="185.5" x2="312.5" y1="200" y2="200"/><rect fill="none" height="6" style="stroke:#C82930;stroke-width:1.0;" width="6" x="192.5" y="208"/><text fill="#000000" font-family="sans-serif" font-size="14" lengthAdjust="spacing" textLength="79" x="204.5" y="218.5332">MAX_ROWS</text><rect fill="none" height="6" style="stroke:#C82930;stroke-width:1.0;" width="6" x="192.5" y="225.6094"/><text fill="#000000" font-family="sans-serif" font-size="14" lengthAdjust="spacing" textLength="103" x="204.5" y="236.1426">MAX_COLUMNS</text><rect fill="none" height="6" style="stroke:#C82930;stroke-width:1.0;" width="6" x="192.5" y="243.2188"/><text fill="#000000" font-family="sans-serif" font-size="14" lengthAdjust="spacing" textLength="38" x="204.5" y="253.752">Board</text><rect fill="none" height="6" style="stroke:#C82930;stroke-width:1.0;" width="6" x="192.5" y="260.8281"/><text fill="#000000" font-family="sans-serif" font-size="14" lengthAdjust="spacing" textLength="59" x="204.5" y="271.3613">TurnView</text><line style="stroke:#181818;stroke-width:0.5;" x1="185.5" x2="312.5" y1="278.4375" y2="278.4375"/><ellipse cx="195.5" cy="289.4375" fill="#84BE84" rx="3" ry="3" style="stroke:#038048;stroke-width:1.0;"/><text fill="#000000" font-family="sans-serif" font-size="14" lengthAdjust="spacing" textLength="28" x="204.5" y="296.9707">init()</text><ellipse cx="195.5" cy="307.0469" fill="#84BE84" rx="3" ry="3" style="stroke:#038048;stroke-width:1.0;"/><text fill="#000000" font-family="sans-serif" font-size="14" lengthAdjust="spacing" textLength="42" x="204.5" y="314.5801">show()</text></g><!--MD5=[8c7d7abc12e214c3cc12c9ab70edee11]
class Coordinate--><g id="elem_Coordinate"><rect codeLine="28" fill="#F1F1F1" height="100.8281" id="Coordinate" rx="2.5" ry="2.5" style="stroke:#181818;stroke-width:0.5;" width="107" x="100.5" y="969"/><ellipse cx="117.75" cy="985" fill="#ADD1B2" rx="11" ry="11" style="stroke:#181818;stroke-width:1.0;"/><path d="M120.5156,980.875 Q120.6719,980.6563 120.8594,980.5469 Q121.0469,980.4375 121.2656,980.4375 Q121.6406,980.4375 121.875,980.7031 Q122.1094,980.9531 122.1094,981.5625 L122.1094,983.0156 Q122.1094,983.625 121.875,983.8906 Q121.6406,984.1563 121.2656,984.1563 Q120.9219,984.1563 120.7188,983.9531 Q120.5156,983.7656 120.4063,983.25 Q120.3594,982.8906 120.1719,982.7031 Q119.8438,982.3281 119.2344,982.1094 Q118.625,981.8906 118,981.8906 Q117.2344,981.8906 116.5938,982.2188 Q115.9688,982.5469 115.4688,983.2969 Q114.9844,984.0469 114.9844,985.0781 L114.9844,986.1719 Q114.9844,987.4063 115.875,988.2344 Q116.7656,989.0469 118.3594,989.0469 Q119.2969,989.0469 119.9531,988.7969 Q120.3438,988.6406 120.7656,988.2031 Q121.0313,987.9375 121.1719,987.8594 Q121.3281,987.7813 121.5313,987.7813 Q121.8594,987.7813 122.1094,988.0469 Q122.375,988.2969 122.375,988.6406 Q122.375,988.9844 122.0313,989.3906 Q121.5313,989.9688 120.7344,990.2969 Q119.6563,990.75 118.3594,990.75 Q116.8438,990.75 115.6406,990.125 Q114.6563,989.625 113.9688,988.5625 Q113.2813,987.4844 113.2813,986.2031 L113.2813,985.0469 Q113.2813,983.7188 113.8906,982.5781 Q114.5156,981.4219 115.6094,980.8125 Q116.7031,980.1875 117.9375,980.1875 Q118.6719,980.1875 119.3125,980.3594 Q119.9688,980.5156 120.5156,980.875 Z " fill="#000000"/><text fill="#000000" font-family="sans-serif" font-size="14" lengthAdjust="spacing" textLength="70" x="132.25" y="990.7285">Coordinate</text><line style="stroke:#181818;stroke-width:0.5;" x1="101.5" x2="206.5" y1="1001" y2="1001"/><rect fill="none" height="6" style="stroke:#C82930;stroke-width:1.0;" width="6" x="108.5" y="1009"/><text fill="#000000" font-family="sans-serif" font-size="14" lengthAdjust="spacing" textLength="22" x="120.5" y="1019.5332">row</text><rect fill="none" height="6" style="stroke:#C82930;stroke-width:1.0;" width="6" x="108.5" y="1026.6094"/><text fill="#000000" font-family="sans-serif" font-size="14" lengthAdjust="spacing" textLength="45" x="120.5" y="1037.1426">column</text><line style="stroke:#181818;stroke-width:0.5;" x1="101.5" x2="206.5" y1="1044.2188" y2="1044.2188"/><ellipse cx="111.5" cy="1055.2188" fill="#84BE84" rx="3" ry="3" style="stroke:#038048;stroke-width:1.0;"/><text fill="#000000" font-family="sans-serif" font-size="14" lengthAdjust="spacing" textLength="81" x="120.5" y="1062.752">isOnRange()</text></g><!--MD5=[d8c8cfd5ca149094f5b67f9f607a5ec7]
class Token--><g id="elem_Token"><rect codeLine="33" fill="#F1F1F1" height="118.4375" id="Token" rx="2.5" ry="2.5" style="stroke:#181818;stroke-width:0.5;" width="96" x="168" y="791"/><ellipse cx="193.8" cy="807" fill="#ADD1B2" rx="11" ry="11" style="stroke:#181818;stroke-width:1.0;"/><path d="M196.5656,802.875 Q196.7219,802.6563 196.9094,802.5469 Q197.0969,802.4375 197.3156,802.4375 Q197.6906,802.4375 197.925,802.7031 Q198.1594,802.9531 198.1594,803.5625 L198.1594,805.0156 Q198.1594,805.625 197.925,805.8906 Q197.6906,806.1563 197.3156,806.1563 Q196.9719,806.1563 196.7688,805.9531 Q196.5656,805.7656 196.4563,805.25 Q196.4094,804.8906 196.2219,804.7031 Q195.8938,804.3281 195.2844,804.1094 Q194.675,803.8906 194.05,803.8906 Q193.2844,803.8906 192.6438,804.2188 Q192.0188,804.5469 191.5188,805.2969 Q191.0344,806.0469 191.0344,807.0781 L191.0344,808.1719 Q191.0344,809.4063 191.925,810.2344 Q192.8156,811.0469 194.4094,811.0469 Q195.3469,811.0469 196.0031,810.7969 Q196.3938,810.6406 196.8156,810.2031 Q197.0813,809.9375 197.2219,809.8594 Q197.3781,809.7813 197.5813,809.7813 Q197.9094,809.7813 198.1594,810.0469 Q198.425,810.2969 198.425,810.6406 Q198.425,810.9844 198.0813,811.3906 Q197.5813,811.9688 196.7844,812.2969 Q195.7063,812.75 194.4094,812.75 Q192.8938,812.75 191.6906,812.125 Q190.7063,811.625 190.0188,810.5625 Q189.3313,809.4844 189.3313,808.2031 L189.3313,807.0469 Q189.3313,805.7188 189.9406,804.5781 Q190.5656,803.4219 191.6594,802.8125 Q192.7531,802.1875 193.9875,802.1875 Q194.7219,802.1875 195.3625,802.3594 Q196.0188,802.5156 196.5656,802.875 Z " fill="#000000"/><text fill="#000000" font-family="sans-serif" font-size="14" lengthAdjust="spacing" textLength="40" x="210.2" y="812.7285">Token</text><line style="stroke:#181818;stroke-width:0.5;" x1="169" x2="263" y1="823" y2="823"/><rect fill="none" height="6" style="stroke:#C82930;stroke-width:1.0;" width="6" x="176" y="831"/><text fill="#000000" font-family="sans-serif" font-size="14" lengthAdjust="spacing" textLength="34" x="188" y="841.5332">Color</text><rect fill="none" height="6" style="stroke:#C82930;stroke-width:1.0;" width="6" x="176" y="848.6094"/><text fill="#000000" font-family="sans-serif" font-size="14" lengthAdjust="spacing" textLength="70" x="188" y="859.1426">Coordinate</text><line style="stroke:#181818;stroke-width:0.5;" x1="169" x2="263" y1="866.2188" y2="866.2188"/><ellipse cx="179" cy="877.2188" fill="#84BE84" rx="3" ry="3" style="stroke:#038048;stroke-width:1.0;"/><text fill="#000000" font-family="sans-serif" font-size="14" lengthAdjust="spacing" textLength="64" x="188" y="884.752">getColor()</text><ellipse cx="179" cy="894.8281" fill="#84BE84" rx="3" ry="3" style="stroke:#038048;stroke-width:1.0;"/><text fill="#000000" font-family="sans-serif" font-size="14" lengthAdjust="spacing" textLength="48" x="188" y="902.3613">isHole()</text></g><!--MD5=[0f1adae5684a082996b24e2018afd4c9]
class TurnView--><g id="elem_TurnView"><rect codeLine="39" fill="#F1F1F1" height="118.4375" id="TurnView" rx="2.5" ry="2.5" style="stroke:#181818;stroke-width:0.5;" width="96" x="275" y="408.5"/><ellipse cx="292.25" cy="424.5" fill="#ADD1B2" rx="11" ry="11" style="stroke:#181818;stroke-width:1.0;"/><path d="M295.0156,420.375 Q295.1719,420.1563 295.3594,420.0469 Q295.5469,419.9375 295.7656,419.9375 Q296.1406,419.9375 296.375,420.2031 Q296.6094,420.4531 296.6094,421.0625 L296.6094,422.5156 Q296.6094,423.125 296.375,423.3906 Q296.1406,423.6563 295.7656,423.6563 Q295.4219,423.6563 295.2188,423.4531 Q295.0156,423.2656 294.9063,422.75 Q294.8594,422.3906 294.6719,422.2031 Q294.3438,421.8281 293.7344,421.6094 Q293.125,421.3906 292.5,421.3906 Q291.7344,421.3906 291.0938,421.7188 Q290.4688,422.0469 289.9688,422.7969 Q289.4844,423.5469 289.4844,424.5781 L289.4844,425.6719 Q289.4844,426.9063 290.375,427.7344 Q291.2656,428.5469 292.8594,428.5469 Q293.7969,428.5469 294.4531,428.2969 Q294.8438,428.1406 295.2656,427.7031 Q295.5313,427.4375 295.6719,427.3594 Q295.8281,427.2813 296.0313,427.2813 Q296.3594,427.2813 296.6094,427.5469 Q296.875,427.7969 296.875,428.1406 Q296.875,428.4844 296.5313,428.8906 Q296.0313,429.4688 295.2344,429.7969 Q294.1563,430.25 292.8594,430.25 Q291.3438,430.25 290.1406,429.625 Q289.1563,429.125 288.4688,428.0625 Q287.7813,426.9844 287.7813,425.7031 L287.7813,424.5469 Q287.7813,423.2188 288.3906,422.0781 Q289.0156,420.9219 290.1094,420.3125 Q291.2031,419.6875 292.4375,419.6875 Q293.1719,419.6875 293.8125,419.8594 Q294.4688,420.0156 295.0156,420.375 Z " fill="#000000"/><text fill="#000000" font-family="sans-serif" font-size="14" lengthAdjust="spacing" textLength="59" x="306.75" y="430.2285">TurnView</text><line style="stroke:#181818;stroke-width:0.5;" x1="276" x2="370" y1="440.5" y2="440.5"/><rect fill="none" height="6" style="stroke:#C82930;stroke-width:1.0;" width="6" x="283" y="448.5"/><text fill="#000000" font-family="sans-serif" font-size="14" lengthAdjust="spacing" textLength="25" x="295" y="459.0332">turn</text><line style="stroke:#181818;stroke-width:0.5;" x1="276" x2="370" y1="466.1094" y2="466.1094"/><ellipse cx="286" cy="477.1094" fill="#84BE84" rx="3" ry="3" style="stroke:#038048;stroke-width:1.0;"/><text fill="#000000" font-family="sans-serif" font-size="14" lengthAdjust="spacing" textLength="66" x="295" y="484.6426">nextTurn()</text><ellipse cx="286" cy="494.7188" fill="#84BE84" rx="3" ry="3" style="stroke:#038048;stroke-width:1.0;"/><text fill="#000000" font-family="sans-serif" font-size="14" lengthAdjust="spacing" textLength="70" x="295" y="502.252">getToken()</text><ellipse cx="286" cy="512.3281" fill="#84BE84" rx="3" ry="3" style="stroke:#038048;stroke-width:1.0;"/><text fill="#000000" font-family="sans-serif" font-size="14" lengthAdjust="spacing" textLength="64" x="295" y="519.8613">getColor()</text></g><!--MD5=[dd91eae41778c45e12552e5329e240e8]
class Turn--><g id="elem_Turn"><rect codeLine="46" fill="#F1F1F1" height="118.4375" id="Turn" rx="2.5" ry="2.5" style="stroke:#181818;stroke-width:0.5;" width="105" x="270.5" y="613"/><ellipse cx="304.85" cy="629" fill="#ADD1B2" rx="11" ry="11" style="stroke:#181818;stroke-width:1.0;"/><path d="M307.6156,624.875 Q307.7719,624.6563 307.9594,624.5469 Q308.1469,624.4375 308.3656,624.4375 Q308.7406,624.4375 308.975,624.7031 Q309.2094,624.9531 309.2094,625.5625 L309.2094,627.0156 Q309.2094,627.625 308.975,627.8906 Q308.7406,628.1563 308.3656,628.1563 Q308.0219,628.1563 307.8188,627.9531 Q307.6156,627.7656 307.5063,627.25 Q307.4594,626.8906 307.2719,626.7031 Q306.9438,626.3281 306.3344,626.1094 Q305.725,625.8906 305.1,625.8906 Q304.3344,625.8906 303.6938,626.2188 Q303.0688,626.5469 302.5688,627.2969 Q302.0844,628.0469 302.0844,629.0781 L302.0844,630.1719 Q302.0844,631.4063 302.975,632.2344 Q303.8656,633.0469 305.4594,633.0469 Q306.3969,633.0469 307.0531,632.7969 Q307.4438,632.6406 307.8656,632.2031 Q308.1313,631.9375 308.2719,631.8594 Q308.4281,631.7813 308.6313,631.7813 Q308.9594,631.7813 309.2094,632.0469 Q309.475,632.2969 309.475,632.6406 Q309.475,632.9844 309.1313,633.3906 Q308.6313,633.9688 307.8344,634.2969 Q306.7563,634.75 305.4594,634.75 Q303.9438,634.75 302.7406,634.125 Q301.7563,633.625 301.0688,632.5625 Q300.3813,631.4844 300.3813,630.2031 L300.3813,629.0469 Q300.3813,627.7188 300.9906,626.5781 Q301.6156,625.4219 302.7094,624.8125 Q303.8031,624.1875 305.0375,624.1875 Q305.7719,624.1875 306.4125,624.3594 Q307.0688,624.5156 307.6156,624.875 Z " fill="#000000"/><text fill="#000000" font-family="sans-serif" font-size="14" lengthAdjust="spacing" textLength="30" x="323.15" y="634.7285">Turn</text><line style="stroke:#181818;stroke-width:0.5;" x1="271.5" x2="374.5" y1="645" y2="645"/><rect fill="none" height="6" style="stroke:#C82930;stroke-width:1.0;" width="6" x="278.5" y="653"/><text fill="#000000" font-family="sans-serif" font-size="14" lengthAdjust="spacing" textLength="79" x="290.5" y="663.5332">currentColor</text><line style="stroke:#181818;stroke-width:0.5;" x1="271.5" x2="374.5" y1="670.6094" y2="670.6094"/><ellipse cx="281.5" cy="681.6094" fill="#84BE84" rx="3" ry="3" style="stroke:#038048;stroke-width:1.0;"/><text fill="#000000" font-family="sans-serif" font-size="14" lengthAdjust="spacing" textLength="66" x="290.5" y="689.1426">nextTurn()</text><ellipse cx="281.5" cy="699.2188" fill="#84BE84" rx="3" ry="3" style="stroke:#038048;stroke-width:1.0;"/><text fill="#000000" font-family="sans-serif" font-size="14" lengthAdjust="spacing" textLength="70" x="290.5" y="706.752">getToken()</text><ellipse cx="281.5" cy="716.8281" fill="#84BE84" rx="3" ry="3" style="stroke:#038048;stroke-width:1.0;"/><text fill="#000000" font-family="sans-serif" font-size="14" lengthAdjust="spacing" textLength="64" x="290.5" y="724.3613">getColor()</text></g><!--MD5=[2741598bdf59a7d7e0d5c97658fd3022]
class Result--><g id="elem_Result"><rect codeLine="54" fill="#F1F1F1" height="48" id="Result" rx="2.5" ry="2.5" style="stroke:#181818;stroke-width:0.5;" width="72" x="163" y="648"/><ellipse cx="178" cy="664" fill="#ADD1B2" rx="11" ry="11" style="stroke:#181818;stroke-width:1.0;"/><path d="M180.7656,659.875 Q180.9219,659.6563 181.1094,659.5469 Q181.2969,659.4375 181.5156,659.4375 Q181.8906,659.4375 182.125,659.7031 Q182.3594,659.9531 182.3594,660.5625 L182.3594,662.0156 Q182.3594,662.625 182.125,662.8906 Q181.8906,663.1563 181.5156,663.1563 Q181.1719,663.1563 180.9688,662.9531 Q180.7656,662.7656 180.6563,662.25 Q180.6094,661.8906 180.4219,661.7031 Q180.0938,661.3281 179.4844,661.1094 Q178.875,660.8906 178.25,660.8906 Q177.4844,660.8906 176.8438,661.2188 Q176.2188,661.5469 175.7188,662.2969 Q175.2344,663.0469 175.2344,664.0781 L175.2344,665.1719 Q175.2344,666.4063 176.125,667.2344 Q177.0156,668.0469 178.6094,668.0469 Q179.5469,668.0469 180.2031,667.7969 Q180.5938,667.6406 181.0156,667.2031 Q181.2813,666.9375 181.4219,666.8594 Q181.5781,666.7813 181.7813,666.7813 Q182.1094,666.7813 182.3594,667.0469 Q182.625,667.2969 182.625,667.6406 Q182.625,667.9844 182.2813,668.3906 Q181.7813,668.9688 180.9844,669.2969 Q179.9063,669.75 178.6094,669.75 Q177.0938,669.75 175.8906,669.125 Q174.9063,668.625 174.2188,667.5625 Q173.5313,666.4844 173.5313,665.2031 L173.5313,664.0469 Q173.5313,662.7188 174.1406,661.5781 Q174.7656,660.4219 175.8594,659.8125 Q176.9531,659.1875 178.1875,659.1875 Q178.9219,659.1875 179.5625,659.3594 Q180.2188,659.5156 180.7656,659.875 Z " fill="#000000"/><text fill="#000000" font-family="sans-serif" font-size="14" lengthAdjust="spacing" textLength="40" x="192" y="669.7285">Result</text><line style="stroke:#181818;stroke-width:0.5;" x1="164" x2="234" y1="680" y2="680"/><line style="stroke:#181818;stroke-width:0.5;" x1="164" x2="234" y1="688" y2="688"/></g><!--MD5=[c4df9b95f6f4e4e1c32bb5a44abd175a]
class Colors--><g id="elem_Colors"><rect codeLine="56" fill="#F1F1F1" height="83.2188" id="Colors" rx="2.5" ry="2.5" style="stroke:#181818;stroke-width:0.5;" width="73" x="242.5" y="978"/><ellipse cx="257.5" cy="994" fill="#EB937F" rx="11" ry="11" style="stroke:#181818;stroke-width:1.0;"/><path d="M256.3594,994.7969 L256.3594,997.2969 L260.6875,997.2969 L260.6875,996.375 Q260.6875,995.7656 260.9219,995.5 Q261.1719,995.2344 261.5469,995.2344 Q261.9219,995.2344 262.1563,995.5 Q262.3906,995.7656 262.3906,996.375 L262.3906,999 L254.3906,999 Q253.7656,999 253.5,998.7656 Q253.25,998.5313 253.25,998.1406 Q253.25,997.7656 253.5156,997.5313 Q253.7813,997.2969 254.3906,997.2969 L254.6563,997.2969 L254.6563,990.6406 L254.3906,990.6406 Q253.7656,990.6406 253.5,990.4063 Q253.25,990.1719 253.25,989.7813 Q253.25,989.4063 253.5,989.1719 Q253.7656,988.9375 254.3906,988.9375 L262.0156,988.9375 L262.0156,991.5313 Q262.0156,992.1406 261.7813,992.4063 Q261.5625,992.6563 261.1719,992.6563 Q260.7969,992.6563 260.5625,992.4063 Q260.3281,992.1406 260.3281,991.5313 L260.3281,990.6406 L256.3594,990.6406 L256.3594,993.0938 L257.8438,993.0938 Q257.8438,992.4375 257.9688,992.25 Q258.2344,991.8438 258.7031,991.8438 Q259.0781,991.8438 259.3125,992.1094 Q259.5469,992.3594 259.5469,992.9688 L259.5469,994.9375 Q259.5469,995.4844 259.4219,995.6719 Q259.1563,996.0625 258.7031,996.0625 Q258.2344,996.0625 257.9688,995.6563 Q257.8438,995.4688 257.8438,994.7969 L256.3594,994.7969 Z " fill="#000000"/><text fill="#000000" font-family="sans-serif" font-size="14" lengthAdjust="spacing" textLength="41" x="271.5" y="999.7285">Colors</text><line style="stroke:#181818;stroke-width:0.5;" x1="243.5" x2="314.5" y1="1010" y2="1010"/><text fill="#000000" font-family="sans-serif" font-size="14" lengthAdjust="spacing" textLength="26" x="248.5" y="1028.5332">Red</text><text fill="#000000" font-family="sans-serif" font-size="14" lengthAdjust="spacing" textLength="40" x="248.5" y="1046.1426">Yellow</text><line style="stroke:#181818;stroke-width:0.5;" x1="243.5" x2="314.5" y1="1053.2188" y2="1053.2188"/></g><!--MD5=[1da39882317deee69888dc65a2b454be]
link Connect4 to BoardView--><g id="link_Connect4_BoardView"><path codeLine="61" d="M186.05,108.21 C193.89,125.13 202.87,144.5 211.55,163.21 " fill="none" id="Connect4-to-BoardView" style="stroke:#181818;stroke-width:1.0;stroke-dasharray:7.0,7.0;"/><polygon fill="#181818" points="213.74,167.95,213.5944,158.1022,211.642,163.4115,206.3328,161.459,213.74,167.95" style="stroke:#181818;stroke-width:1.0;"/></g><!--MD5=[bd62d02ddcc7cab85c8af840f89aa653]
link Connect4 to YesNoDialogView--><g id="link_Connect4_YesNoDialogView"><path codeLine="62" d="M140.22,108.21 C127.34,136.31 111.36,171.19 98.82,198.56 " fill="none" id="Connect4-to-YesNoDialogView" style="stroke:#181818;stroke-width:1.0;stroke-dasharray:7.0,7.0;"/><polygon fill="#181818" points="96.68,203.23,104.0626,196.711,98.7608,198.6836,96.7883,193.3817,96.68,203.23" style="stroke:#181818;stroke-width:1.0;"/></g><!--MD5=[87ac28f7ff846e55e34c2c863c6ff220]
link BoardView to Board--><g id="link_BoardView_Board"><path codeLine="64" d="M223.08,322.19 C217.12,339.72 210.73,358.51 204.59,376.55 " fill="none" id="BoardView-to-Board" style="stroke:#181818;stroke-width:1.0;stroke-dasharray:7.0,7.0;"/><polygon fill="#181818" points="202.87,381.62,209.537,374.3708,204.4683,376.8823,201.9567,371.8136,202.87,381.62" style="stroke:#181818;stroke-width:1.0;"/></g><!--MD5=[c7c3dfe1a204cc183b3ebd4fea4524e8]
link BoardView to TurnView--><g id="link_BoardView_TurnView"><path codeLine="65" d="M274.57,322.19 C283.46,348.68 293.33,378.08 301.82,403.4 " fill="none" id="BoardView-to-TurnView" style="stroke:#181818;stroke-width:1.0;stroke-dasharray:7.0,7.0;"/><polygon fill="#181818" points="303.5,408.4,304.4398,398.5961,301.9146,403.658,296.8526,401.1328,303.5,408.4" style="stroke:#181818;stroke-width:1.0;"/></g><!--MD5=[b90c15517c5612720f6d3b5735a27f0e]
link TurnView to Turn--><g id="link_TurnView_Turn"><path codeLine="66" d="M323,538.53 C323,538.53 323,580.23 323,599.75 " fill="none" id="TurnView-Turn" style="stroke:#181818;stroke-width:1.0;"/><polygon fill="#181818" points="323,612.96,327,603.96,323,607.96,319,603.96,323,612.96" style="stroke:#181818;stroke-width:1.0;"/><line style="stroke:#181818;stroke-width:1.0;" x1="323" x2="323" y1="607.96" y2="599.96"/><polygon fill="none" points="323,526.53,319,532.53,323,538.53,327,532.53,323,526.53" style="stroke:#181818;stroke-width:1.0;"/></g><!--MD5=[8dd95aff79c51151a18c835e3410b3cd]
link Board to Result--><g id="link_Board_Result"><path codeLine="67" d="M184.46,553.2 C188.41,585.25 192.65,619.56 195.52,642.84 " fill="none" id="Board-to-Result" style="stroke:#181818;stroke-width:1.0;"/><polygon fill="#181818" points="196.15,647.92,199.0161,638.4974,195.5368,642.9577,191.0765,639.4785,196.15,647.92" style="stroke:#181818;stroke-width:1.0;"/><text fill="#000000" font-family="sans-serif" font-size="13" lengthAdjust="spacing" textLength="99" x="83.7353" y="637.2397">hace falta result?</text></g><!--MD5=[23c004dc6349f1678ef711c3be24147e]
link Board to Token--><g id="link_Board_Token"><path codeLine="69" d="M146.1447,564.8856 C146.1447,564.8856 130.16,677.56 145,731 C149.61,747.61 157.26,764.23 165.87,779.53 " fill="none" id="Board-Token" style="stroke:#181818;stroke-width:1.0;"/><polygon fill="#181818" points="172.6,790.95,171.4769,781.1654,170.0615,786.6423,164.5846,785.2269,172.6,790.95" style="stroke:#181818;stroke-width:1.0;"/><line style="stroke:#181818;stroke-width:1.0;" x1="170.0615" x2="166" y1="786.6423" y2="779.76"/><polygon fill="none" points="148.65,553.15,143.4855,558.1827,146.1447,564.8856,151.3092,559.8529,148.65,553.15" style="stroke:#181818;stroke-width:1.0;"/></g><!--MD5=[131fd55d1ea8d452206c40f8bf9c1560]
link Turn to Token--><g id="link_Turn_Token"><path codeLine="71" d="M287.67,731.12 C276.89,748.84 265,768.4 254.06,786.4 " fill="none" id="Turn-to-Token" style="stroke:#181818;stroke-width:1.0;stroke-dasharray:7.0,7.0;"/><polygon fill="#181818" points="251.3,790.94,259.3963,785.332,253.8997,786.669,252.5627,781.1724,251.3,790.94" style="stroke:#181818;stroke-width:1.0;"/></g><!--MD5=[d6208de9411c4b1d5190de2c034c83cb]
link Token to Colors--><g id="link_Token_Colors"><path codeLine="74" d="M242.0836,920.3421 C242.0836,920.3421 253.77,951.42 259.04,965.44 " fill="none" id="Token-Colors" style="stroke:#181818;stroke-width:1.0;"/><polygon fill="#181818" points="263.72,977.89,264.3001,968.0582,261.962,973.2093,256.811,970.8711,263.72,977.89" style="stroke:#181818;stroke-width:1.0;"/><line style="stroke:#181818;stroke-width:1.0;" x1="261.962" x2="259.15" y1="973.2093" y2="965.72"/><polygon fill="#181818" points="237.86,909.11,236.2278,916.1339,242.0836,920.3421,243.7159,913.3182,237.86,909.11" style="stroke:#181818;stroke-width:1.0;"/></g><!--MD5=[f2f17acc82dd155756e97465362881f7]
link Token to Coordinate--><g id="link_Token_Coordinate"><path codeLine="75" d="M194.49,909.11 C187.9,926.91 180.69,946.41 174.19,963.95 " fill="none" id="Token-to-Coordinate" style="stroke:#181818;stroke-width:1.0;stroke-dasharray:7.0,7.0;"/><polygon fill="#181818" points="172.38,968.84,179.2407,961.7739,174.1059,964.1473,171.7324,959.0125,172.38,968.84" style="stroke:#181818;stroke-width:1.0;"/></g><!--MD5=[b2ead6de2085bfad475dfe6447f19c52]
@startuml

class Connect4{
    - boardView
    - yesNoDialog
    + playGame()
}
class YesNoDialogView{
    + read(message)
    + isAffirmative()
}
class Board{
    - tokens[]
    + fillEmptyHoles()
    + isHole(token)
    + putToken(token)
    + isEndGame()
    + isFullBoard()
    - isInLine(token)
}
class BoardView{
    - MAX_ROWS
    - MAX_COLUMNS
    - Board
    - TurnView
    + init()
    + show()
}
class Coordinate{
    - row
    - column
    + isOnRange()
}
class Token{
    - Color
    - Coordinate
    + getColor()
    + isHole()
}
class TurnView{
    - turn
    + nextTurn()
    + getToken()
    + getColor()
}

class Turn{
    - currentColor
    + nextTurn()
    + getToken()
    + getColor()
    
}

class Result

enum Colors{
Red
Yellow
}

Connect4 ..> BoardView
Connect4 ..> YesNoDialogView

BoardView ..> Board
BoardView ..> TurnView
TurnView o- -> Turn
Board - -> "hace falta result?" Result

Board o- -> Token

Turn ..> Token


Token *- -> Colors
Token ..> Coordinate
@enduml

PlantUML version 1.2022.5(Sat Apr 30 12:55:52 CEST 2022)
(GPL source distribution)
Java Runtime: OpenJDK Runtime Environment
JVM: OpenJDK 64-Bit Server VM
Default Encoding: UTF-8
Language: es
Country: ES
--></g></svg>