<?xml version="1.0" encoding="UTF-8" standalone="no"?><svg xmlns="http://www.w3.org/2000/svg" xmlns:xlink="http://www.w3.org/1999/xlink" contentStyleType="text/css" height="1075px" preserveAspectRatio="none" style="width:367px;height:1075px;background:#FFFFFF;" version="1.1" viewBox="0 0 367 1075" width="367px" zoomAndPan="magnify"><defs/><g><!--MD5=[10b1f240992e2c34b6908209bf85bfd2]
class Connect4--><g id="elem_Connect4"><rect codeLine="2" fill="#F1F1F1" height="100.8281" id="Connect4" rx="2.5" ry="2.5" style="stroke:#181818;stroke-width:0.5;" width="105" x="103.5" y="7"/><ellipse cx="123.9" cy="23" fill="#ADD1B2" rx="11" ry="11" style="stroke:#181818;stroke-width:1.0;"/><path d="M126.6656,18.875 Q126.8219,18.6563 127.0094,18.5469 Q127.1969,18.4375 127.4156,18.4375 Q127.7906,18.4375 128.025,18.7031 Q128.2594,18.9531 128.2594,19.5625 L128.2594,21.0156 Q128.2594,21.625 128.025,21.8906 Q127.7906,22.1563 127.4156,22.1563 Q127.0719,22.1563 126.8688,21.9531 Q126.6656,21.7656 126.5563,21.25 Q126.5094,20.8906 126.3219,20.7031 Q125.9938,20.3281 125.3844,20.1094 Q124.775,19.8906 124.15,19.8906 Q123.3844,19.8906 122.7438,20.2188 Q122.1188,20.5469 121.6188,21.2969 Q121.1344,22.0469 121.1344,23.0781 L121.1344,24.1719 Q121.1344,25.4063 122.025,26.2344 Q122.9156,27.0469 124.5094,27.0469 Q125.4469,27.0469 126.1031,26.7969 Q126.4938,26.6406 126.9156,26.2031 Q127.1813,25.9375 127.3219,25.8594 Q127.4781,25.7813 127.6813,25.7813 Q128.0094,25.7813 128.2594,26.0469 Q128.525,26.2969 128.525,26.6406 Q128.525,26.9844 128.1813,27.3906 Q127.6813,27.9688 126.8844,28.2969 Q125.8063,28.75 124.5094,28.75 Q122.9938,28.75 121.7906,28.125 Q120.8063,27.625 120.1188,26.5625 Q119.4313,25.4844 119.4313,24.2031 L119.4313,23.0469 Q119.4313,21.7188 120.0406,20.5781 Q120.6656,19.4219 121.7594,18.8125 Q122.8531,18.1875 124.0875,18.1875 Q124.8219,18.1875 125.4625,18.3594 Q126.1188,18.5156 126.6656,18.875 Z " fill="#000000"/><text fill="#000000" font-family="sans-serif" font-size="14" lengthAdjust="spacing" textLength="61" x="139.1" y="28.7285">Connect4</text><line style="stroke:#181818;stroke-width:0.5;" x1="104.5" x2="207.5" y1="39" y2="39"/><rect fill="none" height="6" style="stroke:#C82930;stroke-width:1.0;" width="6" x="111.5" y="47"/><text fill="#000000" font-family="sans-serif" font-size="14" lengthAdjust="spacing" textLength="66" x="123.5" y="57.5332">boardView</text><rect fill="none" height="6" style="stroke:#C82930;stroke-width:1.0;" width="6" x="111.5" y="64.6094"/><text fill="#000000" font-family="sans-serif" font-size="14" lengthAdjust="spacing" textLength="79" x="123.5" y="75.1426">yesNoDialog</text><line style="stroke:#181818;stroke-width:0.5;" x1="104.5" x2="207.5" y1="82.2188" y2="82.2188"/><ellipse cx="114.5" cy="93.2188" fill="#84BE84" rx="3" ry="3" style="stroke:#038048;stroke-width:1.0;"/><text fill="#000000" font-family="sans-serif" font-size="14" lengthAdjust="spacing" textLength="74" x="123.5" y="100.752">playGame()</text></g><!--MD5=[2f2ced231ceb229417d2b072acd0beb6]
class YesNoDialogView--><g id="elem_YesNoDialogView"><rect codeLine="7" fill="#F1F1F1" height="83.2188" id="YesNoDialogView" rx="2.5" ry="2.5" style="stroke:#181818;stroke-width:0.5;" width="142" x="7" y="185.5"/><ellipse cx="22" cy="201.5" fill="#ADD1B2" rx="11" ry="11" style="stroke:#181818;stroke-width:1.0;"/><path d="M24.7656,197.375 Q24.9219,197.1563 25.1094,197.0469 Q25.2969,196.9375 25.5156,196.9375 Q25.8906,196.9375 26.125,197.2031 Q26.3594,197.4531 26.3594,198.0625 L26.3594,199.5156 Q26.3594,200.125 26.125,200.3906 Q25.8906,200.6563 25.5156,200.6563 Q25.1719,200.6563 24.9688,200.4531 Q24.7656,200.2656 24.6563,199.75 Q24.6094,199.3906 24.4219,199.2031 Q24.0938,198.8281 23.4844,198.6094 Q22.875,198.3906 22.25,198.3906 Q21.4844,198.3906 20.8438,198.7188 Q20.2188,199.0469 19.7188,199.7969 Q19.2344,200.5469 19.2344,201.5781 L19.2344,202.6719 Q19.2344,203.9063 20.125,204.7344 Q21.0156,205.5469 22.6094,205.5469 Q23.5469,205.5469 24.2031,205.2969 Q24.5938,205.1406 25.0156,204.7031 Q25.2813,204.4375 25.4219,204.3594 Q25.5781,204.2813 25.7813,204.2813 Q26.1094,204.2813 26.3594,204.5469 Q26.625,204.7969 26.625,205.1406 Q26.625,205.4844 26.2813,205.8906 Q25.7813,206.4688 24.9844,206.7969 Q23.9063,207.25 22.6094,207.25 Q21.0938,207.25 19.8906,206.625 Q18.9063,206.125 18.2188,205.0625 Q17.5313,203.9844 17.5313,202.7031 L17.5313,201.5469 Q17.5313,200.2188 18.1406,199.0781 Q18.7656,197.9219 19.8594,197.3125 Q20.9531,196.6875 22.1875,196.6875 Q22.9219,196.6875 23.5625,196.8594 Q24.2188,197.0156 24.7656,197.375 Z " fill="#000000"/><text fill="#000000" font-family="sans-serif" font-size="14" lengthAdjust="spacing" textLength="110" x="36" y="207.2285">YesNoDialogView</text><line style="stroke:#181818;stroke-width:0.5;" x1="8" x2="148" y1="217.5" y2="217.5"/><line style="stroke:#181818;stroke-width:0.5;" x1="8" x2="148" y1="225.5" y2="225.5"/><ellipse cx="18" cy="236.5" fill="#84BE84" rx="3" ry="3" style="stroke:#038048;stroke-width:1.0;"/><text fill="#000000" font-family="sans-serif" font-size="14" lengthAdjust="spacing" textLength="96" x="27" y="244.0332">read(message)</text><ellipse cx="18" cy="254.1094" fill="#84BE84" rx="3" ry="3" style="stroke:#038048;stroke-width:1.0;"/><text fill="#000000" font-family="sans-serif" font-size="14" lengthAdjust="spacing" textLength="86" x="27" y="261.6426">isAffirmative()</text></g><!--MD5=[9563755d011c5cec7ec66dc53565a59e]
class Board--><g id="elem_Board"><rect codeLine="11" fill="#F1F1F1" height="206.4844" id="Board" rx="2.5" ry="2.5" style="stroke:#181818;stroke-width:0.5;" width="131" x="93.5" y="346"/><ellipse cx="135.95" cy="362" fill="#ADD1B2" rx="11" ry="11" style="stroke:#181818;stroke-width:1.0;"/><path d="M138.7156,357.875 Q138.8719,357.6563 139.0594,357.5469 Q139.2469,357.4375 139.4656,357.4375 Q139.8406,357.4375 140.075,357.7031 Q140.3094,357.9531 140.3094,358.5625 L140.3094,360.0156 Q140.3094,360.625 140.075,360.8906 Q139.8406,361.1563 139.4656,361.1563 Q139.1219,361.1563 138.9188,360.9531 Q138.7156,360.7656 138.6063,360.25 Q138.5594,359.8906 138.3719,359.7031 Q138.0438,359.3281 137.4344,359.1094 Q136.825,358.8906 136.2,358.8906 Q135.4344,358.8906 134.7938,359.2188 Q134.1688,359.5469 133.6688,360.2969 Q133.1844,361.0469 133.1844,362.0781 L133.1844,363.1719 Q133.1844,364.4063 134.075,365.2344 Q134.9656,366.0469 136.5594,366.0469 Q137.4969,366.0469 138.1531,365.7969 Q138.5438,365.6406 138.9656,365.2031 Q139.2313,364.9375 139.3719,364.8594 Q139.5281,364.7813 139.7313,364.7813 Q140.0594,364.7813 140.3094,365.0469 Q140.575,365.2969 140.575,365.6406 Q140.575,365.9844 140.2313,366.3906 Q139.7313,366.9688 138.9344,367.2969 Q137.8563,367.75 136.5594,367.75 Q135.0438,367.75 133.8406,367.125 Q132.8563,366.625 132.1688,365.5625 Q131.4813,364.4844 131.4813,363.2031 L131.4813,362.0469 Q131.4813,360.7188 132.0906,359.5781 Q132.7156,358.4219 133.8094,357.8125 Q134.9031,357.1875 136.1375,357.1875 Q136.8719,357.1875 137.5125,357.3594 Q138.1688,357.5156 138.7156,357.875 Z " fill="#000000"/><text fill="#000000" font-family="sans-serif" font-size="14" lengthAdjust="spacing" textLength="38" x="156.05" y="367.7285">Board</text><line style="stroke:#181818;stroke-width:0.5;" x1="94.5" x2="223.5" y1="378" y2="378"/><rect fill="none" height="6" style="stroke:#C82930;stroke-width:1.0;" width="6" x="101.5" y="386"/><text fill="#000000" font-family="sans-serif" font-size="14" lengthAdjust="spacing" textLength="79" x="113.5" y="396.5332">MAX_ROWS</text><rect fill="none" height="6" style="stroke:#C82930;stroke-width:1.0;" width="6" x="101.5" y="403.6094"/><text fill="#000000" font-family="sans-serif" font-size="14" lengthAdjust="spacing" textLength="103" x="113.5" y="414.1426">MAX_COLUMNS</text><rect fill="none" height="6" style="stroke:#C82930;stroke-width:1.0;" width="6" x="101.5" y="421.2188"/><text fill="#000000" font-family="sans-serif" font-size="14" lengthAdjust="spacing" textLength="50" x="113.5" y="431.752">tokens[]</text><line style="stroke:#181818;stroke-width:0.5;" x1="94.5" x2="223.5" y1="438.8281" y2="438.8281"/><ellipse cx="104.5" cy="449.8281" fill="#84BE84" rx="3" ry="3" style="stroke:#038048;stroke-width:1.0;"/><text fill="#000000" font-family="sans-serif" font-size="14" lengthAdjust="spacing" textLength="97" x="113.5" y="457.3613">fillEmptyHoles()</text><ellipse cx="104.5" cy="467.4375" fill="#84BE84" rx="3" ry="3" style="stroke:#038048;stroke-width:1.0;"/><text fill="#000000" font-family="sans-serif" font-size="14" lengthAdjust="spacing" textLength="83" x="113.5" y="474.9707">isHole(token)</text><ellipse cx="104.5" cy="485.0469" fill="#84BE84" rx="3" ry="3" style="stroke:#038048;stroke-width:1.0;"/><text fill="#000000" font-family="sans-serif" font-size="14" lengthAdjust="spacing" textLength="105" x="113.5" y="492.5801">putToken(token)</text><ellipse cx="104.5" cy="502.6563" fill="#84BE84" rx="3" ry="3" style="stroke:#038048;stroke-width:1.0;"/><text fill="#000000" font-family="sans-serif" font-size="14" lengthAdjust="spacing" textLength="83" x="113.5" y="510.1895">isEndGame()</text><ellipse cx="104.5" cy="520.2656" fill="#84BE84" rx="3" ry="3" style="stroke:#038048;stroke-width:1.0;"/><text fill="#000000" font-family="sans-serif" font-size="14" lengthAdjust="spacing" textLength="81" x="113.5" y="527.7988">isFullBoard()</text><rect fill="#F24D5C" height="6" style="stroke:#C82930;stroke-width:1.0;" width="6" x="101.5" y="534.875"/><text fill="#000000" font-family="sans-serif" font-size="14" lengthAdjust="spacing" textLength="93" x="113.5" y="545.4082">isInLine(token)</text></g><!--MD5=[9b237e88d697a058bd530d6510c96c00]
class BoardView--><g id="elem_BoardView"><rect codeLine="22" fill="#F1F1F1" height="118.4375" id="BoardView" rx="2.5" ry="2.5" style="stroke:#181818;stroke-width:0.5;" width="99" x="184.5" y="168"/><ellipse cx="199.5" cy="184" fill="#ADD1B2" rx="11" ry="11" style="stroke:#181818;stroke-width:1.0;"/><path d="M202.2656,179.875 Q202.4219,179.6563 202.6094,179.5469 Q202.7969,179.4375 203.0156,179.4375 Q203.3906,179.4375 203.625,179.7031 Q203.8594,179.9531 203.8594,180.5625 L203.8594,182.0156 Q203.8594,182.625 203.625,182.8906 Q203.3906,183.1563 203.0156,183.1563 Q202.6719,183.1563 202.4688,182.9531 Q202.2656,182.7656 202.1563,182.25 Q202.1094,181.8906 201.9219,181.7031 Q201.5938,181.3281 200.9844,181.1094 Q200.375,180.8906 199.75,180.8906 Q198.9844,180.8906 198.3438,181.2188 Q197.7188,181.5469 197.2188,182.2969 Q196.7344,183.0469 196.7344,184.0781 L196.7344,185.1719 Q196.7344,186.4063 197.625,187.2344 Q198.5156,188.0469 200.1094,188.0469 Q201.0469,188.0469 201.7031,187.7969 Q202.0938,187.6406 202.5156,187.2031 Q202.7813,186.9375 202.9219,186.8594 Q203.0781,186.7813 203.2813,186.7813 Q203.6094,186.7813 203.8594,187.0469 Q204.125,187.2969 204.125,187.6406 Q204.125,187.9844 203.7813,188.3906 Q203.2813,188.9688 202.4844,189.2969 Q201.4063,189.75 200.1094,189.75 Q198.5938,189.75 197.3906,189.125 Q196.4063,188.625 195.7188,187.5625 Q195.0313,186.4844 195.0313,185.2031 L195.0313,184.0469 Q195.0313,182.7188 195.6406,181.5781 Q196.2656,180.4219 197.3594,179.8125 Q198.4531,179.1875 199.6875,179.1875 Q200.4219,179.1875 201.0625,179.3594 Q201.7188,179.5156 202.2656,179.875 Z " fill="#000000"/><text fill="#000000" font-family="sans-serif" font-size="14" lengthAdjust="spacing" textLength="67" x="213.5" y="189.7285">BoardView</text><line style="stroke:#181818;stroke-width:0.5;" x1="185.5" x2="282.5" y1="200" y2="200"/><rect fill="none" height="6" style="stroke:#C82930;stroke-width:1.0;" width="6" x="192.5" y="208"/><text fill="#000000" font-family="sans-serif" font-size="14" lengthAdjust="spacing" textLength="38" x="204.5" y="218.5332">Board</text><rect fill="none" height="6" style="stroke:#C82930;stroke-width:1.0;" width="6" x="192.5" y="225.6094"/><text fill="#000000" font-family="sans-serif" font-size="14" lengthAdjust="spacing" textLength="59" x="204.5" y="236.1426">TurnView</text><line style="stroke:#181818;stroke-width:0.5;" x1="185.5" x2="282.5" y1="243.2188" y2="243.2188"/><ellipse cx="195.5" cy="254.2188" fill="#84BE84" rx="3" ry="3" style="stroke:#038048;stroke-width:1.0;"/><text fill="#000000" font-family="sans-serif" font-size="14" lengthAdjust="spacing" textLength="28" x="204.5" y="261.752">init()</text><ellipse cx="195.5" cy="271.8281" fill="#84BE84" rx="3" ry="3" style="stroke:#038048;stroke-width:1.0;"/><text fill="#000000" font-family="sans-serif" font-size="14" lengthAdjust="spacing" textLength="42" x="204.5" y="279.3613">show()</text></g><!--MD5=[8c7d7abc12e214c3cc12c9ab70edee11]
class Coordinate--><g id="elem_Coordinate"><rect codeLine="28" fill="#F1F1F1" height="100.8281" id="Coordinate" rx="2.5" ry="2.5" style="stroke:#181818;stroke-width:0.5;" width="107" x="85.5" y="968"/><ellipse cx="102.75" cy="984" fill="#ADD1B2" rx="11" ry="11" style="stroke:#181818;stroke-width:1.0;"/><path d="M105.5156,979.875 Q105.6719,979.6563 105.8594,979.5469 Q106.0469,979.4375 106.2656,979.4375 Q106.6406,979.4375 106.875,979.7031 Q107.1094,979.9531 107.1094,980.5625 L107.1094,982.0156 Q107.1094,982.625 106.875,982.8906 Q106.6406,983.1563 106.2656,983.1563 Q105.9219,983.1563 105.7188,982.9531 Q105.5156,982.7656 105.4063,982.25 Q105.3594,981.8906 105.1719,981.7031 Q104.8438,981.3281 104.2344,981.1094 Q103.625,980.8906 103,980.8906 Q102.2344,980.8906 101.5938,981.2188 Q100.9688,981.5469 100.4688,982.2969 Q99.9844,983.0469 99.9844,984.0781 L99.9844,985.1719 Q99.9844,986.4063 100.875,987.2344 Q101.7656,988.0469 103.3594,988.0469 Q104.2969,988.0469 104.9531,987.7969 Q105.3438,987.6406 105.7656,987.2031 Q106.0313,986.9375 106.1719,986.8594 Q106.3281,986.7813 106.5313,986.7813 Q106.8594,986.7813 107.1094,987.0469 Q107.375,987.2969 107.375,987.6406 Q107.375,987.9844 107.0313,988.3906 Q106.5313,988.9688 105.7344,989.2969 Q104.6563,989.75 103.3594,989.75 Q101.8438,989.75 100.6406,989.125 Q99.6563,988.625 98.9688,987.5625 Q98.2813,986.4844 98.2813,985.2031 L98.2813,984.0469 Q98.2813,982.7188 98.8906,981.5781 Q99.5156,980.4219 100.6094,979.8125 Q101.7031,979.1875 102.9375,979.1875 Q103.6719,979.1875 104.3125,979.3594 Q104.9688,979.5156 105.5156,979.875 Z " fill="#000000"/><text fill="#000000" font-family="sans-serif" font-size="14" lengthAdjust="spacing" textLength="70" x="117.25" y="989.7285">Coordinate</text><line style="stroke:#181818;stroke-width:0.5;" x1="86.5" x2="191.5" y1="1000" y2="1000"/><rect fill="none" height="6" style="stroke:#C82930;stroke-width:1.0;" width="6" x="93.5" y="1008"/><text fill="#000000" font-family="sans-serif" font-size="14" lengthAdjust="spacing" textLength="22" x="105.5" y="1018.5332">row</text><rect fill="none" height="6" style="stroke:#C82930;stroke-width:1.0;" width="6" x="93.5" y="1025.6094"/><text fill="#000000" font-family="sans-serif" font-size="14" lengthAdjust="spacing" textLength="45" x="105.5" y="1036.1426">column</text><line style="stroke:#181818;stroke-width:0.5;" x1="86.5" x2="191.5" y1="1043.2188" y2="1043.2188"/><ellipse cx="96.5" cy="1054.2188" fill="#84BE84" rx="3" ry="3" style="stroke:#038048;stroke-width:1.0;"/><text fill="#000000" font-family="sans-serif" font-size="14" lengthAdjust="spacing" textLength="81" x="105.5" y="1061.752">isOnRange()</text></g><!--MD5=[d8c8cfd5ca149094f5b67f9f607a5ec7]
class Token--><g id="elem_Token"><rect codeLine="33" fill="#F1F1F1" height="118.4375" id="Token" rx="2.5" ry="2.5" style="stroke:#181818;stroke-width:0.5;" width="96" x="153" y="790"/><ellipse cx="178.8" cy="806" fill="#ADD1B2" rx="11" ry="11" style="stroke:#181818;stroke-width:1.0;"/><path d="M181.5656,801.875 Q181.7219,801.6563 181.9094,801.5469 Q182.0969,801.4375 182.3156,801.4375 Q182.6906,801.4375 182.925,801.7031 Q183.1594,801.9531 183.1594,802.5625 L183.1594,804.0156 Q183.1594,804.625 182.925,804.8906 Q182.6906,805.1563 182.3156,805.1563 Q181.9719,805.1563 181.7688,804.9531 Q181.5656,804.7656 181.4563,804.25 Q181.4094,803.8906 181.2219,803.7031 Q180.8938,803.3281 180.2844,803.1094 Q179.675,802.8906 179.05,802.8906 Q178.2844,802.8906 177.6438,803.2188 Q177.0188,803.5469 176.5188,804.2969 Q176.0344,805.0469 176.0344,806.0781 L176.0344,807.1719 Q176.0344,808.4063 176.925,809.2344 Q177.8156,810.0469 179.4094,810.0469 Q180.3469,810.0469 181.0031,809.7969 Q181.3938,809.6406 181.8156,809.2031 Q182.0813,808.9375 182.2219,808.8594 Q182.3781,808.7813 182.5813,808.7813 Q182.9094,808.7813 183.1594,809.0469 Q183.425,809.2969 183.425,809.6406 Q183.425,809.9844 183.0813,810.3906 Q182.5813,810.9688 181.7844,811.2969 Q180.7063,811.75 179.4094,811.75 Q177.8938,811.75 176.6906,811.125 Q175.7063,810.625 175.0188,809.5625 Q174.3313,808.4844 174.3313,807.2031 L174.3313,806.0469 Q174.3313,804.7188 174.9406,803.5781 Q175.5656,802.4219 176.6594,801.8125 Q177.7531,801.1875 178.9875,801.1875 Q179.7219,801.1875 180.3625,801.3594 Q181.0188,801.5156 181.5656,801.875 Z " fill="#000000"/><text fill="#000000" font-family="sans-serif" font-size="14" lengthAdjust="spacing" textLength="40" x="195.2" y="811.7285">Token</text><line style="stroke:#181818;stroke-width:0.5;" x1="154" x2="248" y1="822" y2="822"/><rect fill="none" height="6" style="stroke:#C82930;stroke-width:1.0;" width="6" x="161" y="830"/><text fill="#000000" font-family="sans-serif" font-size="14" lengthAdjust="spacing" textLength="34" x="173" y="840.5332">Color</text><rect fill="none" height="6" style="stroke:#C82930;stroke-width:1.0;" width="6" x="161" y="847.6094"/><text fill="#000000" font-family="sans-serif" font-size="14" lengthAdjust="spacing" textLength="70" x="173" y="858.1426">Coordinate</text><line style="stroke:#181818;stroke-width:0.5;" x1="154" x2="248" y1="865.2188" y2="865.2188"/><ellipse cx="164" cy="876.2188" fill="#84BE84" rx="3" ry="3" style="stroke:#038048;stroke-width:1.0;"/><text fill="#000000" font-family="sans-serif" font-size="14" lengthAdjust="spacing" textLength="64" x="173" y="883.752">getColor()</text><ellipse cx="164" cy="893.8281" fill="#84BE84" rx="3" ry="3" style="stroke:#038048;stroke-width:1.0;"/><text fill="#000000" font-family="sans-serif" font-size="14" lengthAdjust="spacing" textLength="48" x="173" y="901.3613">isHole()</text></g><!--MD5=[0f1adae5684a082996b24e2018afd4c9]
class TurnView--><g id="elem_TurnView"><rect codeLine="39" fill="#F1F1F1" height="118.4375" id="TurnView" rx="2.5" ry="2.5" style="stroke:#181818;stroke-width:0.5;" width="96" x="260" y="390"/><ellipse cx="277.25" cy="406" fill="#ADD1B2" rx="11" ry="11" style="stroke:#181818;stroke-width:1.0;"/><path d="M280.0156,401.875 Q280.1719,401.6563 280.3594,401.5469 Q280.5469,401.4375 280.7656,401.4375 Q281.1406,401.4375 281.375,401.7031 Q281.6094,401.9531 281.6094,402.5625 L281.6094,404.0156 Q281.6094,404.625 281.375,404.8906 Q281.1406,405.1563 280.7656,405.1563 Q280.4219,405.1563 280.2188,404.9531 Q280.0156,404.7656 279.9063,404.25 Q279.8594,403.8906 279.6719,403.7031 Q279.3438,403.3281 278.7344,403.1094 Q278.125,402.8906 277.5,402.8906 Q276.7344,402.8906 276.0938,403.2188 Q275.4688,403.5469 274.9688,404.2969 Q274.4844,405.0469 274.4844,406.0781 L274.4844,407.1719 Q274.4844,408.4063 275.375,409.2344 Q276.2656,410.0469 277.8594,410.0469 Q278.7969,410.0469 279.4531,409.7969 Q279.8438,409.6406 280.2656,409.2031 Q280.5313,408.9375 280.6719,408.8594 Q280.8281,408.7813 281.0313,408.7813 Q281.3594,408.7813 281.6094,409.0469 Q281.875,409.2969 281.875,409.6406 Q281.875,409.9844 281.5313,410.3906 Q281.0313,410.9688 280.2344,411.2969 Q279.1563,411.75 277.8594,411.75 Q276.3438,411.75 275.1406,411.125 Q274.1563,410.625 273.4688,409.5625 Q272.7813,408.4844 272.7813,407.2031 L272.7813,406.0469 Q272.7813,404.7188 273.3906,403.5781 Q274.0156,402.4219 275.1094,401.8125 Q276.2031,401.1875 277.4375,401.1875 Q278.1719,401.1875 278.8125,401.3594 Q279.4688,401.5156 280.0156,401.875 Z " fill="#000000"/><text fill="#000000" font-family="sans-serif" font-size="14" lengthAdjust="spacing" textLength="59" x="291.75" y="411.7285">TurnView</text><line style="stroke:#181818;stroke-width:0.5;" x1="261" x2="355" y1="422" y2="422"/><rect fill="none" height="6" style="stroke:#C82930;stroke-width:1.0;" width="6" x="268" y="430"/><text fill="#000000" font-family="sans-serif" font-size="14" lengthAdjust="spacing" textLength="25" x="280" y="440.5332">turn</text><line style="stroke:#181818;stroke-width:0.5;" x1="261" x2="355" y1="447.6094" y2="447.6094"/><ellipse cx="271" cy="458.6094" fill="#84BE84" rx="3" ry="3" style="stroke:#038048;stroke-width:1.0;"/><text fill="#000000" font-family="sans-serif" font-size="14" lengthAdjust="spacing" textLength="66" x="280" y="466.1426">nextTurn()</text><ellipse cx="271" cy="476.2188" fill="#84BE84" rx="3" ry="3" style="stroke:#038048;stroke-width:1.0;"/><text fill="#000000" font-family="sans-serif" font-size="14" lengthAdjust="spacing" textLength="70" x="280" y="483.752">getToken()</text><ellipse cx="271" cy="493.8281" fill="#84BE84" rx="3" ry="3" style="stroke:#038048;stroke-width:1.0;"/><text fill="#000000" font-family="sans-serif" font-size="14" lengthAdjust="spacing" textLength="64" x="280" y="501.3613">getColor()</text></g><!--MD5=[dd91eae41778c45e12552e5329e240e8]
class Turn--><g id="elem_Turn"><rect codeLine="46" fill="#F1F1F1" height="118.4375" id="Turn" rx="2.5" ry="2.5" style="stroke:#181818;stroke-width:0.5;" width="105" x="255.5" y="612"/><ellipse cx="289.85" cy="628" fill="#ADD1B2" rx="11" ry="11" style="stroke:#181818;stroke-width:1.0;"/><path d="M292.6156,623.875 Q292.7719,623.6563 292.9594,623.5469 Q293.1469,623.4375 293.3656,623.4375 Q293.7406,623.4375 293.975,623.7031 Q294.2094,623.9531 294.2094,624.5625 L294.2094,626.0156 Q294.2094,626.625 293.975,626.8906 Q293.7406,627.1563 293.3656,627.1563 Q293.0219,627.1563 292.8188,626.9531 Q292.6156,626.7656 292.5063,626.25 Q292.4594,625.8906 292.2719,625.7031 Q291.9438,625.3281 291.3344,625.1094 Q290.725,624.8906 290.1,624.8906 Q289.3344,624.8906 288.6938,625.2188 Q288.0688,625.5469 287.5688,626.2969 Q287.0844,627.0469 287.0844,628.0781 L287.0844,629.1719 Q287.0844,630.4063 287.975,631.2344 Q288.8656,632.0469 290.4594,632.0469 Q291.3969,632.0469 292.0531,631.7969 Q292.4438,631.6406 292.8656,631.2031 Q293.1313,630.9375 293.2719,630.8594 Q293.4281,630.7813 293.6313,630.7813 Q293.9594,630.7813 294.2094,631.0469 Q294.475,631.2969 294.475,631.6406 Q294.475,631.9844 294.1313,632.3906 Q293.6313,632.9688 292.8344,633.2969 Q291.7563,633.75 290.4594,633.75 Q288.9438,633.75 287.7406,633.125 Q286.7563,632.625 286.0688,631.5625 Q285.3813,630.4844 285.3813,629.2031 L285.3813,628.0469 Q285.3813,626.7188 285.9906,625.5781 Q286.6156,624.4219 287.7094,623.8125 Q288.8031,623.1875 290.0375,623.1875 Q290.7719,623.1875 291.4125,623.3594 Q292.0688,623.5156 292.6156,623.875 Z " fill="#000000"/><text fill="#000000" font-family="sans-serif" font-size="14" lengthAdjust="spacing" textLength="30" x="308.15" y="633.7285">Turn</text><line style="stroke:#181818;stroke-width:0.5;" x1="256.5" x2="359.5" y1="644" y2="644"/><rect fill="none" height="6" style="stroke:#C82930;stroke-width:1.0;" width="6" x="263.5" y="652"/><text fill="#000000" font-family="sans-serif" font-size="14" lengthAdjust="spacing" textLength="79" x="275.5" y="662.5332">currentColor</text><line style="stroke:#181818;stroke-width:0.5;" x1="256.5" x2="359.5" y1="669.6094" y2="669.6094"/><ellipse cx="266.5" cy="680.6094" fill="#84BE84" rx="3" ry="3" style="stroke:#038048;stroke-width:1.0;"/><text fill="#000000" font-family="sans-serif" font-size="14" lengthAdjust="spacing" textLength="66" x="275.5" y="688.1426">nextTurn()</text><ellipse cx="266.5" cy="698.2188" fill="#84BE84" rx="3" ry="3" style="stroke:#038048;stroke-width:1.0;"/><text fill="#000000" font-family="sans-serif" font-size="14" lengthAdjust="spacing" textLength="70" x="275.5" y="705.752">getToken()</text><ellipse cx="266.5" cy="715.8281" fill="#84BE84" rx="3" ry="3" style="stroke:#038048;stroke-width:1.0;"/><text fill="#000000" font-family="sans-serif" font-size="14" lengthAdjust="spacing" textLength="64" x="275.5" y="723.3613">getColor()</text></g><!--MD5=[2741598bdf59a7d7e0d5c97658fd3022]
class Result--><g id="elem_Result"><rect codeLine="54" fill="#F1F1F1" height="48" id="Result" rx="2.5" ry="2.5" style="stroke:#181818;stroke-width:0.5;" width="72" x="148" y="647"/><ellipse cx="163" cy="663" fill="#ADD1B2" rx="11" ry="11" style="stroke:#181818;stroke-width:1.0;"/><path d="M165.7656,658.875 Q165.9219,658.6563 166.1094,658.5469 Q166.2969,658.4375 166.5156,658.4375 Q166.8906,658.4375 167.125,658.7031 Q167.3594,658.9531 167.3594,659.5625 L167.3594,661.0156 Q167.3594,661.625 167.125,661.8906 Q166.8906,662.1563 166.5156,662.1563 Q166.1719,662.1563 165.9688,661.9531 Q165.7656,661.7656 165.6563,661.25 Q165.6094,660.8906 165.4219,660.7031 Q165.0938,660.3281 164.4844,660.1094 Q163.875,659.8906 163.25,659.8906 Q162.4844,659.8906 161.8438,660.2188 Q161.2188,660.5469 160.7188,661.2969 Q160.2344,662.0469 160.2344,663.0781 L160.2344,664.1719 Q160.2344,665.4063 161.125,666.2344 Q162.0156,667.0469 163.6094,667.0469 Q164.5469,667.0469 165.2031,666.7969 Q165.5938,666.6406 166.0156,666.2031 Q166.2813,665.9375 166.4219,665.8594 Q166.5781,665.7813 166.7813,665.7813 Q167.1094,665.7813 167.3594,666.0469 Q167.625,666.2969 167.625,666.6406 Q167.625,666.9844 167.2813,667.3906 Q166.7813,667.9688 165.9844,668.2969 Q164.9063,668.75 163.6094,668.75 Q162.0938,668.75 160.8906,668.125 Q159.9063,667.625 159.2188,666.5625 Q158.5313,665.4844 158.5313,664.2031 L158.5313,663.0469 Q158.5313,661.7188 159.1406,660.5781 Q159.7656,659.4219 160.8594,658.8125 Q161.9531,658.1875 163.1875,658.1875 Q163.9219,658.1875 164.5625,658.3594 Q165.2188,658.5156 165.7656,658.875 Z " fill="#000000"/><text fill="#000000" font-family="sans-serif" font-size="14" lengthAdjust="spacing" textLength="40" x="177" y="668.7285">Result</text><line style="stroke:#181818;stroke-width:0.5;" x1="149" x2="219" y1="679" y2="679"/><line style="stroke:#181818;stroke-width:0.5;" x1="149" x2="219" y1="687" y2="687"/></g><!--MD5=[c4df9b95f6f4e4e1c32bb5a44abd175a]
class Colors--><g id="elem_Colors"><rect codeLine="56" fill="#F1F1F1" height="83.2188" id="Colors" rx="2.5" ry="2.5" style="stroke:#181818;stroke-width:0.5;" width="73" x="227.5" y="977"/><ellipse cx="242.5" cy="993" fill="#EB937F" rx="11" ry="11" style="stroke:#181818;stroke-width:1.0;"/><path d="M241.3594,993.7969 L241.3594,996.2969 L245.6875,996.2969 L245.6875,995.375 Q245.6875,994.7656 245.9219,994.5 Q246.1719,994.2344 246.5469,994.2344 Q246.9219,994.2344 247.1563,994.5 Q247.3906,994.7656 247.3906,995.375 L247.3906,998 L239.3906,998 Q238.7656,998 238.5,997.7656 Q238.25,997.5313 238.25,997.1406 Q238.25,996.7656 238.5156,996.5313 Q238.7813,996.2969 239.3906,996.2969 L239.6563,996.2969 L239.6563,989.6406 L239.3906,989.6406 Q238.7656,989.6406 238.5,989.4063 Q238.25,989.1719 238.25,988.7813 Q238.25,988.4063 238.5,988.1719 Q238.7656,987.9375 239.3906,987.9375 L247.0156,987.9375 L247.0156,990.5313 Q247.0156,991.1406 246.7813,991.4063 Q246.5625,991.6563 246.1719,991.6563 Q245.7969,991.6563 245.5625,991.4063 Q245.3281,991.1406 245.3281,990.5313 L245.3281,989.6406 L241.3594,989.6406 L241.3594,992.0938 L242.8438,992.0938 Q242.8438,991.4375 242.9688,991.25 Q243.2344,990.8438 243.7031,990.8438 Q244.0781,990.8438 244.3125,991.1094 Q244.5469,991.3594 244.5469,991.9688 L244.5469,993.9375 Q244.5469,994.4844 244.4219,994.6719 Q244.1563,995.0625 243.7031,995.0625 Q243.2344,995.0625 242.9688,994.6563 Q242.8438,994.4688 242.8438,993.7969 L241.3594,993.7969 Z " fill="#000000"/><text fill="#000000" font-family="sans-serif" font-size="14" lengthAdjust="spacing" textLength="41" x="256.5" y="998.7285">Colors</text><line style="stroke:#181818;stroke-width:0.5;" x1="228.5" x2="299.5" y1="1009" y2="1009"/><text fill="#000000" font-family="sans-serif" font-size="14" lengthAdjust="spacing" textLength="26" x="233.5" y="1027.5332">Red</text><text fill="#000000" font-family="sans-serif" font-size="14" lengthAdjust="spacing" textLength="40" x="233.5" y="1045.1426">Yellow</text><line style="stroke:#181818;stroke-width:0.5;" x1="228.5" x2="299.5" y1="1052.2188" y2="1052.2188"/></g><!--MD5=[1da39882317deee69888dc65a2b454be]
link Connect4 to BoardView--><g id="link_Connect4_BoardView"><path codeLine="61" d="M179.19,108.3 C187.22,125.55 196.33,145.11 204.78,163.26 " fill="none" id="Connect4-to-BoardView" style="stroke:#181818;stroke-width:1.0;stroke-dasharray:7.0,7.0;"/><polygon fill="#181818" points="206.92,167.84,206.7371,157.9928,204.8048,163.3094,199.4882,161.3772,206.92,167.84" style="stroke:#181818;stroke-width:1.0;"/></g><!--MD5=[bd62d02ddcc7cab85c8af840f89aa653]
link Connect4 to YesNoDialogView--><g id="link_Connect4_YesNoDialogView"><path codeLine="62" d="M132.81,108.3 C122.12,131.26 109.52,158.31 99.1,180.69 " fill="none" id="Connect4-to-YesNoDialogView" style="stroke:#181818;stroke-width:1.0;stroke-dasharray:7.0,7.0;"/><polygon fill="#181818" points="96.91,185.39,104.334,178.9182,99.0197,180.8569,97.0811,175.5426,96.91,185.39" style="stroke:#181818;stroke-width:1.0;"/></g><!--MD5=[87ac28f7ff846e55e34c2c863c6ff220]
link BoardView to Board--><g id="link_BoardView_Board"><path codeLine="64" d="M214.2,286.09 C208.44,302.99 201.95,322.01 195.51,340.92 " fill="none" id="BoardView-to-Board" style="stroke:#181818;stroke-width:1.0;stroke-dasharray:7.0,7.0;"/><polygon fill="#181818" points="193.87,345.72,200.5632,338.495,195.4854,340.9881,192.9922,335.9103,193.87,345.72" style="stroke:#181818;stroke-width:1.0;"/></g><!--MD5=[c7c3dfe1a204cc183b3ebd4fea4524e8]
link BoardView to TurnView--><g id="link_BoardView_TurnView"><path codeLine="65" d="M253.54,286.09 C263.78,316.54 276.34,353.88 286.82,385.02 " fill="none" id="BoardView-to-TurnView" style="stroke:#181818;stroke-width:1.0;stroke-dasharray:7.0,7.0;"/><polygon fill="#181818" points="288.48,389.97,289.4109,380.1652,286.8903,385.2295,281.8261,382.7088,288.48,389.97" style="stroke:#181818;stroke-width:1.0;"/></g><!--MD5=[b90c15517c5612720f6d3b5735a27f0e]
link TurnView to Turn--><g id="link_TurnView_Turn"><path codeLine="66" d="M308,520.09 C308,520.09 308,574.02 308,598.89 " fill="none" id="TurnView-Turn" style="stroke:#181818;stroke-width:1.0;"/><polygon fill="#181818" points="308,611.97,312,602.97,308,606.97,304,602.97,308,611.97" style="stroke:#181818;stroke-width:1.0;"/><line style="stroke:#181818;stroke-width:1.0;" x1="308" x2="308" y1="606.97" y2="598.97"/><polygon fill="none" points="308,508.09,304,514.09,308,520.09,312,514.09,308,508.09" style="stroke:#181818;stroke-width:1.0;"/></g><!--MD5=[8dd95aff79c51151a18c835e3410b3cd]
link Board to Result--><g id="link_Board_Result"><path codeLine="67" d="M170.62,552.27 C174.34,585.03 178.17,618.7 180.77,641.6 " fill="none" id="Board-to-Result" style="stroke:#181818;stroke-width:1.0;"/><polygon fill="#181818" points="181.34,646.61,184.2861,637.2121,180.769,641.6427,176.3384,638.1256,181.34,646.61" style="stroke:#181818;stroke-width:1.0;"/><text fill="#000000" font-family="sans-serif" font-size="13" lengthAdjust="spacing" textLength="99" x="69.626" y="636.2529">hace falta result?</text></g><!--MD5=[23c004dc6349f1678ef711c3be24147e]
link Board to Token--><g id="link_Board_Token"><path codeLine="69" d="M128.2416,564.0888 C128.2416,564.0888 115.26,676.93 130,730 C134.61,746.61 142.26,763.23 150.87,778.53 " fill="none" id="Board-Token" style="stroke:#181818;stroke-width:1.0;"/><polygon fill="#181818" points="157.6,789.95,156.4769,780.1654,155.0615,785.6423,149.5846,784.2269,157.6,789.95" style="stroke:#181818;stroke-width:1.0;"/><line style="stroke:#181818;stroke-width:1.0;" x1="155.0615" x2="151" y1="785.6423" y2="778.76"/><polygon fill="none" points="130.43,552.29,125.4029,557.4599,128.2416,564.0888,133.2687,558.9188,130.43,552.29" style="stroke:#181818;stroke-width:1.0;"/></g><!--MD5=[131fd55d1ea8d452206c40f8bf9c1560]
link Turn to Token--><g id="link_Turn_Token"><path codeLine="71" d="M272.67,730.12 C261.89,747.84 250,767.4 239.06,785.4 " fill="none" id="Turn-to-Token" style="stroke:#181818;stroke-width:1.0;stroke-dasharray:7.0,7.0;"/><polygon fill="#181818" points="236.3,789.94,244.3963,784.332,238.8997,785.669,237.5627,780.1724,236.3,789.94" style="stroke:#181818;stroke-width:1.0;"/></g><!--MD5=[d6208de9411c4b1d5190de2c034c83cb]
link Token to Colors--><g id="link_Token_Colors"><path codeLine="74" d="M227.0836,919.3421 C227.0836,919.3421 238.77,950.42 244.04,964.44 " fill="none" id="Token-Colors" style="stroke:#181818;stroke-width:1.0;"/><polygon fill="#181818" points="248.72,976.89,249.3001,967.0582,246.962,972.2093,241.811,969.8711,248.72,976.89" style="stroke:#181818;stroke-width:1.0;"/><line style="stroke:#181818;stroke-width:1.0;" x1="246.962" x2="244.15" y1="972.2093" y2="964.72"/><polygon fill="#181818" points="222.86,908.11,221.2278,915.1339,227.0836,919.3421,228.7159,912.3182,222.86,908.11" style="stroke:#181818;stroke-width:1.0;"/></g><!--MD5=[f2f17acc82dd155756e97465362881f7]
link Token to Coordinate--><g id="link_Token_Coordinate"><path codeLine="75" d="M179.49,908.11 C172.9,925.91 165.69,945.41 159.19,962.95 " fill="none" id="Token-to-Coordinate" style="stroke:#181818;stroke-width:1.0;stroke-dasharray:7.0,7.0;"/><polygon fill="#181818" points="157.38,967.84,164.2407,960.7739,159.1059,963.1473,156.7324,958.0125,157.38,967.84" style="stroke:#181818;stroke-width:1.0;"/></g><!--MD5=[9e1b3a3817146a964f5452fb896573fe]
@startuml

class Connect4{
    - boardView
    - yesNoDialog
    + playGame()
}
class YesNoDialogView{
    + read(message)
    + isAffirmative()
}
class Board{
    - MAX_ROWS
    - MAX_COLUMNS
    - tokens[]
    + fillEmptyHoles()
    + isHole(token)
    + putToken(token)
    + isEndGame()
    + isFullBoard()
    - isInLine(token)
}
class BoardView{
    - Board
    - TurnView
    + init()
    + show()
}
class Coordinate{
    - row
    - column
    + isOnRange()
}
class Token{
    - Color
    - Coordinate
    + getColor()
    + isHole()
}
class TurnView{
    - turn
    + nextTurn()
    + getToken()
    + getColor()
}

class Turn{
    - currentColor
    + nextTurn()
    + getToken()
    + getColor()
    
}

class Result

enum Colors{
Red
Yellow
}

Connect4 ..> BoardView
Connect4 ..> YesNoDialogView

BoardView ..> Board
BoardView ..> TurnView
TurnView o- -> Turn
Board - -> "hace falta result?" Result

Board o- -> Token

Turn ..> Token


Token *- -> Colors
Token ..> Coordinate
@enduml

PlantUML version 1.2022.5(Sat Apr 30 12:55:52 CEST 2022)
(GPL source distribution)
Java Runtime: OpenJDK Runtime Environment
JVM: OpenJDK 64-Bit Server VM
Default Encoding: UTF-8
Language: es
Country: ES
--></g></svg>