<?xml version="1.0" encoding="UTF-8" standalone="no"?><svg xmlns="http://www.w3.org/2000/svg" xmlns:xlink="http://www.w3.org/1999/xlink" contentStyleType="text/css" height="509px" preserveAspectRatio="none" style="width:754px;height:509px;background:#FFFFFF;" version="1.1" viewBox="0 0 754 509" width="754px" zoomAndPan="magnify"><defs/><g><!--MD5=[c8948ff3b85f2fe890b517bc42f92cc2]
class connect4--><g id="elem_connect4"><rect codeLine="2" fill="#F1F1F1" height="100.8281" id="connect4" rx="2.5" ry="2.5" style="stroke:#181818;stroke-width:0.5;" width="105" x="339" y="7"/><ellipse cx="360.75" cy="23" fill="#ADD1B2" rx="11" ry="11" style="stroke:#181818;stroke-width:1.0;"/><path d="M363.5156,18.875 Q363.6719,18.6563 363.8594,18.5469 Q364.0469,18.4375 364.2656,18.4375 Q364.6406,18.4375 364.875,18.7031 Q365.1094,18.9531 365.1094,19.5625 L365.1094,21.0156 Q365.1094,21.625 364.875,21.8906 Q364.6406,22.1563 364.2656,22.1563 Q363.9219,22.1563 363.7188,21.9531 Q363.5156,21.7656 363.4063,21.25 Q363.3594,20.8906 363.1719,20.7031 Q362.8438,20.3281 362.2344,20.1094 Q361.625,19.8906 361,19.8906 Q360.2344,19.8906 359.5938,20.2188 Q358.9688,20.5469 358.4688,21.2969 Q357.9844,22.0469 357.9844,23.0781 L357.9844,24.1719 Q357.9844,25.4063 358.875,26.2344 Q359.7656,27.0469 361.3594,27.0469 Q362.2969,27.0469 362.9531,26.7969 Q363.3438,26.6406 363.7656,26.2031 Q364.0313,25.9375 364.1719,25.8594 Q364.3281,25.7813 364.5313,25.7813 Q364.8594,25.7813 365.1094,26.0469 Q365.375,26.2969 365.375,26.6406 Q365.375,26.9844 365.0313,27.3906 Q364.5313,27.9688 363.7344,28.2969 Q362.6563,28.75 361.3594,28.75 Q359.8438,28.75 358.6406,28.125 Q357.6563,27.625 356.9688,26.5625 Q356.2813,25.4844 356.2813,24.2031 L356.2813,23.0469 Q356.2813,21.7188 356.8906,20.5781 Q357.5156,19.4219 358.6094,18.8125 Q359.7031,18.1875 360.9375,18.1875 Q361.6719,18.1875 362.3125,18.3594 Q362.9688,18.5156 363.5156,18.875 Z " fill="#000000"/><text fill="#000000" font-family="sans-serif" font-size="14" lengthAdjust="spacing" textLength="58" x="376.25" y="28.7285">connect4</text><line style="stroke:#181818;stroke-width:0.5;" x1="340" x2="443" y1="39" y2="39"/><rect fill="none" height="6" style="stroke:#C82930;stroke-width:1.0;" width="6" x="347" y="50.3047"/><text fill="#000000" font-family="sans-serif" font-size="14" lengthAdjust="spacing" textLength="66" x="359" y="57.5332">boardView</text><rect fill="none" height="6" style="stroke:#C82930;stroke-width:1.0;" width="6" x="347" y="67.9141"/><text fill="#000000" font-family="sans-serif" font-size="14" lengthAdjust="spacing" textLength="79" x="359" y="75.1426">yesNoDialog</text><line style="stroke:#181818;stroke-width:0.5;" x1="340" x2="443" y1="82.2188" y2="82.2188"/><ellipse cx="350" cy="96.5234" fill="#84BE84" rx="3" ry="3" style="stroke:#038048;stroke-width:1.0;"/><text fill="#000000" font-family="sans-serif" font-size="14" lengthAdjust="spacing" textLength="74" x="359" y="100.752">playGame()</text></g><!--MD5=[cadc920c85e4c9f5726794155a350ca6]
class yesNoDialogView--><g id="elem_yesNoDialogView"><rect codeLine="7" fill="#F1F1F1" height="83.2188" id="yesNoDialogView" rx="2.5" ry="2.5" style="stroke:#181818;stroke-width:0.5;" width="140" x="198.5" y="168"/><ellipse cx="213.5" cy="184" fill="#ADD1B2" rx="11" ry="11" style="stroke:#181818;stroke-width:1.0;"/><path d="M216.2656,179.875 Q216.4219,179.6563 216.6094,179.5469 Q216.7969,179.4375 217.0156,179.4375 Q217.3906,179.4375 217.625,179.7031 Q217.8594,179.9531 217.8594,180.5625 L217.8594,182.0156 Q217.8594,182.625 217.625,182.8906 Q217.3906,183.1563 217.0156,183.1563 Q216.6719,183.1563 216.4688,182.9531 Q216.2656,182.7656 216.1563,182.25 Q216.1094,181.8906 215.9219,181.7031 Q215.5938,181.3281 214.9844,181.1094 Q214.375,180.8906 213.75,180.8906 Q212.9844,180.8906 212.3438,181.2188 Q211.7188,181.5469 211.2188,182.2969 Q210.7344,183.0469 210.7344,184.0781 L210.7344,185.1719 Q210.7344,186.4063 211.625,187.2344 Q212.5156,188.0469 214.1094,188.0469 Q215.0469,188.0469 215.7031,187.7969 Q216.0938,187.6406 216.5156,187.2031 Q216.7813,186.9375 216.9219,186.8594 Q217.0781,186.7813 217.2813,186.7813 Q217.6094,186.7813 217.8594,187.0469 Q218.125,187.2969 218.125,187.6406 Q218.125,187.9844 217.7813,188.3906 Q217.2813,188.9688 216.4844,189.2969 Q215.4063,189.75 214.1094,189.75 Q212.5938,189.75 211.3906,189.125 Q210.4063,188.625 209.7188,187.5625 Q209.0313,186.4844 209.0313,185.2031 L209.0313,184.0469 Q209.0313,182.7188 209.6406,181.5781 Q210.2656,180.4219 211.3594,179.8125 Q212.4531,179.1875 213.6875,179.1875 Q214.4219,179.1875 215.0625,179.3594 Q215.7188,179.5156 216.2656,179.875 Z " fill="#000000"/><text fill="#000000" font-family="sans-serif" font-size="14" lengthAdjust="spacing" textLength="108" x="227.5" y="189.7285">yesNoDialogView</text><line style="stroke:#181818;stroke-width:0.5;" x1="199.5" x2="337.5" y1="200" y2="200"/><line style="stroke:#181818;stroke-width:0.5;" x1="199.5" x2="337.5" y1="208" y2="208"/><ellipse cx="209.5" cy="222.3047" fill="#84BE84" rx="3" ry="3" style="stroke:#038048;stroke-width:1.0;"/><text fill="#000000" font-family="sans-serif" font-size="14" lengthAdjust="spacing" textLength="96" x="218.5" y="226.5332">read(message)</text><ellipse cx="209.5" cy="239.9141" fill="#84BE84" rx="3" ry="3" style="stroke:#038048;stroke-width:1.0;"/><text fill="#000000" font-family="sans-serif" font-size="14" lengthAdjust="spacing" textLength="86" x="218.5" y="244.1426">isAffirmative()</text></g><!--MD5=[52db4f3417fe21932e78112982f89a2b]
class createGame--><g id="elem_createGame"><rect codeLine="12" fill="#F1F1F1" height="48" id="createGame" rx="2.5" ry="2.5" style="stroke:#181818;stroke-width:0.5;" width="110" x="468.5" y="185.5"/><ellipse cx="483.5" cy="201.5" fill="#ADD1B2" rx="11" ry="11" style="stroke:#181818;stroke-width:1.0;"/><path d="M486.2656,197.375 Q486.4219,197.1563 486.6094,197.0469 Q486.7969,196.9375 487.0156,196.9375 Q487.3906,196.9375 487.625,197.2031 Q487.8594,197.4531 487.8594,198.0625 L487.8594,199.5156 Q487.8594,200.125 487.625,200.3906 Q487.3906,200.6563 487.0156,200.6563 Q486.6719,200.6563 486.4688,200.4531 Q486.2656,200.2656 486.1563,199.75 Q486.1094,199.3906 485.9219,199.2031 Q485.5938,198.8281 484.9844,198.6094 Q484.375,198.3906 483.75,198.3906 Q482.9844,198.3906 482.3438,198.7188 Q481.7188,199.0469 481.2188,199.7969 Q480.7344,200.5469 480.7344,201.5781 L480.7344,202.6719 Q480.7344,203.9063 481.625,204.7344 Q482.5156,205.5469 484.1094,205.5469 Q485.0469,205.5469 485.7031,205.2969 Q486.0938,205.1406 486.5156,204.7031 Q486.7813,204.4375 486.9219,204.3594 Q487.0781,204.2813 487.2813,204.2813 Q487.6094,204.2813 487.8594,204.5469 Q488.125,204.7969 488.125,205.1406 Q488.125,205.4844 487.7813,205.8906 Q487.2813,206.4688 486.4844,206.7969 Q485.4063,207.25 484.1094,207.25 Q482.5938,207.25 481.3906,206.625 Q480.4063,206.125 479.7188,205.0625 Q479.0313,203.9844 479.0313,202.7031 L479.0313,201.5469 Q479.0313,200.2188 479.6406,199.0781 Q480.2656,197.9219 481.3594,197.3125 Q482.4531,196.6875 483.6875,196.6875 Q484.4219,196.6875 485.0625,196.8594 Q485.7188,197.0156 486.2656,197.375 Z " fill="#000000"/><text fill="#000000" font-family="sans-serif" font-size="14" lengthAdjust="spacing" textLength="78" x="497.5" y="207.2285">createGame</text><line style="stroke:#181818;stroke-width:0.5;" x1="469.5" x2="577.5" y1="217.5" y2="217.5"/><line style="stroke:#181818;stroke-width:0.5;" x1="469.5" x2="577.5" y1="225.5" y2="225.5"/></g><!--MD5=[49b5c7ddc8cb049489daf5624ac3de95]
class createGameView--><g id="elem_createGameView"><rect codeLine="16" fill="#F1F1F1" height="48" id="createGameView" rx="2.5" ry="2.5" style="stroke:#181818;stroke-width:0.5;" width="139" x="310" y="311"/><ellipse cx="325" cy="327" fill="#ADD1B2" rx="11" ry="11" style="stroke:#181818;stroke-width:1.0;"/><path d="M327.7656,322.875 Q327.9219,322.6563 328.1094,322.5469 Q328.2969,322.4375 328.5156,322.4375 Q328.8906,322.4375 329.125,322.7031 Q329.3594,322.9531 329.3594,323.5625 L329.3594,325.0156 Q329.3594,325.625 329.125,325.8906 Q328.8906,326.1563 328.5156,326.1563 Q328.1719,326.1563 327.9688,325.9531 Q327.7656,325.7656 327.6563,325.25 Q327.6094,324.8906 327.4219,324.7031 Q327.0938,324.3281 326.4844,324.1094 Q325.875,323.8906 325.25,323.8906 Q324.4844,323.8906 323.8438,324.2188 Q323.2188,324.5469 322.7188,325.2969 Q322.2344,326.0469 322.2344,327.0781 L322.2344,328.1719 Q322.2344,329.4063 323.125,330.2344 Q324.0156,331.0469 325.6094,331.0469 Q326.5469,331.0469 327.2031,330.7969 Q327.5938,330.6406 328.0156,330.2031 Q328.2813,329.9375 328.4219,329.8594 Q328.5781,329.7813 328.7813,329.7813 Q329.1094,329.7813 329.3594,330.0469 Q329.625,330.2969 329.625,330.6406 Q329.625,330.9844 329.2813,331.3906 Q328.7813,331.9688 327.9844,332.2969 Q326.9063,332.75 325.6094,332.75 Q324.0938,332.75 322.8906,332.125 Q321.9063,331.625 321.2188,330.5625 Q320.5313,329.4844 320.5313,328.2031 L320.5313,327.0469 Q320.5313,325.7188 321.1406,324.5781 Q321.7656,323.4219 322.8594,322.8125 Q323.9531,322.1875 325.1875,322.1875 Q325.9219,322.1875 326.5625,322.3594 Q327.2188,322.5156 327.7656,322.875 Z " fill="#000000"/><text fill="#000000" font-family="sans-serif" font-size="14" lengthAdjust="spacing" textLength="107" x="339" y="332.7285">createGameView</text><line style="stroke:#181818;stroke-width:0.5;" x1="311" x2="448" y1="343" y2="343"/><line style="stroke:#181818;stroke-width:0.5;" x1="311" x2="448" y1="351" y2="351"/></g><!--MD5=[ae064150324150d7e74787065186fa4d]
class createBoardView--><g id="elem_createBoardView"><rect codeLine="21" fill="#F1F1F1" height="48" id="createBoardView" rx="2.5" ry="2.5" style="stroke:#181818;stroke-width:0.5;" width="139" x="7" y="436.5"/><ellipse cx="22" cy="452.5" fill="#ADD1B2" rx="11" ry="11" style="stroke:#181818;stroke-width:1.0;"/><path d="M24.7656,448.375 Q24.9219,448.1563 25.1094,448.0469 Q25.2969,447.9375 25.5156,447.9375 Q25.8906,447.9375 26.125,448.2031 Q26.3594,448.4531 26.3594,449.0625 L26.3594,450.5156 Q26.3594,451.125 26.125,451.3906 Q25.8906,451.6563 25.5156,451.6563 Q25.1719,451.6563 24.9688,451.4531 Q24.7656,451.2656 24.6563,450.75 Q24.6094,450.3906 24.4219,450.2031 Q24.0938,449.8281 23.4844,449.6094 Q22.875,449.3906 22.25,449.3906 Q21.4844,449.3906 20.8438,449.7188 Q20.2188,450.0469 19.7188,450.7969 Q19.2344,451.5469 19.2344,452.5781 L19.2344,453.6719 Q19.2344,454.9063 20.125,455.7344 Q21.0156,456.5469 22.6094,456.5469 Q23.5469,456.5469 24.2031,456.2969 Q24.5938,456.1406 25.0156,455.7031 Q25.2813,455.4375 25.4219,455.3594 Q25.5781,455.2813 25.7813,455.2813 Q26.1094,455.2813 26.3594,455.5469 Q26.625,455.7969 26.625,456.1406 Q26.625,456.4844 26.2813,456.8906 Q25.7813,457.4688 24.9844,457.7969 Q23.9063,458.25 22.6094,458.25 Q21.0938,458.25 19.8906,457.625 Q18.9063,457.125 18.2188,456.0625 Q17.5313,454.9844 17.5313,453.7031 L17.5313,452.5469 Q17.5313,451.2188 18.1406,450.0781 Q18.7656,448.9219 19.8594,448.3125 Q20.9531,447.6875 22.1875,447.6875 Q22.9219,447.6875 23.5625,447.8594 Q24.2188,448.0156 24.7656,448.375 Z " fill="#000000"/><text fill="#000000" font-family="sans-serif" font-size="14" lengthAdjust="spacing" textLength="107" x="36" y="458.2285">createBoardView</text><line style="stroke:#181818;stroke-width:0.5;" x1="8" x2="145" y1="468.5" y2="468.5"/><line style="stroke:#181818;stroke-width:0.5;" x1="8" x2="145" y1="476.5" y2="476.5"/></g><!--MD5=[7809b369c3a27ebb407e23583621e9fd]
class createTurn--><g id="elem_createTurn"><rect codeLine="25" fill="#F1F1F1" height="48" id="createTurn" rx="2.5" ry="2.5" style="stroke:#181818;stroke-width:0.5;" width="102" x="484.5" y="311"/><ellipse cx="499.5" cy="327" fill="#ADD1B2" rx="11" ry="11" style="stroke:#181818;stroke-width:1.0;"/><path d="M502.2656,322.875 Q502.4219,322.6563 502.6094,322.5469 Q502.7969,322.4375 503.0156,322.4375 Q503.3906,322.4375 503.625,322.7031 Q503.8594,322.9531 503.8594,323.5625 L503.8594,325.0156 Q503.8594,325.625 503.625,325.8906 Q503.3906,326.1563 503.0156,326.1563 Q502.6719,326.1563 502.4688,325.9531 Q502.2656,325.7656 502.1563,325.25 Q502.1094,324.8906 501.9219,324.7031 Q501.5938,324.3281 500.9844,324.1094 Q500.375,323.8906 499.75,323.8906 Q498.9844,323.8906 498.3438,324.2188 Q497.7188,324.5469 497.2188,325.2969 Q496.7344,326.0469 496.7344,327.0781 L496.7344,328.1719 Q496.7344,329.4063 497.625,330.2344 Q498.5156,331.0469 500.1094,331.0469 Q501.0469,331.0469 501.7031,330.7969 Q502.0938,330.6406 502.5156,330.2031 Q502.7813,329.9375 502.9219,329.8594 Q503.0781,329.7813 503.2813,329.7813 Q503.6094,329.7813 503.8594,330.0469 Q504.125,330.2969 504.125,330.6406 Q504.125,330.9844 503.7813,331.3906 Q503.2813,331.9688 502.4844,332.2969 Q501.4063,332.75 500.1094,332.75 Q498.5938,332.75 497.3906,332.125 Q496.4063,331.625 495.7188,330.5625 Q495.0313,329.4844 495.0313,328.2031 L495.0313,327.0469 Q495.0313,325.7188 495.6406,324.5781 Q496.2656,323.4219 497.3594,322.8125 Q498.4531,322.1875 499.6875,322.1875 Q500.4219,322.1875 501.0625,322.3594 Q501.7188,322.5156 502.2656,322.875 Z " fill="#000000"/><text fill="#000000" font-family="sans-serif" font-size="14" lengthAdjust="spacing" textLength="70" x="513.5" y="332.7285">createTurn</text><line style="stroke:#181818;stroke-width:0.5;" x1="485.5" x2="585.5" y1="343" y2="343"/><line style="stroke:#181818;stroke-width:0.5;" x1="485.5" x2="585.5" y1="351" y2="351"/></g><!--MD5=[31dc5459f0bdc0261dec5ebf712cc6c3]
class createTurnView--><g id="elem_createTurnView"><rect codeLine="29" fill="#F1F1F1" height="48" id="createTurnView" rx="2.5" ry="2.5" style="stroke:#181818;stroke-width:0.5;" width="131" x="181" y="436.5"/><ellipse cx="196" cy="452.5" fill="#ADD1B2" rx="11" ry="11" style="stroke:#181818;stroke-width:1.0;"/><path d="M198.7656,448.375 Q198.9219,448.1563 199.1094,448.0469 Q199.2969,447.9375 199.5156,447.9375 Q199.8906,447.9375 200.125,448.2031 Q200.3594,448.4531 200.3594,449.0625 L200.3594,450.5156 Q200.3594,451.125 200.125,451.3906 Q199.8906,451.6563 199.5156,451.6563 Q199.1719,451.6563 198.9688,451.4531 Q198.7656,451.2656 198.6563,450.75 Q198.6094,450.3906 198.4219,450.2031 Q198.0938,449.8281 197.4844,449.6094 Q196.875,449.3906 196.25,449.3906 Q195.4844,449.3906 194.8438,449.7188 Q194.2188,450.0469 193.7188,450.7969 Q193.2344,451.5469 193.2344,452.5781 L193.2344,453.6719 Q193.2344,454.9063 194.125,455.7344 Q195.0156,456.5469 196.6094,456.5469 Q197.5469,456.5469 198.2031,456.2969 Q198.5938,456.1406 199.0156,455.7031 Q199.2813,455.4375 199.4219,455.3594 Q199.5781,455.2813 199.7813,455.2813 Q200.1094,455.2813 200.3594,455.5469 Q200.625,455.7969 200.625,456.1406 Q200.625,456.4844 200.2813,456.8906 Q199.7813,457.4688 198.9844,457.7969 Q197.9063,458.25 196.6094,458.25 Q195.0938,458.25 193.8906,457.625 Q192.9063,457.125 192.2188,456.0625 Q191.5313,454.9844 191.5313,453.7031 L191.5313,452.5469 Q191.5313,451.2188 192.1406,450.0781 Q192.7656,448.9219 193.8594,448.3125 Q194.9531,447.6875 196.1875,447.6875 Q196.9219,447.6875 197.5625,447.8594 Q198.2188,448.0156 198.7656,448.375 Z " fill="#000000"/><text fill="#000000" font-family="sans-serif" font-size="14" lengthAdjust="spacing" textLength="99" x="210" y="458.2285">createTurnView</text><line style="stroke:#181818;stroke-width:0.5;" x1="182" x2="311" y1="468.5" y2="468.5"/><line style="stroke:#181818;stroke-width:0.5;" x1="182" x2="311" y1="476.5" y2="476.5"/></g><!--MD5=[a9c9255655de47f7638892c0220dabf5]
class messageView--><g id="elem_messageView"><rect codeLine="34" fill="#F1F1F1" height="48" id="messageView" rx="2.5" ry="2.5" style="stroke:#181818;stroke-width:0.5;" width="118" x="347.5" y="436.5"/><ellipse cx="362.5" cy="452.5" fill="#ADD1B2" rx="11" ry="11" style="stroke:#181818;stroke-width:1.0;"/><path d="M365.2656,448.375 Q365.4219,448.1563 365.6094,448.0469 Q365.7969,447.9375 366.0156,447.9375 Q366.3906,447.9375 366.625,448.2031 Q366.8594,448.4531 366.8594,449.0625 L366.8594,450.5156 Q366.8594,451.125 366.625,451.3906 Q366.3906,451.6563 366.0156,451.6563 Q365.6719,451.6563 365.4688,451.4531 Q365.2656,451.2656 365.1563,450.75 Q365.1094,450.3906 364.9219,450.2031 Q364.5938,449.8281 363.9844,449.6094 Q363.375,449.3906 362.75,449.3906 Q361.9844,449.3906 361.3438,449.7188 Q360.7188,450.0469 360.2188,450.7969 Q359.7344,451.5469 359.7344,452.5781 L359.7344,453.6719 Q359.7344,454.9063 360.625,455.7344 Q361.5156,456.5469 363.1094,456.5469 Q364.0469,456.5469 364.7031,456.2969 Q365.0938,456.1406 365.5156,455.7031 Q365.7813,455.4375 365.9219,455.3594 Q366.0781,455.2813 366.2813,455.2813 Q366.6094,455.2813 366.8594,455.5469 Q367.125,455.7969 367.125,456.1406 Q367.125,456.4844 366.7813,456.8906 Q366.2813,457.4688 365.4844,457.7969 Q364.4063,458.25 363.1094,458.25 Q361.5938,458.25 360.3906,457.625 Q359.4063,457.125 358.7188,456.0625 Q358.0313,454.9844 358.0313,453.7031 L358.0313,452.5469 Q358.0313,451.2188 358.6406,450.0781 Q359.2656,448.9219 360.3594,448.3125 Q361.4531,447.6875 362.6875,447.6875 Q363.4219,447.6875 364.0625,447.8594 Q364.7188,448.0156 365.2656,448.375 Z " fill="#000000"/><text fill="#000000" font-family="sans-serif" font-size="14" lengthAdjust="spacing" textLength="86" x="376.5" y="458.2285">messageView</text><line style="stroke:#181818;stroke-width:0.5;" x1="348.5" x2="464.5" y1="468.5" y2="468.5"/><line style="stroke:#181818;stroke-width:0.5;" x1="348.5" x2="464.5" y1="476.5" y2="476.5"/></g><!--MD5=[cacfe755dff56aeea6d2ef322af7bef7]
class createCoordinate--><g id="elem_createCoordinate"><rect codeLine="38" fill="#F1F1F1" height="48" id="createCoordinate" rx="2.5" ry="2.5" style="stroke:#181818;stroke-width:0.5;" width="142" x="605.5" y="436.5"/><ellipse cx="620.5" cy="452.5" fill="#ADD1B2" rx="11" ry="11" style="stroke:#181818;stroke-width:1.0;"/><path d="M623.2656,448.375 Q623.4219,448.1563 623.6094,448.0469 Q623.7969,447.9375 624.0156,447.9375 Q624.3906,447.9375 624.625,448.2031 Q624.8594,448.4531 624.8594,449.0625 L624.8594,450.5156 Q624.8594,451.125 624.625,451.3906 Q624.3906,451.6563 624.0156,451.6563 Q623.6719,451.6563 623.4688,451.4531 Q623.2656,451.2656 623.1563,450.75 Q623.1094,450.3906 622.9219,450.2031 Q622.5938,449.8281 621.9844,449.6094 Q621.375,449.3906 620.75,449.3906 Q619.9844,449.3906 619.3438,449.7188 Q618.7188,450.0469 618.2188,450.7969 Q617.7344,451.5469 617.7344,452.5781 L617.7344,453.6719 Q617.7344,454.9063 618.625,455.7344 Q619.5156,456.5469 621.1094,456.5469 Q622.0469,456.5469 622.7031,456.2969 Q623.0938,456.1406 623.5156,455.7031 Q623.7813,455.4375 623.9219,455.3594 Q624.0781,455.2813 624.2813,455.2813 Q624.6094,455.2813 624.8594,455.5469 Q625.125,455.7969 625.125,456.1406 Q625.125,456.4844 624.7813,456.8906 Q624.2813,457.4688 623.4844,457.7969 Q622.4063,458.25 621.1094,458.25 Q619.5938,458.25 618.3906,457.625 Q617.4063,457.125 616.7188,456.0625 Q616.0313,454.9844 616.0313,453.7031 L616.0313,452.5469 Q616.0313,451.2188 616.6406,450.0781 Q617.2656,448.9219 618.3594,448.3125 Q619.4531,447.6875 620.6875,447.6875 Q621.4219,447.6875 622.0625,447.8594 Q622.7188,448.0156 623.2656,448.375 Z " fill="#000000"/><text fill="#000000" font-family="sans-serif" font-size="14" lengthAdjust="spacing" textLength="110" x="634.5" y="458.2285">createCoordinate</text><line style="stroke:#181818;stroke-width:0.5;" x1="606.5" x2="746.5" y1="468.5" y2="468.5"/><line style="stroke:#181818;stroke-width:0.5;" x1="606.5" x2="746.5" y1="476.5" y2="476.5"/></g><!--MD5=[b79a6dbdb435efa72378790761c8d246]
class colors--><g id="elem_colors"><rect codeLine="42" fill="#F1F1F1" height="83.2188" id="colors" rx="2.5" ry="2.5" style="stroke:#181818;stroke-width:0.5;" width="70" x="500.5" y="419"/><ellipse cx="515.5" cy="435" fill="#EB937F" rx="11" ry="11" style="stroke:#181818;stroke-width:1.0;"/><path d="M514.3594,435.7969 L514.3594,438.2969 L518.6875,438.2969 L518.6875,437.375 Q518.6875,436.7656 518.9219,436.5 Q519.1719,436.2344 519.5469,436.2344 Q519.9219,436.2344 520.1563,436.5 Q520.3906,436.7656 520.3906,437.375 L520.3906,440 L512.3906,440 Q511.7656,440 511.5,439.7656 Q511.25,439.5313 511.25,439.1406 Q511.25,438.7656 511.5156,438.5313 Q511.7813,438.2969 512.3906,438.2969 L512.6563,438.2969 L512.6563,431.6406 L512.3906,431.6406 Q511.7656,431.6406 511.5,431.4063 Q511.25,431.1719 511.25,430.7813 Q511.25,430.4063 511.5,430.1719 Q511.7656,429.9375 512.3906,429.9375 L520.0156,429.9375 L520.0156,432.5313 Q520.0156,433.1406 519.7813,433.4063 Q519.5625,433.6563 519.1719,433.6563 Q518.7969,433.6563 518.5625,433.4063 Q518.3281,433.1406 518.3281,432.5313 L518.3281,431.6406 L514.3594,431.6406 L514.3594,434.0938 L515.8438,434.0938 Q515.8438,433.4375 515.9688,433.25 Q516.2344,432.8438 516.7031,432.8438 Q517.0781,432.8438 517.3125,433.1094 Q517.5469,433.3594 517.5469,433.9688 L517.5469,435.9375 Q517.5469,436.4844 517.4219,436.6719 Q517.1563,437.0625 516.7031,437.0625 Q516.2344,437.0625 515.9688,436.6563 Q515.8438,436.4688 515.8438,435.7969 L514.3594,435.7969 Z " fill="#000000"/><text fill="#000000" font-family="sans-serif" font-size="14" lengthAdjust="spacing" textLength="38" x="529.5" y="440.7285">colors</text><line style="stroke:#181818;stroke-width:0.5;" x1="501.5" x2="569.5" y1="451" y2="451"/><text fill="#000000" font-family="sans-serif" font-size="14" lengthAdjust="spacing" textLength="26" x="506.5" y="469.5332">Red</text><text fill="#000000" font-family="sans-serif" font-size="14" lengthAdjust="spacing" textLength="40" x="506.5" y="487.1426">Yellow</text><line style="stroke:#181818;stroke-width:0.5;" x1="501.5" x2="569.5" y1="494.2188" y2="494.2188"/></g><!--MD5=[b7e8e7f8cd2556cb86ef97067eda93f4]
class createBoard--><g id="elem_createBoard"><rect fill="#F1F1F1" height="48" id="createBoard" rx="2.5" ry="2.5" style="stroke:#181818;stroke-width:0.5;" width="110" x="621.5" y="311"/><ellipse cx="636.5" cy="327" fill="#ADD1B2" rx="11" ry="11" style="stroke:#181818;stroke-width:1.0;"/><path d="M639.2656,322.875 Q639.4219,322.6563 639.6094,322.5469 Q639.7969,322.4375 640.0156,322.4375 Q640.3906,322.4375 640.625,322.7031 Q640.8594,322.9531 640.8594,323.5625 L640.8594,325.0156 Q640.8594,325.625 640.625,325.8906 Q640.3906,326.1563 640.0156,326.1563 Q639.6719,326.1563 639.4688,325.9531 Q639.2656,325.7656 639.1563,325.25 Q639.1094,324.8906 638.9219,324.7031 Q638.5938,324.3281 637.9844,324.1094 Q637.375,323.8906 636.75,323.8906 Q635.9844,323.8906 635.3438,324.2188 Q634.7188,324.5469 634.2188,325.2969 Q633.7344,326.0469 633.7344,327.0781 L633.7344,328.1719 Q633.7344,329.4063 634.625,330.2344 Q635.5156,331.0469 637.1094,331.0469 Q638.0469,331.0469 638.7031,330.7969 Q639.0938,330.6406 639.5156,330.2031 Q639.7813,329.9375 639.9219,329.8594 Q640.0781,329.7813 640.2813,329.7813 Q640.6094,329.7813 640.8594,330.0469 Q641.125,330.2969 641.125,330.6406 Q641.125,330.9844 640.7813,331.3906 Q640.2813,331.9688 639.4844,332.2969 Q638.4063,332.75 637.1094,332.75 Q635.5938,332.75 634.3906,332.125 Q633.4063,331.625 632.7188,330.5625 Q632.0313,329.4844 632.0313,328.2031 L632.0313,327.0469 Q632.0313,325.7188 632.6406,324.5781 Q633.2656,323.4219 634.3594,322.8125 Q635.4531,322.1875 636.6875,322.1875 Q637.4219,322.1875 638.0625,322.3594 Q638.7188,322.5156 639.2656,322.875 Z " fill="#000000"/><text fill="#000000" font-family="sans-serif" font-size="14" lengthAdjust="spacing" textLength="78" x="650.5" y="332.7285">createBoard</text><line style="stroke:#181818;stroke-width:0.5;" x1="622.5" x2="730.5" y1="343" y2="343"/><line style="stroke:#181818;stroke-width:0.5;" x1="622.5" x2="730.5" y1="351" y2="351"/></g><!--MD5=[f466d7893f3afed6a957d6be4a37dba3]
link connect4 to yesNoDialogView--><g id="link_connect4_yesNoDialogView"><path codeLine="48" d="M350.88,108.03 C336.18,125.96 319.67,146.09 305.32,163.6 " fill="none" id="connect4-to-yesNoDialogView" style="stroke:#181818;stroke-width:1.0;stroke-dasharray:7.0,7.0;"/><polygon fill="#181818" points="302.1,167.53,310.8976,163.1026,305.2685,163.6621,304.709,158.033,302.1,167.53" style="stroke:#181818;stroke-width:1.0;"/></g><!--MD5=[ea84190eeea8c138bdee6014a86d54e0]
link connect4 to createGame--><g id="link_connect4_createGame"><path codeLine="49" d="M443.0247,117.0323 C443.0247,117.0323 479.66,158.69 494.52,175.56 " fill="none" id="connect4-createGame" style="stroke:#181818;stroke-width:1.0;"/><polygon fill="#181818" points="503.24,185.48,500.2975,176.081,499.937,181.7263,494.2916,181.3658,503.24,185.48" style="stroke:#181818;stroke-width:1.0;"/><line style="stroke:#181818;stroke-width:1.0;" x1="499.937" x2="494.655" y1="181.7263" y2="175.715"/><polygon fill="#181818" points="435.09,108.03,436.0566,115.176,443.0247,117.0323,442.0581,109.8863,435.09,108.03" style="stroke:#181818;stroke-width:1.0;"/></g><!--MD5=[ec1ece994f3ada0107ff17c3b0f121fd]
link connect4 to createGameView--><g id="link_connect4_createGameView"><path codeLine="50" d="M388.8125,120.0584 C388.8125,120.0584 383.03,252.97 381.08,297.81 " fill="none" id="connect4-createGameView" style="stroke:#181818;stroke-width:1.0;"/><polygon fill="#181818" points="380.51,310.9,384.9018,302.0845,380.7298,305.9048,376.9095,301.7329,380.51,310.9" style="stroke:#181818;stroke-width:1.0;"/><line style="stroke:#181818;stroke-width:1.0;" x1="380.7298" x2="381.075" y1="305.9048" y2="297.91"/><polygon fill="#181818" points="389.34,108.07,385.0801,113.8884,388.8125,120.0584,393.0724,114.24,389.34,108.07" style="stroke:#181818;stroke-width:1.0;"/></g><!--MD5=[64c09d77df9a907eeb4f92f38f173d12]
link createGame to createBoard--><g id="link_createGame_createBoard"><path codeLine="51" d="M552.28,233.73 C578.35,254.77 616.73,285.76 643.92,307.7 " fill="none" id="createGame-to-createBoard" style="stroke:#181818;stroke-width:1.0;"/><polygon fill="#181818" points="647.85,310.87,643.3522,302.1082,643.9568,307.7326,638.3324,308.3373,647.85,310.87" style="stroke:#181818;stroke-width:1.0;"/></g><!--MD5=[3a929eb252fb8d357e612e1b792cac90]
link createGame to createTurn--><g id="link_createGame_createTurn"><path codeLine="52" d="M525.76,233.73 C527.74,254.17 530.64,283.99 532.76,305.79 " fill="none" id="createGame-to-createTurn" style="stroke:#181818;stroke-width:1.0;"/><polygon fill="#181818" points="533.25,310.87,536.3559,301.5237,532.7638,305.8937,528.3938,302.3016,533.25,310.87" style="stroke:#181818;stroke-width:1.0;"/></g><!--MD5=[a2c90735ae535bc04173699571616d39]
link createGame to createGameView--><g id="link_createGame_createGameView"><path codeLine="55" d="M496.41,233.73 C471.98,254.69 436.05,285.5 410.48,307.43 " fill="none" id="createGame-to-createGameView" style="stroke:#181818;stroke-width:1.0;"/><polygon fill="#181818" points="406.46,310.87,415.8965,308.0499,410.2563,307.616,410.6901,301.9759,406.46,310.87" style="stroke:#181818;stroke-width:1.0;"/></g><!--MD5=[b924e8614d8805ae5029d930c205331b]
link createGameView to createBoardView--><g id="link_createGameView_createBoardView"><path codeLine="56" d="M304.9416,363.2002 C304.9416,363.2002 209.68,399.41 163.5,419 C154.75,422.71 145.58,426.78 136.6,430.87 " fill="none" id="createGameView-createBoardView" style="stroke:#181818;stroke-width:1.0;"/><polygon fill="#181818" points="124.55,436.41,134.398,436.2771,129.0912,434.3178,131.0505,429.0111,124.55,436.41" style="stroke:#181818;stroke-width:1.0;"/><line style="stroke:#181818;stroke-width:1.0;" x1="129.0912" x2="136.365" y1="434.3178" y2="430.975"/><polygon fill="none" points="316.19,359.02,309.1724,357.3607,304.9416,363.2002,311.9592,364.8596,316.19,359.02" style="stroke:#181818;stroke-width:1.0;"/></g><!--MD5=[4b32d2bb8083a1264e92add2b308ddf8]
link createGameView to createTurnView--><g id="link_createGameView_createTurnView"><path codeLine="57" d="M345.6841,367.3929 C345.6841,367.3929 300.74,409.13 281.16,427.32 " fill="none" id="createGameView-createTurnView" style="stroke:#181818;stroke-width:1.0;"/><polygon fill="#181818" points="271.4,436.37,280.7153,433.1723,275.0622,432.9658,275.2687,427.3128,271.4,436.37" style="stroke:#181818;stroke-width:1.0;"/><line style="stroke:#181818;stroke-width:1.0;" x1="275.0622" x2="280.93" y1="432.9658" y2="427.525"/><polygon fill="none" points="354.48,359.23,347.3611,360.3795,345.6841,367.3929,352.803,366.2434,354.48,359.23" style="stroke:#181818;stroke-width:1.0;"/></g><!--MD5=[f1452d55c5ce05c2fe81933fe73fe587]
link createGameView to messageView--><g id="link_createGameView_messageView"><path codeLine="58" d="M387.1385,370.9541 C387.1385,370.9541 395.1,407.37 398.65,423.57 " fill="none" id="createGameView-messageView" style="stroke:#181818;stroke-width:1.0;"/><polygon fill="#181818" points="401.44,436.37,403.4188,426.722,400.3687,431.4861,395.6046,428.436,401.44,436.37" style="stroke:#181818;stroke-width:1.0;"/><line style="stroke:#181818;stroke-width:1.0;" x1="400.3687" x2="398.665" y1="431.4861" y2="423.675"/><polygon fill="none" points="384.58,359.23,381.9512,365.9449,387.1385,370.9541,389.7673,364.2392,384.58,359.23" style="stroke:#181818;stroke-width:1.0;"/></g><!--MD5=[42a4b95ed3e8923cdf8c0ddb3f60d460]
link createBoard to createCoordinate--><g id="link_createBoard_createCoordinate"><path codeLine="60" d="M676.5,371.23 C676.5,371.23 676.5,407.14 676.5,423.15 " fill="none" id="createBoard-createCoordinate" style="stroke:#181818;stroke-width:1.0;"/><polygon fill="#181818" points="676.5,436.37,680.5,427.37,676.5,431.37,672.5,427.37,676.5,436.37" style="stroke:#181818;stroke-width:1.0;"/><line style="stroke:#181818;stroke-width:1.0;" x1="676.5" x2="676.5" y1="431.37" y2="423.37"/><polygon fill="#181818" points="676.5,359.23,672.5,365.23,676.5,371.23,680.5,365.23,676.5,359.23" style="stroke:#181818;stroke-width:1.0;"/></g><!--MD5=[d01fcd504ede8b974525d2fa59a24486]
link createTurn to colors--><g id="link_createTurn_colors"><path codeLine="62" d="M535.5,359.23 C535.5,374.56 535.5,395.16 535.5,413.7 " fill="none" id="createTurn-to-colors" style="stroke:#181818;stroke-width:1.0;"/><polygon fill="#181818" points="535.5,418.87,539.5,409.87,535.5,413.87,531.5,409.87,535.5,418.87" style="stroke:#181818;stroke-width:1.0;"/></g><!--MD5=[d42e4dd03900d35b2329ce607d16ed90]
@startuml

class connect4{
    - boardView
    - yesNoDialog
    + playGame()
}
class yesNoDialogView{
    + read(message)
    + isAffirmative()
}

class createGame{

}

class createGameView{

}


class createBoardView{

}

class createTurn{

}

class createTurnView{


}

class messageView{

}

class createCoordinate{

}

enum colors{
Red
Yellow
}


connect4 ..> yesNoDialogView
connect4 *- -> createGame
connect4 *- -> createGameView
createGame - -> createBoard
createGame - -> createTurn


createGame - -> createGameView
createGameView o- -> createBoardView
createGameView o- -> createTurnView
createGameView o- -> messageView

createBoard *- -> createCoordinate

createTurn - -> colors

@enduml

PlantUML version 1.2022.7(Mon Aug 22 19:01:30 CEST 2022)
(GPL source distribution)
Java Runtime: OpenJDK Runtime Environment
JVM: OpenJDK 64-Bit Server VM
Default Encoding: UTF-8
Language: es
Country: ES
--></g></svg>